%TF.GenerationSoftware,KiCad,Pcbnew,8.0.5*%
%TF.CreationDate,2024-12-30T22:08:37+01:00*%
%TF.ProjectId,Projet2,50726f6a-6574-4322-9e6b-696361645f70,V1*%
%TF.SameCoordinates,Original*%
%TF.FileFunction,Copper,L1,Top*%
%TF.FilePolarity,Positive*%
%FSLAX46Y46*%
G04 Gerber Fmt 4.6, Leading zero omitted, Abs format (unit mm)*
G04 Created by KiCad (PCBNEW 8.0.5) date 2024-12-30 22:08:37*
%MOMM*%
%LPD*%
G01*
G04 APERTURE LIST*
G04 Aperture macros list*
%AMRoundRect*
0 Rectangle with rounded corners*
0 $1 Rounding radius*
0 $2 $3 $4 $5 $6 $7 $8 $9 X,Y pos of 4 corners*
0 Add a 4 corners polygon primitive as box body*
4,1,4,$2,$3,$4,$5,$6,$7,$8,$9,$2,$3,0*
0 Add four circle primitives for the rounded corners*
1,1,$1+$1,$2,$3*
1,1,$1+$1,$4,$5*
1,1,$1+$1,$6,$7*
1,1,$1+$1,$8,$9*
0 Add four rect primitives between the rounded corners*
20,1,$1+$1,$2,$3,$4,$5,0*
20,1,$1+$1,$4,$5,$6,$7,0*
20,1,$1+$1,$6,$7,$8,$9,0*
20,1,$1+$1,$8,$9,$2,$3,0*%
G04 Aperture macros list end*
%TA.AperFunction,ComponentPad*%
%ADD10R,1.700000X1.700000*%
%TD*%
%TA.AperFunction,ComponentPad*%
%ADD11O,1.700000X1.700000*%
%TD*%
%TA.AperFunction,SMDPad,CuDef*%
%ADD12RoundRect,0.250000X-0.337500X-0.475000X0.337500X-0.475000X0.337500X0.475000X-0.337500X0.475000X0*%
%TD*%
%TA.AperFunction,SMDPad,CuDef*%
%ADD13RoundRect,0.250000X-1.250000X-0.550000X1.250000X-0.550000X1.250000X0.550000X-1.250000X0.550000X0*%
%TD*%
%TA.AperFunction,SMDPad,CuDef*%
%ADD14RoundRect,0.250000X0.337500X0.475000X-0.337500X0.475000X-0.337500X-0.475000X0.337500X-0.475000X0*%
%TD*%
%TA.AperFunction,SMDPad,CuDef*%
%ADD15R,0.400000X1.100000*%
%TD*%
%TA.AperFunction,ViaPad*%
%ADD16C,1.000000*%
%TD*%
%TA.AperFunction,ViaPad*%
%ADD17C,0.800000*%
%TD*%
%TA.AperFunction,Conductor*%
%ADD18C,1.000000*%
%TD*%
G04 APERTURE END LIST*
D10*
%TO.P,J3,1,Pin_1*%
%TO.N,VEE*%
X51960000Y-49750000D03*
D11*
%TO.P,J3,2,Pin_2*%
%TO.N,GND*%
X54500000Y-49750000D03*
%TD*%
D10*
%TO.P,J2,1,Pin_1*%
%TO.N,VEE*%
X64935000Y-49750000D03*
D11*
%TO.P,J2,2,Pin_2*%
%TO.N,GND*%
X67475000Y-49750000D03*
%TD*%
D12*
%TO.P,C2,2*%
%TO.N,VEE*%
X40825000Y-36350000D03*
%TO.P,C2,1*%
%TO.N,Net-(C1-Pad2)*%
X38750000Y-36350000D03*
%TD*%
D13*
%TO.P,C1,2*%
%TO.N,Net-(C1-Pad2)*%
X44300000Y-30700000D03*
%TO.P,C1,1*%
%TO.N,VCC*%
X39900000Y-30700000D03*
%TD*%
D14*
%TO.P,C3,2*%
%TO.N,GND*%
X38675000Y-40850000D03*
%TO.P,C3,1*%
%TO.N,VCC*%
X40750000Y-40850000D03*
%TD*%
D12*
%TO.P,C4,2*%
%TO.N,VEE*%
X40800000Y-38600000D03*
%TO.P,C4,1*%
%TO.N,GND*%
X38725000Y-38600000D03*
%TD*%
D15*
%TO.P,U1,1*%
%TO.N,N/C*%
X45275000Y-36550000D03*
%TO.P,U1,2*%
X44625000Y-36550000D03*
%TO.P,U1,3*%
X43975000Y-36550000D03*
%TO.P,U1,4,V-*%
%TO.N,VEE*%
X43325000Y-36550000D03*
%TO.P,U1,5*%
%TO.N,N/C*%
X43325000Y-40850000D03*
%TO.P,U1,6*%
X43975000Y-40850000D03*
%TO.P,U1,7*%
X44625000Y-40850000D03*
%TO.P,U1,8,V+*%
%TO.N,VCC*%
X45275000Y-40850000D03*
%TD*%
D11*
%TO.P,J1,3,Pin_3*%
%TO.N,VCC*%
X35100000Y-40355000D03*
%TO.P,J1,2,Pin_2*%
%TO.N,GND*%
X35100000Y-37815000D03*
D10*
%TO.P,J1,1,Pin_1*%
%TO.N,VEE*%
X35100000Y-35275000D03*
%TD*%
D16*
%TO.N,GND*%
X38100000Y-40800000D03*
X37900000Y-38800000D03*
D17*
%TO.N,Net-(C1-Pad2)*%
X37900000Y-36700000D03*
X37900000Y-33725000D03*
%TD*%
D18*
%TO.N,VEE*%
X43075000Y-35300000D02*
X43075000Y-36350000D01*
X43075000Y-36350000D02*
X40825000Y-36350000D01*
X46175000Y-35300000D02*
X43075000Y-35300000D01*
X51960000Y-49750000D02*
X51960000Y-41085000D01*
X51960000Y-41085000D02*
X46175000Y-35300000D01*
%TO.N,GND*%
X38150000Y-40850000D02*
X38100000Y-40800000D01*
X38675000Y-40850000D02*
X38150000Y-40850000D01*
%TO.N,VCC*%
X40750000Y-41575000D02*
X40050000Y-42275000D01*
X40750000Y-40850000D02*
X40750000Y-41575000D01*
%TO.N,VEE*%
X63385000Y-48200000D02*
X64935000Y-49750000D01*
X53510000Y-48200000D02*
X63385000Y-48200000D01*
X51960000Y-49750000D02*
X53510000Y-48200000D01*
%TO.N,VCC*%
X39900000Y-30700000D02*
X38400000Y-32200000D01*
%TO.N,Net-(C1-Pad2)*%
X41275000Y-33725000D02*
X37900000Y-33725000D01*
X44300000Y-30700000D02*
X41275000Y-33725000D01*
%TO.N,VCC*%
X45200000Y-42600000D02*
X45525000Y-42275000D01*
X41700000Y-42600000D02*
X45200000Y-42600000D01*
X40750000Y-41650000D02*
X41700000Y-42600000D01*
X40750000Y-40850000D02*
X40750000Y-41650000D01*
X45525000Y-42275000D02*
X45525000Y-40850000D01*
%TO.N,VEE*%
X40825000Y-38575000D02*
X40800000Y-38600000D01*
X40825000Y-36350000D02*
X40825000Y-38575000D01*
X40825000Y-36262070D02*
X40825000Y-36350000D01*
X39487930Y-34925000D02*
X40825000Y-36262070D01*
%TO.N,Net-(C1-Pad2)*%
X37900000Y-36700000D02*
X38400000Y-36700000D01*
X38400000Y-36700000D02*
X38750000Y-36350000D01*
%TO.N,GND*%
X38725000Y-38600000D02*
X38100000Y-38600000D01*
X38100000Y-38600000D02*
X37900000Y-38800000D01*
%TO.N,VCC*%
X37020000Y-42275000D02*
X35100000Y-40355000D01*
X40050000Y-42275000D02*
X37020000Y-42275000D01*
%TO.N,VEE*%
X35100000Y-35275000D02*
X35450000Y-34925000D01*
X35450000Y-34925000D02*
X39487930Y-34925000D01*
%TO.N,VCC*%
X33550000Y-38805000D02*
X35100000Y-40355000D01*
X35075000Y-32200000D02*
X33550000Y-33725000D01*
X38400000Y-32200000D02*
X35075000Y-32200000D01*
X33550000Y-33725000D02*
X33550000Y-38805000D01*
%TD*%
M02*
