%TF.GenerationSoftware,KiCad,Pcbnew,8.0.5*%
%TF.CreationDate,2024-12-30T22:08:37+01:00*%
%TF.ProjectId,Projet2,50726f6a-6574-4322-9e6b-696361645f70,V1*%
%TF.SameCoordinates,Original*%
%TF.FileFunction,Copper,L2,Bot*%
%TF.FilePolarity,Positive*%
%FSLAX46Y46*%
G04 Gerber Fmt 4.6, Leading zero omitted, Abs format (unit mm)*
G04 Created by KiCad (PCBNEW 8.0.5) date 2024-12-30 22:08:37*
%MOMM*%
%LPD*%
G01*
G04 APERTURE LIST*
%TA.AperFunction,ComponentPad*%
%ADD10R,1.700000X1.700000*%
%TD*%
%TA.AperFunction,ComponentPad*%
%ADD11O,1.700000X1.700000*%
%TD*%
%TA.AperFunction,ViaPad*%
%ADD12C,1.000000*%
%TD*%
%TA.AperFunction,ViaPad*%
%ADD13C,0.800000*%
%TD*%
%TA.AperFunction,Conductor*%
%ADD14C,1.000000*%
%TD*%
G04 APERTURE END LIST*
D10*
%TO.P,J3,1,Pin_1*%
%TO.N,VEE*%
X51960000Y-49750000D03*
D11*
%TO.P,J3,2,Pin_2*%
%TO.N,GND*%
X54500000Y-49750000D03*
%TD*%
D10*
%TO.P,J2,1,Pin_1*%
%TO.N,VEE*%
X64935000Y-49750000D03*
D11*
%TO.P,J2,2,Pin_2*%
%TO.N,GND*%
X67475000Y-49750000D03*
%TD*%
%TO.P,J1,3,Pin_3*%
%TO.N,VCC*%
X35100000Y-40355000D03*
%TO.P,J1,2,Pin_2*%
%TO.N,GND*%
X35100000Y-37815000D03*
D10*
%TO.P,J1,1,Pin_1*%
%TO.N,VEE*%
X35100000Y-35275000D03*
%TD*%
D12*
%TO.N,GND*%
X38100000Y-40800000D03*
X37900000Y-38800000D03*
D13*
%TO.N,Net-(C1-Pad2)*%
X37900000Y-36700000D03*
X37900000Y-33725000D03*
%TD*%
D14*
%TO.N,Net-(C1-Pad2)*%
X37900000Y-33725000D02*
X37900000Y-36700000D01*
%TD*%
%TA.AperFunction,Conductor*%
%TO.N,GND*%
G36*
X70442539Y-25520185D02*
G01*
X70488294Y-25572989D01*
X70499500Y-25624500D01*
X70499500Y-53375500D01*
X70479815Y-53442539D01*
X70427011Y-53488294D01*
X70375500Y-53499500D01*
X25624500Y-53499500D01*
X25557461Y-53479815D01*
X25511706Y-53427011D01*
X25500500Y-53375500D01*
X25500500Y-48852135D01*
X50609500Y-48852135D01*
X50609500Y-50647870D01*
X50609501Y-50647876D01*
X50615908Y-50707483D01*
X50666202Y-50842328D01*
X50666206Y-50842335D01*
X50752452Y-50957544D01*
X50752455Y-50957547D01*
X50867664Y-51043793D01*
X50867671Y-51043797D01*
X51002517Y-51094091D01*
X51002516Y-51094091D01*
X51009444Y-51094835D01*
X51062127Y-51100500D01*
X52857872Y-51100499D01*
X52917483Y-51094091D01*
X53052331Y-51043796D01*
X53167546Y-50957546D01*
X53253796Y-50842331D01*
X53303002Y-50710401D01*
X53344872Y-50654468D01*
X53410337Y-50630050D01*
X53478610Y-50644901D01*
X53506865Y-50666053D01*
X53628917Y-50788105D01*
X53822421Y-50923600D01*
X54036507Y-51023429D01*
X54036516Y-51023433D01*
X54250000Y-51080634D01*
X54250000Y-50183012D01*
X54307007Y-50215925D01*
X54434174Y-50250000D01*
X54565826Y-50250000D01*
X54692993Y-50215925D01*
X54750000Y-50183012D01*
X54750000Y-51080633D01*
X54963483Y-51023433D01*
X54963492Y-51023429D01*
X55177578Y-50923600D01*
X55371082Y-50788105D01*
X55538105Y-50621082D01*
X55673600Y-50427578D01*
X55773429Y-50213492D01*
X55773432Y-50213486D01*
X55830636Y-50000000D01*
X54933012Y-50000000D01*
X54965925Y-49942993D01*
X55000000Y-49815826D01*
X55000000Y-49684174D01*
X54965925Y-49557007D01*
X54933012Y-49500000D01*
X55830636Y-49500000D01*
X55830635Y-49499999D01*
X55773432Y-49286513D01*
X55773429Y-49286507D01*
X55673600Y-49072422D01*
X55673599Y-49072420D01*
X55538113Y-48878926D01*
X55538108Y-48878920D01*
X55511323Y-48852135D01*
X63584500Y-48852135D01*
X63584500Y-50647870D01*
X63584501Y-50647876D01*
X63590908Y-50707483D01*
X63641202Y-50842328D01*
X63641206Y-50842335D01*
X63727452Y-50957544D01*
X63727455Y-50957547D01*
X63842664Y-51043793D01*
X63842671Y-51043797D01*
X63977517Y-51094091D01*
X63977516Y-51094091D01*
X63984444Y-51094835D01*
X64037127Y-51100500D01*
X65832872Y-51100499D01*
X65892483Y-51094091D01*
X66027331Y-51043796D01*
X66142546Y-50957546D01*
X66228796Y-50842331D01*
X66278002Y-50710401D01*
X66319872Y-50654468D01*
X66385337Y-50630050D01*
X66453610Y-50644901D01*
X66481865Y-50666053D01*
X66603917Y-50788105D01*
X66797421Y-50923600D01*
X67011507Y-51023429D01*
X67011516Y-51023433D01*
X67225000Y-51080634D01*
X67225000Y-50183012D01*
X67282007Y-50215925D01*
X67409174Y-50250000D01*
X67540826Y-50250000D01*
X67667993Y-50215925D01*
X67725000Y-50183012D01*
X67725000Y-51080633D01*
X67938483Y-51023433D01*
X67938492Y-51023429D01*
X68152578Y-50923600D01*
X68346082Y-50788105D01*
X68513105Y-50621082D01*
X68648600Y-50427578D01*
X68748429Y-50213492D01*
X68748432Y-50213486D01*
X68805636Y-50000000D01*
X67908012Y-50000000D01*
X67940925Y-49942993D01*
X67975000Y-49815826D01*
X67975000Y-49684174D01*
X67940925Y-49557007D01*
X67908012Y-49500000D01*
X68805636Y-49500000D01*
X68805635Y-49499999D01*
X68748432Y-49286513D01*
X68748429Y-49286507D01*
X68648600Y-49072422D01*
X68648599Y-49072420D01*
X68513113Y-48878926D01*
X68513108Y-48878920D01*
X68346082Y-48711894D01*
X68152578Y-48576399D01*
X67938492Y-48476570D01*
X67938486Y-48476567D01*
X67725000Y-48419364D01*
X67725000Y-49316988D01*
X67667993Y-49284075D01*
X67540826Y-49250000D01*
X67409174Y-49250000D01*
X67282007Y-49284075D01*
X67225000Y-49316988D01*
X67225000Y-48419364D01*
X67224999Y-48419364D01*
X67011513Y-48476567D01*
X67011507Y-48476570D01*
X66797422Y-48576399D01*
X66797420Y-48576400D01*
X66603926Y-48711886D01*
X66481865Y-48833947D01*
X66420542Y-48867431D01*
X66350850Y-48862447D01*
X66294917Y-48820575D01*
X66278002Y-48789598D01*
X66228797Y-48657671D01*
X66228793Y-48657664D01*
X66142547Y-48542455D01*
X66142544Y-48542452D01*
X66027335Y-48456206D01*
X66027328Y-48456202D01*
X65892482Y-48405908D01*
X65892483Y-48405908D01*
X65832883Y-48399501D01*
X65832881Y-48399500D01*
X65832873Y-48399500D01*
X65832864Y-48399500D01*
X64037129Y-48399500D01*
X64037123Y-48399501D01*
X63977516Y-48405908D01*
X63842671Y-48456202D01*
X63842664Y-48456206D01*
X63727455Y-48542452D01*
X63727452Y-48542455D01*
X63641206Y-48657664D01*
X63641202Y-48657671D01*
X63590908Y-48792517D01*
X63584501Y-48852116D01*
X63584500Y-48852135D01*
X55511323Y-48852135D01*
X55371082Y-48711894D01*
X55177578Y-48576399D01*
X54963492Y-48476570D01*
X54963486Y-48476567D01*
X54750000Y-48419364D01*
X54750000Y-49316988D01*
X54692993Y-49284075D01*
X54565826Y-49250000D01*
X54434174Y-49250000D01*
X54307007Y-49284075D01*
X54250000Y-49316988D01*
X54250000Y-48419364D01*
X54249999Y-48419364D01*
X54036513Y-48476567D01*
X54036507Y-48476570D01*
X53822422Y-48576399D01*
X53822420Y-48576400D01*
X53628926Y-48711886D01*
X53506865Y-48833947D01*
X53445542Y-48867431D01*
X53375850Y-48862447D01*
X53319917Y-48820575D01*
X53303002Y-48789598D01*
X53253797Y-48657671D01*
X53253793Y-48657664D01*
X53167547Y-48542455D01*
X53167544Y-48542452D01*
X53052335Y-48456206D01*
X53052328Y-48456202D01*
X52917482Y-48405908D01*
X52917483Y-48405908D01*
X52857883Y-48399501D01*
X52857881Y-48399500D01*
X52857873Y-48399500D01*
X52857864Y-48399500D01*
X51062129Y-48399500D01*
X51062123Y-48399501D01*
X51002516Y-48405908D01*
X50867671Y-48456202D01*
X50867664Y-48456206D01*
X50752455Y-48542452D01*
X50752452Y-48542455D01*
X50666206Y-48657664D01*
X50666202Y-48657671D01*
X50615908Y-48792517D01*
X50609501Y-48852116D01*
X50609500Y-48852135D01*
X25500500Y-48852135D01*
X25500500Y-40354999D01*
X33744341Y-40354999D01*
X33744341Y-40355000D01*
X33764936Y-40590403D01*
X33764938Y-40590413D01*
X33826094Y-40818655D01*
X33826096Y-40818659D01*
X33826097Y-40818663D01*
X33925965Y-41032830D01*
X33925967Y-41032834D01*
X34034281Y-41187521D01*
X34061505Y-41226401D01*
X34228599Y-41393495D01*
X34325384Y-41461265D01*
X34422165Y-41529032D01*
X34422167Y-41529033D01*
X34422170Y-41529035D01*
X34636337Y-41628903D01*
X34864592Y-41690063D01*
X35052918Y-41706539D01*
X35099999Y-41710659D01*
X35100000Y-41710659D01*
X35100001Y-41710659D01*
X35139234Y-41707226D01*
X35335408Y-41690063D01*
X35563663Y-41628903D01*
X35777830Y-41529035D01*
X35971401Y-41393495D01*
X36138495Y-41226401D01*
X36274035Y-41032830D01*
X36373903Y-40818663D01*
X36435063Y-40590408D01*
X36455659Y-40355000D01*
X36435063Y-40119592D01*
X36373903Y-39891337D01*
X36274035Y-39677171D01*
X36138495Y-39483599D01*
X36138494Y-39483597D01*
X35971402Y-39316506D01*
X35971401Y-39316505D01*
X35785405Y-39186269D01*
X35741781Y-39131692D01*
X35734588Y-39062193D01*
X35766110Y-38999839D01*
X35785405Y-38983119D01*
X35971082Y-38853105D01*
X36138105Y-38686082D01*
X36273600Y-38492578D01*
X36373429Y-38278492D01*
X36373432Y-38278486D01*
X36430636Y-38065000D01*
X35533012Y-38065000D01*
X35565925Y-38007993D01*
X35600000Y-37880826D01*
X35600000Y-37749174D01*
X35565925Y-37622007D01*
X35533012Y-37565000D01*
X36430636Y-37565000D01*
X36430635Y-37564999D01*
X36373432Y-37351513D01*
X36373429Y-37351507D01*
X36273600Y-37137422D01*
X36273599Y-37137420D01*
X36138113Y-36943926D01*
X36138108Y-36943920D01*
X36016053Y-36821865D01*
X36003318Y-36798543D01*
X36899499Y-36798543D01*
X36937947Y-36991829D01*
X36937950Y-36991839D01*
X37013364Y-37173907D01*
X37013371Y-37173920D01*
X37122860Y-37337781D01*
X37122863Y-37337785D01*
X37262214Y-37477136D01*
X37262218Y-37477139D01*
X37426079Y-37586628D01*
X37426092Y-37586635D01*
X37511489Y-37622007D01*
X37608165Y-37662051D01*
X37608169Y-37662051D01*
X37608170Y-37662052D01*
X37801456Y-37700500D01*
X37801459Y-37700500D01*
X37998543Y-37700500D01*
X38128582Y-37674632D01*
X38191835Y-37662051D01*
X38373914Y-37586632D01*
X38537782Y-37477139D01*
X38677139Y-37337782D01*
X38786632Y-37173914D01*
X38862051Y-36991835D01*
X38900500Y-36798541D01*
X38900500Y-33626459D01*
X38900500Y-33626456D01*
X38862052Y-33433170D01*
X38862051Y-33433169D01*
X38862051Y-33433165D01*
X38862049Y-33433160D01*
X38786635Y-33251092D01*
X38786628Y-33251079D01*
X38677139Y-33087218D01*
X38677136Y-33087214D01*
X38537785Y-32947863D01*
X38537781Y-32947860D01*
X38373920Y-32838371D01*
X38373907Y-32838364D01*
X38191839Y-32762950D01*
X38191829Y-32762947D01*
X37998543Y-32724500D01*
X37998541Y-32724500D01*
X37801459Y-32724500D01*
X37801457Y-32724500D01*
X37608170Y-32762947D01*
X37608160Y-32762950D01*
X37426092Y-32838364D01*
X37426079Y-32838371D01*
X37262218Y-32947860D01*
X37262214Y-32947863D01*
X37122863Y-33087214D01*
X37122860Y-33087218D01*
X37013371Y-33251079D01*
X37013364Y-33251092D01*
X36937950Y-33433160D01*
X36937947Y-33433170D01*
X36899500Y-33626456D01*
X36899500Y-33626459D01*
X36899500Y-36798541D01*
X36899500Y-36798543D01*
X36899499Y-36798543D01*
X36003318Y-36798543D01*
X35982568Y-36760542D01*
X35987552Y-36690850D01*
X36029424Y-36634917D01*
X36060400Y-36618002D01*
X36192331Y-36568796D01*
X36307546Y-36482546D01*
X36393796Y-36367331D01*
X36444091Y-36232483D01*
X36450500Y-36172873D01*
X36450499Y-34377128D01*
X36444091Y-34317517D01*
X36393796Y-34182669D01*
X36393795Y-34182668D01*
X36393793Y-34182664D01*
X36307547Y-34067455D01*
X36307544Y-34067452D01*
X36192335Y-33981206D01*
X36192328Y-33981202D01*
X36057482Y-33930908D01*
X36057483Y-33930908D01*
X35997883Y-33924501D01*
X35997881Y-33924500D01*
X35997873Y-33924500D01*
X35997864Y-33924500D01*
X34202129Y-33924500D01*
X34202123Y-33924501D01*
X34142516Y-33930908D01*
X34007671Y-33981202D01*
X34007664Y-33981206D01*
X33892455Y-34067452D01*
X33892452Y-34067455D01*
X33806206Y-34182664D01*
X33806202Y-34182671D01*
X33755908Y-34317517D01*
X33749501Y-34377116D01*
X33749501Y-34377123D01*
X33749500Y-34377135D01*
X33749500Y-36172870D01*
X33749501Y-36172876D01*
X33755908Y-36232483D01*
X33806202Y-36367328D01*
X33806206Y-36367335D01*
X33892452Y-36482544D01*
X33892455Y-36482547D01*
X34007664Y-36568793D01*
X34007671Y-36568797D01*
X34007674Y-36568798D01*
X34139598Y-36618002D01*
X34195531Y-36659873D01*
X34219949Y-36725337D01*
X34205098Y-36793610D01*
X34183947Y-36821865D01*
X34061886Y-36943926D01*
X33926400Y-37137420D01*
X33926399Y-37137422D01*
X33826570Y-37351507D01*
X33826567Y-37351513D01*
X33769364Y-37564999D01*
X33769364Y-37565000D01*
X34666988Y-37565000D01*
X34634075Y-37622007D01*
X34600000Y-37749174D01*
X34600000Y-37880826D01*
X34634075Y-38007993D01*
X34666988Y-38065000D01*
X33769364Y-38065000D01*
X33826567Y-38278486D01*
X33826570Y-38278492D01*
X33926399Y-38492578D01*
X34061894Y-38686082D01*
X34228917Y-38853105D01*
X34414595Y-38983119D01*
X34458219Y-39037696D01*
X34465412Y-39107195D01*
X34433890Y-39169549D01*
X34414595Y-39186269D01*
X34228594Y-39316508D01*
X34061505Y-39483597D01*
X33925965Y-39677169D01*
X33925964Y-39677171D01*
X33826098Y-39891335D01*
X33826094Y-39891344D01*
X33764938Y-40119586D01*
X33764936Y-40119596D01*
X33744341Y-40354999D01*
X25500500Y-40354999D01*
X25500500Y-25624500D01*
X25520185Y-25557461D01*
X25572989Y-25511706D01*
X25624500Y-25500500D01*
X70375500Y-25500500D01*
X70442539Y-25520185D01*
G37*
%TD.AperFunction*%
%TD*%
M02*
