%TF.GenerationSoftware,KiCad,Pcbnew,8.0.5*%
%TF.CreationDate,2024-12-30T22:08:37+01:00*%
%TF.ProjectId,Projet2,50726f6a-6574-4322-9e6b-696361645f70,V1*%
%TF.SameCoordinates,Original*%
%TF.FileFunction,Legend,Bot*%
%TF.FilePolarity,Positive*%
%FSLAX46Y46*%
G04 Gerber Fmt 4.6, Leading zero omitted, Abs format (unit mm)*
G04 Created by KiCad (PCBNEW 8.0.5) date 2024-12-30 22:08:37*
%MOMM*%
%LPD*%
G01*
G04 APERTURE LIST*
%ADD10C,0.150000*%
%ADD11C,0.120000*%
G04 APERTURE END LIST*
D10*
X61354819Y-49416666D02*
X62069104Y-49416666D01*
X62069104Y-49416666D02*
X62211961Y-49369047D01*
X62211961Y-49369047D02*
X62307200Y-49273809D01*
X62307200Y-49273809D02*
X62354819Y-49130952D01*
X62354819Y-49130952D02*
X62354819Y-49035714D01*
X61450057Y-49845238D02*
X61402438Y-49892857D01*
X61402438Y-49892857D02*
X61354819Y-49988095D01*
X61354819Y-49988095D02*
X61354819Y-50226190D01*
X61354819Y-50226190D02*
X61402438Y-50321428D01*
X61402438Y-50321428D02*
X61450057Y-50369047D01*
X61450057Y-50369047D02*
X61545295Y-50416666D01*
X61545295Y-50416666D02*
X61640533Y-50416666D01*
X61640533Y-50416666D02*
X61783390Y-50369047D01*
X61783390Y-50369047D02*
X62354819Y-49797619D01*
X62354819Y-49797619D02*
X62354819Y-50416666D01*
D11*
%TO.C,J2*%
X63605000Y-49750000D02*
X63605000Y-48420000D01*
X63605000Y-48420000D02*
X64935000Y-48420000D01*
X68805000Y-48420000D02*
X66205000Y-48420000D01*
X66205000Y-51080000D02*
X66205000Y-48420000D01*
X68805000Y-51080000D02*
X68805000Y-48420000D01*
X68805000Y-51080000D02*
X66205000Y-51080000D01*
%TD*%
M02*
