%TF.GenerationSoftware,KiCad,Pcbnew,8.0.5*%
%TF.CreationDate,2025-01-04T02:07:05+01:00*%
%TF.ProjectId,Design_udemy_1,44657369-676e-45f7-9564-656d795f312e,rev?*%
%TF.SameCoordinates,Original*%
%TF.FileFunction,Legend,Top*%
%TF.FilePolarity,Positive*%
%FSLAX46Y46*%
G04 Gerber Fmt 4.6, Leading zero omitted, Abs format (unit mm)*
G04 Created by KiCad (PCBNEW 8.0.5) date 2025-01-04 02:07:05*
%MOMM*%
%LPD*%
G01*
G04 APERTURE LIST*
%ADD10C,0.300000*%
%ADD11C,0.150000*%
%ADD12C,0.120000*%
G04 APERTURE END LIST*
D10*
X81554510Y-79029400D02*
X82697368Y-79029400D01*
X81154510Y-70629400D02*
X82297368Y-70629400D01*
X81725939Y-71200828D02*
X81725939Y-70057971D01*
D11*
X98433333Y-80034819D02*
X98100000Y-79558628D01*
X97861905Y-80034819D02*
X97861905Y-79034819D01*
X97861905Y-79034819D02*
X98242857Y-79034819D01*
X98242857Y-79034819D02*
X98338095Y-79082438D01*
X98338095Y-79082438D02*
X98385714Y-79130057D01*
X98385714Y-79130057D02*
X98433333Y-79225295D01*
X98433333Y-79225295D02*
X98433333Y-79368152D01*
X98433333Y-79368152D02*
X98385714Y-79463390D01*
X98385714Y-79463390D02*
X98338095Y-79511009D01*
X98338095Y-79511009D02*
X98242857Y-79558628D01*
X98242857Y-79558628D02*
X97861905Y-79558628D01*
X99385714Y-80034819D02*
X98814286Y-80034819D01*
X99100000Y-80034819D02*
X99100000Y-79034819D01*
X99100000Y-79034819D02*
X99004762Y-79177676D01*
X99004762Y-79177676D02*
X98909524Y-79272914D01*
X98909524Y-79272914D02*
X98814286Y-79320533D01*
X84081666Y-77824819D02*
X84081666Y-78539104D01*
X84081666Y-78539104D02*
X84034047Y-78681961D01*
X84034047Y-78681961D02*
X83938809Y-78777200D01*
X83938809Y-78777200D02*
X83795952Y-78824819D01*
X83795952Y-78824819D02*
X83700714Y-78824819D01*
X85081666Y-78824819D02*
X84510238Y-78824819D01*
X84795952Y-78824819D02*
X84795952Y-77824819D01*
X84795952Y-77824819D02*
X84700714Y-77967676D01*
X84700714Y-77967676D02*
X84605476Y-78062914D01*
X84605476Y-78062914D02*
X84510238Y-78110533D01*
X97891905Y-67194819D02*
X97891905Y-66194819D01*
X97891905Y-66194819D02*
X98130000Y-66194819D01*
X98130000Y-66194819D02*
X98272857Y-66242438D01*
X98272857Y-66242438D02*
X98368095Y-66337676D01*
X98368095Y-66337676D02*
X98415714Y-66432914D01*
X98415714Y-66432914D02*
X98463333Y-66623390D01*
X98463333Y-66623390D02*
X98463333Y-66766247D01*
X98463333Y-66766247D02*
X98415714Y-66956723D01*
X98415714Y-66956723D02*
X98368095Y-67051961D01*
X98368095Y-67051961D02*
X98272857Y-67147200D01*
X98272857Y-67147200D02*
X98130000Y-67194819D01*
X98130000Y-67194819D02*
X97891905Y-67194819D01*
X99415714Y-67194819D02*
X98844286Y-67194819D01*
X99130000Y-67194819D02*
X99130000Y-66194819D01*
X99130000Y-66194819D02*
X99034762Y-66337676D01*
X99034762Y-66337676D02*
X98939524Y-66432914D01*
X98939524Y-66432914D02*
X98844286Y-66480533D01*
D12*
%TO.C,R1*%
X96680000Y-80580000D02*
X100520000Y-80580000D01*
X96680000Y-82420000D02*
X100520000Y-82420000D01*
%TO.C,J1*%
X90070000Y-77370000D02*
X88800000Y-77370000D01*
X90070000Y-76100000D02*
X90070000Y-77370000D01*
X87757071Y-73940000D02*
X87360000Y-73940000D01*
X87757071Y-73180000D02*
X87360000Y-73180000D01*
X87690000Y-76480000D02*
X87360000Y-76480000D01*
X87690000Y-75720000D02*
X87360000Y-75720000D01*
X87360000Y-77430000D02*
X87360000Y-72230000D01*
X87360000Y-74830000D02*
X84700000Y-74830000D01*
X87360000Y-72230000D02*
X84700000Y-72230000D01*
X84700000Y-77430000D02*
X87360000Y-77430000D01*
X84700000Y-76480000D02*
X78700000Y-76480000D01*
X84700000Y-76420000D02*
X78700000Y-76420000D01*
X84700000Y-76300000D02*
X78700000Y-76300000D01*
X84700000Y-76180000D02*
X78700000Y-76180000D01*
X84700000Y-76060000D02*
X78700000Y-76060000D01*
X84700000Y-75940000D02*
X78700000Y-75940000D01*
X84700000Y-75820000D02*
X78700000Y-75820000D01*
X84700000Y-73940000D02*
X78700000Y-73940000D01*
X84700000Y-72230000D02*
X84700000Y-77430000D01*
X78700000Y-76480000D02*
X78700000Y-75720000D01*
X78700000Y-75720000D02*
X84700000Y-75720000D01*
X78700000Y-73940000D02*
X78700000Y-73180000D01*
X78700000Y-73180000D02*
X84700000Y-73180000D01*
%TO.C,D1*%
X97070000Y-68464000D02*
X97070000Y-68620000D01*
X97070000Y-70780000D02*
X97070000Y-70936000D01*
X97070000Y-68464484D02*
G75*
G02*
X100302335Y-68621392I1560000J-1235516D01*
G01*
X97589039Y-68620000D02*
G75*
G02*
X99671130Y-68620163I1040961J-1080000D01*
G01*
X99671130Y-70779837D02*
G75*
G02*
X97589039Y-70780000I-1041130J1079837D01*
G01*
X100302335Y-70778608D02*
G75*
G02*
X97070000Y-70935516I-1672335J1078608D01*
G01*
%TD*%
M02*
