%TF.GenerationSoftware,KiCad,Pcbnew,8.0.5*%
%TF.CreationDate,2025-01-06T05:05:23+01:00*%
%TF.ProjectId,my_Project2,6d795f50-726f-46a6-9563-74322e6b6963,rev?*%
%TF.SameCoordinates,Original*%
%TF.FileFunction,Legend,Top*%
%TF.FilePolarity,Positive*%
%FSLAX46Y46*%
G04 Gerber Fmt 4.6, Leading zero omitted, Abs format (unit mm)*
G04 Created by KiCad (PCBNEW 8.0.5) date 2025-01-06 05:05:23*
%MOMM*%
%LPD*%
G01*
G04 APERTURE LIST*
%ADD10C,0.100000*%
%ADD11C,0.150000*%
%ADD12C,0.120000*%
G04 APERTURE END LIST*
D10*
X72937217Y-68711228D02*
X72222931Y-68711228D01*
X72222931Y-68711228D02*
X72151503Y-69425514D01*
X72151503Y-69425514D02*
X72222931Y-69354085D01*
X72222931Y-69354085D02*
X72365789Y-69282657D01*
X72365789Y-69282657D02*
X72722931Y-69282657D01*
X72722931Y-69282657D02*
X72865789Y-69354085D01*
X72865789Y-69354085D02*
X72937217Y-69425514D01*
X72937217Y-69425514D02*
X73008646Y-69568371D01*
X73008646Y-69568371D02*
X73008646Y-69925514D01*
X73008646Y-69925514D02*
X72937217Y-70068371D01*
X72937217Y-70068371D02*
X72865789Y-70139800D01*
X72865789Y-70139800D02*
X72722931Y-70211228D01*
X72722931Y-70211228D02*
X72365789Y-70211228D01*
X72365789Y-70211228D02*
X72222931Y-70139800D01*
X72222931Y-70139800D02*
X72151503Y-70068371D01*
X73437217Y-68711228D02*
X73937217Y-70211228D01*
X73937217Y-70211228D02*
X74437217Y-68711228D01*
X76080073Y-69639800D02*
X77222931Y-69639800D01*
X79865788Y-70211228D02*
X79008645Y-70211228D01*
X79437216Y-70211228D02*
X79437216Y-68711228D01*
X79437216Y-68711228D02*
X79294359Y-68925514D01*
X79294359Y-68925514D02*
X79151502Y-69068371D01*
X79151502Y-69068371D02*
X79008645Y-69139800D01*
X80437216Y-68854085D02*
X80508644Y-68782657D01*
X80508644Y-68782657D02*
X80651502Y-68711228D01*
X80651502Y-68711228D02*
X81008644Y-68711228D01*
X81008644Y-68711228D02*
X81151502Y-68782657D01*
X81151502Y-68782657D02*
X81222930Y-68854085D01*
X81222930Y-68854085D02*
X81294359Y-68996942D01*
X81294359Y-68996942D02*
X81294359Y-69139800D01*
X81294359Y-69139800D02*
X81222930Y-69354085D01*
X81222930Y-69354085D02*
X80365787Y-70211228D01*
X80365787Y-70211228D02*
X81294359Y-70211228D01*
X81722930Y-68711228D02*
X82222930Y-70211228D01*
X82222930Y-70211228D02*
X82722930Y-68711228D01*
X88556265Y-56896895D02*
X88556265Y-56096895D01*
X88556265Y-56096895D02*
X88861027Y-56096895D01*
X88861027Y-56096895D02*
X88937217Y-56134990D01*
X88937217Y-56134990D02*
X88975312Y-56173085D01*
X88975312Y-56173085D02*
X89013408Y-56249276D01*
X89013408Y-56249276D02*
X89013408Y-56363561D01*
X89013408Y-56363561D02*
X88975312Y-56439752D01*
X88975312Y-56439752D02*
X88937217Y-56477847D01*
X88937217Y-56477847D02*
X88861027Y-56515942D01*
X88861027Y-56515942D02*
X88556265Y-56515942D01*
X89280074Y-56096895D02*
X89470550Y-56896895D01*
X89470550Y-56896895D02*
X89622931Y-56325466D01*
X89622931Y-56325466D02*
X89775312Y-56896895D01*
X89775312Y-56896895D02*
X89965789Y-56096895D01*
X90727694Y-56896895D02*
X90461027Y-56515942D01*
X90270551Y-56896895D02*
X90270551Y-56096895D01*
X90270551Y-56096895D02*
X90575313Y-56096895D01*
X90575313Y-56096895D02*
X90651503Y-56134990D01*
X90651503Y-56134990D02*
X90689598Y-56173085D01*
X90689598Y-56173085D02*
X90727694Y-56249276D01*
X90727694Y-56249276D02*
X90727694Y-56363561D01*
X90727694Y-56363561D02*
X90689598Y-56439752D01*
X90689598Y-56439752D02*
X90651503Y-56477847D01*
X90651503Y-56477847D02*
X90575313Y-56515942D01*
X90575313Y-56515942D02*
X90270551Y-56515942D01*
X148975312Y-70634990D02*
X148899122Y-70596895D01*
X148899122Y-70596895D02*
X148784836Y-70596895D01*
X148784836Y-70596895D02*
X148670550Y-70634990D01*
X148670550Y-70634990D02*
X148594360Y-70711180D01*
X148594360Y-70711180D02*
X148556265Y-70787371D01*
X148556265Y-70787371D02*
X148518169Y-70939752D01*
X148518169Y-70939752D02*
X148518169Y-71054038D01*
X148518169Y-71054038D02*
X148556265Y-71206419D01*
X148556265Y-71206419D02*
X148594360Y-71282609D01*
X148594360Y-71282609D02*
X148670550Y-71358800D01*
X148670550Y-71358800D02*
X148784836Y-71396895D01*
X148784836Y-71396895D02*
X148861027Y-71396895D01*
X148861027Y-71396895D02*
X148975312Y-71358800D01*
X148975312Y-71358800D02*
X149013408Y-71320704D01*
X149013408Y-71320704D02*
X149013408Y-71054038D01*
X149013408Y-71054038D02*
X148861027Y-71054038D01*
X149356265Y-71396895D02*
X149356265Y-70596895D01*
X149356265Y-70596895D02*
X149813408Y-71396895D01*
X149813408Y-71396895D02*
X149813408Y-70596895D01*
X150194360Y-71396895D02*
X150194360Y-70596895D01*
X150194360Y-70596895D02*
X150384836Y-70596895D01*
X150384836Y-70596895D02*
X150499122Y-70634990D01*
X150499122Y-70634990D02*
X150575312Y-70711180D01*
X150575312Y-70711180D02*
X150613407Y-70787371D01*
X150613407Y-70787371D02*
X150651503Y-70939752D01*
X150651503Y-70939752D02*
X150651503Y-71054038D01*
X150651503Y-71054038D02*
X150613407Y-71206419D01*
X150613407Y-71206419D02*
X150575312Y-71282609D01*
X150575312Y-71282609D02*
X150499122Y-71358800D01*
X150499122Y-71358800D02*
X150384836Y-71396895D01*
X150384836Y-71396895D02*
X150194360Y-71396895D01*
X149075312Y-67934990D02*
X148999122Y-67896895D01*
X148999122Y-67896895D02*
X148884836Y-67896895D01*
X148884836Y-67896895D02*
X148770550Y-67934990D01*
X148770550Y-67934990D02*
X148694360Y-68011180D01*
X148694360Y-68011180D02*
X148656265Y-68087371D01*
X148656265Y-68087371D02*
X148618169Y-68239752D01*
X148618169Y-68239752D02*
X148618169Y-68354038D01*
X148618169Y-68354038D02*
X148656265Y-68506419D01*
X148656265Y-68506419D02*
X148694360Y-68582609D01*
X148694360Y-68582609D02*
X148770550Y-68658800D01*
X148770550Y-68658800D02*
X148884836Y-68696895D01*
X148884836Y-68696895D02*
X148961027Y-68696895D01*
X148961027Y-68696895D02*
X149075312Y-68658800D01*
X149075312Y-68658800D02*
X149113408Y-68620704D01*
X149113408Y-68620704D02*
X149113408Y-68354038D01*
X149113408Y-68354038D02*
X148961027Y-68354038D01*
X149456265Y-68696895D02*
X149456265Y-67896895D01*
X149456265Y-67896895D02*
X149913408Y-68696895D01*
X149913408Y-68696895D02*
X149913408Y-67896895D01*
X150294360Y-68696895D02*
X150294360Y-67896895D01*
X150294360Y-67896895D02*
X150484836Y-67896895D01*
X150484836Y-67896895D02*
X150599122Y-67934990D01*
X150599122Y-67934990D02*
X150675312Y-68011180D01*
X150675312Y-68011180D02*
X150713407Y-68087371D01*
X150713407Y-68087371D02*
X150751503Y-68239752D01*
X150751503Y-68239752D02*
X150751503Y-68354038D01*
X150751503Y-68354038D02*
X150713407Y-68506419D01*
X150713407Y-68506419D02*
X150675312Y-68582609D01*
X150675312Y-68582609D02*
X150599122Y-68658800D01*
X150599122Y-68658800D02*
X150484836Y-68696895D01*
X150484836Y-68696895D02*
X150294360Y-68696895D01*
X146341979Y-45296895D02*
X146608646Y-46096895D01*
X146608646Y-46096895D02*
X146875312Y-45296895D01*
X147484836Y-45563561D02*
X147484836Y-46096895D01*
X147141979Y-45563561D02*
X147141979Y-45982609D01*
X147141979Y-45982609D02*
X147180074Y-46058800D01*
X147180074Y-46058800D02*
X147256264Y-46096895D01*
X147256264Y-46096895D02*
X147370550Y-46096895D01*
X147370550Y-46096895D02*
X147446741Y-46058800D01*
X147446741Y-46058800D02*
X147484836Y-46020704D01*
X144213408Y-46120704D02*
X144175312Y-46158800D01*
X144175312Y-46158800D02*
X144061027Y-46196895D01*
X144061027Y-46196895D02*
X143984836Y-46196895D01*
X143984836Y-46196895D02*
X143870550Y-46158800D01*
X143870550Y-46158800D02*
X143794360Y-46082609D01*
X143794360Y-46082609D02*
X143756265Y-46006419D01*
X143756265Y-46006419D02*
X143718169Y-45854038D01*
X143718169Y-45854038D02*
X143718169Y-45739752D01*
X143718169Y-45739752D02*
X143756265Y-45587371D01*
X143756265Y-45587371D02*
X143794360Y-45511180D01*
X143794360Y-45511180D02*
X143870550Y-45434990D01*
X143870550Y-45434990D02*
X143984836Y-45396895D01*
X143984836Y-45396895D02*
X144061027Y-45396895D01*
X144061027Y-45396895D02*
X144175312Y-45434990D01*
X144175312Y-45434990D02*
X144213408Y-45473085D01*
X144708646Y-45396895D02*
X144784836Y-45396895D01*
X144784836Y-45396895D02*
X144861027Y-45434990D01*
X144861027Y-45434990D02*
X144899122Y-45473085D01*
X144899122Y-45473085D02*
X144937217Y-45549276D01*
X144937217Y-45549276D02*
X144975312Y-45701657D01*
X144975312Y-45701657D02*
X144975312Y-45892133D01*
X144975312Y-45892133D02*
X144937217Y-46044514D01*
X144937217Y-46044514D02*
X144899122Y-46120704D01*
X144899122Y-46120704D02*
X144861027Y-46158800D01*
X144861027Y-46158800D02*
X144784836Y-46196895D01*
X144784836Y-46196895D02*
X144708646Y-46196895D01*
X144708646Y-46196895D02*
X144632455Y-46158800D01*
X144632455Y-46158800D02*
X144594360Y-46120704D01*
X144594360Y-46120704D02*
X144556265Y-46044514D01*
X144556265Y-46044514D02*
X144518169Y-45892133D01*
X144518169Y-45892133D02*
X144518169Y-45701657D01*
X144518169Y-45701657D02*
X144556265Y-45549276D01*
X144556265Y-45549276D02*
X144594360Y-45473085D01*
X144594360Y-45473085D02*
X144632455Y-45434990D01*
X144632455Y-45434990D02*
X144708646Y-45396895D01*
X141813408Y-46120704D02*
X141775312Y-46158800D01*
X141775312Y-46158800D02*
X141661027Y-46196895D01*
X141661027Y-46196895D02*
X141584836Y-46196895D01*
X141584836Y-46196895D02*
X141470550Y-46158800D01*
X141470550Y-46158800D02*
X141394360Y-46082609D01*
X141394360Y-46082609D02*
X141356265Y-46006419D01*
X141356265Y-46006419D02*
X141318169Y-45854038D01*
X141318169Y-45854038D02*
X141318169Y-45739752D01*
X141318169Y-45739752D02*
X141356265Y-45587371D01*
X141356265Y-45587371D02*
X141394360Y-45511180D01*
X141394360Y-45511180D02*
X141470550Y-45434990D01*
X141470550Y-45434990D02*
X141584836Y-45396895D01*
X141584836Y-45396895D02*
X141661027Y-45396895D01*
X141661027Y-45396895D02*
X141775312Y-45434990D01*
X141775312Y-45434990D02*
X141813408Y-45473085D01*
X142575312Y-46196895D02*
X142118169Y-46196895D01*
X142346741Y-46196895D02*
X142346741Y-45396895D01*
X142346741Y-45396895D02*
X142270550Y-45511180D01*
X142270550Y-45511180D02*
X142194360Y-45587371D01*
X142194360Y-45587371D02*
X142118169Y-45625466D01*
X139313408Y-46120704D02*
X139275312Y-46158800D01*
X139275312Y-46158800D02*
X139161027Y-46196895D01*
X139161027Y-46196895D02*
X139084836Y-46196895D01*
X139084836Y-46196895D02*
X138970550Y-46158800D01*
X138970550Y-46158800D02*
X138894360Y-46082609D01*
X138894360Y-46082609D02*
X138856265Y-46006419D01*
X138856265Y-46006419D02*
X138818169Y-45854038D01*
X138818169Y-45854038D02*
X138818169Y-45739752D01*
X138818169Y-45739752D02*
X138856265Y-45587371D01*
X138856265Y-45587371D02*
X138894360Y-45511180D01*
X138894360Y-45511180D02*
X138970550Y-45434990D01*
X138970550Y-45434990D02*
X139084836Y-45396895D01*
X139084836Y-45396895D02*
X139161027Y-45396895D01*
X139161027Y-45396895D02*
X139275312Y-45434990D01*
X139275312Y-45434990D02*
X139313408Y-45473085D01*
X139618169Y-45473085D02*
X139656265Y-45434990D01*
X139656265Y-45434990D02*
X139732455Y-45396895D01*
X139732455Y-45396895D02*
X139922931Y-45396895D01*
X139922931Y-45396895D02*
X139999122Y-45434990D01*
X139999122Y-45434990D02*
X140037217Y-45473085D01*
X140037217Y-45473085D02*
X140075312Y-45549276D01*
X140075312Y-45549276D02*
X140075312Y-45625466D01*
X140075312Y-45625466D02*
X140037217Y-45739752D01*
X140037217Y-45739752D02*
X139580074Y-46196895D01*
X139580074Y-46196895D02*
X140075312Y-46196895D01*
X136913408Y-46020704D02*
X136875312Y-46058800D01*
X136875312Y-46058800D02*
X136761027Y-46096895D01*
X136761027Y-46096895D02*
X136684836Y-46096895D01*
X136684836Y-46096895D02*
X136570550Y-46058800D01*
X136570550Y-46058800D02*
X136494360Y-45982609D01*
X136494360Y-45982609D02*
X136456265Y-45906419D01*
X136456265Y-45906419D02*
X136418169Y-45754038D01*
X136418169Y-45754038D02*
X136418169Y-45639752D01*
X136418169Y-45639752D02*
X136456265Y-45487371D01*
X136456265Y-45487371D02*
X136494360Y-45411180D01*
X136494360Y-45411180D02*
X136570550Y-45334990D01*
X136570550Y-45334990D02*
X136684836Y-45296895D01*
X136684836Y-45296895D02*
X136761027Y-45296895D01*
X136761027Y-45296895D02*
X136875312Y-45334990D01*
X136875312Y-45334990D02*
X136913408Y-45373085D01*
X137599122Y-45563561D02*
X137599122Y-46096895D01*
X137408646Y-45258800D02*
X137218169Y-45830228D01*
X137218169Y-45830228D02*
X137713408Y-45830228D01*
X134213408Y-46020704D02*
X134175312Y-46058800D01*
X134175312Y-46058800D02*
X134061027Y-46096895D01*
X134061027Y-46096895D02*
X133984836Y-46096895D01*
X133984836Y-46096895D02*
X133870550Y-46058800D01*
X133870550Y-46058800D02*
X133794360Y-45982609D01*
X133794360Y-45982609D02*
X133756265Y-45906419D01*
X133756265Y-45906419D02*
X133718169Y-45754038D01*
X133718169Y-45754038D02*
X133718169Y-45639752D01*
X133718169Y-45639752D02*
X133756265Y-45487371D01*
X133756265Y-45487371D02*
X133794360Y-45411180D01*
X133794360Y-45411180D02*
X133870550Y-45334990D01*
X133870550Y-45334990D02*
X133984836Y-45296895D01*
X133984836Y-45296895D02*
X134061027Y-45296895D01*
X134061027Y-45296895D02*
X134175312Y-45334990D01*
X134175312Y-45334990D02*
X134213408Y-45373085D01*
X134937217Y-45296895D02*
X134556265Y-45296895D01*
X134556265Y-45296895D02*
X134518169Y-45677847D01*
X134518169Y-45677847D02*
X134556265Y-45639752D01*
X134556265Y-45639752D02*
X134632455Y-45601657D01*
X134632455Y-45601657D02*
X134822931Y-45601657D01*
X134822931Y-45601657D02*
X134899122Y-45639752D01*
X134899122Y-45639752D02*
X134937217Y-45677847D01*
X134937217Y-45677847D02*
X134975312Y-45754038D01*
X134975312Y-45754038D02*
X134975312Y-45944514D01*
X134975312Y-45944514D02*
X134937217Y-46020704D01*
X134937217Y-46020704D02*
X134899122Y-46058800D01*
X134899122Y-46058800D02*
X134822931Y-46096895D01*
X134822931Y-46096895D02*
X134632455Y-46096895D01*
X134632455Y-46096895D02*
X134556265Y-46058800D01*
X134556265Y-46058800D02*
X134518169Y-46020704D01*
X131413408Y-46020704D02*
X131375312Y-46058800D01*
X131375312Y-46058800D02*
X131261027Y-46096895D01*
X131261027Y-46096895D02*
X131184836Y-46096895D01*
X131184836Y-46096895D02*
X131070550Y-46058800D01*
X131070550Y-46058800D02*
X130994360Y-45982609D01*
X130994360Y-45982609D02*
X130956265Y-45906419D01*
X130956265Y-45906419D02*
X130918169Y-45754038D01*
X130918169Y-45754038D02*
X130918169Y-45639752D01*
X130918169Y-45639752D02*
X130956265Y-45487371D01*
X130956265Y-45487371D02*
X130994360Y-45411180D01*
X130994360Y-45411180D02*
X131070550Y-45334990D01*
X131070550Y-45334990D02*
X131184836Y-45296895D01*
X131184836Y-45296895D02*
X131261027Y-45296895D01*
X131261027Y-45296895D02*
X131375312Y-45334990D01*
X131375312Y-45334990D02*
X131413408Y-45373085D01*
X132099122Y-45296895D02*
X131946741Y-45296895D01*
X131946741Y-45296895D02*
X131870550Y-45334990D01*
X131870550Y-45334990D02*
X131832455Y-45373085D01*
X131832455Y-45373085D02*
X131756265Y-45487371D01*
X131756265Y-45487371D02*
X131718169Y-45639752D01*
X131718169Y-45639752D02*
X131718169Y-45944514D01*
X131718169Y-45944514D02*
X131756265Y-46020704D01*
X131756265Y-46020704D02*
X131794360Y-46058800D01*
X131794360Y-46058800D02*
X131870550Y-46096895D01*
X131870550Y-46096895D02*
X132022931Y-46096895D01*
X132022931Y-46096895D02*
X132099122Y-46058800D01*
X132099122Y-46058800D02*
X132137217Y-46020704D01*
X132137217Y-46020704D02*
X132175312Y-45944514D01*
X132175312Y-45944514D02*
X132175312Y-45754038D01*
X132175312Y-45754038D02*
X132137217Y-45677847D01*
X132137217Y-45677847D02*
X132099122Y-45639752D01*
X132099122Y-45639752D02*
X132022931Y-45601657D01*
X132022931Y-45601657D02*
X131870550Y-45601657D01*
X131870550Y-45601657D02*
X131794360Y-45639752D01*
X131794360Y-45639752D02*
X131756265Y-45677847D01*
X131756265Y-45677847D02*
X131718169Y-45754038D01*
X129013408Y-46120704D02*
X128975312Y-46158800D01*
X128975312Y-46158800D02*
X128861027Y-46196895D01*
X128861027Y-46196895D02*
X128784836Y-46196895D01*
X128784836Y-46196895D02*
X128670550Y-46158800D01*
X128670550Y-46158800D02*
X128594360Y-46082609D01*
X128594360Y-46082609D02*
X128556265Y-46006419D01*
X128556265Y-46006419D02*
X128518169Y-45854038D01*
X128518169Y-45854038D02*
X128518169Y-45739752D01*
X128518169Y-45739752D02*
X128556265Y-45587371D01*
X128556265Y-45587371D02*
X128594360Y-45511180D01*
X128594360Y-45511180D02*
X128670550Y-45434990D01*
X128670550Y-45434990D02*
X128784836Y-45396895D01*
X128784836Y-45396895D02*
X128861027Y-45396895D01*
X128861027Y-45396895D02*
X128975312Y-45434990D01*
X128975312Y-45434990D02*
X129013408Y-45473085D01*
X129280074Y-45396895D02*
X129813408Y-45396895D01*
X129813408Y-45396895D02*
X129470550Y-46196895D01*
X122322931Y-45777847D02*
X122437217Y-45815942D01*
X122437217Y-45815942D02*
X122475312Y-45854038D01*
X122475312Y-45854038D02*
X122513408Y-45930228D01*
X122513408Y-45930228D02*
X122513408Y-46044514D01*
X122513408Y-46044514D02*
X122475312Y-46120704D01*
X122475312Y-46120704D02*
X122437217Y-46158800D01*
X122437217Y-46158800D02*
X122361027Y-46196895D01*
X122361027Y-46196895D02*
X122056265Y-46196895D01*
X122056265Y-46196895D02*
X122056265Y-45396895D01*
X122056265Y-45396895D02*
X122322931Y-45396895D01*
X122322931Y-45396895D02*
X122399122Y-45434990D01*
X122399122Y-45434990D02*
X122437217Y-45473085D01*
X122437217Y-45473085D02*
X122475312Y-45549276D01*
X122475312Y-45549276D02*
X122475312Y-45625466D01*
X122475312Y-45625466D02*
X122437217Y-45701657D01*
X122437217Y-45701657D02*
X122399122Y-45739752D01*
X122399122Y-45739752D02*
X122322931Y-45777847D01*
X122322931Y-45777847D02*
X122056265Y-45777847D01*
X123008646Y-45396895D02*
X123084836Y-45396895D01*
X123084836Y-45396895D02*
X123161027Y-45434990D01*
X123161027Y-45434990D02*
X123199122Y-45473085D01*
X123199122Y-45473085D02*
X123237217Y-45549276D01*
X123237217Y-45549276D02*
X123275312Y-45701657D01*
X123275312Y-45701657D02*
X123275312Y-45892133D01*
X123275312Y-45892133D02*
X123237217Y-46044514D01*
X123237217Y-46044514D02*
X123199122Y-46120704D01*
X123199122Y-46120704D02*
X123161027Y-46158800D01*
X123161027Y-46158800D02*
X123084836Y-46196895D01*
X123084836Y-46196895D02*
X123008646Y-46196895D01*
X123008646Y-46196895D02*
X122932455Y-46158800D01*
X122932455Y-46158800D02*
X122894360Y-46120704D01*
X122894360Y-46120704D02*
X122856265Y-46044514D01*
X122856265Y-46044514D02*
X122818169Y-45892133D01*
X122818169Y-45892133D02*
X122818169Y-45701657D01*
X122818169Y-45701657D02*
X122856265Y-45549276D01*
X122856265Y-45549276D02*
X122894360Y-45473085D01*
X122894360Y-45473085D02*
X122932455Y-45434990D01*
X122932455Y-45434990D02*
X123008646Y-45396895D01*
X119722931Y-45777847D02*
X119837217Y-45815942D01*
X119837217Y-45815942D02*
X119875312Y-45854038D01*
X119875312Y-45854038D02*
X119913408Y-45930228D01*
X119913408Y-45930228D02*
X119913408Y-46044514D01*
X119913408Y-46044514D02*
X119875312Y-46120704D01*
X119875312Y-46120704D02*
X119837217Y-46158800D01*
X119837217Y-46158800D02*
X119761027Y-46196895D01*
X119761027Y-46196895D02*
X119456265Y-46196895D01*
X119456265Y-46196895D02*
X119456265Y-45396895D01*
X119456265Y-45396895D02*
X119722931Y-45396895D01*
X119722931Y-45396895D02*
X119799122Y-45434990D01*
X119799122Y-45434990D02*
X119837217Y-45473085D01*
X119837217Y-45473085D02*
X119875312Y-45549276D01*
X119875312Y-45549276D02*
X119875312Y-45625466D01*
X119875312Y-45625466D02*
X119837217Y-45701657D01*
X119837217Y-45701657D02*
X119799122Y-45739752D01*
X119799122Y-45739752D02*
X119722931Y-45777847D01*
X119722931Y-45777847D02*
X119456265Y-45777847D01*
X120675312Y-46196895D02*
X120218169Y-46196895D01*
X120446741Y-46196895D02*
X120446741Y-45396895D01*
X120446741Y-45396895D02*
X120370550Y-45511180D01*
X120370550Y-45511180D02*
X120294360Y-45587371D01*
X120294360Y-45587371D02*
X120218169Y-45625466D01*
X117122931Y-45777847D02*
X117237217Y-45815942D01*
X117237217Y-45815942D02*
X117275312Y-45854038D01*
X117275312Y-45854038D02*
X117313408Y-45930228D01*
X117313408Y-45930228D02*
X117313408Y-46044514D01*
X117313408Y-46044514D02*
X117275312Y-46120704D01*
X117275312Y-46120704D02*
X117237217Y-46158800D01*
X117237217Y-46158800D02*
X117161027Y-46196895D01*
X117161027Y-46196895D02*
X116856265Y-46196895D01*
X116856265Y-46196895D02*
X116856265Y-45396895D01*
X116856265Y-45396895D02*
X117122931Y-45396895D01*
X117122931Y-45396895D02*
X117199122Y-45434990D01*
X117199122Y-45434990D02*
X117237217Y-45473085D01*
X117237217Y-45473085D02*
X117275312Y-45549276D01*
X117275312Y-45549276D02*
X117275312Y-45625466D01*
X117275312Y-45625466D02*
X117237217Y-45701657D01*
X117237217Y-45701657D02*
X117199122Y-45739752D01*
X117199122Y-45739752D02*
X117122931Y-45777847D01*
X117122931Y-45777847D02*
X116856265Y-45777847D01*
X117618169Y-45473085D02*
X117656265Y-45434990D01*
X117656265Y-45434990D02*
X117732455Y-45396895D01*
X117732455Y-45396895D02*
X117922931Y-45396895D01*
X117922931Y-45396895D02*
X117999122Y-45434990D01*
X117999122Y-45434990D02*
X118037217Y-45473085D01*
X118037217Y-45473085D02*
X118075312Y-45549276D01*
X118075312Y-45549276D02*
X118075312Y-45625466D01*
X118075312Y-45625466D02*
X118037217Y-45739752D01*
X118037217Y-45739752D02*
X117580074Y-46196895D01*
X117580074Y-46196895D02*
X118075312Y-46196895D01*
X114522931Y-45777847D02*
X114637217Y-45815942D01*
X114637217Y-45815942D02*
X114675312Y-45854038D01*
X114675312Y-45854038D02*
X114713408Y-45930228D01*
X114713408Y-45930228D02*
X114713408Y-46044514D01*
X114713408Y-46044514D02*
X114675312Y-46120704D01*
X114675312Y-46120704D02*
X114637217Y-46158800D01*
X114637217Y-46158800D02*
X114561027Y-46196895D01*
X114561027Y-46196895D02*
X114256265Y-46196895D01*
X114256265Y-46196895D02*
X114256265Y-45396895D01*
X114256265Y-45396895D02*
X114522931Y-45396895D01*
X114522931Y-45396895D02*
X114599122Y-45434990D01*
X114599122Y-45434990D02*
X114637217Y-45473085D01*
X114637217Y-45473085D02*
X114675312Y-45549276D01*
X114675312Y-45549276D02*
X114675312Y-45625466D01*
X114675312Y-45625466D02*
X114637217Y-45701657D01*
X114637217Y-45701657D02*
X114599122Y-45739752D01*
X114599122Y-45739752D02*
X114522931Y-45777847D01*
X114522931Y-45777847D02*
X114256265Y-45777847D01*
X114980074Y-45396895D02*
X115475312Y-45396895D01*
X115475312Y-45396895D02*
X115208646Y-45701657D01*
X115208646Y-45701657D02*
X115322931Y-45701657D01*
X115322931Y-45701657D02*
X115399122Y-45739752D01*
X115399122Y-45739752D02*
X115437217Y-45777847D01*
X115437217Y-45777847D02*
X115475312Y-45854038D01*
X115475312Y-45854038D02*
X115475312Y-46044514D01*
X115475312Y-46044514D02*
X115437217Y-46120704D01*
X115437217Y-46120704D02*
X115399122Y-46158800D01*
X115399122Y-46158800D02*
X115322931Y-46196895D01*
X115322931Y-46196895D02*
X115094360Y-46196895D01*
X115094360Y-46196895D02*
X115018169Y-46158800D01*
X115018169Y-46158800D02*
X114980074Y-46120704D01*
X112222931Y-45777847D02*
X112337217Y-45815942D01*
X112337217Y-45815942D02*
X112375312Y-45854038D01*
X112375312Y-45854038D02*
X112413408Y-45930228D01*
X112413408Y-45930228D02*
X112413408Y-46044514D01*
X112413408Y-46044514D02*
X112375312Y-46120704D01*
X112375312Y-46120704D02*
X112337217Y-46158800D01*
X112337217Y-46158800D02*
X112261027Y-46196895D01*
X112261027Y-46196895D02*
X111956265Y-46196895D01*
X111956265Y-46196895D02*
X111956265Y-45396895D01*
X111956265Y-45396895D02*
X112222931Y-45396895D01*
X112222931Y-45396895D02*
X112299122Y-45434990D01*
X112299122Y-45434990D02*
X112337217Y-45473085D01*
X112337217Y-45473085D02*
X112375312Y-45549276D01*
X112375312Y-45549276D02*
X112375312Y-45625466D01*
X112375312Y-45625466D02*
X112337217Y-45701657D01*
X112337217Y-45701657D02*
X112299122Y-45739752D01*
X112299122Y-45739752D02*
X112222931Y-45777847D01*
X112222931Y-45777847D02*
X111956265Y-45777847D01*
X113099122Y-45663561D02*
X113099122Y-46196895D01*
X112908646Y-45358800D02*
X112718169Y-45930228D01*
X112718169Y-45930228D02*
X113213408Y-45930228D01*
X109622931Y-45777847D02*
X109737217Y-45815942D01*
X109737217Y-45815942D02*
X109775312Y-45854038D01*
X109775312Y-45854038D02*
X109813408Y-45930228D01*
X109813408Y-45930228D02*
X109813408Y-46044514D01*
X109813408Y-46044514D02*
X109775312Y-46120704D01*
X109775312Y-46120704D02*
X109737217Y-46158800D01*
X109737217Y-46158800D02*
X109661027Y-46196895D01*
X109661027Y-46196895D02*
X109356265Y-46196895D01*
X109356265Y-46196895D02*
X109356265Y-45396895D01*
X109356265Y-45396895D02*
X109622931Y-45396895D01*
X109622931Y-45396895D02*
X109699122Y-45434990D01*
X109699122Y-45434990D02*
X109737217Y-45473085D01*
X109737217Y-45473085D02*
X109775312Y-45549276D01*
X109775312Y-45549276D02*
X109775312Y-45625466D01*
X109775312Y-45625466D02*
X109737217Y-45701657D01*
X109737217Y-45701657D02*
X109699122Y-45739752D01*
X109699122Y-45739752D02*
X109622931Y-45777847D01*
X109622931Y-45777847D02*
X109356265Y-45777847D01*
X110537217Y-45396895D02*
X110156265Y-45396895D01*
X110156265Y-45396895D02*
X110118169Y-45777847D01*
X110118169Y-45777847D02*
X110156265Y-45739752D01*
X110156265Y-45739752D02*
X110232455Y-45701657D01*
X110232455Y-45701657D02*
X110422931Y-45701657D01*
X110422931Y-45701657D02*
X110499122Y-45739752D01*
X110499122Y-45739752D02*
X110537217Y-45777847D01*
X110537217Y-45777847D02*
X110575312Y-45854038D01*
X110575312Y-45854038D02*
X110575312Y-46044514D01*
X110575312Y-46044514D02*
X110537217Y-46120704D01*
X110537217Y-46120704D02*
X110499122Y-46158800D01*
X110499122Y-46158800D02*
X110422931Y-46196895D01*
X110422931Y-46196895D02*
X110232455Y-46196895D01*
X110232455Y-46196895D02*
X110156265Y-46158800D01*
X110156265Y-46158800D02*
X110118169Y-46120704D01*
X107022931Y-45777847D02*
X107137217Y-45815942D01*
X107137217Y-45815942D02*
X107175312Y-45854038D01*
X107175312Y-45854038D02*
X107213408Y-45930228D01*
X107213408Y-45930228D02*
X107213408Y-46044514D01*
X107213408Y-46044514D02*
X107175312Y-46120704D01*
X107175312Y-46120704D02*
X107137217Y-46158800D01*
X107137217Y-46158800D02*
X107061027Y-46196895D01*
X107061027Y-46196895D02*
X106756265Y-46196895D01*
X106756265Y-46196895D02*
X106756265Y-45396895D01*
X106756265Y-45396895D02*
X107022931Y-45396895D01*
X107022931Y-45396895D02*
X107099122Y-45434990D01*
X107099122Y-45434990D02*
X107137217Y-45473085D01*
X107137217Y-45473085D02*
X107175312Y-45549276D01*
X107175312Y-45549276D02*
X107175312Y-45625466D01*
X107175312Y-45625466D02*
X107137217Y-45701657D01*
X107137217Y-45701657D02*
X107099122Y-45739752D01*
X107099122Y-45739752D02*
X107022931Y-45777847D01*
X107022931Y-45777847D02*
X106756265Y-45777847D01*
X107899122Y-45396895D02*
X107746741Y-45396895D01*
X107746741Y-45396895D02*
X107670550Y-45434990D01*
X107670550Y-45434990D02*
X107632455Y-45473085D01*
X107632455Y-45473085D02*
X107556265Y-45587371D01*
X107556265Y-45587371D02*
X107518169Y-45739752D01*
X107518169Y-45739752D02*
X107518169Y-46044514D01*
X107518169Y-46044514D02*
X107556265Y-46120704D01*
X107556265Y-46120704D02*
X107594360Y-46158800D01*
X107594360Y-46158800D02*
X107670550Y-46196895D01*
X107670550Y-46196895D02*
X107822931Y-46196895D01*
X107822931Y-46196895D02*
X107899122Y-46158800D01*
X107899122Y-46158800D02*
X107937217Y-46120704D01*
X107937217Y-46120704D02*
X107975312Y-46044514D01*
X107975312Y-46044514D02*
X107975312Y-45854038D01*
X107975312Y-45854038D02*
X107937217Y-45777847D01*
X107937217Y-45777847D02*
X107899122Y-45739752D01*
X107899122Y-45739752D02*
X107822931Y-45701657D01*
X107822931Y-45701657D02*
X107670550Y-45701657D01*
X107670550Y-45701657D02*
X107594360Y-45739752D01*
X107594360Y-45739752D02*
X107556265Y-45777847D01*
X107556265Y-45777847D02*
X107518169Y-45854038D01*
X104422931Y-45777847D02*
X104537217Y-45815942D01*
X104537217Y-45815942D02*
X104575312Y-45854038D01*
X104575312Y-45854038D02*
X104613408Y-45930228D01*
X104613408Y-45930228D02*
X104613408Y-46044514D01*
X104613408Y-46044514D02*
X104575312Y-46120704D01*
X104575312Y-46120704D02*
X104537217Y-46158800D01*
X104537217Y-46158800D02*
X104461027Y-46196895D01*
X104461027Y-46196895D02*
X104156265Y-46196895D01*
X104156265Y-46196895D02*
X104156265Y-45396895D01*
X104156265Y-45396895D02*
X104422931Y-45396895D01*
X104422931Y-45396895D02*
X104499122Y-45434990D01*
X104499122Y-45434990D02*
X104537217Y-45473085D01*
X104537217Y-45473085D02*
X104575312Y-45549276D01*
X104575312Y-45549276D02*
X104575312Y-45625466D01*
X104575312Y-45625466D02*
X104537217Y-45701657D01*
X104537217Y-45701657D02*
X104499122Y-45739752D01*
X104499122Y-45739752D02*
X104422931Y-45777847D01*
X104422931Y-45777847D02*
X104156265Y-45777847D01*
X104880074Y-45396895D02*
X105413408Y-45396895D01*
X105413408Y-45396895D02*
X105070550Y-46196895D01*
X81741979Y-44796895D02*
X82008646Y-45596895D01*
X82008646Y-45596895D02*
X82275312Y-44796895D01*
X82541979Y-45063561D02*
X82541979Y-45863561D01*
X82541979Y-45101657D02*
X82618169Y-45063561D01*
X82618169Y-45063561D02*
X82770550Y-45063561D01*
X82770550Y-45063561D02*
X82846741Y-45101657D01*
X82846741Y-45101657D02*
X82884836Y-45139752D01*
X82884836Y-45139752D02*
X82922931Y-45215942D01*
X82922931Y-45215942D02*
X82922931Y-45444514D01*
X82922931Y-45444514D02*
X82884836Y-45520704D01*
X82884836Y-45520704D02*
X82846741Y-45558800D01*
X82846741Y-45558800D02*
X82770550Y-45596895D01*
X82770550Y-45596895D02*
X82618169Y-45596895D01*
X82618169Y-45596895D02*
X82541979Y-45558800D01*
X83265789Y-45063561D02*
X83265789Y-45863561D01*
X83265789Y-45101657D02*
X83341979Y-45063561D01*
X83341979Y-45063561D02*
X83494360Y-45063561D01*
X83494360Y-45063561D02*
X83570551Y-45101657D01*
X83570551Y-45101657D02*
X83608646Y-45139752D01*
X83608646Y-45139752D02*
X83646741Y-45215942D01*
X83646741Y-45215942D02*
X83646741Y-45444514D01*
X83646741Y-45444514D02*
X83608646Y-45520704D01*
X83608646Y-45520704D02*
X83570551Y-45558800D01*
X83570551Y-45558800D02*
X83494360Y-45596895D01*
X83494360Y-45596895D02*
X83341979Y-45596895D01*
X83341979Y-45596895D02*
X83265789Y-45558800D01*
X84741979Y-44696895D02*
X85008646Y-45496895D01*
X85008646Y-45496895D02*
X85275312Y-44696895D01*
X85884836Y-45496895D02*
X85884836Y-44696895D01*
X85884836Y-45458800D02*
X85808645Y-45496895D01*
X85808645Y-45496895D02*
X85656264Y-45496895D01*
X85656264Y-45496895D02*
X85580074Y-45458800D01*
X85580074Y-45458800D02*
X85541979Y-45420704D01*
X85541979Y-45420704D02*
X85503883Y-45344514D01*
X85503883Y-45344514D02*
X85503883Y-45115942D01*
X85503883Y-45115942D02*
X85541979Y-45039752D01*
X85541979Y-45039752D02*
X85580074Y-45001657D01*
X85580074Y-45001657D02*
X85656264Y-44963561D01*
X85656264Y-44963561D02*
X85808645Y-44963561D01*
X85808645Y-44963561D02*
X85884836Y-45001657D01*
X86608646Y-45496895D02*
X86608646Y-44696895D01*
X86608646Y-45458800D02*
X86532455Y-45496895D01*
X86532455Y-45496895D02*
X86380074Y-45496895D01*
X86380074Y-45496895D02*
X86303884Y-45458800D01*
X86303884Y-45458800D02*
X86265789Y-45420704D01*
X86265789Y-45420704D02*
X86227693Y-45344514D01*
X86227693Y-45344514D02*
X86227693Y-45115942D01*
X86227693Y-45115942D02*
X86265789Y-45039752D01*
X86265789Y-45039752D02*
X86303884Y-45001657D01*
X86303884Y-45001657D02*
X86380074Y-44963561D01*
X86380074Y-44963561D02*
X86532455Y-44963561D01*
X86532455Y-44963561D02*
X86608646Y-45001657D01*
X87241979Y-44696895D02*
X87508646Y-45496895D01*
X87508646Y-45496895D02*
X87775312Y-44696895D01*
X88003883Y-45458800D02*
X88080074Y-45496895D01*
X88080074Y-45496895D02*
X88232455Y-45496895D01*
X88232455Y-45496895D02*
X88308645Y-45458800D01*
X88308645Y-45458800D02*
X88346741Y-45382609D01*
X88346741Y-45382609D02*
X88346741Y-45344514D01*
X88346741Y-45344514D02*
X88308645Y-45268323D01*
X88308645Y-45268323D02*
X88232455Y-45230228D01*
X88232455Y-45230228D02*
X88118169Y-45230228D01*
X88118169Y-45230228D02*
X88041979Y-45192133D01*
X88041979Y-45192133D02*
X88003883Y-45115942D01*
X88003883Y-45115942D02*
X88003883Y-45077847D01*
X88003883Y-45077847D02*
X88041979Y-45001657D01*
X88041979Y-45001657D02*
X88118169Y-44963561D01*
X88118169Y-44963561D02*
X88232455Y-44963561D01*
X88232455Y-44963561D02*
X88308645Y-45001657D01*
X88651502Y-45458800D02*
X88727693Y-45496895D01*
X88727693Y-45496895D02*
X88880074Y-45496895D01*
X88880074Y-45496895D02*
X88956264Y-45458800D01*
X88956264Y-45458800D02*
X88994360Y-45382609D01*
X88994360Y-45382609D02*
X88994360Y-45344514D01*
X88994360Y-45344514D02*
X88956264Y-45268323D01*
X88956264Y-45268323D02*
X88880074Y-45230228D01*
X88880074Y-45230228D02*
X88765788Y-45230228D01*
X88765788Y-45230228D02*
X88689598Y-45192133D01*
X88689598Y-45192133D02*
X88651502Y-45115942D01*
X88651502Y-45115942D02*
X88651502Y-45077847D01*
X88651502Y-45077847D02*
X88689598Y-45001657D01*
X88689598Y-45001657D02*
X88765788Y-44963561D01*
X88765788Y-44963561D02*
X88880074Y-44963561D01*
X88880074Y-44963561D02*
X88956264Y-45001657D01*
X89956265Y-45696895D02*
X89956265Y-44896895D01*
X89956265Y-44896895D02*
X90261027Y-44896895D01*
X90261027Y-44896895D02*
X90337217Y-44934990D01*
X90337217Y-44934990D02*
X90375312Y-44973085D01*
X90375312Y-44973085D02*
X90413408Y-45049276D01*
X90413408Y-45049276D02*
X90413408Y-45163561D01*
X90413408Y-45163561D02*
X90375312Y-45239752D01*
X90375312Y-45239752D02*
X90337217Y-45277847D01*
X90337217Y-45277847D02*
X90261027Y-45315942D01*
X90261027Y-45315942D02*
X89956265Y-45315942D01*
X90756265Y-45696895D02*
X90756265Y-44896895D01*
X90756265Y-44896895D02*
X90946741Y-44896895D01*
X90946741Y-44896895D02*
X91061027Y-44934990D01*
X91061027Y-44934990D02*
X91137217Y-45011180D01*
X91137217Y-45011180D02*
X91175312Y-45087371D01*
X91175312Y-45087371D02*
X91213408Y-45239752D01*
X91213408Y-45239752D02*
X91213408Y-45354038D01*
X91213408Y-45354038D02*
X91175312Y-45506419D01*
X91175312Y-45506419D02*
X91137217Y-45582609D01*
X91137217Y-45582609D02*
X91061027Y-45658800D01*
X91061027Y-45658800D02*
X90946741Y-45696895D01*
X90946741Y-45696895D02*
X90756265Y-45696895D01*
X92456265Y-45696895D02*
X92456265Y-44896895D01*
X92456265Y-44896895D02*
X92761027Y-44896895D01*
X92761027Y-44896895D02*
X92837217Y-44934990D01*
X92837217Y-44934990D02*
X92875312Y-44973085D01*
X92875312Y-44973085D02*
X92913408Y-45049276D01*
X92913408Y-45049276D02*
X92913408Y-45163561D01*
X92913408Y-45163561D02*
X92875312Y-45239752D01*
X92875312Y-45239752D02*
X92837217Y-45277847D01*
X92837217Y-45277847D02*
X92761027Y-45315942D01*
X92761027Y-45315942D02*
X92456265Y-45315942D01*
X93713408Y-45620704D02*
X93675312Y-45658800D01*
X93675312Y-45658800D02*
X93561027Y-45696895D01*
X93561027Y-45696895D02*
X93484836Y-45696895D01*
X93484836Y-45696895D02*
X93370550Y-45658800D01*
X93370550Y-45658800D02*
X93294360Y-45582609D01*
X93294360Y-45582609D02*
X93256265Y-45506419D01*
X93256265Y-45506419D02*
X93218169Y-45354038D01*
X93218169Y-45354038D02*
X93218169Y-45239752D01*
X93218169Y-45239752D02*
X93256265Y-45087371D01*
X93256265Y-45087371D02*
X93294360Y-45011180D01*
X93294360Y-45011180D02*
X93370550Y-44934990D01*
X93370550Y-44934990D02*
X93484836Y-44896895D01*
X93484836Y-44896895D02*
X93561027Y-44896895D01*
X93561027Y-44896895D02*
X93675312Y-44934990D01*
X93675312Y-44934990D02*
X93713408Y-44973085D01*
X105918169Y-80168323D02*
X106299122Y-80168323D01*
X105841979Y-80396895D02*
X106108646Y-79596895D01*
X106108646Y-79596895D02*
X106375312Y-80396895D01*
X106794360Y-79596895D02*
X106870550Y-79596895D01*
X106870550Y-79596895D02*
X106946741Y-79634990D01*
X106946741Y-79634990D02*
X106984836Y-79673085D01*
X106984836Y-79673085D02*
X107022931Y-79749276D01*
X107022931Y-79749276D02*
X107061026Y-79901657D01*
X107061026Y-79901657D02*
X107061026Y-80092133D01*
X107061026Y-80092133D02*
X107022931Y-80244514D01*
X107022931Y-80244514D02*
X106984836Y-80320704D01*
X106984836Y-80320704D02*
X106946741Y-80358800D01*
X106946741Y-80358800D02*
X106870550Y-80396895D01*
X106870550Y-80396895D02*
X106794360Y-80396895D01*
X106794360Y-80396895D02*
X106718169Y-80358800D01*
X106718169Y-80358800D02*
X106680074Y-80320704D01*
X106680074Y-80320704D02*
X106641979Y-80244514D01*
X106641979Y-80244514D02*
X106603883Y-80092133D01*
X106603883Y-80092133D02*
X106603883Y-79901657D01*
X106603883Y-79901657D02*
X106641979Y-79749276D01*
X106641979Y-79749276D02*
X106680074Y-79673085D01*
X106680074Y-79673085D02*
X106718169Y-79634990D01*
X106718169Y-79634990D02*
X106794360Y-79596895D01*
X108818169Y-80268323D02*
X109199122Y-80268323D01*
X108741979Y-80496895D02*
X109008646Y-79696895D01*
X109008646Y-79696895D02*
X109275312Y-80496895D01*
X109961026Y-80496895D02*
X109503883Y-80496895D01*
X109732455Y-80496895D02*
X109732455Y-79696895D01*
X109732455Y-79696895D02*
X109656264Y-79811180D01*
X109656264Y-79811180D02*
X109580074Y-79887371D01*
X109580074Y-79887371D02*
X109503883Y-79925466D01*
X111318169Y-80168323D02*
X111699122Y-80168323D01*
X111241979Y-80396895D02*
X111508646Y-79596895D01*
X111508646Y-79596895D02*
X111775312Y-80396895D01*
X112003883Y-79673085D02*
X112041979Y-79634990D01*
X112041979Y-79634990D02*
X112118169Y-79596895D01*
X112118169Y-79596895D02*
X112308645Y-79596895D01*
X112308645Y-79596895D02*
X112384836Y-79634990D01*
X112384836Y-79634990D02*
X112422931Y-79673085D01*
X112422931Y-79673085D02*
X112461026Y-79749276D01*
X112461026Y-79749276D02*
X112461026Y-79825466D01*
X112461026Y-79825466D02*
X112422931Y-79939752D01*
X112422931Y-79939752D02*
X111965788Y-80396895D01*
X111965788Y-80396895D02*
X112461026Y-80396895D01*
X113918169Y-80168323D02*
X114299122Y-80168323D01*
X113841979Y-80396895D02*
X114108646Y-79596895D01*
X114108646Y-79596895D02*
X114375312Y-80396895D01*
X114565788Y-79596895D02*
X115061026Y-79596895D01*
X115061026Y-79596895D02*
X114794360Y-79901657D01*
X114794360Y-79901657D02*
X114908645Y-79901657D01*
X114908645Y-79901657D02*
X114984836Y-79939752D01*
X114984836Y-79939752D02*
X115022931Y-79977847D01*
X115022931Y-79977847D02*
X115061026Y-80054038D01*
X115061026Y-80054038D02*
X115061026Y-80244514D01*
X115061026Y-80244514D02*
X115022931Y-80320704D01*
X115022931Y-80320704D02*
X114984836Y-80358800D01*
X114984836Y-80358800D02*
X114908645Y-80396895D01*
X114908645Y-80396895D02*
X114680074Y-80396895D01*
X114680074Y-80396895D02*
X114603883Y-80358800D01*
X114603883Y-80358800D02*
X114565788Y-80320704D01*
X116518169Y-80168323D02*
X116899122Y-80168323D01*
X116441979Y-80396895D02*
X116708646Y-79596895D01*
X116708646Y-79596895D02*
X116975312Y-80396895D01*
X117584836Y-79863561D02*
X117584836Y-80396895D01*
X117394360Y-79558800D02*
X117203883Y-80130228D01*
X117203883Y-80130228D02*
X117699122Y-80130228D01*
X119118169Y-80068323D02*
X119499122Y-80068323D01*
X119041979Y-80296895D02*
X119308646Y-79496895D01*
X119308646Y-79496895D02*
X119575312Y-80296895D01*
X120222931Y-79496895D02*
X119841979Y-79496895D01*
X119841979Y-79496895D02*
X119803883Y-79877847D01*
X119803883Y-79877847D02*
X119841979Y-79839752D01*
X119841979Y-79839752D02*
X119918169Y-79801657D01*
X119918169Y-79801657D02*
X120108645Y-79801657D01*
X120108645Y-79801657D02*
X120184836Y-79839752D01*
X120184836Y-79839752D02*
X120222931Y-79877847D01*
X120222931Y-79877847D02*
X120261026Y-79954038D01*
X120261026Y-79954038D02*
X120261026Y-80144514D01*
X120261026Y-80144514D02*
X120222931Y-80220704D01*
X120222931Y-80220704D02*
X120184836Y-80258800D01*
X120184836Y-80258800D02*
X120108645Y-80296895D01*
X120108645Y-80296895D02*
X119918169Y-80296895D01*
X119918169Y-80296895D02*
X119841979Y-80258800D01*
X119841979Y-80258800D02*
X119803883Y-80220704D01*
X127675312Y-79534990D02*
X127599122Y-79496895D01*
X127599122Y-79496895D02*
X127484836Y-79496895D01*
X127484836Y-79496895D02*
X127370550Y-79534990D01*
X127370550Y-79534990D02*
X127294360Y-79611180D01*
X127294360Y-79611180D02*
X127256265Y-79687371D01*
X127256265Y-79687371D02*
X127218169Y-79839752D01*
X127218169Y-79839752D02*
X127218169Y-79954038D01*
X127218169Y-79954038D02*
X127256265Y-80106419D01*
X127256265Y-80106419D02*
X127294360Y-80182609D01*
X127294360Y-80182609D02*
X127370550Y-80258800D01*
X127370550Y-80258800D02*
X127484836Y-80296895D01*
X127484836Y-80296895D02*
X127561027Y-80296895D01*
X127561027Y-80296895D02*
X127675312Y-80258800D01*
X127675312Y-80258800D02*
X127713408Y-80220704D01*
X127713408Y-80220704D02*
X127713408Y-79954038D01*
X127713408Y-79954038D02*
X127561027Y-79954038D01*
X128056265Y-80296895D02*
X128056265Y-79496895D01*
X128056265Y-79496895D02*
X128513408Y-80296895D01*
X128513408Y-80296895D02*
X128513408Y-79496895D01*
X128894360Y-80296895D02*
X128894360Y-79496895D01*
X128894360Y-79496895D02*
X129084836Y-79496895D01*
X129084836Y-79496895D02*
X129199122Y-79534990D01*
X129199122Y-79534990D02*
X129275312Y-79611180D01*
X129275312Y-79611180D02*
X129313407Y-79687371D01*
X129313407Y-79687371D02*
X129351503Y-79839752D01*
X129351503Y-79839752D02*
X129351503Y-79954038D01*
X129351503Y-79954038D02*
X129313407Y-80106419D01*
X129313407Y-80106419D02*
X129275312Y-80182609D01*
X129275312Y-80182609D02*
X129199122Y-80258800D01*
X129199122Y-80258800D02*
X129084836Y-80296895D01*
X129084836Y-80296895D02*
X128894360Y-80296895D01*
X130675312Y-79534990D02*
X130599122Y-79496895D01*
X130599122Y-79496895D02*
X130484836Y-79496895D01*
X130484836Y-79496895D02*
X130370550Y-79534990D01*
X130370550Y-79534990D02*
X130294360Y-79611180D01*
X130294360Y-79611180D02*
X130256265Y-79687371D01*
X130256265Y-79687371D02*
X130218169Y-79839752D01*
X130218169Y-79839752D02*
X130218169Y-79954038D01*
X130218169Y-79954038D02*
X130256265Y-80106419D01*
X130256265Y-80106419D02*
X130294360Y-80182609D01*
X130294360Y-80182609D02*
X130370550Y-80258800D01*
X130370550Y-80258800D02*
X130484836Y-80296895D01*
X130484836Y-80296895D02*
X130561027Y-80296895D01*
X130561027Y-80296895D02*
X130675312Y-80258800D01*
X130675312Y-80258800D02*
X130713408Y-80220704D01*
X130713408Y-80220704D02*
X130713408Y-79954038D01*
X130713408Y-79954038D02*
X130561027Y-79954038D01*
X131056265Y-80296895D02*
X131056265Y-79496895D01*
X131056265Y-79496895D02*
X131513408Y-80296895D01*
X131513408Y-80296895D02*
X131513408Y-79496895D01*
X131894360Y-80296895D02*
X131894360Y-79496895D01*
X131894360Y-79496895D02*
X132084836Y-79496895D01*
X132084836Y-79496895D02*
X132199122Y-79534990D01*
X132199122Y-79534990D02*
X132275312Y-79611180D01*
X132275312Y-79611180D02*
X132313407Y-79687371D01*
X132313407Y-79687371D02*
X132351503Y-79839752D01*
X132351503Y-79839752D02*
X132351503Y-79954038D01*
X132351503Y-79954038D02*
X132313407Y-80106419D01*
X132313407Y-80106419D02*
X132275312Y-80182609D01*
X132275312Y-80182609D02*
X132199122Y-80258800D01*
X132199122Y-80258800D02*
X132084836Y-80296895D01*
X132084836Y-80296895D02*
X131894360Y-80296895D01*
X133575312Y-79634990D02*
X133499122Y-79596895D01*
X133499122Y-79596895D02*
X133384836Y-79596895D01*
X133384836Y-79596895D02*
X133270550Y-79634990D01*
X133270550Y-79634990D02*
X133194360Y-79711180D01*
X133194360Y-79711180D02*
X133156265Y-79787371D01*
X133156265Y-79787371D02*
X133118169Y-79939752D01*
X133118169Y-79939752D02*
X133118169Y-80054038D01*
X133118169Y-80054038D02*
X133156265Y-80206419D01*
X133156265Y-80206419D02*
X133194360Y-80282609D01*
X133194360Y-80282609D02*
X133270550Y-80358800D01*
X133270550Y-80358800D02*
X133384836Y-80396895D01*
X133384836Y-80396895D02*
X133461027Y-80396895D01*
X133461027Y-80396895D02*
X133575312Y-80358800D01*
X133575312Y-80358800D02*
X133613408Y-80320704D01*
X133613408Y-80320704D02*
X133613408Y-80054038D01*
X133613408Y-80054038D02*
X133461027Y-80054038D01*
X133956265Y-80396895D02*
X133956265Y-79596895D01*
X133956265Y-79596895D02*
X134413408Y-80396895D01*
X134413408Y-80396895D02*
X134413408Y-79596895D01*
X134794360Y-80396895D02*
X134794360Y-79596895D01*
X134794360Y-79596895D02*
X134984836Y-79596895D01*
X134984836Y-79596895D02*
X135099122Y-79634990D01*
X135099122Y-79634990D02*
X135175312Y-79711180D01*
X135175312Y-79711180D02*
X135213407Y-79787371D01*
X135213407Y-79787371D02*
X135251503Y-79939752D01*
X135251503Y-79939752D02*
X135251503Y-80054038D01*
X135251503Y-80054038D02*
X135213407Y-80206419D01*
X135213407Y-80206419D02*
X135175312Y-80282609D01*
X135175312Y-80282609D02*
X135099122Y-80358800D01*
X135099122Y-80358800D02*
X134984836Y-80396895D01*
X134984836Y-80396895D02*
X134794360Y-80396895D01*
X136275312Y-79634990D02*
X136199122Y-79596895D01*
X136199122Y-79596895D02*
X136084836Y-79596895D01*
X136084836Y-79596895D02*
X135970550Y-79634990D01*
X135970550Y-79634990D02*
X135894360Y-79711180D01*
X135894360Y-79711180D02*
X135856265Y-79787371D01*
X135856265Y-79787371D02*
X135818169Y-79939752D01*
X135818169Y-79939752D02*
X135818169Y-80054038D01*
X135818169Y-80054038D02*
X135856265Y-80206419D01*
X135856265Y-80206419D02*
X135894360Y-80282609D01*
X135894360Y-80282609D02*
X135970550Y-80358800D01*
X135970550Y-80358800D02*
X136084836Y-80396895D01*
X136084836Y-80396895D02*
X136161027Y-80396895D01*
X136161027Y-80396895D02*
X136275312Y-80358800D01*
X136275312Y-80358800D02*
X136313408Y-80320704D01*
X136313408Y-80320704D02*
X136313408Y-80054038D01*
X136313408Y-80054038D02*
X136161027Y-80054038D01*
X136656265Y-80396895D02*
X136656265Y-79596895D01*
X136656265Y-79596895D02*
X137113408Y-80396895D01*
X137113408Y-80396895D02*
X137113408Y-79596895D01*
X137494360Y-80396895D02*
X137494360Y-79596895D01*
X137494360Y-79596895D02*
X137684836Y-79596895D01*
X137684836Y-79596895D02*
X137799122Y-79634990D01*
X137799122Y-79634990D02*
X137875312Y-79711180D01*
X137875312Y-79711180D02*
X137913407Y-79787371D01*
X137913407Y-79787371D02*
X137951503Y-79939752D01*
X137951503Y-79939752D02*
X137951503Y-80054038D01*
X137951503Y-80054038D02*
X137913407Y-80206419D01*
X137913407Y-80206419D02*
X137875312Y-80282609D01*
X137875312Y-80282609D02*
X137799122Y-80358800D01*
X137799122Y-80358800D02*
X137684836Y-80396895D01*
X137684836Y-80396895D02*
X137494360Y-80396895D01*
X139437217Y-79596895D02*
X139056265Y-79596895D01*
X139056265Y-79596895D02*
X139018169Y-79977847D01*
X139018169Y-79977847D02*
X139056265Y-79939752D01*
X139056265Y-79939752D02*
X139132455Y-79901657D01*
X139132455Y-79901657D02*
X139322931Y-79901657D01*
X139322931Y-79901657D02*
X139399122Y-79939752D01*
X139399122Y-79939752D02*
X139437217Y-79977847D01*
X139437217Y-79977847D02*
X139475312Y-80054038D01*
X139475312Y-80054038D02*
X139475312Y-80244514D01*
X139475312Y-80244514D02*
X139437217Y-80320704D01*
X139437217Y-80320704D02*
X139399122Y-80358800D01*
X139399122Y-80358800D02*
X139322931Y-80396895D01*
X139322931Y-80396895D02*
X139132455Y-80396895D01*
X139132455Y-80396895D02*
X139056265Y-80358800D01*
X139056265Y-80358800D02*
X139018169Y-80320704D01*
X139703884Y-79596895D02*
X139970551Y-80396895D01*
X139970551Y-80396895D02*
X140237217Y-79596895D01*
X141837217Y-79596895D02*
X141456265Y-79596895D01*
X141456265Y-79596895D02*
X141418169Y-79977847D01*
X141418169Y-79977847D02*
X141456265Y-79939752D01*
X141456265Y-79939752D02*
X141532455Y-79901657D01*
X141532455Y-79901657D02*
X141722931Y-79901657D01*
X141722931Y-79901657D02*
X141799122Y-79939752D01*
X141799122Y-79939752D02*
X141837217Y-79977847D01*
X141837217Y-79977847D02*
X141875312Y-80054038D01*
X141875312Y-80054038D02*
X141875312Y-80244514D01*
X141875312Y-80244514D02*
X141837217Y-80320704D01*
X141837217Y-80320704D02*
X141799122Y-80358800D01*
X141799122Y-80358800D02*
X141722931Y-80396895D01*
X141722931Y-80396895D02*
X141532455Y-80396895D01*
X141532455Y-80396895D02*
X141456265Y-80358800D01*
X141456265Y-80358800D02*
X141418169Y-80320704D01*
X142103884Y-79596895D02*
X142370551Y-80396895D01*
X142370551Y-80396895D02*
X142637217Y-79596895D01*
X144337217Y-79596895D02*
X143956265Y-79596895D01*
X143956265Y-79596895D02*
X143918169Y-79977847D01*
X143918169Y-79977847D02*
X143956265Y-79939752D01*
X143956265Y-79939752D02*
X144032455Y-79901657D01*
X144032455Y-79901657D02*
X144222931Y-79901657D01*
X144222931Y-79901657D02*
X144299122Y-79939752D01*
X144299122Y-79939752D02*
X144337217Y-79977847D01*
X144337217Y-79977847D02*
X144375312Y-80054038D01*
X144375312Y-80054038D02*
X144375312Y-80244514D01*
X144375312Y-80244514D02*
X144337217Y-80320704D01*
X144337217Y-80320704D02*
X144299122Y-80358800D01*
X144299122Y-80358800D02*
X144222931Y-80396895D01*
X144222931Y-80396895D02*
X144032455Y-80396895D01*
X144032455Y-80396895D02*
X143956265Y-80358800D01*
X143956265Y-80358800D02*
X143918169Y-80320704D01*
X144603884Y-79596895D02*
X144870551Y-80396895D01*
X144870551Y-80396895D02*
X145137217Y-79596895D01*
X146837217Y-79496895D02*
X146456265Y-79496895D01*
X146456265Y-79496895D02*
X146418169Y-79877847D01*
X146418169Y-79877847D02*
X146456265Y-79839752D01*
X146456265Y-79839752D02*
X146532455Y-79801657D01*
X146532455Y-79801657D02*
X146722931Y-79801657D01*
X146722931Y-79801657D02*
X146799122Y-79839752D01*
X146799122Y-79839752D02*
X146837217Y-79877847D01*
X146837217Y-79877847D02*
X146875312Y-79954038D01*
X146875312Y-79954038D02*
X146875312Y-80144514D01*
X146875312Y-80144514D02*
X146837217Y-80220704D01*
X146837217Y-80220704D02*
X146799122Y-80258800D01*
X146799122Y-80258800D02*
X146722931Y-80296895D01*
X146722931Y-80296895D02*
X146532455Y-80296895D01*
X146532455Y-80296895D02*
X146456265Y-80258800D01*
X146456265Y-80258800D02*
X146418169Y-80220704D01*
X147103884Y-79496895D02*
X147370551Y-80296895D01*
X147370551Y-80296895D02*
X147637217Y-79496895D01*
X127599122Y-68673085D02*
X127632455Y-68634990D01*
X127632455Y-68634990D02*
X127699122Y-68596895D01*
X127699122Y-68596895D02*
X127865789Y-68596895D01*
X127865789Y-68596895D02*
X127932455Y-68634990D01*
X127932455Y-68634990D02*
X127965789Y-68673085D01*
X127965789Y-68673085D02*
X127999122Y-68749276D01*
X127999122Y-68749276D02*
X127999122Y-68825466D01*
X127999122Y-68825466D02*
X127965789Y-68939752D01*
X127965789Y-68939752D02*
X127565789Y-69396895D01*
X127565789Y-69396895D02*
X127999122Y-69396895D01*
X128965789Y-68596895D02*
X129099122Y-68596895D01*
X129099122Y-68596895D02*
X129165789Y-68634990D01*
X129165789Y-68634990D02*
X129232455Y-68711180D01*
X129232455Y-68711180D02*
X129265789Y-68863561D01*
X129265789Y-68863561D02*
X129265789Y-69130228D01*
X129265789Y-69130228D02*
X129232455Y-69282609D01*
X129232455Y-69282609D02*
X129165789Y-69358800D01*
X129165789Y-69358800D02*
X129099122Y-69396895D01*
X129099122Y-69396895D02*
X128965789Y-69396895D01*
X128965789Y-69396895D02*
X128899122Y-69358800D01*
X128899122Y-69358800D02*
X128832455Y-69282609D01*
X128832455Y-69282609D02*
X128799122Y-69130228D01*
X128799122Y-69130228D02*
X128799122Y-68863561D01*
X128799122Y-68863561D02*
X128832455Y-68711180D01*
X128832455Y-68711180D02*
X128899122Y-68634990D01*
X128899122Y-68634990D02*
X128965789Y-68596895D01*
X129532455Y-69358800D02*
X129632455Y-69396895D01*
X129632455Y-69396895D02*
X129799122Y-69396895D01*
X129799122Y-69396895D02*
X129865788Y-69358800D01*
X129865788Y-69358800D02*
X129899122Y-69320704D01*
X129899122Y-69320704D02*
X129932455Y-69244514D01*
X129932455Y-69244514D02*
X129932455Y-69168323D01*
X129932455Y-69168323D02*
X129899122Y-69092133D01*
X129899122Y-69092133D02*
X129865788Y-69054038D01*
X129865788Y-69054038D02*
X129799122Y-69015942D01*
X129799122Y-69015942D02*
X129665788Y-68977847D01*
X129665788Y-68977847D02*
X129599122Y-68939752D01*
X129599122Y-68939752D02*
X129565788Y-68901657D01*
X129565788Y-68901657D02*
X129532455Y-68825466D01*
X129532455Y-68825466D02*
X129532455Y-68749276D01*
X129532455Y-68749276D02*
X129565788Y-68673085D01*
X129565788Y-68673085D02*
X129599122Y-68634990D01*
X129599122Y-68634990D02*
X129665788Y-68596895D01*
X129665788Y-68596895D02*
X129832455Y-68596895D01*
X129832455Y-68596895D02*
X129932455Y-68634990D01*
X130632455Y-69320704D02*
X130599122Y-69358800D01*
X130599122Y-69358800D02*
X130499122Y-69396895D01*
X130499122Y-69396895D02*
X130432455Y-69396895D01*
X130432455Y-69396895D02*
X130332455Y-69358800D01*
X130332455Y-69358800D02*
X130265789Y-69282609D01*
X130265789Y-69282609D02*
X130232455Y-69206419D01*
X130232455Y-69206419D02*
X130199122Y-69054038D01*
X130199122Y-69054038D02*
X130199122Y-68939752D01*
X130199122Y-68939752D02*
X130232455Y-68787371D01*
X130232455Y-68787371D02*
X130265789Y-68711180D01*
X130265789Y-68711180D02*
X130332455Y-68634990D01*
X130332455Y-68634990D02*
X130432455Y-68596895D01*
X130432455Y-68596895D02*
X130499122Y-68596895D01*
X130499122Y-68596895D02*
X130599122Y-68634990D01*
X130599122Y-68634990D02*
X130632455Y-68673085D01*
X131465788Y-69396895D02*
X131465788Y-68596895D01*
X131799121Y-68863561D02*
X131799121Y-69396895D01*
X131799121Y-68939752D02*
X131832455Y-68901657D01*
X131832455Y-68901657D02*
X131899121Y-68863561D01*
X131899121Y-68863561D02*
X131999121Y-68863561D01*
X131999121Y-68863561D02*
X132065788Y-68901657D01*
X132065788Y-68901657D02*
X132099121Y-68977847D01*
X132099121Y-68977847D02*
X132099121Y-69396895D01*
X71075312Y-52372419D02*
X70741979Y-51896228D01*
X70503884Y-52372419D02*
X70503884Y-51372419D01*
X70503884Y-51372419D02*
X70884836Y-51372419D01*
X70884836Y-51372419D02*
X70980074Y-51420038D01*
X70980074Y-51420038D02*
X71027693Y-51467657D01*
X71027693Y-51467657D02*
X71075312Y-51562895D01*
X71075312Y-51562895D02*
X71075312Y-51705752D01*
X71075312Y-51705752D02*
X71027693Y-51800990D01*
X71027693Y-51800990D02*
X70980074Y-51848609D01*
X70980074Y-51848609D02*
X70884836Y-51896228D01*
X70884836Y-51896228D02*
X70503884Y-51896228D01*
X71503884Y-51848609D02*
X71837217Y-51848609D01*
X71980074Y-52372419D02*
X71503884Y-52372419D01*
X71503884Y-52372419D02*
X71503884Y-51372419D01*
X71503884Y-51372419D02*
X71980074Y-51372419D01*
X72361027Y-52324800D02*
X72503884Y-52372419D01*
X72503884Y-52372419D02*
X72741979Y-52372419D01*
X72741979Y-52372419D02*
X72837217Y-52324800D01*
X72837217Y-52324800D02*
X72884836Y-52277180D01*
X72884836Y-52277180D02*
X72932455Y-52181942D01*
X72932455Y-52181942D02*
X72932455Y-52086704D01*
X72932455Y-52086704D02*
X72884836Y-51991466D01*
X72884836Y-51991466D02*
X72837217Y-51943847D01*
X72837217Y-51943847D02*
X72741979Y-51896228D01*
X72741979Y-51896228D02*
X72551503Y-51848609D01*
X72551503Y-51848609D02*
X72456265Y-51800990D01*
X72456265Y-51800990D02*
X72408646Y-51753371D01*
X72408646Y-51753371D02*
X72361027Y-51658133D01*
X72361027Y-51658133D02*
X72361027Y-51562895D01*
X72361027Y-51562895D02*
X72408646Y-51467657D01*
X72408646Y-51467657D02*
X72456265Y-51420038D01*
X72456265Y-51420038D02*
X72551503Y-51372419D01*
X72551503Y-51372419D02*
X72789598Y-51372419D01*
X72789598Y-51372419D02*
X72932455Y-51420038D01*
X73361027Y-51848609D02*
X73694360Y-51848609D01*
X73837217Y-52372419D02*
X73361027Y-52372419D01*
X73361027Y-52372419D02*
X73361027Y-51372419D01*
X73361027Y-51372419D02*
X73837217Y-51372419D01*
X74122932Y-51372419D02*
X74694360Y-51372419D01*
X74408646Y-52372419D02*
X74408646Y-51372419D01*
X85403884Y-41172419D02*
X85403884Y-40172419D01*
X86451502Y-41077180D02*
X86403883Y-41124800D01*
X86403883Y-41124800D02*
X86261026Y-41172419D01*
X86261026Y-41172419D02*
X86165788Y-41172419D01*
X86165788Y-41172419D02*
X86022931Y-41124800D01*
X86022931Y-41124800D02*
X85927693Y-41029561D01*
X85927693Y-41029561D02*
X85880074Y-40934323D01*
X85880074Y-40934323D02*
X85832455Y-40743847D01*
X85832455Y-40743847D02*
X85832455Y-40600990D01*
X85832455Y-40600990D02*
X85880074Y-40410514D01*
X85880074Y-40410514D02*
X85927693Y-40315276D01*
X85927693Y-40315276D02*
X86022931Y-40220038D01*
X86022931Y-40220038D02*
X86165788Y-40172419D01*
X86165788Y-40172419D02*
X86261026Y-40172419D01*
X86261026Y-40172419D02*
X86403883Y-40220038D01*
X86403883Y-40220038D02*
X86451502Y-40267657D01*
X86832455Y-41124800D02*
X86975312Y-41172419D01*
X86975312Y-41172419D02*
X87213407Y-41172419D01*
X87213407Y-41172419D02*
X87308645Y-41124800D01*
X87308645Y-41124800D02*
X87356264Y-41077180D01*
X87356264Y-41077180D02*
X87403883Y-40981942D01*
X87403883Y-40981942D02*
X87403883Y-40886704D01*
X87403883Y-40886704D02*
X87356264Y-40791466D01*
X87356264Y-40791466D02*
X87308645Y-40743847D01*
X87308645Y-40743847D02*
X87213407Y-40696228D01*
X87213407Y-40696228D02*
X87022931Y-40648609D01*
X87022931Y-40648609D02*
X86927693Y-40600990D01*
X86927693Y-40600990D02*
X86880074Y-40553371D01*
X86880074Y-40553371D02*
X86832455Y-40458133D01*
X86832455Y-40458133D02*
X86832455Y-40362895D01*
X86832455Y-40362895D02*
X86880074Y-40267657D01*
X86880074Y-40267657D02*
X86927693Y-40220038D01*
X86927693Y-40220038D02*
X87022931Y-40172419D01*
X87022931Y-40172419D02*
X87261026Y-40172419D01*
X87261026Y-40172419D02*
X87403883Y-40220038D01*
X87832455Y-41172419D02*
X87832455Y-40172419D01*
X87832455Y-40172419D02*
X88213407Y-40172419D01*
X88213407Y-40172419D02*
X88308645Y-40220038D01*
X88308645Y-40220038D02*
X88356264Y-40267657D01*
X88356264Y-40267657D02*
X88403883Y-40362895D01*
X88403883Y-40362895D02*
X88403883Y-40505752D01*
X88403883Y-40505752D02*
X88356264Y-40600990D01*
X88356264Y-40600990D02*
X88308645Y-40648609D01*
X88308645Y-40648609D02*
X88213407Y-40696228D01*
X88213407Y-40696228D02*
X87832455Y-40696228D01*
X110603884Y-40972419D02*
X110603884Y-39972419D01*
X110603884Y-39972419D02*
X110984836Y-39972419D01*
X110984836Y-39972419D02*
X111080074Y-40020038D01*
X111080074Y-40020038D02*
X111127693Y-40067657D01*
X111127693Y-40067657D02*
X111175312Y-40162895D01*
X111175312Y-40162895D02*
X111175312Y-40305752D01*
X111175312Y-40305752D02*
X111127693Y-40400990D01*
X111127693Y-40400990D02*
X111080074Y-40448609D01*
X111080074Y-40448609D02*
X110984836Y-40496228D01*
X110984836Y-40496228D02*
X110603884Y-40496228D01*
X111794360Y-39972419D02*
X111984836Y-39972419D01*
X111984836Y-39972419D02*
X112080074Y-40020038D01*
X112080074Y-40020038D02*
X112175312Y-40115276D01*
X112175312Y-40115276D02*
X112222931Y-40305752D01*
X112222931Y-40305752D02*
X112222931Y-40639085D01*
X112222931Y-40639085D02*
X112175312Y-40829561D01*
X112175312Y-40829561D02*
X112080074Y-40924800D01*
X112080074Y-40924800D02*
X111984836Y-40972419D01*
X111984836Y-40972419D02*
X111794360Y-40972419D01*
X111794360Y-40972419D02*
X111699122Y-40924800D01*
X111699122Y-40924800D02*
X111603884Y-40829561D01*
X111603884Y-40829561D02*
X111556265Y-40639085D01*
X111556265Y-40639085D02*
X111556265Y-40305752D01*
X111556265Y-40305752D02*
X111603884Y-40115276D01*
X111603884Y-40115276D02*
X111699122Y-40020038D01*
X111699122Y-40020038D02*
X111794360Y-39972419D01*
X113222931Y-40972419D02*
X112889598Y-40496228D01*
X112651503Y-40972419D02*
X112651503Y-39972419D01*
X112651503Y-39972419D02*
X113032455Y-39972419D01*
X113032455Y-39972419D02*
X113127693Y-40020038D01*
X113127693Y-40020038D02*
X113175312Y-40067657D01*
X113175312Y-40067657D02*
X113222931Y-40162895D01*
X113222931Y-40162895D02*
X113222931Y-40305752D01*
X113222931Y-40305752D02*
X113175312Y-40400990D01*
X113175312Y-40400990D02*
X113127693Y-40448609D01*
X113127693Y-40448609D02*
X113032455Y-40496228D01*
X113032455Y-40496228D02*
X112651503Y-40496228D01*
X113508646Y-39972419D02*
X114080074Y-39972419D01*
X113794360Y-40972419D02*
X113794360Y-39972419D01*
X114746741Y-40448609D02*
X114889598Y-40496228D01*
X114889598Y-40496228D02*
X114937217Y-40543847D01*
X114937217Y-40543847D02*
X114984836Y-40639085D01*
X114984836Y-40639085D02*
X114984836Y-40781942D01*
X114984836Y-40781942D02*
X114937217Y-40877180D01*
X114937217Y-40877180D02*
X114889598Y-40924800D01*
X114889598Y-40924800D02*
X114794360Y-40972419D01*
X114794360Y-40972419D02*
X114413408Y-40972419D01*
X114413408Y-40972419D02*
X114413408Y-39972419D01*
X114413408Y-39972419D02*
X114746741Y-39972419D01*
X114746741Y-39972419D02*
X114841979Y-40020038D01*
X114841979Y-40020038D02*
X114889598Y-40067657D01*
X114889598Y-40067657D02*
X114937217Y-40162895D01*
X114937217Y-40162895D02*
X114937217Y-40258133D01*
X114937217Y-40258133D02*
X114889598Y-40353371D01*
X114889598Y-40353371D02*
X114841979Y-40400990D01*
X114841979Y-40400990D02*
X114746741Y-40448609D01*
X114746741Y-40448609D02*
X114413408Y-40448609D01*
X134403884Y-41272419D02*
X134403884Y-40272419D01*
X134403884Y-40272419D02*
X134784836Y-40272419D01*
X134784836Y-40272419D02*
X134880074Y-40320038D01*
X134880074Y-40320038D02*
X134927693Y-40367657D01*
X134927693Y-40367657D02*
X134975312Y-40462895D01*
X134975312Y-40462895D02*
X134975312Y-40605752D01*
X134975312Y-40605752D02*
X134927693Y-40700990D01*
X134927693Y-40700990D02*
X134880074Y-40748609D01*
X134880074Y-40748609D02*
X134784836Y-40796228D01*
X134784836Y-40796228D02*
X134403884Y-40796228D01*
X135594360Y-40272419D02*
X135784836Y-40272419D01*
X135784836Y-40272419D02*
X135880074Y-40320038D01*
X135880074Y-40320038D02*
X135975312Y-40415276D01*
X135975312Y-40415276D02*
X136022931Y-40605752D01*
X136022931Y-40605752D02*
X136022931Y-40939085D01*
X136022931Y-40939085D02*
X135975312Y-41129561D01*
X135975312Y-41129561D02*
X135880074Y-41224800D01*
X135880074Y-41224800D02*
X135784836Y-41272419D01*
X135784836Y-41272419D02*
X135594360Y-41272419D01*
X135594360Y-41272419D02*
X135499122Y-41224800D01*
X135499122Y-41224800D02*
X135403884Y-41129561D01*
X135403884Y-41129561D02*
X135356265Y-40939085D01*
X135356265Y-40939085D02*
X135356265Y-40605752D01*
X135356265Y-40605752D02*
X135403884Y-40415276D01*
X135403884Y-40415276D02*
X135499122Y-40320038D01*
X135499122Y-40320038D02*
X135594360Y-40272419D01*
X137022931Y-41272419D02*
X136689598Y-40796228D01*
X136451503Y-41272419D02*
X136451503Y-40272419D01*
X136451503Y-40272419D02*
X136832455Y-40272419D01*
X136832455Y-40272419D02*
X136927693Y-40320038D01*
X136927693Y-40320038D02*
X136975312Y-40367657D01*
X136975312Y-40367657D02*
X137022931Y-40462895D01*
X137022931Y-40462895D02*
X137022931Y-40605752D01*
X137022931Y-40605752D02*
X136975312Y-40700990D01*
X136975312Y-40700990D02*
X136927693Y-40748609D01*
X136927693Y-40748609D02*
X136832455Y-40796228D01*
X136832455Y-40796228D02*
X136451503Y-40796228D01*
X137308646Y-40272419D02*
X137880074Y-40272419D01*
X137594360Y-41272419D02*
X137594360Y-40272419D01*
X138784836Y-41177180D02*
X138737217Y-41224800D01*
X138737217Y-41224800D02*
X138594360Y-41272419D01*
X138594360Y-41272419D02*
X138499122Y-41272419D01*
X138499122Y-41272419D02*
X138356265Y-41224800D01*
X138356265Y-41224800D02*
X138261027Y-41129561D01*
X138261027Y-41129561D02*
X138213408Y-41034323D01*
X138213408Y-41034323D02*
X138165789Y-40843847D01*
X138165789Y-40843847D02*
X138165789Y-40700990D01*
X138165789Y-40700990D02*
X138213408Y-40510514D01*
X138213408Y-40510514D02*
X138261027Y-40415276D01*
X138261027Y-40415276D02*
X138356265Y-40320038D01*
X138356265Y-40320038D02*
X138499122Y-40272419D01*
X138499122Y-40272419D02*
X138594360Y-40272419D01*
X138594360Y-40272419D02*
X138737217Y-40320038D01*
X138737217Y-40320038D02*
X138784836Y-40367657D01*
X133603884Y-85372419D02*
X133603884Y-84372419D01*
X133603884Y-84372419D02*
X133984836Y-84372419D01*
X133984836Y-84372419D02*
X134080074Y-84420038D01*
X134080074Y-84420038D02*
X134127693Y-84467657D01*
X134127693Y-84467657D02*
X134175312Y-84562895D01*
X134175312Y-84562895D02*
X134175312Y-84705752D01*
X134175312Y-84705752D02*
X134127693Y-84800990D01*
X134127693Y-84800990D02*
X134080074Y-84848609D01*
X134080074Y-84848609D02*
X133984836Y-84896228D01*
X133984836Y-84896228D02*
X133603884Y-84896228D01*
X134794360Y-84372419D02*
X134984836Y-84372419D01*
X134984836Y-84372419D02*
X135080074Y-84420038D01*
X135080074Y-84420038D02*
X135175312Y-84515276D01*
X135175312Y-84515276D02*
X135222931Y-84705752D01*
X135222931Y-84705752D02*
X135222931Y-85039085D01*
X135222931Y-85039085D02*
X135175312Y-85229561D01*
X135175312Y-85229561D02*
X135080074Y-85324800D01*
X135080074Y-85324800D02*
X134984836Y-85372419D01*
X134984836Y-85372419D02*
X134794360Y-85372419D01*
X134794360Y-85372419D02*
X134699122Y-85324800D01*
X134699122Y-85324800D02*
X134603884Y-85229561D01*
X134603884Y-85229561D02*
X134556265Y-85039085D01*
X134556265Y-85039085D02*
X134556265Y-84705752D01*
X134556265Y-84705752D02*
X134603884Y-84515276D01*
X134603884Y-84515276D02*
X134699122Y-84420038D01*
X134699122Y-84420038D02*
X134794360Y-84372419D01*
X135556265Y-84372419D02*
X135794360Y-85372419D01*
X135794360Y-85372419D02*
X135984836Y-84658133D01*
X135984836Y-84658133D02*
X136175312Y-85372419D01*
X136175312Y-85372419D02*
X136413408Y-84372419D01*
X136794360Y-84848609D02*
X137127693Y-84848609D01*
X137270550Y-85372419D02*
X136794360Y-85372419D01*
X136794360Y-85372419D02*
X136794360Y-84372419D01*
X136794360Y-84372419D02*
X137270550Y-84372419D01*
X138270550Y-85372419D02*
X137937217Y-84896228D01*
X137699122Y-85372419D02*
X137699122Y-84372419D01*
X137699122Y-84372419D02*
X138080074Y-84372419D01*
X138080074Y-84372419D02*
X138175312Y-84420038D01*
X138175312Y-84420038D02*
X138222931Y-84467657D01*
X138222931Y-84467657D02*
X138270550Y-84562895D01*
X138270550Y-84562895D02*
X138270550Y-84705752D01*
X138270550Y-84705752D02*
X138222931Y-84800990D01*
X138222931Y-84800990D02*
X138175312Y-84848609D01*
X138175312Y-84848609D02*
X138080074Y-84896228D01*
X138080074Y-84896228D02*
X137699122Y-84896228D01*
X110503884Y-85672419D02*
X110503884Y-84672419D01*
X110503884Y-84672419D02*
X110884836Y-84672419D01*
X110884836Y-84672419D02*
X110980074Y-84720038D01*
X110980074Y-84720038D02*
X111027693Y-84767657D01*
X111027693Y-84767657D02*
X111075312Y-84862895D01*
X111075312Y-84862895D02*
X111075312Y-85005752D01*
X111075312Y-85005752D02*
X111027693Y-85100990D01*
X111027693Y-85100990D02*
X110980074Y-85148609D01*
X110980074Y-85148609D02*
X110884836Y-85196228D01*
X110884836Y-85196228D02*
X110503884Y-85196228D01*
X111694360Y-84672419D02*
X111884836Y-84672419D01*
X111884836Y-84672419D02*
X111980074Y-84720038D01*
X111980074Y-84720038D02*
X112075312Y-84815276D01*
X112075312Y-84815276D02*
X112122931Y-85005752D01*
X112122931Y-85005752D02*
X112122931Y-85339085D01*
X112122931Y-85339085D02*
X112075312Y-85529561D01*
X112075312Y-85529561D02*
X111980074Y-85624800D01*
X111980074Y-85624800D02*
X111884836Y-85672419D01*
X111884836Y-85672419D02*
X111694360Y-85672419D01*
X111694360Y-85672419D02*
X111599122Y-85624800D01*
X111599122Y-85624800D02*
X111503884Y-85529561D01*
X111503884Y-85529561D02*
X111456265Y-85339085D01*
X111456265Y-85339085D02*
X111456265Y-85005752D01*
X111456265Y-85005752D02*
X111503884Y-84815276D01*
X111503884Y-84815276D02*
X111599122Y-84720038D01*
X111599122Y-84720038D02*
X111694360Y-84672419D01*
X113122931Y-85672419D02*
X112789598Y-85196228D01*
X112551503Y-85672419D02*
X112551503Y-84672419D01*
X112551503Y-84672419D02*
X112932455Y-84672419D01*
X112932455Y-84672419D02*
X113027693Y-84720038D01*
X113027693Y-84720038D02*
X113075312Y-84767657D01*
X113075312Y-84767657D02*
X113122931Y-84862895D01*
X113122931Y-84862895D02*
X113122931Y-85005752D01*
X113122931Y-85005752D02*
X113075312Y-85100990D01*
X113075312Y-85100990D02*
X113027693Y-85148609D01*
X113027693Y-85148609D02*
X112932455Y-85196228D01*
X112932455Y-85196228D02*
X112551503Y-85196228D01*
X113408646Y-84672419D02*
X113980074Y-84672419D01*
X113694360Y-85672419D02*
X113694360Y-84672419D01*
X114265789Y-85386704D02*
X114741979Y-85386704D01*
X114170551Y-85672419D02*
X114503884Y-84672419D01*
X114503884Y-84672419D02*
X114837217Y-85672419D01*
D11*
X89114333Y-47048819D02*
X88781000Y-46572628D01*
X88542905Y-47048819D02*
X88542905Y-46048819D01*
X88542905Y-46048819D02*
X88923857Y-46048819D01*
X88923857Y-46048819D02*
X89019095Y-46096438D01*
X89019095Y-46096438D02*
X89066714Y-46144057D01*
X89066714Y-46144057D02*
X89114333Y-46239295D01*
X89114333Y-46239295D02*
X89114333Y-46382152D01*
X89114333Y-46382152D02*
X89066714Y-46477390D01*
X89066714Y-46477390D02*
X89019095Y-46525009D01*
X89019095Y-46525009D02*
X88923857Y-46572628D01*
X88923857Y-46572628D02*
X88542905Y-46572628D01*
X89495286Y-46144057D02*
X89542905Y-46096438D01*
X89542905Y-46096438D02*
X89638143Y-46048819D01*
X89638143Y-46048819D02*
X89876238Y-46048819D01*
X89876238Y-46048819D02*
X89971476Y-46096438D01*
X89971476Y-46096438D02*
X90019095Y-46144057D01*
X90019095Y-46144057D02*
X90066714Y-46239295D01*
X90066714Y-46239295D02*
X90066714Y-46334533D01*
X90066714Y-46334533D02*
X90019095Y-46477390D01*
X90019095Y-46477390D02*
X89447667Y-47048819D01*
X89447667Y-47048819D02*
X90066714Y-47048819D01*
X102009580Y-61566666D02*
X102057200Y-61614285D01*
X102057200Y-61614285D02*
X102104819Y-61757142D01*
X102104819Y-61757142D02*
X102104819Y-61852380D01*
X102104819Y-61852380D02*
X102057200Y-61995237D01*
X102057200Y-61995237D02*
X101961961Y-62090475D01*
X101961961Y-62090475D02*
X101866723Y-62138094D01*
X101866723Y-62138094D02*
X101676247Y-62185713D01*
X101676247Y-62185713D02*
X101533390Y-62185713D01*
X101533390Y-62185713D02*
X101342914Y-62138094D01*
X101342914Y-62138094D02*
X101247676Y-62090475D01*
X101247676Y-62090475D02*
X101152438Y-61995237D01*
X101152438Y-61995237D02*
X101104819Y-61852380D01*
X101104819Y-61852380D02*
X101104819Y-61757142D01*
X101104819Y-61757142D02*
X101152438Y-61614285D01*
X101152438Y-61614285D02*
X101200057Y-61566666D01*
X101200057Y-61185713D02*
X101152438Y-61138094D01*
X101152438Y-61138094D02*
X101104819Y-61042856D01*
X101104819Y-61042856D02*
X101104819Y-60804761D01*
X101104819Y-60804761D02*
X101152438Y-60709523D01*
X101152438Y-60709523D02*
X101200057Y-60661904D01*
X101200057Y-60661904D02*
X101295295Y-60614285D01*
X101295295Y-60614285D02*
X101390533Y-60614285D01*
X101390533Y-60614285D02*
X101533390Y-60661904D01*
X101533390Y-60661904D02*
X102104819Y-61233332D01*
X102104819Y-61233332D02*
X102104819Y-60614285D01*
X97327580Y-77467166D02*
X97375200Y-77514785D01*
X97375200Y-77514785D02*
X97422819Y-77657642D01*
X97422819Y-77657642D02*
X97422819Y-77752880D01*
X97422819Y-77752880D02*
X97375200Y-77895737D01*
X97375200Y-77895737D02*
X97279961Y-77990975D01*
X97279961Y-77990975D02*
X97184723Y-78038594D01*
X97184723Y-78038594D02*
X96994247Y-78086213D01*
X96994247Y-78086213D02*
X96851390Y-78086213D01*
X96851390Y-78086213D02*
X96660914Y-78038594D01*
X96660914Y-78038594D02*
X96565676Y-77990975D01*
X96565676Y-77990975D02*
X96470438Y-77895737D01*
X96470438Y-77895737D02*
X96422819Y-77752880D01*
X96422819Y-77752880D02*
X96422819Y-77657642D01*
X96422819Y-77657642D02*
X96470438Y-77514785D01*
X96470438Y-77514785D02*
X96518057Y-77467166D01*
X97422819Y-76514785D02*
X97422819Y-77086213D01*
X97422819Y-76800499D02*
X96422819Y-76800499D01*
X96422819Y-76800499D02*
X96565676Y-76895737D01*
X96565676Y-76895737D02*
X96660914Y-76990975D01*
X96660914Y-76990975D02*
X96708533Y-77086213D01*
X125073580Y-72048666D02*
X125121200Y-72096285D01*
X125121200Y-72096285D02*
X125168819Y-72239142D01*
X125168819Y-72239142D02*
X125168819Y-72334380D01*
X125168819Y-72334380D02*
X125121200Y-72477237D01*
X125121200Y-72477237D02*
X125025961Y-72572475D01*
X125025961Y-72572475D02*
X124930723Y-72620094D01*
X124930723Y-72620094D02*
X124740247Y-72667713D01*
X124740247Y-72667713D02*
X124597390Y-72667713D01*
X124597390Y-72667713D02*
X124406914Y-72620094D01*
X124406914Y-72620094D02*
X124311676Y-72572475D01*
X124311676Y-72572475D02*
X124216438Y-72477237D01*
X124216438Y-72477237D02*
X124168819Y-72334380D01*
X124168819Y-72334380D02*
X124168819Y-72239142D01*
X124168819Y-72239142D02*
X124216438Y-72096285D01*
X124216438Y-72096285D02*
X124264057Y-72048666D01*
X124168819Y-71143904D02*
X124168819Y-71620094D01*
X124168819Y-71620094D02*
X124645009Y-71667713D01*
X124645009Y-71667713D02*
X124597390Y-71620094D01*
X124597390Y-71620094D02*
X124549771Y-71524856D01*
X124549771Y-71524856D02*
X124549771Y-71286761D01*
X124549771Y-71286761D02*
X124597390Y-71191523D01*
X124597390Y-71191523D02*
X124645009Y-71143904D01*
X124645009Y-71143904D02*
X124740247Y-71096285D01*
X124740247Y-71096285D02*
X124978342Y-71096285D01*
X124978342Y-71096285D02*
X125073580Y-71143904D01*
X125073580Y-71143904D02*
X125121200Y-71191523D01*
X125121200Y-71191523D02*
X125168819Y-71286761D01*
X125168819Y-71286761D02*
X125168819Y-71524856D01*
X125168819Y-71524856D02*
X125121200Y-71620094D01*
X125121200Y-71620094D02*
X125073580Y-71667713D01*
X77914667Y-48608200D02*
X78057524Y-48655819D01*
X78057524Y-48655819D02*
X78295619Y-48655819D01*
X78295619Y-48655819D02*
X78390857Y-48608200D01*
X78390857Y-48608200D02*
X78438476Y-48560580D01*
X78438476Y-48560580D02*
X78486095Y-48465342D01*
X78486095Y-48465342D02*
X78486095Y-48370104D01*
X78486095Y-48370104D02*
X78438476Y-48274866D01*
X78438476Y-48274866D02*
X78390857Y-48227247D01*
X78390857Y-48227247D02*
X78295619Y-48179628D01*
X78295619Y-48179628D02*
X78105143Y-48132009D01*
X78105143Y-48132009D02*
X78009905Y-48084390D01*
X78009905Y-48084390D02*
X77962286Y-48036771D01*
X77962286Y-48036771D02*
X77914667Y-47941533D01*
X77914667Y-47941533D02*
X77914667Y-47846295D01*
X77914667Y-47846295D02*
X77962286Y-47751057D01*
X77962286Y-47751057D02*
X78009905Y-47703438D01*
X78009905Y-47703438D02*
X78105143Y-47655819D01*
X78105143Y-47655819D02*
X78343238Y-47655819D01*
X78343238Y-47655819D02*
X78486095Y-47703438D01*
X78819429Y-47655819D02*
X79057524Y-48655819D01*
X79057524Y-48655819D02*
X79248000Y-47941533D01*
X79248000Y-47941533D02*
X79438476Y-48655819D01*
X79438476Y-48655819D02*
X79676572Y-47655819D01*
X80581333Y-48655819D02*
X80009905Y-48655819D01*
X80295619Y-48655819D02*
X80295619Y-47655819D01*
X80295619Y-47655819D02*
X80200381Y-47798676D01*
X80200381Y-47798676D02*
X80105143Y-47893914D01*
X80105143Y-47893914D02*
X80009905Y-47941533D01*
X134851819Y-76127333D02*
X135566104Y-76127333D01*
X135566104Y-76127333D02*
X135708961Y-76174952D01*
X135708961Y-76174952D02*
X135804200Y-76270190D01*
X135804200Y-76270190D02*
X135851819Y-76413047D01*
X135851819Y-76413047D02*
X135851819Y-76508285D01*
X134851819Y-75222571D02*
X134851819Y-75413047D01*
X134851819Y-75413047D02*
X134899438Y-75508285D01*
X134899438Y-75508285D02*
X134947057Y-75555904D01*
X134947057Y-75555904D02*
X135089914Y-75651142D01*
X135089914Y-75651142D02*
X135280390Y-75698761D01*
X135280390Y-75698761D02*
X135661342Y-75698761D01*
X135661342Y-75698761D02*
X135756580Y-75651142D01*
X135756580Y-75651142D02*
X135804200Y-75603523D01*
X135804200Y-75603523D02*
X135851819Y-75508285D01*
X135851819Y-75508285D02*
X135851819Y-75317809D01*
X135851819Y-75317809D02*
X135804200Y-75222571D01*
X135804200Y-75222571D02*
X135756580Y-75174952D01*
X135756580Y-75174952D02*
X135661342Y-75127333D01*
X135661342Y-75127333D02*
X135423247Y-75127333D01*
X135423247Y-75127333D02*
X135328009Y-75174952D01*
X135328009Y-75174952D02*
X135280390Y-75222571D01*
X135280390Y-75222571D02*
X135232771Y-75317809D01*
X135232771Y-75317809D02*
X135232771Y-75508285D01*
X135232771Y-75508285D02*
X135280390Y-75603523D01*
X135280390Y-75603523D02*
X135328009Y-75651142D01*
X135328009Y-75651142D02*
X135423247Y-75698761D01*
X77861666Y-82420819D02*
X77861666Y-83135104D01*
X77861666Y-83135104D02*
X77814047Y-83277961D01*
X77814047Y-83277961D02*
X77718809Y-83373200D01*
X77718809Y-83373200D02*
X77575952Y-83420819D01*
X77575952Y-83420819D02*
X77480714Y-83420819D01*
X78861666Y-83420819D02*
X78290238Y-83420819D01*
X78575952Y-83420819D02*
X78575952Y-82420819D01*
X78575952Y-82420819D02*
X78480714Y-82563676D01*
X78480714Y-82563676D02*
X78385476Y-82658914D01*
X78385476Y-82658914D02*
X78290238Y-82706533D01*
X145589666Y-65704819D02*
X145589666Y-66419104D01*
X145589666Y-66419104D02*
X145542047Y-66561961D01*
X145542047Y-66561961D02*
X145446809Y-66657200D01*
X145446809Y-66657200D02*
X145303952Y-66704819D01*
X145303952Y-66704819D02*
X145208714Y-66704819D01*
X145970619Y-65704819D02*
X146589666Y-65704819D01*
X146589666Y-65704819D02*
X146256333Y-66085771D01*
X146256333Y-66085771D02*
X146399190Y-66085771D01*
X146399190Y-66085771D02*
X146494428Y-66133390D01*
X146494428Y-66133390D02*
X146542047Y-66181009D01*
X146542047Y-66181009D02*
X146589666Y-66276247D01*
X146589666Y-66276247D02*
X146589666Y-66514342D01*
X146589666Y-66514342D02*
X146542047Y-66609580D01*
X146542047Y-66609580D02*
X146494428Y-66657200D01*
X146494428Y-66657200D02*
X146399190Y-66704819D01*
X146399190Y-66704819D02*
X146113476Y-66704819D01*
X146113476Y-66704819D02*
X146018238Y-66657200D01*
X146018238Y-66657200D02*
X145970619Y-66609580D01*
X94833333Y-59354819D02*
X94500000Y-58878628D01*
X94261905Y-59354819D02*
X94261905Y-58354819D01*
X94261905Y-58354819D02*
X94642857Y-58354819D01*
X94642857Y-58354819D02*
X94738095Y-58402438D01*
X94738095Y-58402438D02*
X94785714Y-58450057D01*
X94785714Y-58450057D02*
X94833333Y-58545295D01*
X94833333Y-58545295D02*
X94833333Y-58688152D01*
X94833333Y-58688152D02*
X94785714Y-58783390D01*
X94785714Y-58783390D02*
X94738095Y-58831009D01*
X94738095Y-58831009D02*
X94642857Y-58878628D01*
X94642857Y-58878628D02*
X94261905Y-58878628D01*
X95785714Y-59354819D02*
X95214286Y-59354819D01*
X95500000Y-59354819D02*
X95500000Y-58354819D01*
X95500000Y-58354819D02*
X95404762Y-58497676D01*
X95404762Y-58497676D02*
X95309524Y-58592914D01*
X95309524Y-58592914D02*
X95214286Y-58640533D01*
X70400819Y-64007904D02*
X71210342Y-64007904D01*
X71210342Y-64007904D02*
X71305580Y-63960285D01*
X71305580Y-63960285D02*
X71353200Y-63912666D01*
X71353200Y-63912666D02*
X71400819Y-63817428D01*
X71400819Y-63817428D02*
X71400819Y-63626952D01*
X71400819Y-63626952D02*
X71353200Y-63531714D01*
X71353200Y-63531714D02*
X71305580Y-63484095D01*
X71305580Y-63484095D02*
X71210342Y-63436476D01*
X71210342Y-63436476D02*
X70400819Y-63436476D01*
X70496057Y-63007904D02*
X70448438Y-62960285D01*
X70448438Y-62960285D02*
X70400819Y-62865047D01*
X70400819Y-62865047D02*
X70400819Y-62626952D01*
X70400819Y-62626952D02*
X70448438Y-62531714D01*
X70448438Y-62531714D02*
X70496057Y-62484095D01*
X70496057Y-62484095D02*
X70591295Y-62436476D01*
X70591295Y-62436476D02*
X70686533Y-62436476D01*
X70686533Y-62436476D02*
X70829390Y-62484095D01*
X70829390Y-62484095D02*
X71400819Y-63055523D01*
X71400819Y-63055523D02*
X71400819Y-62436476D01*
X123201819Y-82502333D02*
X123916104Y-82502333D01*
X123916104Y-82502333D02*
X124058961Y-82549952D01*
X124058961Y-82549952D02*
X124154200Y-82645190D01*
X124154200Y-82645190D02*
X124201819Y-82788047D01*
X124201819Y-82788047D02*
X124201819Y-82883285D01*
X123297057Y-82073761D02*
X123249438Y-82026142D01*
X123249438Y-82026142D02*
X123201819Y-81930904D01*
X123201819Y-81930904D02*
X123201819Y-81692809D01*
X123201819Y-81692809D02*
X123249438Y-81597571D01*
X123249438Y-81597571D02*
X123297057Y-81549952D01*
X123297057Y-81549952D02*
X123392295Y-81502333D01*
X123392295Y-81502333D02*
X123487533Y-81502333D01*
X123487533Y-81502333D02*
X123630390Y-81549952D01*
X123630390Y-81549952D02*
X124201819Y-82121380D01*
X124201819Y-82121380D02*
X124201819Y-81502333D01*
X130897580Y-71814666D02*
X130945200Y-71862285D01*
X130945200Y-71862285D02*
X130992819Y-72005142D01*
X130992819Y-72005142D02*
X130992819Y-72100380D01*
X130992819Y-72100380D02*
X130945200Y-72243237D01*
X130945200Y-72243237D02*
X130849961Y-72338475D01*
X130849961Y-72338475D02*
X130754723Y-72386094D01*
X130754723Y-72386094D02*
X130564247Y-72433713D01*
X130564247Y-72433713D02*
X130421390Y-72433713D01*
X130421390Y-72433713D02*
X130230914Y-72386094D01*
X130230914Y-72386094D02*
X130135676Y-72338475D01*
X130135676Y-72338475D02*
X130040438Y-72243237D01*
X130040438Y-72243237D02*
X129992819Y-72100380D01*
X129992819Y-72100380D02*
X129992819Y-72005142D01*
X129992819Y-72005142D02*
X130040438Y-71862285D01*
X130040438Y-71862285D02*
X130088057Y-71814666D01*
X129992819Y-70957523D02*
X129992819Y-71147999D01*
X129992819Y-71147999D02*
X130040438Y-71243237D01*
X130040438Y-71243237D02*
X130088057Y-71290856D01*
X130088057Y-71290856D02*
X130230914Y-71386094D01*
X130230914Y-71386094D02*
X130421390Y-71433713D01*
X130421390Y-71433713D02*
X130802342Y-71433713D01*
X130802342Y-71433713D02*
X130897580Y-71386094D01*
X130897580Y-71386094D02*
X130945200Y-71338475D01*
X130945200Y-71338475D02*
X130992819Y-71243237D01*
X130992819Y-71243237D02*
X130992819Y-71052761D01*
X130992819Y-71052761D02*
X130945200Y-70957523D01*
X130945200Y-70957523D02*
X130897580Y-70909904D01*
X130897580Y-70909904D02*
X130802342Y-70862285D01*
X130802342Y-70862285D02*
X130564247Y-70862285D01*
X130564247Y-70862285D02*
X130469009Y-70909904D01*
X130469009Y-70909904D02*
X130421390Y-70957523D01*
X130421390Y-70957523D02*
X130373771Y-71052761D01*
X130373771Y-71052761D02*
X130373771Y-71243237D01*
X130373771Y-71243237D02*
X130421390Y-71338475D01*
X130421390Y-71338475D02*
X130469009Y-71386094D01*
X130469009Y-71386094D02*
X130564247Y-71433713D01*
X140061333Y-74400580D02*
X140013714Y-74448200D01*
X140013714Y-74448200D02*
X139870857Y-74495819D01*
X139870857Y-74495819D02*
X139775619Y-74495819D01*
X139775619Y-74495819D02*
X139632762Y-74448200D01*
X139632762Y-74448200D02*
X139537524Y-74352961D01*
X139537524Y-74352961D02*
X139489905Y-74257723D01*
X139489905Y-74257723D02*
X139442286Y-74067247D01*
X139442286Y-74067247D02*
X139442286Y-73924390D01*
X139442286Y-73924390D02*
X139489905Y-73733914D01*
X139489905Y-73733914D02*
X139537524Y-73638676D01*
X139537524Y-73638676D02*
X139632762Y-73543438D01*
X139632762Y-73543438D02*
X139775619Y-73495819D01*
X139775619Y-73495819D02*
X139870857Y-73495819D01*
X139870857Y-73495819D02*
X140013714Y-73543438D01*
X140013714Y-73543438D02*
X140061333Y-73591057D01*
X140918476Y-73829152D02*
X140918476Y-74495819D01*
X140680381Y-73448200D02*
X140442286Y-74162485D01*
X140442286Y-74162485D02*
X141061333Y-74162485D01*
X88415905Y-51215819D02*
X88415905Y-50215819D01*
X88415905Y-50215819D02*
X88654000Y-50215819D01*
X88654000Y-50215819D02*
X88796857Y-50263438D01*
X88796857Y-50263438D02*
X88892095Y-50358676D01*
X88892095Y-50358676D02*
X88939714Y-50453914D01*
X88939714Y-50453914D02*
X88987333Y-50644390D01*
X88987333Y-50644390D02*
X88987333Y-50787247D01*
X88987333Y-50787247D02*
X88939714Y-50977723D01*
X88939714Y-50977723D02*
X88892095Y-51072961D01*
X88892095Y-51072961D02*
X88796857Y-51168200D01*
X88796857Y-51168200D02*
X88654000Y-51215819D01*
X88654000Y-51215819D02*
X88415905Y-51215819D01*
X89939714Y-51215819D02*
X89368286Y-51215819D01*
X89654000Y-51215819D02*
X89654000Y-50215819D01*
X89654000Y-50215819D02*
X89558762Y-50358676D01*
X89558762Y-50358676D02*
X89463524Y-50453914D01*
X89463524Y-50453914D02*
X89368286Y-50501533D01*
X103491819Y-82629333D02*
X104206104Y-82629333D01*
X104206104Y-82629333D02*
X104348961Y-82676952D01*
X104348961Y-82676952D02*
X104444200Y-82772190D01*
X104444200Y-82772190D02*
X104491819Y-82915047D01*
X104491819Y-82915047D02*
X104491819Y-83010285D01*
X103491819Y-82248380D02*
X103491819Y-81581714D01*
X103491819Y-81581714D02*
X104491819Y-82010285D01*
X124652819Y-43513333D02*
X125367104Y-43513333D01*
X125367104Y-43513333D02*
X125509961Y-43560952D01*
X125509961Y-43560952D02*
X125605200Y-43656190D01*
X125605200Y-43656190D02*
X125652819Y-43799047D01*
X125652819Y-43799047D02*
X125652819Y-43894285D01*
X124986152Y-42608571D02*
X125652819Y-42608571D01*
X124605200Y-42846666D02*
X125319485Y-43084761D01*
X125319485Y-43084761D02*
X125319485Y-42465714D01*
X126218333Y-58162580D02*
X126170714Y-58210200D01*
X126170714Y-58210200D02*
X126027857Y-58257819D01*
X126027857Y-58257819D02*
X125932619Y-58257819D01*
X125932619Y-58257819D02*
X125789762Y-58210200D01*
X125789762Y-58210200D02*
X125694524Y-58114961D01*
X125694524Y-58114961D02*
X125646905Y-58019723D01*
X125646905Y-58019723D02*
X125599286Y-57829247D01*
X125599286Y-57829247D02*
X125599286Y-57686390D01*
X125599286Y-57686390D02*
X125646905Y-57495914D01*
X125646905Y-57495914D02*
X125694524Y-57400676D01*
X125694524Y-57400676D02*
X125789762Y-57305438D01*
X125789762Y-57305438D02*
X125932619Y-57257819D01*
X125932619Y-57257819D02*
X126027857Y-57257819D01*
X126027857Y-57257819D02*
X126170714Y-57305438D01*
X126170714Y-57305438D02*
X126218333Y-57353057D01*
X126551667Y-57257819D02*
X127170714Y-57257819D01*
X127170714Y-57257819D02*
X126837381Y-57638771D01*
X126837381Y-57638771D02*
X126980238Y-57638771D01*
X126980238Y-57638771D02*
X127075476Y-57686390D01*
X127075476Y-57686390D02*
X127123095Y-57734009D01*
X127123095Y-57734009D02*
X127170714Y-57829247D01*
X127170714Y-57829247D02*
X127170714Y-58067342D01*
X127170714Y-58067342D02*
X127123095Y-58162580D01*
X127123095Y-58162580D02*
X127075476Y-58210200D01*
X127075476Y-58210200D02*
X126980238Y-58257819D01*
X126980238Y-58257819D02*
X126694524Y-58257819D01*
X126694524Y-58257819D02*
X126599286Y-58210200D01*
X126599286Y-58210200D02*
X126551667Y-58162580D01*
X79234819Y-43513333D02*
X79949104Y-43513333D01*
X79949104Y-43513333D02*
X80091961Y-43560952D01*
X80091961Y-43560952D02*
X80187200Y-43656190D01*
X80187200Y-43656190D02*
X80234819Y-43799047D01*
X80234819Y-43799047D02*
X80234819Y-43894285D01*
X79663390Y-42894285D02*
X79615771Y-42989523D01*
X79615771Y-42989523D02*
X79568152Y-43037142D01*
X79568152Y-43037142D02*
X79472914Y-43084761D01*
X79472914Y-43084761D02*
X79425295Y-43084761D01*
X79425295Y-43084761D02*
X79330057Y-43037142D01*
X79330057Y-43037142D02*
X79282438Y-42989523D01*
X79282438Y-42989523D02*
X79234819Y-42894285D01*
X79234819Y-42894285D02*
X79234819Y-42703809D01*
X79234819Y-42703809D02*
X79282438Y-42608571D01*
X79282438Y-42608571D02*
X79330057Y-42560952D01*
X79330057Y-42560952D02*
X79425295Y-42513333D01*
X79425295Y-42513333D02*
X79472914Y-42513333D01*
X79472914Y-42513333D02*
X79568152Y-42560952D01*
X79568152Y-42560952D02*
X79615771Y-42608571D01*
X79615771Y-42608571D02*
X79663390Y-42703809D01*
X79663390Y-42703809D02*
X79663390Y-42894285D01*
X79663390Y-42894285D02*
X79711009Y-42989523D01*
X79711009Y-42989523D02*
X79758628Y-43037142D01*
X79758628Y-43037142D02*
X79853866Y-43084761D01*
X79853866Y-43084761D02*
X80044342Y-43084761D01*
X80044342Y-43084761D02*
X80139580Y-43037142D01*
X80139580Y-43037142D02*
X80187200Y-42989523D01*
X80187200Y-42989523D02*
X80234819Y-42894285D01*
X80234819Y-42894285D02*
X80234819Y-42703809D01*
X80234819Y-42703809D02*
X80187200Y-42608571D01*
X80187200Y-42608571D02*
X80139580Y-42560952D01*
X80139580Y-42560952D02*
X80044342Y-42513333D01*
X80044342Y-42513333D02*
X79853866Y-42513333D01*
X79853866Y-42513333D02*
X79758628Y-42560952D01*
X79758628Y-42560952D02*
X79711009Y-42608571D01*
X79711009Y-42608571D02*
X79663390Y-42703809D01*
X102026819Y-63753904D02*
X102836342Y-63753904D01*
X102836342Y-63753904D02*
X102931580Y-63706285D01*
X102931580Y-63706285D02*
X102979200Y-63658666D01*
X102979200Y-63658666D02*
X103026819Y-63563428D01*
X103026819Y-63563428D02*
X103026819Y-63372952D01*
X103026819Y-63372952D02*
X102979200Y-63277714D01*
X102979200Y-63277714D02*
X102931580Y-63230095D01*
X102931580Y-63230095D02*
X102836342Y-63182476D01*
X102836342Y-63182476D02*
X102026819Y-63182476D01*
X103026819Y-62182476D02*
X103026819Y-62753904D01*
X103026819Y-62468190D02*
X102026819Y-62468190D01*
X102026819Y-62468190D02*
X102169676Y-62563428D01*
X102169676Y-62563428D02*
X102264914Y-62658666D01*
X102264914Y-62658666D02*
X102312533Y-62753904D01*
X149051819Y-43488333D02*
X149766104Y-43488333D01*
X149766104Y-43488333D02*
X149908961Y-43535952D01*
X149908961Y-43535952D02*
X150004200Y-43631190D01*
X150004200Y-43631190D02*
X150051819Y-43774047D01*
X150051819Y-43774047D02*
X150051819Y-43869285D01*
X149051819Y-42535952D02*
X149051819Y-43012142D01*
X149051819Y-43012142D02*
X149528009Y-43059761D01*
X149528009Y-43059761D02*
X149480390Y-43012142D01*
X149480390Y-43012142D02*
X149432771Y-42916904D01*
X149432771Y-42916904D02*
X149432771Y-42678809D01*
X149432771Y-42678809D02*
X149480390Y-42583571D01*
X149480390Y-42583571D02*
X149528009Y-42535952D01*
X149528009Y-42535952D02*
X149623247Y-42488333D01*
X149623247Y-42488333D02*
X149861342Y-42488333D01*
X149861342Y-42488333D02*
X149956580Y-42535952D01*
X149956580Y-42535952D02*
X150004200Y-42583571D01*
X150004200Y-42583571D02*
X150051819Y-42678809D01*
X150051819Y-42678809D02*
X150051819Y-42916904D01*
X150051819Y-42916904D02*
X150004200Y-43012142D01*
X150004200Y-43012142D02*
X149956580Y-43059761D01*
D12*
%TO.C,R2*%
X87361000Y-47594000D02*
X91201000Y-47594000D01*
X87361000Y-49434000D02*
X91201000Y-49434000D01*
%TO.C,C2*%
X100520000Y-61400000D02*
G75*
G02*
X95280000Y-61400000I-2620000J0D01*
G01*
X95280000Y-61400000D02*
G75*
G02*
X100520000Y-61400000I2620000J0D01*
G01*
%TO.C,C1*%
X95838000Y-77300500D02*
G75*
G02*
X90598000Y-77300500I-2620000J0D01*
G01*
X90598000Y-77300500D02*
G75*
G02*
X95838000Y-77300500I2620000J0D01*
G01*
%TO.C,C5*%
X126080000Y-71019000D02*
X126080000Y-72277000D01*
X127920000Y-71019000D02*
X127920000Y-72277000D01*
%TO.C,SW1*%
X75748000Y-51701000D02*
X75748000Y-53201000D01*
X76998000Y-55701000D02*
X81498000Y-55701000D01*
X81498000Y-49201000D02*
X76998000Y-49201000D01*
X82748000Y-53201000D02*
X82748000Y-51701000D01*
%TO.C,J6*%
X125924000Y-74997000D02*
X125924000Y-77657000D01*
X131064000Y-74997000D02*
X125924000Y-74997000D01*
X131064000Y-74997000D02*
X131064000Y-77657000D01*
X131064000Y-77657000D02*
X125924000Y-77657000D01*
X133664000Y-76327000D02*
X133664000Y-77657000D01*
X133664000Y-77657000D02*
X132334000Y-77657000D01*
%TO.C,J1*%
X72845000Y-72616000D02*
X87545000Y-72616000D01*
X72845000Y-81816000D02*
X72845000Y-72616000D01*
X81645000Y-81816000D02*
X72845000Y-81816000D01*
X86695000Y-72416000D02*
X87745000Y-72416000D01*
X87545000Y-72616000D02*
X87545000Y-75216000D01*
X87545000Y-79116000D02*
X87545000Y-81816000D01*
X87545000Y-81816000D02*
X85645000Y-81816000D01*
X87745000Y-73466000D02*
X87745000Y-72416000D01*
%TO.C,J3*%
X144593000Y-67250000D02*
X145923000Y-67250000D01*
X144593000Y-68580000D02*
X144593000Y-67250000D01*
X144593000Y-69850000D02*
X144593000Y-72450000D01*
X144593000Y-69850000D02*
X147253000Y-69850000D01*
X144593000Y-72450000D02*
X147253000Y-72450000D01*
X147253000Y-69850000D02*
X147253000Y-72450000D01*
%TO.C,R1*%
X97980000Y-55780000D02*
X94140000Y-55780000D01*
X97980000Y-57620000D02*
X94140000Y-57620000D01*
%TO.C,U2*%
X71946000Y-58126000D02*
X87836000Y-58126000D01*
X71946000Y-68366000D02*
X71946000Y-58126000D01*
X71946000Y-68366000D02*
X87836000Y-68366000D01*
X87836000Y-60706000D02*
X90376000Y-60706000D01*
X87836000Y-63246000D02*
X90376000Y-63246000D01*
X87836000Y-65786000D02*
X90376000Y-65786000D01*
X87836000Y-68366000D02*
X87836000Y-58126000D01*
%TO.C,J2*%
X125187000Y-80839000D02*
X126517000Y-80839000D01*
X125187000Y-82169000D02*
X125187000Y-80839000D01*
X127787000Y-80839000D02*
X148167000Y-80839000D01*
X127787000Y-83499000D02*
X127787000Y-80839000D01*
X127787000Y-83499000D02*
X148167000Y-83499000D01*
X148167000Y-83499000D02*
X148167000Y-80839000D01*
%TO.C,C6*%
X131668000Y-72277000D02*
X131668000Y-71019000D01*
X133508000Y-72277000D02*
X133508000Y-71019000D01*
%TO.C,C4*%
X139599000Y-74899000D02*
X140857000Y-74899000D01*
X139599000Y-76739000D02*
X140857000Y-76739000D01*
%TO.C,D1*%
X87594000Y-52485000D02*
X87594000Y-52641000D01*
X87594000Y-54801000D02*
X87594000Y-54957000D01*
X87594000Y-52485484D02*
G75*
G02*
X90826335Y-52642392I1560000J-1235516D01*
G01*
X88113039Y-52641000D02*
G75*
G02*
X90195130Y-52641163I1040961J-1080000D01*
G01*
X90195130Y-54800837D02*
G75*
G02*
X88113039Y-54801000I-1041130J1079837D01*
G01*
X90826335Y-54799608D02*
G75*
G02*
X87594000Y-54956516I-1672335J1078608D01*
G01*
%TO.C,J7*%
X105477000Y-80966000D02*
X106807000Y-80966000D01*
X105477000Y-82296000D02*
X105477000Y-80966000D01*
X108077000Y-80966000D02*
X120837000Y-80966000D01*
X108077000Y-83626000D02*
X108077000Y-80966000D01*
X108077000Y-83626000D02*
X120837000Y-83626000D01*
X120837000Y-83626000D02*
X120837000Y-80966000D01*
%TO.C,J4*%
X103318000Y-41850000D02*
X103318000Y-44510000D01*
X121158000Y-41850000D02*
X103318000Y-41850000D01*
X121158000Y-41850000D02*
X121158000Y-44510000D01*
X121158000Y-44510000D02*
X103318000Y-44510000D01*
X123758000Y-43180000D02*
X123758000Y-44510000D01*
X123758000Y-44510000D02*
X122428000Y-44510000D01*
%TO.C,C3*%
X127014000Y-54833000D02*
X125756000Y-54833000D01*
X127014000Y-56673000D02*
X125756000Y-56673000D01*
%TO.C,J8*%
X81220000Y-41850000D02*
X82550000Y-41850000D01*
X81220000Y-43180000D02*
X81220000Y-41850000D01*
X83820000Y-41850000D02*
X94040000Y-41850000D01*
X83820000Y-44510000D02*
X83820000Y-41850000D01*
X83820000Y-44510000D02*
X94040000Y-44510000D01*
X94040000Y-44510000D02*
X94040000Y-41850000D01*
%TO.C,U1*%
X103572000Y-60342000D02*
X103572000Y-61992000D01*
X103572000Y-63992000D02*
X103572000Y-65642000D01*
X103572000Y-65642000D02*
X139252000Y-65642000D01*
X139252000Y-60342000D02*
X103572000Y-60342000D01*
X139252000Y-65642000D02*
X139252000Y-60342000D01*
X103572000Y-61992000D02*
G75*
G02*
X103572000Y-63992000I0J-1000000D01*
G01*
%TO.C,J5*%
X127717000Y-41825000D02*
X127717000Y-44485000D01*
X145557000Y-41825000D02*
X127717000Y-41825000D01*
X145557000Y-41825000D02*
X145557000Y-44485000D01*
X145557000Y-44485000D02*
X127717000Y-44485000D01*
X148157000Y-43155000D02*
X148157000Y-44485000D01*
X148157000Y-44485000D02*
X146827000Y-44485000D01*
%TD*%
M02*
