%TF.GenerationSoftware,KiCad,Pcbnew,8.0.5*%
%TF.CreationDate,2025-01-06T05:05:23+01:00*%
%TF.ProjectId,my_Project2,6d795f50-726f-46a6-9563-74322e6b6963,rev?*%
%TF.SameCoordinates,Original*%
%TF.FileFunction,Soldermask,Top*%
%TF.FilePolarity,Negative*%
%FSLAX46Y46*%
G04 Gerber Fmt 4.6, Leading zero omitted, Abs format (unit mm)*
G04 Created by KiCad (PCBNEW 8.0.5) date 2025-01-06 05:05:23*
%MOMM*%
%LPD*%
G01*
G04 APERTURE LIST*
G04 Aperture macros list*
%AMRoundRect*
0 Rectangle with rounded corners*
0 $1 Rounding radius*
0 $2 $3 $4 $5 $6 $7 $8 $9 X,Y pos of 4 corners*
0 Add a 4 corners polygon primitive as box body*
4,1,4,$2,$3,$4,$5,$6,$7,$8,$9,$2,$3,0*
0 Add four circle primitives for the rounded corners*
1,1,$1+$1,$2,$3*
1,1,$1+$1,$4,$5*
1,1,$1+$1,$6,$7*
1,1,$1+$1,$8,$9*
0 Add four rect primitives between the rounded corners*
20,1,$1+$1,$2,$3,$4,$5,0*
20,1,$1+$1,$4,$5,$6,$7,0*
20,1,$1+$1,$6,$7,$8,$9,0*
20,1,$1+$1,$8,$9,$2,$3,0*%
G04 Aperture macros list end*
%ADD10C,1.400000*%
%ADD11O,1.400000X1.400000*%
%ADD12C,1.200000*%
%ADD13C,1.600000*%
%ADD14C,2.000000*%
%ADD15R,1.700000X1.700000*%
%ADD16O,1.700000X1.700000*%
%ADD17R,3.500000X3.500000*%
%ADD18RoundRect,0.750000X-0.750000X-1.000000X0.750000X-1.000000X0.750000X1.000000X-0.750000X1.000000X0*%
%ADD19RoundRect,0.875000X-0.875000X-0.875000X0.875000X-0.875000X0.875000X0.875000X-0.875000X0.875000X0*%
%ADD20O,3.500000X3.500000*%
%ADD21R,2.000000X1.905000*%
%ADD22O,2.000000X1.905000*%
%ADD23R,1.800000X1.800000*%
%ADD24C,1.800000*%
%ADD25R,1.600000X1.600000*%
%ADD26O,1.600000X1.600000*%
G04 APERTURE END LIST*
D10*
%TO.C,R2*%
X86741000Y-48514000D03*
D11*
X91821000Y-48514000D03*
%TD*%
D12*
%TO.C,C2*%
X97900000Y-60400000D03*
X97900000Y-62400000D03*
%TD*%
%TO.C,C1*%
X93218000Y-76300500D03*
X93218000Y-78300500D03*
%TD*%
D13*
%TO.C,C5*%
X127000000Y-70398000D03*
X127000000Y-72898000D03*
%TD*%
D14*
%TO.C,SW1*%
X75998000Y-50201000D03*
X82498000Y-50201000D03*
X75998000Y-54701000D03*
X82498000Y-54701000D03*
%TD*%
D15*
%TO.C,J6*%
X132334000Y-76327000D03*
D16*
X129794000Y-76327000D03*
X127254000Y-76327000D03*
%TD*%
D17*
%TO.C,J1*%
X86645000Y-77216000D03*
D18*
X80645000Y-77216000D03*
D19*
X83645000Y-81916000D03*
%TD*%
D15*
%TO.C,J3*%
X145923000Y-68580000D03*
D16*
X145923000Y-71120000D03*
%TD*%
D11*
%TO.C,R1*%
X93520000Y-56700000D03*
D10*
X98600000Y-56700000D03*
%TD*%
D20*
%TO.C,U2*%
X74866000Y-63246000D03*
D21*
X91526000Y-65786000D03*
D22*
X91526000Y-63246000D03*
X91526000Y-60706000D03*
%TD*%
D15*
%TO.C,J2*%
X126517000Y-82169000D03*
D16*
X129057000Y-82169000D03*
X131597000Y-82169000D03*
X134137000Y-82169000D03*
X136677000Y-82169000D03*
X139217000Y-82169000D03*
X141757000Y-82169000D03*
X144297000Y-82169000D03*
X146837000Y-82169000D03*
%TD*%
D13*
%TO.C,C6*%
X132588000Y-72898000D03*
X132588000Y-70398000D03*
%TD*%
%TO.C,C4*%
X138978000Y-75819000D03*
X141478000Y-75819000D03*
%TD*%
D23*
%TO.C,D1*%
X87884000Y-53721000D03*
D24*
X90424000Y-53721000D03*
%TD*%
D15*
%TO.C,J7*%
X106807000Y-82296000D03*
D16*
X109347000Y-82296000D03*
X111887000Y-82296000D03*
X114427000Y-82296000D03*
X116967000Y-82296000D03*
X119507000Y-82296000D03*
%TD*%
D15*
%TO.C,J4*%
X122428000Y-43180000D03*
D16*
X119888000Y-43180000D03*
X117348000Y-43180000D03*
X114808000Y-43180000D03*
X112268000Y-43180000D03*
X109728000Y-43180000D03*
X107188000Y-43180000D03*
X104648000Y-43180000D03*
%TD*%
D13*
%TO.C,C3*%
X127635000Y-55753000D03*
X125135000Y-55753000D03*
%TD*%
D15*
%TO.C,J8*%
X82550000Y-43180000D03*
D16*
X85090000Y-43180000D03*
X87630000Y-43180000D03*
X90170000Y-43180000D03*
X92710000Y-43180000D03*
%TD*%
D25*
%TO.C,U1*%
X104902000Y-66802000D03*
D26*
X107442000Y-66802000D03*
X109982000Y-66802000D03*
X112522000Y-66802000D03*
X115062000Y-66802000D03*
X117602000Y-66802000D03*
X120142000Y-66802000D03*
X122682000Y-66802000D03*
X125222000Y-66802000D03*
X127762000Y-66802000D03*
X130302000Y-66802000D03*
X132842000Y-66802000D03*
X135382000Y-66802000D03*
X137922000Y-66802000D03*
X137922000Y-59182000D03*
X135382000Y-59182000D03*
X132842000Y-59182000D03*
X130302000Y-59182000D03*
X127762000Y-59182000D03*
X125222000Y-59182000D03*
X122682000Y-59182000D03*
X120142000Y-59182000D03*
X117602000Y-59182000D03*
X115062000Y-59182000D03*
X112522000Y-59182000D03*
X109982000Y-59182000D03*
X107442000Y-59182000D03*
X104902000Y-59182000D03*
%TD*%
D15*
%TO.C,J5*%
X146827000Y-43155000D03*
D16*
X144287000Y-43155000D03*
X141747000Y-43155000D03*
X139207000Y-43155000D03*
X136667000Y-43155000D03*
X134127000Y-43155000D03*
X131587000Y-43155000D03*
X129047000Y-43155000D03*
%TD*%
M02*
