M48
; DRILL file {KiCad 8.0.5} date 2025-01-06T05:05:26+0100
; FORMAT={-:-/ absolute / inch / decimal}
; #@! TF.CreationDate,2025-01-06T05:05:26+01:00
; #@! TF.GenerationSoftware,Kicad,Pcbnew,8.0.5
; #@! TF.FileFunction,Plated,1,2,PTH
FMAT,2
INCH
; #@! TA.AperFunction,Plated,PTH,ViaDrill
T1C0.0118
; #@! TA.AperFunction,Plated,PTH,ComponentDrill
T2C0.0236
; #@! TA.AperFunction,Plated,PTH,ComponentDrill
T3C0.0276
; #@! TA.AperFunction,Plated,PTH,ComponentDrill
T4C0.0315
; #@! TA.AperFunction,Plated,PTH,ComponentDrill
T5C0.0354
; #@! TA.AperFunction,Plated,PTH,ComponentDrill
T6C0.0394
; #@! TA.AperFunction,Plated,PTH,ComponentDrill
T7C0.0433
%
G90
G05
T1
X3.4134Y-1.9685
X4.2Y-2.2
X4.28Y-2.2
X4.3Y-3.09
X4.37Y-2.2
X4.4Y-3.09
X4.47Y-2.2
X4.49Y-3.09
X4.57Y-2.2
X4.6Y-3.09
X4.67Y-2.2
X4.7Y-3.09
X4.77Y-2.2
X5.0Y-2.7126
X5.17Y-2.2
X5.2283Y-2.5394
X5.26Y-2.2
X5.36Y-2.2
X5.44Y-2.2
X5.6811Y-2.4685
T2
X3.67Y-3.004
X3.67Y-3.0827
X3.8543Y-2.378
X3.8543Y-2.4567
T3
X3.415Y-1.91
X3.615Y-1.91
X3.6819Y-2.2323
X3.8819Y-2.2323
T4
X4.13Y-2.33
X4.13Y-2.63
X4.23Y-2.33
X4.23Y-2.63
X4.33Y-2.33
X4.33Y-2.63
X4.43Y-2.33
X4.43Y-2.63
X4.53Y-2.33
X4.53Y-2.63
X4.63Y-2.33
X4.63Y-2.63
X4.73Y-2.33
X4.73Y-2.63
X4.83Y-2.33
X4.83Y-2.63
X4.9266Y-2.195
X4.93Y-2.33
X4.93Y-2.63
X5.0Y-2.7716
X5.0Y-2.87
X5.025Y-2.195
X5.03Y-2.33
X5.03Y-2.63
X5.13Y-2.33
X5.13Y-2.63
X5.22Y-2.7716
X5.22Y-2.87
X5.23Y-2.33
X5.23Y-2.63
X5.33Y-2.33
X5.33Y-2.63
X5.43Y-2.33
X5.43Y-2.63
X5.4716Y-2.985
X5.57Y-2.985
T5
X3.46Y-2.115
X3.56Y-2.115
T6
X3.25Y-1.7
X3.35Y-1.7
X3.45Y-1.7
X3.55Y-1.7
X3.65Y-1.7
X4.12Y-1.7
X4.205Y-3.24
X4.22Y-1.7
X4.305Y-3.24
X4.32Y-1.7
X4.405Y-3.24
X4.42Y-1.7
X4.505Y-3.24
X4.52Y-1.7
X4.605Y-3.24
X4.62Y-1.7
X4.705Y-3.24
X4.72Y-1.7
X4.82Y-1.7
X4.981Y-3.235
X5.01Y-3.005
X5.0806Y-1.699
X5.081Y-3.235
X5.11Y-3.005
X5.1806Y-1.699
X5.181Y-3.235
X5.21Y-3.005
X5.2806Y-1.699
X5.281Y-3.235
X5.3806Y-1.699
X5.381Y-3.235
X5.4806Y-1.699
X5.481Y-3.235
X5.5806Y-1.699
X5.581Y-3.235
X5.6806Y-1.699
X5.681Y-3.235
X5.745Y-2.7
X5.745Y-2.8
X5.7806Y-1.699
X5.781Y-3.235
T7
X2.992Y-1.9764
X2.992Y-2.1536
X3.248Y-1.9764
X3.248Y-2.1536
X3.6034Y-2.39
X3.6034Y-2.49
X3.6034Y-2.59
T6
G00X3.175Y-3.0006
M15
G01X3.175Y-3.0794
M16
G05
G00X3.2537Y-3.225
M15
G01X3.3325Y-3.225
M16
G05
G00X3.4112Y-3.0006
M15
G01X3.4112Y-3.0794
M16
G05
M30
