%TF.GenerationSoftware,KiCad,Pcbnew,8.0.5*%
%TF.CreationDate,2025-01-06T05:05:23+01:00*%
%TF.ProjectId,my_Project2,6d795f50-726f-46a6-9563-74322e6b6963,rev?*%
%TF.SameCoordinates,Original*%
%TF.FileFunction,Copper,L2,Bot*%
%TF.FilePolarity,Positive*%
%FSLAX46Y46*%
G04 Gerber Fmt 4.6, Leading zero omitted, Abs format (unit mm)*
G04 Created by KiCad (PCBNEW 8.0.5) date 2025-01-06 05:05:23*
%MOMM*%
%LPD*%
G01*
G04 APERTURE LIST*
G04 Aperture macros list*
%AMRoundRect*
0 Rectangle with rounded corners*
0 $1 Rounding radius*
0 $2 $3 $4 $5 $6 $7 $8 $9 X,Y pos of 4 corners*
0 Add a 4 corners polygon primitive as box body*
4,1,4,$2,$3,$4,$5,$6,$7,$8,$9,$2,$3,0*
0 Add four circle primitives for the rounded corners*
1,1,$1+$1,$2,$3*
1,1,$1+$1,$4,$5*
1,1,$1+$1,$6,$7*
1,1,$1+$1,$8,$9*
0 Add four rect primitives between the rounded corners*
20,1,$1+$1,$2,$3,$4,$5,0*
20,1,$1+$1,$4,$5,$6,$7,0*
20,1,$1+$1,$6,$7,$8,$9,0*
20,1,$1+$1,$8,$9,$2,$3,0*%
G04 Aperture macros list end*
%TA.AperFunction,ComponentPad*%
%ADD10C,1.400000*%
%TD*%
%TA.AperFunction,ComponentPad*%
%ADD11O,1.400000X1.400000*%
%TD*%
%TA.AperFunction,ComponentPad*%
%ADD12C,1.200000*%
%TD*%
%TA.AperFunction,ComponentPad*%
%ADD13C,1.600000*%
%TD*%
%TA.AperFunction,ComponentPad*%
%ADD14C,2.000000*%
%TD*%
%TA.AperFunction,ComponentPad*%
%ADD15R,1.700000X1.700000*%
%TD*%
%TA.AperFunction,ComponentPad*%
%ADD16O,1.700000X1.700000*%
%TD*%
%TA.AperFunction,ComponentPad*%
%ADD17R,3.500000X3.500000*%
%TD*%
%TA.AperFunction,ComponentPad*%
%ADD18RoundRect,0.750000X-0.750000X-1.000000X0.750000X-1.000000X0.750000X1.000000X-0.750000X1.000000X0*%
%TD*%
%TA.AperFunction,ComponentPad*%
%ADD19RoundRect,0.875000X-0.875000X-0.875000X0.875000X-0.875000X0.875000X0.875000X-0.875000X0.875000X0*%
%TD*%
%TA.AperFunction,ComponentPad*%
%ADD20R,2.000000X1.905000*%
%TD*%
%TA.AperFunction,ComponentPad*%
%ADD21O,2.000000X1.905000*%
%TD*%
%TA.AperFunction,ComponentPad*%
%ADD22R,1.800000X1.800000*%
%TD*%
%TA.AperFunction,ComponentPad*%
%ADD23C,1.800000*%
%TD*%
%TA.AperFunction,ComponentPad*%
%ADD24R,1.600000X1.600000*%
%TD*%
%TA.AperFunction,ComponentPad*%
%ADD25O,1.600000X1.600000*%
%TD*%
%TA.AperFunction,ViaPad*%
%ADD26C,0.600000*%
%TD*%
%TA.AperFunction,Conductor*%
%ADD27C,0.200000*%
%TD*%
%TA.AperFunction,Conductor*%
%ADD28C,0.400000*%
%TD*%
%TA.AperFunction,Conductor*%
%ADD29C,0.250000*%
%TD*%
G04 APERTURE END LIST*
D10*
%TO.P,R2,1*%
%TO.N,Net-(D1-K)*%
X86741000Y-48514000D03*
D11*
%TO.P,R2,2*%
%TO.N,GND*%
X91821000Y-48514000D03*
%TD*%
D12*
%TO.P,C2,1*%
%TO.N,+5V*%
X97900000Y-60400000D03*
%TO.P,C2,2*%
%TO.N,GND*%
X97900000Y-62400000D03*
%TD*%
%TO.P,C1,1*%
%TO.N,GND*%
X93218000Y-76300500D03*
%TO.P,C1,2*%
%TO.N,Vin*%
X93218000Y-78300500D03*
%TD*%
D13*
%TO.P,C5,1*%
%TO.N,OSCI2*%
X127000000Y-70398000D03*
%TO.P,C5,2*%
%TO.N,GND*%
X127000000Y-72898000D03*
%TD*%
D14*
%TO.P,SW1,1,1*%
%TO.N,MCLR*%
X75998000Y-50201000D03*
X82498000Y-50201000D03*
%TO.P,SW1,2,2*%
%TO.N,GND*%
X75998000Y-54701000D03*
X82498000Y-54701000D03*
%TD*%
D15*
%TO.P,J6,1,Pin_1*%
%TO.N,OSCI2*%
X132334000Y-76327000D03*
D16*
%TO.P,J6,2,Pin_2*%
%TO.N,GND*%
X129794000Y-76327000D03*
%TO.P,J6,3,Pin_3*%
%TO.N,OSC1*%
X127254000Y-76327000D03*
%TD*%
D17*
%TO.P,J1,1*%
%TO.N,Vin*%
X86645000Y-77216000D03*
D18*
%TO.P,J1,2*%
%TO.N,GND*%
X80645000Y-77216000D03*
D19*
%TO.P,J1,3*%
%TO.N,N/C*%
X83645000Y-81916000D03*
%TD*%
D15*
%TO.P,J3,1,Pin_1*%
%TO.N,GND*%
X145923000Y-68580000D03*
D16*
%TO.P,J3,2,Pin_2*%
X145923000Y-71120000D03*
%TD*%
D11*
%TO.P,R1,2*%
%TO.N,MCLR*%
X93520000Y-56700000D03*
D10*
%TO.P,R1,1*%
%TO.N,+5V*%
X98600000Y-56700000D03*
%TD*%
D20*
%TO.P,U2,1,IN*%
%TO.N,Vin*%
X91526000Y-65786000D03*
D21*
%TO.P,U2,2,GND*%
%TO.N,GND*%
X91526000Y-63246000D03*
%TO.P,U2,3,OUT*%
%TO.N,+5V*%
X91526000Y-60706000D03*
%TD*%
D15*
%TO.P,J2,1,Pin_1*%
%TO.N,Vin*%
X126517000Y-82169000D03*
D16*
%TO.P,J2,2,Pin_2*%
%TO.N,GND*%
X129057000Y-82169000D03*
%TO.P,J2,3,Pin_3*%
X131597000Y-82169000D03*
%TO.P,J2,4,Pin_4*%
X134137000Y-82169000D03*
%TO.P,J2,5,Pin_5*%
X136677000Y-82169000D03*
%TO.P,J2,6,Pin_6*%
%TO.N,+5V*%
X139217000Y-82169000D03*
%TO.P,J2,7,Pin_7*%
X141757000Y-82169000D03*
%TO.P,J2,8,Pin_8*%
X144297000Y-82169000D03*
%TO.P,J2,9,Pin_9*%
X146837000Y-82169000D03*
%TD*%
D13*
%TO.P,C6,1*%
%TO.N,GND*%
X132588000Y-72898000D03*
%TO.P,C6,2*%
%TO.N,OSC1*%
X132588000Y-70398000D03*
%TD*%
%TO.P,C4,1*%
%TO.N,GND*%
X138978000Y-75819000D03*
%TO.P,C4,2*%
%TO.N,+5V*%
X141478000Y-75819000D03*
%TD*%
D22*
%TO.P,D1,1,K*%
%TO.N,Net-(D1-K)*%
X87884000Y-53721000D03*
D23*
%TO.P,D1,2,A*%
%TO.N,+5V*%
X90424000Y-53721000D03*
%TD*%
D15*
%TO.P,J7,1,Pin_1*%
%TO.N,RA0*%
X106807000Y-82296000D03*
D16*
%TO.P,J7,2,Pin_2*%
%TO.N,RA1*%
X109347000Y-82296000D03*
%TO.P,J7,3,Pin_3*%
%TO.N,RA2*%
X111887000Y-82296000D03*
%TO.P,J7,4,Pin_4*%
%TO.N,RA3*%
X114427000Y-82296000D03*
%TO.P,J7,5,Pin_5*%
%TO.N,RA4*%
X116967000Y-82296000D03*
%TO.P,J7,6,Pin_6*%
%TO.N,RA5*%
X119507000Y-82296000D03*
%TD*%
D15*
%TO.P,J4,1,Pin_1*%
%TO.N,RB0*%
X122428000Y-43180000D03*
D16*
%TO.P,J4,2,Pin_2*%
%TO.N,RB1*%
X119888000Y-43180000D03*
%TO.P,J4,3,Pin_3*%
%TO.N,RB2*%
X117348000Y-43180000D03*
%TO.P,J4,4,Pin_4*%
%TO.N,RB3*%
X114808000Y-43180000D03*
%TO.P,J4,5,Pin_5*%
%TO.N,RB4*%
X112268000Y-43180000D03*
%TO.P,J4,6,Pin_6*%
%TO.N,RB5*%
X109728000Y-43180000D03*
%TO.P,J4,7,Pin_7*%
%TO.N,RB6*%
X107188000Y-43180000D03*
%TO.P,J4,8,Pin_8*%
%TO.N,RB7*%
X104648000Y-43180000D03*
%TD*%
D13*
%TO.P,C3,1*%
%TO.N,GND*%
X127635000Y-55753000D03*
%TO.P,C3,2*%
%TO.N,+5V*%
X125135000Y-55753000D03*
%TD*%
D15*
%TO.P,J8,1,Pin_1*%
%TO.N,MCLR*%
X82550000Y-43180000D03*
D16*
%TO.P,J8,2,Pin_2*%
%TO.N,+5V*%
X85090000Y-43180000D03*
%TO.P,J8,3,Pin_3*%
%TO.N,GND*%
X87630000Y-43180000D03*
%TO.P,J8,4,Pin_4*%
%TO.N,RB7*%
X90170000Y-43180000D03*
%TO.P,J8,5,Pin_5*%
%TO.N,RB6*%
X92710000Y-43180000D03*
%TD*%
D24*
%TO.P,U1,1,Vpp/~{MCLR}/RE3*%
%TO.N,MCLR*%
X104902000Y-66802000D03*
D25*
%TO.P,U1,2,RA0/AN0*%
%TO.N,RA0*%
X107442000Y-66802000D03*
%TO.P,U1,3,RA1/AN1*%
%TO.N,RA1*%
X109982000Y-66802000D03*
%TO.P,U1,4,RA2/AN2/Vref-/CVref*%
%TO.N,RA2*%
X112522000Y-66802000D03*
%TO.P,U1,5,RA3/AN3/Vref+*%
%TO.N,RA3*%
X115062000Y-66802000D03*
%TO.P,U1,6,RA4/T0CKI/C1OUT/RCV*%
%TO.N,RA4*%
X117602000Y-66802000D03*
%TO.P,U1,7,RA5/AN4/~{SS}/HLVDIN/C2OUT*%
%TO.N,RA5*%
X120142000Y-66802000D03*
%TO.P,U1,8,VSS*%
%TO.N,GND*%
X122682000Y-66802000D03*
%TO.P,U1,9,OSC1/CLKI*%
%TO.N,OSC1*%
X125222000Y-66802000D03*
%TO.P,U1,10,RA6/OSC2/CLKO*%
%TO.N,OSCI2*%
X127762000Y-66802000D03*
%TO.P,U1,11,T1OSO/T13CKI/RC0*%
%TO.N,RC0*%
X130302000Y-66802000D03*
%TO.P,U1,12,~{UOE}/CCP2/T1OSI/RC1*%
%TO.N,RC1*%
X132842000Y-66802000D03*
%TO.P,U1,13,CCP1/RC2*%
%TO.N,RC2*%
X135382000Y-66802000D03*
%TO.P,U1,14,VUSB*%
%TO.N,Vu*%
X137922000Y-66802000D03*
%TO.P,U1,15,VM/D-/RC4*%
%TO.N,RC4*%
X137922000Y-59182000D03*
%TO.P,U1,16,VP/D+/RC5*%
%TO.N,RC5*%
X135382000Y-59182000D03*
%TO.P,U1,17,TX/CK/RC6*%
%TO.N,RC6*%
X132842000Y-59182000D03*
%TO.P,U1,18,SDO/RX/DT/RC7*%
%TO.N,RC7*%
X130302000Y-59182000D03*
%TO.P,U1,19,VSS*%
%TO.N,GND*%
X127762000Y-59182000D03*
%TO.P,U1,20,VDD*%
%TO.N,+5V*%
X125222000Y-59182000D03*
%TO.P,U1,21,RB0/AN12/INT0/FLT0/SDI/SDA*%
%TO.N,RB0*%
X122682000Y-59182000D03*
%TO.P,U1,22,RB1/AN10/INT1/SCK/SCL*%
%TO.N,RB1*%
X120142000Y-59182000D03*
%TO.P,U1,23,RB2/AN8/INT2/VMO*%
%TO.N,RB2*%
X117602000Y-59182000D03*
%TO.P,U1,24,RB3/AN9/CCP2/VPO*%
%TO.N,RB3*%
X115062000Y-59182000D03*
%TO.P,U1,25,RB4/AN11/KBI0*%
%TO.N,RB4*%
X112522000Y-59182000D03*
%TO.P,U1,26,RB5/KBI1/PGM*%
%TO.N,RB5*%
X109982000Y-59182000D03*
%TO.P,U1,27,RB6/KBI2/PGC*%
%TO.N,RB6*%
X107442000Y-59182000D03*
%TO.P,U1,28,RB7/KBI3/PGD*%
%TO.N,RB7*%
X104902000Y-59182000D03*
%TD*%
D15*
%TO.P,J5,1,Pin_1*%
%TO.N,Vu*%
X146827000Y-43155000D03*
D16*
%TO.P,J5,2,Pin_2*%
%TO.N,RC0*%
X144287000Y-43155000D03*
%TO.P,J5,3,Pin_3*%
%TO.N,RC1*%
X141747000Y-43155000D03*
%TO.P,J5,4,Pin_4*%
%TO.N,RC2*%
X139207000Y-43155000D03*
%TO.P,J5,5,Pin_5*%
%TO.N,RC4*%
X136667000Y-43155000D03*
%TO.P,J5,6,Pin_6*%
%TO.N,RC5*%
X134127000Y-43155000D03*
%TO.P,J5,7,Pin_7*%
%TO.N,RC6*%
X131587000Y-43155000D03*
%TO.P,J5,8,Pin_8*%
%TO.N,RC7*%
X129047000Y-43155000D03*
%TD*%
D26*
%TO.N,GND*%
X133604000Y-55880000D03*
X114046000Y-78486000D03*
X138176000Y-55880000D03*
X116078000Y-55880000D03*
X121158000Y-55880000D03*
X108712000Y-55880000D03*
X109220000Y-78486000D03*
X136144000Y-55880000D03*
X106680000Y-55880000D03*
X110998000Y-55880000D03*
X116840000Y-78486000D03*
X119380000Y-78486000D03*
X111760000Y-78486000D03*
X131318000Y-55880000D03*
X113538000Y-55880000D03*
X118618000Y-55880000D03*
%TO.N,OSCI2*%
X127000000Y-68900000D03*
%TO.N,Net-(D1-K)*%
X86700000Y-50000000D03*
%TO.N,RC1*%
X132800000Y-64500000D03*
%TO.N,RC0*%
X144300000Y-62700000D03*
%TD*%
D27*
%TO.N,MCLR*%
X82498000Y-50201000D02*
X75998000Y-50201000D01*
X82498000Y-50735000D02*
X82498000Y-50201000D01*
X88463000Y-56700000D02*
X82498000Y-50735000D01*
X93520000Y-56700000D02*
X88463000Y-56700000D01*
X93520000Y-60881198D02*
X93520000Y-56700000D01*
X99440802Y-66802000D02*
X93520000Y-60881198D01*
X104902000Y-66802000D02*
X99440802Y-66802000D01*
D28*
%TO.N,+5V*%
X129340000Y-63300000D02*
X125222000Y-59182000D01*
X137500000Y-63300000D02*
X129340000Y-63300000D01*
X141478000Y-75819000D02*
X141478000Y-67278000D01*
X141478000Y-67278000D02*
X137500000Y-63300000D01*
D29*
%TO.N,OSCI2*%
X127000000Y-68900000D02*
X127000000Y-67564000D01*
X127000000Y-67564000D02*
X127762000Y-66802000D01*
D28*
%TO.N,Net-(D1-K)*%
X87884000Y-51184000D02*
X87884000Y-53721000D01*
X86700000Y-50000000D02*
X87884000Y-51184000D01*
D29*
%TO.N,RC1*%
X132800000Y-64500000D02*
X127100000Y-64500000D01*
X138702000Y-46200000D02*
X141747000Y-43155000D01*
X131400000Y-46200000D02*
X138702000Y-46200000D01*
X127100000Y-64500000D02*
X123900000Y-61300000D01*
X123900000Y-61300000D02*
X123900000Y-53700000D01*
X123900000Y-53700000D02*
X131400000Y-46200000D01*
%TO.N,RC0*%
X144287000Y-62687000D02*
X144287000Y-43155000D01*
X144300000Y-62700000D02*
X144287000Y-62687000D01*
%TD*%
%TA.AperFunction,Conductor*%
%TO.N,GND*%
G36*
X131131075Y-81976007D02*
G01*
X131097000Y-82103174D01*
X131097000Y-82234826D01*
X131131075Y-82361993D01*
X131163988Y-82419000D01*
X129490012Y-82419000D01*
X129522925Y-82361993D01*
X129557000Y-82234826D01*
X129557000Y-82103174D01*
X129522925Y-81976007D01*
X129490012Y-81919000D01*
X131163988Y-81919000D01*
X131131075Y-81976007D01*
G37*
%TD.AperFunction*%
%TA.AperFunction,Conductor*%
G36*
X133671075Y-81976007D02*
G01*
X133637000Y-82103174D01*
X133637000Y-82234826D01*
X133671075Y-82361993D01*
X133703988Y-82419000D01*
X132030012Y-82419000D01*
X132062925Y-82361993D01*
X132097000Y-82234826D01*
X132097000Y-82103174D01*
X132062925Y-81976007D01*
X132030012Y-81919000D01*
X133703988Y-81919000D01*
X133671075Y-81976007D01*
G37*
%TD.AperFunction*%
%TA.AperFunction,Conductor*%
G36*
X136211075Y-81976007D02*
G01*
X136177000Y-82103174D01*
X136177000Y-82234826D01*
X136211075Y-82361993D01*
X136243988Y-82419000D01*
X134570012Y-82419000D01*
X134602925Y-82361993D01*
X134637000Y-82234826D01*
X134637000Y-82103174D01*
X134602925Y-81976007D01*
X134570012Y-81919000D01*
X136243988Y-81919000D01*
X136211075Y-81976007D01*
G37*
%TD.AperFunction*%
%TA.AperFunction,Conductor*%
G36*
X146173000Y-70686988D02*
G01*
X146115993Y-70654075D01*
X145988826Y-70620000D01*
X145857174Y-70620000D01*
X145730007Y-70654075D01*
X145673000Y-70686988D01*
X145673000Y-69013012D01*
X145730007Y-69045925D01*
X145857174Y-69080000D01*
X145988826Y-69080000D01*
X146115993Y-69045925D01*
X146173000Y-69013012D01*
X146173000Y-70686988D01*
G37*
%TD.AperFunction*%
%TA.AperFunction,Conductor*%
G36*
X152223539Y-39763185D02*
G01*
X152269294Y-39815989D01*
X152280500Y-39867500D01*
X152280500Y-86624500D01*
X152260815Y-86691539D01*
X152208011Y-86737294D01*
X152156500Y-86748500D01*
X67299500Y-86748500D01*
X67232461Y-86728815D01*
X67186706Y-86676011D01*
X67175500Y-86624500D01*
X67175500Y-80947386D01*
X81394500Y-80947386D01*
X81394500Y-82884613D01*
X81394501Y-82884652D01*
X81397295Y-82937243D01*
X81397295Y-82937244D01*
X81434459Y-83129402D01*
X81441755Y-83167126D01*
X81477308Y-83261335D01*
X81524425Y-83386189D01*
X81642929Y-83588131D01*
X81642934Y-83588138D01*
X81793856Y-83767141D01*
X81793858Y-83767143D01*
X81972861Y-83918065D01*
X81972868Y-83918070D01*
X82174810Y-84036574D01*
X82393874Y-84119245D01*
X82623759Y-84163705D01*
X82676378Y-84166500D01*
X82676386Y-84166500D01*
X84613614Y-84166500D01*
X84613622Y-84166500D01*
X84666241Y-84163705D01*
X84896126Y-84119245D01*
X85115190Y-84036574D01*
X85317132Y-83918070D01*
X85496142Y-83767142D01*
X85597859Y-83646500D01*
X85647065Y-83588138D01*
X85647065Y-83588137D01*
X85647070Y-83588132D01*
X85765574Y-83386190D01*
X85848245Y-83167126D01*
X85892705Y-82937241D01*
X85895500Y-82884622D01*
X85895500Y-81398135D01*
X105456500Y-81398135D01*
X105456500Y-83193870D01*
X105456501Y-83193876D01*
X105462908Y-83253483D01*
X105513202Y-83388328D01*
X105513206Y-83388335D01*
X105599452Y-83503544D01*
X105599455Y-83503547D01*
X105714664Y-83589793D01*
X105714671Y-83589797D01*
X105849517Y-83640091D01*
X105849516Y-83640091D01*
X105856444Y-83640835D01*
X105909127Y-83646500D01*
X107704872Y-83646499D01*
X107764483Y-83640091D01*
X107899331Y-83589796D01*
X108014546Y-83503546D01*
X108100796Y-83388331D01*
X108149810Y-83256916D01*
X108191681Y-83200984D01*
X108257145Y-83176566D01*
X108325418Y-83191417D01*
X108353673Y-83212569D01*
X108475599Y-83334495D01*
X108572384Y-83402265D01*
X108669165Y-83470032D01*
X108669167Y-83470033D01*
X108669170Y-83470035D01*
X108883337Y-83569903D01*
X109111592Y-83631063D01*
X109288034Y-83646500D01*
X109346999Y-83651659D01*
X109347000Y-83651659D01*
X109347001Y-83651659D01*
X109405966Y-83646500D01*
X109582408Y-83631063D01*
X109810663Y-83569903D01*
X110024830Y-83470035D01*
X110218401Y-83334495D01*
X110385495Y-83167401D01*
X110515425Y-82981842D01*
X110570002Y-82938217D01*
X110639500Y-82931023D01*
X110701855Y-82962546D01*
X110718575Y-82981842D01*
X110848500Y-83167395D01*
X110848505Y-83167401D01*
X111015599Y-83334495D01*
X111112384Y-83402265D01*
X111209165Y-83470032D01*
X111209167Y-83470033D01*
X111209170Y-83470035D01*
X111423337Y-83569903D01*
X111651592Y-83631063D01*
X111828034Y-83646500D01*
X111886999Y-83651659D01*
X111887000Y-83651659D01*
X111887001Y-83651659D01*
X111945966Y-83646500D01*
X112122408Y-83631063D01*
X112350663Y-83569903D01*
X112564830Y-83470035D01*
X112758401Y-83334495D01*
X112925495Y-83167401D01*
X113055425Y-82981842D01*
X113110002Y-82938217D01*
X113179500Y-82931023D01*
X113241855Y-82962546D01*
X113258575Y-82981842D01*
X113388500Y-83167395D01*
X113388505Y-83167401D01*
X113555599Y-83334495D01*
X113652384Y-83402265D01*
X113749165Y-83470032D01*
X113749167Y-83470033D01*
X113749170Y-83470035D01*
X113963337Y-83569903D01*
X114191592Y-83631063D01*
X114368034Y-83646500D01*
X114426999Y-83651659D01*
X114427000Y-83651659D01*
X114427001Y-83651659D01*
X114485966Y-83646500D01*
X114662408Y-83631063D01*
X114890663Y-83569903D01*
X115104830Y-83470035D01*
X115298401Y-83334495D01*
X115465495Y-83167401D01*
X115595425Y-82981842D01*
X115650002Y-82938217D01*
X115719500Y-82931023D01*
X115781855Y-82962546D01*
X115798575Y-82981842D01*
X115928500Y-83167395D01*
X115928505Y-83167401D01*
X116095599Y-83334495D01*
X116192384Y-83402265D01*
X116289165Y-83470032D01*
X116289167Y-83470033D01*
X116289170Y-83470035D01*
X116503337Y-83569903D01*
X116731592Y-83631063D01*
X116908034Y-83646500D01*
X116966999Y-83651659D01*
X116967000Y-83651659D01*
X116967001Y-83651659D01*
X117025966Y-83646500D01*
X117202408Y-83631063D01*
X117430663Y-83569903D01*
X117644830Y-83470035D01*
X117838401Y-83334495D01*
X118005495Y-83167401D01*
X118135425Y-82981842D01*
X118190002Y-82938217D01*
X118259500Y-82931023D01*
X118321855Y-82962546D01*
X118338575Y-82981842D01*
X118468500Y-83167395D01*
X118468505Y-83167401D01*
X118635599Y-83334495D01*
X118732384Y-83402265D01*
X118829165Y-83470032D01*
X118829167Y-83470033D01*
X118829170Y-83470035D01*
X119043337Y-83569903D01*
X119271592Y-83631063D01*
X119448034Y-83646500D01*
X119506999Y-83651659D01*
X119507000Y-83651659D01*
X119507001Y-83651659D01*
X119565966Y-83646500D01*
X119742408Y-83631063D01*
X119970663Y-83569903D01*
X120184830Y-83470035D01*
X120378401Y-83334495D01*
X120545495Y-83167401D01*
X120681035Y-82973830D01*
X120780903Y-82759663D01*
X120842063Y-82531408D01*
X120862659Y-82296000D01*
X120842063Y-82060592D01*
X120780903Y-81832337D01*
X120681035Y-81618171D01*
X120675425Y-81610158D01*
X120545494Y-81424597D01*
X120392031Y-81271135D01*
X125166500Y-81271135D01*
X125166500Y-83066870D01*
X125166501Y-83066876D01*
X125172908Y-83126483D01*
X125223202Y-83261328D01*
X125223206Y-83261335D01*
X125309452Y-83376544D01*
X125309455Y-83376547D01*
X125424664Y-83462793D01*
X125424671Y-83462797D01*
X125559517Y-83513091D01*
X125559516Y-83513091D01*
X125566444Y-83513835D01*
X125619127Y-83519500D01*
X127414872Y-83519499D01*
X127474483Y-83513091D01*
X127609331Y-83462796D01*
X127724546Y-83376546D01*
X127810796Y-83261331D01*
X127860002Y-83129401D01*
X127901872Y-83073468D01*
X127967337Y-83049050D01*
X128035610Y-83063901D01*
X128063865Y-83085053D01*
X128185917Y-83207105D01*
X128379421Y-83342600D01*
X128593507Y-83442429D01*
X128593516Y-83442433D01*
X128807000Y-83499634D01*
X128807000Y-82602012D01*
X128864007Y-82634925D01*
X128991174Y-82669000D01*
X129122826Y-82669000D01*
X129249993Y-82634925D01*
X129307000Y-82602012D01*
X129307000Y-83499633D01*
X129520483Y-83442433D01*
X129520492Y-83442429D01*
X129734578Y-83342600D01*
X129928082Y-83207105D01*
X130095105Y-83040082D01*
X130225425Y-82853968D01*
X130280002Y-82810344D01*
X130349501Y-82803151D01*
X130411855Y-82834673D01*
X130428575Y-82853968D01*
X130558894Y-83040082D01*
X130725917Y-83207105D01*
X130919421Y-83342600D01*
X131133507Y-83442429D01*
X131133516Y-83442433D01*
X131347000Y-83499634D01*
X131347000Y-82602012D01*
X131404007Y-82634925D01*
X131531174Y-82669000D01*
X131662826Y-82669000D01*
X131789993Y-82634925D01*
X131847000Y-82602012D01*
X131847000Y-83499633D01*
X132060483Y-83442433D01*
X132060492Y-83442429D01*
X132274578Y-83342600D01*
X132468082Y-83207105D01*
X132635105Y-83040082D01*
X132765425Y-82853968D01*
X132820002Y-82810344D01*
X132889501Y-82803151D01*
X132951855Y-82834673D01*
X132968575Y-82853968D01*
X133098894Y-83040082D01*
X133265917Y-83207105D01*
X133459421Y-83342600D01*
X133673507Y-83442429D01*
X133673516Y-83442433D01*
X133887000Y-83499634D01*
X133887000Y-82602012D01*
X133944007Y-82634925D01*
X134071174Y-82669000D01*
X134202826Y-82669000D01*
X134329993Y-82634925D01*
X134387000Y-82602012D01*
X134387000Y-83499633D01*
X134600483Y-83442433D01*
X134600492Y-83442429D01*
X134814578Y-83342600D01*
X135008082Y-83207105D01*
X135175105Y-83040082D01*
X135305425Y-82853968D01*
X135360002Y-82810344D01*
X135429501Y-82803151D01*
X135491855Y-82834673D01*
X135508575Y-82853968D01*
X135638894Y-83040082D01*
X135805917Y-83207105D01*
X135999421Y-83342600D01*
X136213507Y-83442429D01*
X136213516Y-83442433D01*
X136427000Y-83499634D01*
X136427000Y-82602012D01*
X136484007Y-82634925D01*
X136611174Y-82669000D01*
X136742826Y-82669000D01*
X136869993Y-82634925D01*
X136927000Y-82602012D01*
X136927000Y-83499633D01*
X137140483Y-83442433D01*
X137140492Y-83442429D01*
X137354578Y-83342600D01*
X137548082Y-83207105D01*
X137715105Y-83040082D01*
X137845119Y-82854405D01*
X137899696Y-82810781D01*
X137969195Y-82803588D01*
X138031549Y-82835110D01*
X138048269Y-82854405D01*
X138178505Y-83040401D01*
X138345599Y-83207495D01*
X138442384Y-83275265D01*
X138539165Y-83343032D01*
X138539167Y-83343033D01*
X138539170Y-83343035D01*
X138753337Y-83442903D01*
X138981592Y-83504063D01*
X139158034Y-83519500D01*
X139216999Y-83524659D01*
X139217000Y-83524659D01*
X139217001Y-83524659D01*
X139275966Y-83519500D01*
X139452408Y-83504063D01*
X139680663Y-83442903D01*
X139894830Y-83343035D01*
X140088401Y-83207495D01*
X140255495Y-83040401D01*
X140385425Y-82854842D01*
X140440002Y-82811217D01*
X140509500Y-82804023D01*
X140571855Y-82835546D01*
X140588575Y-82854842D01*
X140718500Y-83040395D01*
X140718505Y-83040401D01*
X140885599Y-83207495D01*
X140982384Y-83275265D01*
X141079165Y-83343032D01*
X141079167Y-83343033D01*
X141079170Y-83343035D01*
X141293337Y-83442903D01*
X141521592Y-83504063D01*
X141698034Y-83519500D01*
X141756999Y-83524659D01*
X141757000Y-83524659D01*
X141757001Y-83524659D01*
X141815966Y-83519500D01*
X141992408Y-83504063D01*
X142220663Y-83442903D01*
X142434830Y-83343035D01*
X142628401Y-83207495D01*
X142795495Y-83040401D01*
X142925425Y-82854842D01*
X142980002Y-82811217D01*
X143049500Y-82804023D01*
X143111855Y-82835546D01*
X143128575Y-82854842D01*
X143258500Y-83040395D01*
X143258505Y-83040401D01*
X143425599Y-83207495D01*
X143522384Y-83275265D01*
X143619165Y-83343032D01*
X143619167Y-83343033D01*
X143619170Y-83343035D01*
X143833337Y-83442903D01*
X144061592Y-83504063D01*
X144238034Y-83519500D01*
X144296999Y-83524659D01*
X144297000Y-83524659D01*
X144297001Y-83524659D01*
X144355966Y-83519500D01*
X144532408Y-83504063D01*
X144760663Y-83442903D01*
X144974830Y-83343035D01*
X145168401Y-83207495D01*
X145335495Y-83040401D01*
X145465425Y-82854842D01*
X145520002Y-82811217D01*
X145589500Y-82804023D01*
X145651855Y-82835546D01*
X145668575Y-82854842D01*
X145798500Y-83040395D01*
X145798505Y-83040401D01*
X145965599Y-83207495D01*
X146062384Y-83275265D01*
X146159165Y-83343032D01*
X146159167Y-83343033D01*
X146159170Y-83343035D01*
X146373337Y-83442903D01*
X146601592Y-83504063D01*
X146778034Y-83519500D01*
X146836999Y-83524659D01*
X146837000Y-83524659D01*
X146837001Y-83524659D01*
X146895966Y-83519500D01*
X147072408Y-83504063D01*
X147300663Y-83442903D01*
X147514830Y-83343035D01*
X147708401Y-83207495D01*
X147875495Y-83040401D01*
X148011035Y-82846830D01*
X148110903Y-82632663D01*
X148172063Y-82404408D01*
X148192659Y-82169000D01*
X148172063Y-81933592D01*
X148110903Y-81705337D01*
X148011035Y-81491171D01*
X148005731Y-81483595D01*
X147875494Y-81297597D01*
X147708402Y-81130506D01*
X147708395Y-81130501D01*
X147696204Y-81121965D01*
X147669521Y-81103281D01*
X147514834Y-80994967D01*
X147514830Y-80994965D01*
X147514828Y-80994964D01*
X147300663Y-80895097D01*
X147300659Y-80895096D01*
X147300655Y-80895094D01*
X147072413Y-80833938D01*
X147072403Y-80833936D01*
X146837001Y-80813341D01*
X146836999Y-80813341D01*
X146601596Y-80833936D01*
X146601586Y-80833938D01*
X146373344Y-80895094D01*
X146373335Y-80895098D01*
X146159171Y-80994964D01*
X146159169Y-80994965D01*
X145965597Y-81130505D01*
X145798505Y-81297597D01*
X145668575Y-81483158D01*
X145613998Y-81526783D01*
X145544500Y-81533977D01*
X145482145Y-81502454D01*
X145465425Y-81483158D01*
X145335494Y-81297597D01*
X145168402Y-81130506D01*
X145168395Y-81130501D01*
X145156204Y-81121965D01*
X145129521Y-81103281D01*
X144974834Y-80994967D01*
X144974830Y-80994965D01*
X144974828Y-80994964D01*
X144760663Y-80895097D01*
X144760659Y-80895096D01*
X144760655Y-80895094D01*
X144532413Y-80833938D01*
X144532403Y-80833936D01*
X144297001Y-80813341D01*
X144296999Y-80813341D01*
X144061596Y-80833936D01*
X144061586Y-80833938D01*
X143833344Y-80895094D01*
X143833335Y-80895098D01*
X143619171Y-80994964D01*
X143619169Y-80994965D01*
X143425597Y-81130505D01*
X143258505Y-81297597D01*
X143128575Y-81483158D01*
X143073998Y-81526783D01*
X143004500Y-81533977D01*
X142942145Y-81502454D01*
X142925425Y-81483158D01*
X142795494Y-81297597D01*
X142628402Y-81130506D01*
X142628395Y-81130501D01*
X142616204Y-81121965D01*
X142589521Y-81103281D01*
X142434834Y-80994967D01*
X142434830Y-80994965D01*
X142434828Y-80994964D01*
X142220663Y-80895097D01*
X142220659Y-80895096D01*
X142220655Y-80895094D01*
X141992413Y-80833938D01*
X141992403Y-80833936D01*
X141757001Y-80813341D01*
X141756999Y-80813341D01*
X141521596Y-80833936D01*
X141521586Y-80833938D01*
X141293344Y-80895094D01*
X141293335Y-80895098D01*
X141079171Y-80994964D01*
X141079169Y-80994965D01*
X140885597Y-81130505D01*
X140718505Y-81297597D01*
X140588575Y-81483158D01*
X140533998Y-81526783D01*
X140464500Y-81533977D01*
X140402145Y-81502454D01*
X140385425Y-81483158D01*
X140255494Y-81297597D01*
X140088402Y-81130506D01*
X140088395Y-81130501D01*
X140076204Y-81121965D01*
X140049521Y-81103281D01*
X139894834Y-80994967D01*
X139894830Y-80994965D01*
X139894828Y-80994964D01*
X139680663Y-80895097D01*
X139680659Y-80895096D01*
X139680655Y-80895094D01*
X139452413Y-80833938D01*
X139452403Y-80833936D01*
X139217001Y-80813341D01*
X139216999Y-80813341D01*
X138981596Y-80833936D01*
X138981586Y-80833938D01*
X138753344Y-80895094D01*
X138753335Y-80895098D01*
X138539171Y-80994964D01*
X138539169Y-80994965D01*
X138345597Y-81130505D01*
X138178508Y-81297594D01*
X138048269Y-81483595D01*
X137993692Y-81527219D01*
X137924193Y-81534412D01*
X137861839Y-81502890D01*
X137845119Y-81483594D01*
X137715113Y-81297926D01*
X137715108Y-81297920D01*
X137548082Y-81130894D01*
X137354578Y-80995399D01*
X137140492Y-80895570D01*
X137140486Y-80895567D01*
X136927000Y-80838364D01*
X136927000Y-81735988D01*
X136869993Y-81703075D01*
X136742826Y-81669000D01*
X136611174Y-81669000D01*
X136484007Y-81703075D01*
X136427000Y-81735988D01*
X136427000Y-80838364D01*
X136426999Y-80838364D01*
X136213513Y-80895567D01*
X136213507Y-80895570D01*
X135999422Y-80995399D01*
X135999420Y-80995400D01*
X135805926Y-81130886D01*
X135805920Y-81130891D01*
X135638891Y-81297920D01*
X135638890Y-81297922D01*
X135508575Y-81484031D01*
X135453998Y-81527655D01*
X135384499Y-81534848D01*
X135322145Y-81503326D01*
X135305425Y-81484031D01*
X135175109Y-81297922D01*
X135175108Y-81297920D01*
X135008082Y-81130894D01*
X134814578Y-80995399D01*
X134600492Y-80895570D01*
X134600486Y-80895567D01*
X134387000Y-80838364D01*
X134387000Y-81735988D01*
X134329993Y-81703075D01*
X134202826Y-81669000D01*
X134071174Y-81669000D01*
X133944007Y-81703075D01*
X133887000Y-81735988D01*
X133887000Y-80838364D01*
X133886999Y-80838364D01*
X133673513Y-80895567D01*
X133673507Y-80895570D01*
X133459422Y-80995399D01*
X133459420Y-80995400D01*
X133265926Y-81130886D01*
X133265920Y-81130891D01*
X133098891Y-81297920D01*
X133098890Y-81297922D01*
X132968575Y-81484031D01*
X132913998Y-81527655D01*
X132844499Y-81534848D01*
X132782145Y-81503326D01*
X132765425Y-81484031D01*
X132635109Y-81297922D01*
X132635108Y-81297920D01*
X132468082Y-81130894D01*
X132274578Y-80995399D01*
X132060492Y-80895570D01*
X132060486Y-80895567D01*
X131847000Y-80838364D01*
X131847000Y-81735988D01*
X131789993Y-81703075D01*
X131662826Y-81669000D01*
X131531174Y-81669000D01*
X131404007Y-81703075D01*
X131347000Y-81735988D01*
X131347000Y-80838364D01*
X131346999Y-80838364D01*
X131133513Y-80895567D01*
X131133507Y-80895570D01*
X130919422Y-80995399D01*
X130919420Y-80995400D01*
X130725926Y-81130886D01*
X130725920Y-81130891D01*
X130558891Y-81297920D01*
X130558890Y-81297922D01*
X130428575Y-81484031D01*
X130373998Y-81527655D01*
X130304499Y-81534848D01*
X130242145Y-81503326D01*
X130225425Y-81484031D01*
X130095109Y-81297922D01*
X130095108Y-81297920D01*
X129928082Y-81130894D01*
X129734578Y-80995399D01*
X129520492Y-80895570D01*
X129520486Y-80895567D01*
X129307000Y-80838364D01*
X129307000Y-81735988D01*
X129249993Y-81703075D01*
X129122826Y-81669000D01*
X128991174Y-81669000D01*
X128864007Y-81703075D01*
X128807000Y-81735988D01*
X128807000Y-80838364D01*
X128806999Y-80838364D01*
X128593513Y-80895567D01*
X128593507Y-80895570D01*
X128379422Y-80995399D01*
X128379420Y-80995400D01*
X128185926Y-81130886D01*
X128063865Y-81252947D01*
X128002542Y-81286431D01*
X127932850Y-81281447D01*
X127876917Y-81239575D01*
X127860002Y-81208598D01*
X127858164Y-81203671D01*
X127831021Y-81130894D01*
X127810797Y-81076671D01*
X127810793Y-81076664D01*
X127724547Y-80961455D01*
X127724544Y-80961452D01*
X127609335Y-80875206D01*
X127609328Y-80875202D01*
X127474482Y-80824908D01*
X127474483Y-80824908D01*
X127414883Y-80818501D01*
X127414881Y-80818500D01*
X127414873Y-80818500D01*
X127414864Y-80818500D01*
X125619129Y-80818500D01*
X125619123Y-80818501D01*
X125559516Y-80824908D01*
X125424671Y-80875202D01*
X125424664Y-80875206D01*
X125309455Y-80961452D01*
X125309452Y-80961455D01*
X125223206Y-81076664D01*
X125223202Y-81076671D01*
X125172908Y-81211517D01*
X125166501Y-81271116D01*
X125166500Y-81271135D01*
X120392031Y-81271135D01*
X120378402Y-81257506D01*
X120378395Y-81257501D01*
X120371891Y-81252947D01*
X120339521Y-81230281D01*
X120184834Y-81121967D01*
X120184830Y-81121965D01*
X120184828Y-81121964D01*
X119970663Y-81022097D01*
X119970659Y-81022096D01*
X119970655Y-81022094D01*
X119742413Y-80960938D01*
X119742403Y-80960936D01*
X119507001Y-80940341D01*
X119506999Y-80940341D01*
X119271596Y-80960936D01*
X119271586Y-80960938D01*
X119043344Y-81022094D01*
X119043335Y-81022098D01*
X118829171Y-81121964D01*
X118829169Y-81121965D01*
X118635597Y-81257505D01*
X118468505Y-81424597D01*
X118338575Y-81610158D01*
X118283998Y-81653783D01*
X118214500Y-81660977D01*
X118152145Y-81629454D01*
X118135425Y-81610158D01*
X118005494Y-81424597D01*
X117838402Y-81257506D01*
X117838395Y-81257501D01*
X117831891Y-81252947D01*
X117799521Y-81230281D01*
X117644834Y-81121967D01*
X117644830Y-81121965D01*
X117644828Y-81121964D01*
X117430663Y-81022097D01*
X117430659Y-81022096D01*
X117430655Y-81022094D01*
X117202413Y-80960938D01*
X117202403Y-80960936D01*
X116967001Y-80940341D01*
X116966999Y-80940341D01*
X116731596Y-80960936D01*
X116731586Y-80960938D01*
X116503344Y-81022094D01*
X116503335Y-81022098D01*
X116289171Y-81121964D01*
X116289169Y-81121965D01*
X116095597Y-81257505D01*
X115928505Y-81424597D01*
X115798575Y-81610158D01*
X115743998Y-81653783D01*
X115674500Y-81660977D01*
X115612145Y-81629454D01*
X115595425Y-81610158D01*
X115465494Y-81424597D01*
X115298402Y-81257506D01*
X115298395Y-81257501D01*
X115291891Y-81252947D01*
X115259521Y-81230281D01*
X115104834Y-81121967D01*
X115104830Y-81121965D01*
X115104828Y-81121964D01*
X114890663Y-81022097D01*
X114890659Y-81022096D01*
X114890655Y-81022094D01*
X114662413Y-80960938D01*
X114662403Y-80960936D01*
X114427001Y-80940341D01*
X114426999Y-80940341D01*
X114191596Y-80960936D01*
X114191586Y-80960938D01*
X113963344Y-81022094D01*
X113963335Y-81022098D01*
X113749171Y-81121964D01*
X113749169Y-81121965D01*
X113555597Y-81257505D01*
X113388505Y-81424597D01*
X113258575Y-81610158D01*
X113203998Y-81653783D01*
X113134500Y-81660977D01*
X113072145Y-81629454D01*
X113055425Y-81610158D01*
X112925494Y-81424597D01*
X112758402Y-81257506D01*
X112758395Y-81257501D01*
X112751891Y-81252947D01*
X112719521Y-81230281D01*
X112564834Y-81121967D01*
X112564830Y-81121965D01*
X112564828Y-81121964D01*
X112350663Y-81022097D01*
X112350659Y-81022096D01*
X112350655Y-81022094D01*
X112122413Y-80960938D01*
X112122403Y-80960936D01*
X111887001Y-80940341D01*
X111886999Y-80940341D01*
X111651596Y-80960936D01*
X111651586Y-80960938D01*
X111423344Y-81022094D01*
X111423335Y-81022098D01*
X111209171Y-81121964D01*
X111209169Y-81121965D01*
X111015597Y-81257505D01*
X110848505Y-81424597D01*
X110718575Y-81610158D01*
X110663998Y-81653783D01*
X110594500Y-81660977D01*
X110532145Y-81629454D01*
X110515425Y-81610158D01*
X110385494Y-81424597D01*
X110218402Y-81257506D01*
X110218395Y-81257501D01*
X110211891Y-81252947D01*
X110179521Y-81230281D01*
X110024834Y-81121967D01*
X110024830Y-81121965D01*
X110024828Y-81121964D01*
X109810663Y-81022097D01*
X109810659Y-81022096D01*
X109810655Y-81022094D01*
X109582413Y-80960938D01*
X109582403Y-80960936D01*
X109347001Y-80940341D01*
X109346999Y-80940341D01*
X109111596Y-80960936D01*
X109111586Y-80960938D01*
X108883344Y-81022094D01*
X108883335Y-81022098D01*
X108669171Y-81121964D01*
X108669169Y-81121965D01*
X108475600Y-81257503D01*
X108353673Y-81379430D01*
X108292350Y-81412914D01*
X108222658Y-81407930D01*
X108166725Y-81366058D01*
X108149810Y-81335081D01*
X108100797Y-81203671D01*
X108100793Y-81203664D01*
X108014547Y-81088455D01*
X108014544Y-81088452D01*
X107899335Y-81002206D01*
X107899328Y-81002202D01*
X107764482Y-80951908D01*
X107764483Y-80951908D01*
X107704883Y-80945501D01*
X107704881Y-80945500D01*
X107704873Y-80945500D01*
X107704864Y-80945500D01*
X105909129Y-80945500D01*
X105909123Y-80945501D01*
X105849516Y-80951908D01*
X105714671Y-81002202D01*
X105714664Y-81002206D01*
X105599455Y-81088452D01*
X105599452Y-81088455D01*
X105513206Y-81203664D01*
X105513202Y-81203671D01*
X105462908Y-81338517D01*
X105456501Y-81398116D01*
X105456500Y-81398135D01*
X85895500Y-81398135D01*
X85895500Y-80947378D01*
X85892705Y-80894759D01*
X85848245Y-80664874D01*
X85765574Y-80445810D01*
X85647070Y-80243868D01*
X85647065Y-80243861D01*
X85496143Y-80064858D01*
X85496141Y-80064856D01*
X85317138Y-79913934D01*
X85317131Y-79913929D01*
X85115189Y-79795425D01*
X85017513Y-79758564D01*
X84896126Y-79712755D01*
X84896121Y-79712754D01*
X84896116Y-79712752D01*
X84893470Y-79712240D01*
X84892451Y-79711713D01*
X84891050Y-79711317D01*
X84891130Y-79711031D01*
X84831392Y-79680177D01*
X84796503Y-79619641D01*
X84799881Y-79549853D01*
X84840452Y-79492970D01*
X84905337Y-79467052D01*
X84917009Y-79466499D01*
X88442872Y-79466499D01*
X88502483Y-79460091D01*
X88637331Y-79409796D01*
X88752546Y-79323546D01*
X88838796Y-79208331D01*
X88889091Y-79073483D01*
X88895500Y-79013873D01*
X88895500Y-78300499D01*
X92112785Y-78300499D01*
X92112785Y-78300500D01*
X92131602Y-78503582D01*
X92187417Y-78699747D01*
X92187422Y-78699760D01*
X92278327Y-78882321D01*
X92401237Y-79045081D01*
X92551958Y-79182480D01*
X92551960Y-79182482D01*
X92651141Y-79243892D01*
X92725363Y-79289848D01*
X92915544Y-79363524D01*
X93116024Y-79401000D01*
X93116026Y-79401000D01*
X93319974Y-79401000D01*
X93319976Y-79401000D01*
X93520456Y-79363524D01*
X93710637Y-79289848D01*
X93884041Y-79182481D01*
X94034764Y-79045079D01*
X94157673Y-78882321D01*
X94248582Y-78699750D01*
X94304397Y-78503583D01*
X94323215Y-78300500D01*
X94321332Y-78280184D01*
X94304397Y-78097417D01*
X94248582Y-77901250D01*
X94157673Y-77718679D01*
X94034764Y-77555921D01*
X94034762Y-77555918D01*
X93884042Y-77418520D01*
X93884041Y-77418519D01*
X93851488Y-77398363D01*
X93804853Y-77346335D01*
X93793592Y-77278645D01*
X93798685Y-77234739D01*
X93218001Y-76654053D01*
X93218000Y-76654053D01*
X92637311Y-77234740D01*
X92642405Y-77278648D01*
X92630577Y-77347509D01*
X92584511Y-77398363D01*
X92551956Y-77418520D01*
X92401237Y-77555918D01*
X92278327Y-77718678D01*
X92187422Y-77901239D01*
X92187417Y-77901252D01*
X92131602Y-78097417D01*
X92112785Y-78300499D01*
X88895500Y-78300499D01*
X88895499Y-76300499D01*
X92113287Y-76300499D01*
X92113287Y-76300500D01*
X92132096Y-76503489D01*
X92132097Y-76503492D01*
X92187883Y-76699563D01*
X92187886Y-76699569D01*
X92278751Y-76882051D01*
X92280533Y-76884411D01*
X92864446Y-76300500D01*
X92824950Y-76261004D01*
X92918000Y-76261004D01*
X92918000Y-76339996D01*
X92938444Y-76416296D01*
X92977940Y-76484705D01*
X93033795Y-76540560D01*
X93102204Y-76580056D01*
X93178504Y-76600500D01*
X93257496Y-76600500D01*
X93333796Y-76580056D01*
X93402205Y-76540560D01*
X93458060Y-76484705D01*
X93497556Y-76416296D01*
X93518000Y-76339996D01*
X93518000Y-76300500D01*
X93571553Y-76300500D01*
X94155465Y-76884412D01*
X94157247Y-76882053D01*
X94157248Y-76882051D01*
X94248113Y-76699569D01*
X94248116Y-76699563D01*
X94303902Y-76503492D01*
X94303903Y-76503489D01*
X94320257Y-76326999D01*
X125898341Y-76326999D01*
X125898341Y-76327000D01*
X125918936Y-76562403D01*
X125918938Y-76562413D01*
X125980094Y-76790655D01*
X125980096Y-76790659D01*
X125980097Y-76790663D01*
X126061858Y-76966000D01*
X126079965Y-77004830D01*
X126079967Y-77004834D01*
X126188281Y-77159521D01*
X126215505Y-77198401D01*
X126382599Y-77365495D01*
X126479384Y-77433265D01*
X126576165Y-77501032D01*
X126576167Y-77501033D01*
X126576170Y-77501035D01*
X126790337Y-77600903D01*
X127018592Y-77662063D01*
X127195034Y-77677500D01*
X127253999Y-77682659D01*
X127254000Y-77682659D01*
X127254001Y-77682659D01*
X127312966Y-77677500D01*
X127489408Y-77662063D01*
X127717663Y-77600903D01*
X127931830Y-77501035D01*
X128125401Y-77365495D01*
X128292495Y-77198401D01*
X128422730Y-77012405D01*
X128477307Y-76968781D01*
X128546805Y-76961587D01*
X128609160Y-76993110D01*
X128625879Y-77012405D01*
X128755890Y-77198078D01*
X128922917Y-77365105D01*
X129116421Y-77500600D01*
X129330507Y-77600429D01*
X129330516Y-77600433D01*
X129544000Y-77657634D01*
X129544000Y-76760012D01*
X129601007Y-76792925D01*
X129728174Y-76827000D01*
X129859826Y-76827000D01*
X129986993Y-76792925D01*
X130044000Y-76760012D01*
X130044000Y-77657633D01*
X130257483Y-77600433D01*
X130257492Y-77600429D01*
X130471578Y-77500600D01*
X130665078Y-77365108D01*
X130787133Y-77243053D01*
X130848456Y-77209568D01*
X130918148Y-77214552D01*
X130974082Y-77256423D01*
X130990997Y-77287401D01*
X131040202Y-77419328D01*
X131040206Y-77419335D01*
X131126452Y-77534544D01*
X131126455Y-77534547D01*
X131241664Y-77620793D01*
X131241671Y-77620797D01*
X131376517Y-77671091D01*
X131376516Y-77671091D01*
X131383444Y-77671835D01*
X131436127Y-77677500D01*
X133231872Y-77677499D01*
X133291483Y-77671091D01*
X133426331Y-77620796D01*
X133541546Y-77534546D01*
X133627796Y-77419331D01*
X133678091Y-77284483D01*
X133684500Y-77224873D01*
X133684499Y-75429128D01*
X133678091Y-75369517D01*
X133677002Y-75366598D01*
X133627797Y-75234671D01*
X133627793Y-75234664D01*
X133541547Y-75119455D01*
X133541544Y-75119452D01*
X133426335Y-75033206D01*
X133426328Y-75033202D01*
X133291482Y-74982908D01*
X133291483Y-74982908D01*
X133231883Y-74976501D01*
X133231881Y-74976500D01*
X133231873Y-74976500D01*
X133231864Y-74976500D01*
X131436129Y-74976500D01*
X131436123Y-74976501D01*
X131376516Y-74982908D01*
X131241671Y-75033202D01*
X131241664Y-75033206D01*
X131126455Y-75119452D01*
X131126452Y-75119455D01*
X131040206Y-75234664D01*
X131040202Y-75234671D01*
X130990997Y-75366598D01*
X130949126Y-75422532D01*
X130883661Y-75446949D01*
X130815388Y-75432097D01*
X130787134Y-75410946D01*
X130665082Y-75288894D01*
X130471578Y-75153399D01*
X130257492Y-75053570D01*
X130257486Y-75053567D01*
X130044000Y-74996364D01*
X130044000Y-75893988D01*
X129986993Y-75861075D01*
X129859826Y-75827000D01*
X129728174Y-75827000D01*
X129601007Y-75861075D01*
X129544000Y-75893988D01*
X129544000Y-74996364D01*
X129543999Y-74996364D01*
X129330513Y-75053567D01*
X129330507Y-75053570D01*
X129116422Y-75153399D01*
X129116420Y-75153400D01*
X128922926Y-75288886D01*
X128922920Y-75288891D01*
X128755891Y-75455920D01*
X128755890Y-75455922D01*
X128625880Y-75641595D01*
X128571303Y-75685219D01*
X128501804Y-75692412D01*
X128439450Y-75660890D01*
X128422730Y-75641594D01*
X128292494Y-75455597D01*
X128125402Y-75288506D01*
X128125395Y-75288501D01*
X127931834Y-75152967D01*
X127931830Y-75152965D01*
X127931828Y-75152964D01*
X127717663Y-75053097D01*
X127717659Y-75053096D01*
X127717655Y-75053094D01*
X127489413Y-74991938D01*
X127489403Y-74991936D01*
X127254001Y-74971341D01*
X127253999Y-74971341D01*
X127018596Y-74991936D01*
X127018586Y-74991938D01*
X126790344Y-75053094D01*
X126790335Y-75053098D01*
X126576171Y-75152964D01*
X126576169Y-75152965D01*
X126382597Y-75288505D01*
X126215505Y-75455597D01*
X126079965Y-75649169D01*
X126079964Y-75649171D01*
X125980098Y-75863335D01*
X125980094Y-75863344D01*
X125918938Y-76091586D01*
X125918936Y-76091596D01*
X125898341Y-76326999D01*
X94320257Y-76326999D01*
X94322713Y-76300500D01*
X94322713Y-76300499D01*
X94303903Y-76097510D01*
X94303902Y-76097507D01*
X94248116Y-75901436D01*
X94248113Y-75901430D01*
X94157249Y-75718949D01*
X94157247Y-75718947D01*
X94155465Y-75716587D01*
X93571553Y-76300500D01*
X93518000Y-76300500D01*
X93518000Y-76261004D01*
X93497556Y-76184704D01*
X93458060Y-76116295D01*
X93402205Y-76060440D01*
X93333796Y-76020944D01*
X93257496Y-76000500D01*
X93178504Y-76000500D01*
X93102204Y-76020944D01*
X93033795Y-76060440D01*
X92977940Y-76116295D01*
X92938444Y-76184704D01*
X92918000Y-76261004D01*
X92824950Y-76261004D01*
X92280533Y-75716587D01*
X92278755Y-75718942D01*
X92278754Y-75718943D01*
X92187886Y-75901430D01*
X92187883Y-75901436D01*
X92132097Y-76097507D01*
X92132096Y-76097510D01*
X92113287Y-76300499D01*
X88895499Y-76300499D01*
X88895499Y-75418128D01*
X88889923Y-75366258D01*
X92637311Y-75366258D01*
X93218000Y-75946946D01*
X93218001Y-75946946D01*
X93798687Y-75366258D01*
X93710413Y-75311601D01*
X93710411Y-75311600D01*
X93520321Y-75237960D01*
X93319928Y-75200500D01*
X93116072Y-75200500D01*
X92915678Y-75237960D01*
X92725588Y-75311600D01*
X92725581Y-75311604D01*
X92637312Y-75366257D01*
X92637311Y-75366258D01*
X88889923Y-75366258D01*
X88889091Y-75358517D01*
X88871592Y-75311601D01*
X88838797Y-75223671D01*
X88838793Y-75223664D01*
X88752547Y-75108455D01*
X88752544Y-75108452D01*
X88637335Y-75022206D01*
X88637328Y-75022202D01*
X88502482Y-74971908D01*
X88502483Y-74971908D01*
X88442883Y-74965501D01*
X88442881Y-74965500D01*
X88442873Y-74965500D01*
X88442864Y-74965500D01*
X84847129Y-74965500D01*
X84847123Y-74965501D01*
X84787516Y-74971908D01*
X84652671Y-75022202D01*
X84652664Y-75022206D01*
X84537455Y-75108452D01*
X84537452Y-75108455D01*
X84451206Y-75223664D01*
X84451202Y-75223671D01*
X84400908Y-75358517D01*
X84394501Y-75418116D01*
X84394501Y-75418123D01*
X84394500Y-75418135D01*
X84394500Y-79013870D01*
X84394501Y-79013876D01*
X84400908Y-79073483D01*
X84451202Y-79208328D01*
X84451206Y-79208335D01*
X84537452Y-79323544D01*
X84537455Y-79323547D01*
X84652664Y-79409793D01*
X84652673Y-79409798D01*
X84699937Y-79427426D01*
X84755871Y-79469296D01*
X84780289Y-79534760D01*
X84765438Y-79603033D01*
X84716033Y-79652439D01*
X84650028Y-79667433D01*
X84613657Y-79665501D01*
X84613628Y-79665500D01*
X84613622Y-79665500D01*
X82676378Y-79665500D01*
X82676370Y-79665500D01*
X82676347Y-79665501D01*
X82623756Y-79668295D01*
X82623755Y-79668295D01*
X82393878Y-79712754D01*
X82393876Y-79712754D01*
X82393874Y-79712755D01*
X82319933Y-79740659D01*
X82174810Y-79795425D01*
X81972868Y-79913929D01*
X81972861Y-79913934D01*
X81793858Y-80064856D01*
X81793856Y-80064858D01*
X81642934Y-80243861D01*
X81642929Y-80243868D01*
X81524425Y-80445810D01*
X81469659Y-80590933D01*
X81441755Y-80664874D01*
X81441754Y-80664876D01*
X81441754Y-80664878D01*
X81397295Y-80894755D01*
X81397295Y-80894756D01*
X81394501Y-80947347D01*
X81394500Y-80947386D01*
X67175500Y-80947386D01*
X67175500Y-76151803D01*
X78645000Y-76151803D01*
X78645000Y-76966000D01*
X80145000Y-76966000D01*
X80145000Y-77466000D01*
X78645001Y-77466000D01*
X78645001Y-78280197D01*
X78655400Y-78412332D01*
X78710377Y-78630519D01*
X78803428Y-78835374D01*
X78803431Y-78835380D01*
X78931559Y-79020323D01*
X78931569Y-79020335D01*
X79090664Y-79179430D01*
X79090676Y-79179440D01*
X79275619Y-79307568D01*
X79275625Y-79307571D01*
X79480480Y-79400622D01*
X79698667Y-79455599D01*
X79830810Y-79465999D01*
X80394999Y-79465999D01*
X80395000Y-79465998D01*
X80395000Y-78649012D01*
X80452007Y-78681925D01*
X80579174Y-78716000D01*
X80710826Y-78716000D01*
X80837993Y-78681925D01*
X80895000Y-78649012D01*
X80895000Y-79465999D01*
X81459182Y-79465999D01*
X81459197Y-79465998D01*
X81591332Y-79455599D01*
X81809519Y-79400622D01*
X82014374Y-79307571D01*
X82014380Y-79307568D01*
X82199323Y-79179440D01*
X82199335Y-79179430D01*
X82358430Y-79020335D01*
X82358440Y-79020323D01*
X82486568Y-78835380D01*
X82486571Y-78835374D01*
X82579622Y-78630519D01*
X82634599Y-78412332D01*
X82644999Y-78280196D01*
X82645000Y-78280184D01*
X82645000Y-77466000D01*
X81145000Y-77466000D01*
X81145000Y-76966000D01*
X82644999Y-76966000D01*
X82644999Y-76151817D01*
X82644998Y-76151802D01*
X82634599Y-76019667D01*
X82579622Y-75801480D01*
X82486571Y-75596625D01*
X82486568Y-75596619D01*
X82358440Y-75411676D01*
X82358430Y-75411664D01*
X82199335Y-75252569D01*
X82199323Y-75252559D01*
X82014380Y-75124431D01*
X82014374Y-75124428D01*
X81809519Y-75031377D01*
X81591332Y-74976400D01*
X81459196Y-74966000D01*
X80895000Y-74966000D01*
X80895000Y-75782988D01*
X80837993Y-75750075D01*
X80710826Y-75716000D01*
X80579174Y-75716000D01*
X80452007Y-75750075D01*
X80395000Y-75782988D01*
X80395000Y-74966000D01*
X79830817Y-74966000D01*
X79830802Y-74966001D01*
X79698667Y-74976400D01*
X79480480Y-75031377D01*
X79275625Y-75124428D01*
X79275619Y-75124431D01*
X79090676Y-75252559D01*
X79090664Y-75252569D01*
X78931569Y-75411664D01*
X78931559Y-75411676D01*
X78803431Y-75596619D01*
X78803428Y-75596625D01*
X78710377Y-75801480D01*
X78655400Y-76019667D01*
X78645000Y-76151803D01*
X67175500Y-76151803D01*
X67175500Y-63245992D01*
X72610671Y-63245992D01*
X72610671Y-63246007D01*
X72629964Y-63540363D01*
X72629965Y-63540373D01*
X72629966Y-63540380D01*
X72680811Y-63796000D01*
X72687518Y-63829716D01*
X72687521Y-63829730D01*
X72782349Y-64109080D01*
X72912825Y-64373660D01*
X72912829Y-64373667D01*
X73076725Y-64618955D01*
X73271241Y-64840758D01*
X73493041Y-65035272D01*
X73493042Y-65035273D01*
X73738332Y-65199170D01*
X73738335Y-65199172D01*
X74002923Y-65329652D01*
X74282278Y-65424481D01*
X74571620Y-65482034D01*
X74599888Y-65483886D01*
X74865993Y-65501329D01*
X74866000Y-65501329D01*
X74866007Y-65501329D01*
X75101675Y-65485881D01*
X75160380Y-65482034D01*
X75449722Y-65424481D01*
X75729077Y-65329652D01*
X75993665Y-65199172D01*
X76139898Y-65101462D01*
X76238958Y-65035273D01*
X76238959Y-65035272D01*
X76460758Y-64840758D01*
X76509116Y-64785616D01*
X76655273Y-64618957D01*
X76819172Y-64373665D01*
X76949652Y-64109077D01*
X77044481Y-63829722D01*
X77102034Y-63540380D01*
X77111963Y-63388897D01*
X77121329Y-63246007D01*
X77121329Y-63245992D01*
X77102035Y-62951636D01*
X77102034Y-62951620D01*
X77044481Y-62662278D01*
X76949652Y-62382923D01*
X76819172Y-62118336D01*
X76806920Y-62100000D01*
X76740724Y-62000930D01*
X76655273Y-61873043D01*
X76585011Y-61792925D01*
X76460758Y-61651241D01*
X76238955Y-61456725D01*
X75993667Y-61292829D01*
X75993660Y-61292825D01*
X75729080Y-61162349D01*
X75449730Y-61067521D01*
X75449724Y-61067519D01*
X75449722Y-61067519D01*
X75160380Y-61009966D01*
X75160373Y-61009965D01*
X75160363Y-61009964D01*
X74866007Y-60990671D01*
X74865993Y-60990671D01*
X74571636Y-61009964D01*
X74571624Y-61009965D01*
X74571620Y-61009966D01*
X74571612Y-61009967D01*
X74571609Y-61009968D01*
X74282283Y-61067518D01*
X74282269Y-61067521D01*
X74002919Y-61162349D01*
X73738334Y-61292828D01*
X73493041Y-61456728D01*
X73271241Y-61651241D01*
X73076728Y-61873041D01*
X72912828Y-62118334D01*
X72782349Y-62382919D01*
X72687521Y-62662269D01*
X72687518Y-62662283D01*
X72629968Y-62951609D01*
X72629964Y-62951636D01*
X72610671Y-63245992D01*
X67175500Y-63245992D01*
X67175500Y-54700994D01*
X74492859Y-54700994D01*
X74492859Y-54701005D01*
X74513385Y-54948729D01*
X74513387Y-54948738D01*
X74574412Y-55189717D01*
X74674266Y-55417364D01*
X74774564Y-55570882D01*
X75474212Y-54871234D01*
X75485482Y-54913292D01*
X75557890Y-55038708D01*
X75660292Y-55141110D01*
X75785708Y-55213518D01*
X75827765Y-55224787D01*
X75127942Y-55924609D01*
X75174768Y-55961055D01*
X75174770Y-55961056D01*
X75393385Y-56079364D01*
X75393396Y-56079369D01*
X75628506Y-56160083D01*
X75873707Y-56201000D01*
X76122293Y-56201000D01*
X76367493Y-56160083D01*
X76602603Y-56079369D01*
X76602614Y-56079364D01*
X76821228Y-55961057D01*
X76821231Y-55961055D01*
X76868056Y-55924609D01*
X76168234Y-55224787D01*
X76210292Y-55213518D01*
X76335708Y-55141110D01*
X76438110Y-55038708D01*
X76510518Y-54913292D01*
X76521787Y-54871235D01*
X77221434Y-55570882D01*
X77321731Y-55417369D01*
X77421587Y-55189717D01*
X77482612Y-54948738D01*
X77482614Y-54948729D01*
X77503141Y-54701005D01*
X77503141Y-54700994D01*
X80992859Y-54700994D01*
X80992859Y-54701005D01*
X81013385Y-54948729D01*
X81013387Y-54948738D01*
X81074412Y-55189717D01*
X81174266Y-55417364D01*
X81274564Y-55570882D01*
X81974212Y-54871234D01*
X81985482Y-54913292D01*
X82057890Y-55038708D01*
X82160292Y-55141110D01*
X82285708Y-55213518D01*
X82327765Y-55224787D01*
X81627942Y-55924609D01*
X81674768Y-55961055D01*
X81674770Y-55961056D01*
X81893385Y-56079364D01*
X81893396Y-56079369D01*
X82128506Y-56160083D01*
X82373707Y-56201000D01*
X82622293Y-56201000D01*
X82867493Y-56160083D01*
X83102603Y-56079369D01*
X83102614Y-56079364D01*
X83321228Y-55961057D01*
X83321231Y-55961055D01*
X83368056Y-55924609D01*
X82668234Y-55224787D01*
X82710292Y-55213518D01*
X82835708Y-55141110D01*
X82938110Y-55038708D01*
X83010518Y-54913292D01*
X83021787Y-54871235D01*
X83721434Y-55570882D01*
X83821731Y-55417369D01*
X83921587Y-55189717D01*
X83982612Y-54948738D01*
X83982614Y-54948729D01*
X84003141Y-54701005D01*
X84003141Y-54700994D01*
X83982614Y-54453270D01*
X83982612Y-54453261D01*
X83921587Y-54212282D01*
X83821731Y-53984630D01*
X83721434Y-53831116D01*
X83021787Y-54530764D01*
X83010518Y-54488708D01*
X82938110Y-54363292D01*
X82835708Y-54260890D01*
X82710292Y-54188482D01*
X82668235Y-54177212D01*
X83368057Y-53477390D01*
X83368056Y-53477389D01*
X83321229Y-53440943D01*
X83102614Y-53322635D01*
X83102603Y-53322630D01*
X82867493Y-53241916D01*
X82622293Y-53201000D01*
X82373707Y-53201000D01*
X82128506Y-53241916D01*
X81893396Y-53322630D01*
X81893390Y-53322632D01*
X81674761Y-53440949D01*
X81627942Y-53477388D01*
X81627942Y-53477390D01*
X82327765Y-54177212D01*
X82285708Y-54188482D01*
X82160292Y-54260890D01*
X82057890Y-54363292D01*
X81985482Y-54488708D01*
X81974212Y-54530764D01*
X81274564Y-53831116D01*
X81174267Y-53984632D01*
X81074412Y-54212282D01*
X81013387Y-54453261D01*
X81013385Y-54453270D01*
X80992859Y-54700994D01*
X77503141Y-54700994D01*
X77482614Y-54453270D01*
X77482612Y-54453261D01*
X77421587Y-54212282D01*
X77321731Y-53984630D01*
X77221434Y-53831116D01*
X76521787Y-54530764D01*
X76510518Y-54488708D01*
X76438110Y-54363292D01*
X76335708Y-54260890D01*
X76210292Y-54188482D01*
X76168235Y-54177212D01*
X76868057Y-53477390D01*
X76868056Y-53477389D01*
X76821229Y-53440943D01*
X76602614Y-53322635D01*
X76602603Y-53322630D01*
X76367493Y-53241916D01*
X76122293Y-53201000D01*
X75873707Y-53201000D01*
X75628506Y-53241916D01*
X75393396Y-53322630D01*
X75393390Y-53322632D01*
X75174761Y-53440949D01*
X75127942Y-53477388D01*
X75127942Y-53477390D01*
X75827765Y-54177212D01*
X75785708Y-54188482D01*
X75660292Y-54260890D01*
X75557890Y-54363292D01*
X75485482Y-54488708D01*
X75474212Y-54530764D01*
X74774564Y-53831116D01*
X74674267Y-53984632D01*
X74574412Y-54212282D01*
X74513387Y-54453261D01*
X74513385Y-54453270D01*
X74492859Y-54700994D01*
X67175500Y-54700994D01*
X67175500Y-50200994D01*
X74492357Y-50200994D01*
X74492357Y-50201005D01*
X74512890Y-50448812D01*
X74512892Y-50448824D01*
X74573936Y-50689881D01*
X74673826Y-50917606D01*
X74809833Y-51125782D01*
X74809836Y-51125785D01*
X74978256Y-51308738D01*
X75174491Y-51461474D01*
X75393190Y-51579828D01*
X75628386Y-51660571D01*
X75873665Y-51701500D01*
X76122335Y-51701500D01*
X76367614Y-51660571D01*
X76602810Y-51579828D01*
X76821509Y-51461474D01*
X77017744Y-51308738D01*
X77186164Y-51125785D01*
X77322173Y-50917607D01*
X77340560Y-50875689D01*
X77385517Y-50822204D01*
X77452253Y-50801514D01*
X77454116Y-50801500D01*
X81041884Y-50801500D01*
X81108923Y-50821185D01*
X81154678Y-50873989D01*
X81155440Y-50875689D01*
X81173827Y-50917608D01*
X81309833Y-51125782D01*
X81309836Y-51125785D01*
X81478256Y-51308738D01*
X81674491Y-51461474D01*
X81893190Y-51579828D01*
X82128386Y-51660571D01*
X82373665Y-51701500D01*
X82563903Y-51701500D01*
X82630942Y-51721185D01*
X82651584Y-51737819D01*
X87978139Y-57064374D01*
X87978149Y-57064385D01*
X87982479Y-57068715D01*
X87982480Y-57068716D01*
X88094284Y-57180520D01*
X88181095Y-57230639D01*
X88181097Y-57230641D01*
X88219151Y-57252611D01*
X88231215Y-57259577D01*
X88383943Y-57300501D01*
X88383946Y-57300501D01*
X88549653Y-57300501D01*
X88549669Y-57300500D01*
X92407379Y-57300500D01*
X92474418Y-57320185D01*
X92506333Y-57349773D01*
X92629020Y-57512238D01*
X92793433Y-57662120D01*
X92793435Y-57662121D01*
X92793438Y-57662124D01*
X92860778Y-57703818D01*
X92907412Y-57755843D01*
X92919500Y-57809244D01*
X92919500Y-59704986D01*
X92899815Y-59772025D01*
X92847011Y-59817780D01*
X92777853Y-59827724D01*
X92714297Y-59798699D01*
X92695183Y-59777873D01*
X92690934Y-59772025D01*
X92681786Y-59759434D01*
X92520066Y-59597714D01*
X92335038Y-59463283D01*
X92227907Y-59408697D01*
X92131255Y-59359450D01*
X91913748Y-59288778D01*
X91744326Y-59261944D01*
X91687854Y-59253000D01*
X91364146Y-59253000D01*
X91288849Y-59264926D01*
X91138253Y-59288778D01*
X91138250Y-59288778D01*
X90920744Y-59359450D01*
X90716961Y-59463283D01*
X90611396Y-59539980D01*
X90531934Y-59597714D01*
X90531932Y-59597716D01*
X90531931Y-59597716D01*
X90370216Y-59759431D01*
X90370216Y-59759432D01*
X90370214Y-59759434D01*
X90327823Y-59817780D01*
X90235783Y-59944461D01*
X90131950Y-60148244D01*
X90061278Y-60365750D01*
X90061278Y-60365753D01*
X90025500Y-60591646D01*
X90025500Y-60820353D01*
X90061278Y-61046246D01*
X90061278Y-61046249D01*
X90131950Y-61263755D01*
X90230275Y-61456727D01*
X90235783Y-61467538D01*
X90370214Y-61652566D01*
X90531934Y-61814286D01*
X90616864Y-61875991D01*
X90659529Y-61931321D01*
X90665508Y-62000935D01*
X90632902Y-62062730D01*
X90616864Y-62076627D01*
X90532257Y-62138097D01*
X90370597Y-62299757D01*
X90236211Y-62484723D01*
X90132417Y-62688429D01*
X90061765Y-62905871D01*
X90047491Y-62996000D01*
X91035252Y-62996000D01*
X91013482Y-63033708D01*
X90976000Y-63173591D01*
X90976000Y-63318409D01*
X91013482Y-63458292D01*
X91035252Y-63496000D01*
X90047491Y-63496000D01*
X90061765Y-63586128D01*
X90132417Y-63803570D01*
X90236213Y-64007279D01*
X90369011Y-64190060D01*
X90392491Y-64255866D01*
X90376666Y-64323920D01*
X90326560Y-64372615D01*
X90312026Y-64379127D01*
X90283671Y-64389702D01*
X90283664Y-64389706D01*
X90168455Y-64475952D01*
X90168452Y-64475955D01*
X90082206Y-64591164D01*
X90082202Y-64591171D01*
X90031908Y-64726017D01*
X90025501Y-64785616D01*
X90025501Y-64785623D01*
X90025500Y-64785635D01*
X90025500Y-66786370D01*
X90025501Y-66786376D01*
X90031908Y-66845983D01*
X90082202Y-66980828D01*
X90082206Y-66980835D01*
X90168452Y-67096044D01*
X90168455Y-67096047D01*
X90283664Y-67182293D01*
X90283671Y-67182297D01*
X90418517Y-67232591D01*
X90418516Y-67232591D01*
X90425444Y-67233335D01*
X90478127Y-67239000D01*
X92573872Y-67238999D01*
X92633483Y-67232591D01*
X92768331Y-67182296D01*
X92883546Y-67096046D01*
X92969796Y-66980831D01*
X93020091Y-66845983D01*
X93026500Y-66786373D01*
X93026499Y-64785628D01*
X93020091Y-64726017D01*
X92980160Y-64618957D01*
X92969797Y-64591171D01*
X92969793Y-64591164D01*
X92883547Y-64475955D01*
X92883544Y-64475952D01*
X92768335Y-64389706D01*
X92768326Y-64389701D01*
X92739974Y-64379127D01*
X92684040Y-64337257D01*
X92659622Y-64271792D01*
X92674473Y-64203519D01*
X92682988Y-64190059D01*
X92815788Y-64007276D01*
X92919582Y-63803570D01*
X92990234Y-63586128D01*
X93004509Y-63496000D01*
X92016748Y-63496000D01*
X92038518Y-63458292D01*
X92076000Y-63318409D01*
X92076000Y-63173591D01*
X92038518Y-63033708D01*
X92016748Y-62996000D01*
X93004509Y-62996000D01*
X92990234Y-62905871D01*
X92919582Y-62688429D01*
X92815788Y-62484723D01*
X92681402Y-62299757D01*
X92519742Y-62138097D01*
X92435135Y-62076626D01*
X92392470Y-62021296D01*
X92386491Y-61951682D01*
X92419097Y-61889887D01*
X92435125Y-61875999D01*
X92520066Y-61814286D01*
X92681786Y-61652566D01*
X92816217Y-61467538D01*
X92887551Y-61327536D01*
X92935526Y-61276741D01*
X93003347Y-61259946D01*
X93069481Y-61282483D01*
X93085717Y-61296151D01*
X93158349Y-61368783D01*
X93158355Y-61368788D01*
X98955941Y-67166374D01*
X98955951Y-67166385D01*
X98960281Y-67170715D01*
X98960282Y-67170716D01*
X99072086Y-67282520D01*
X99072088Y-67282521D01*
X99072092Y-67282524D01*
X99180908Y-67345348D01*
X99209018Y-67361577D01*
X99320821Y-67391534D01*
X99361744Y-67402500D01*
X99361745Y-67402500D01*
X103477501Y-67402500D01*
X103544540Y-67422185D01*
X103590295Y-67474989D01*
X103601501Y-67526500D01*
X103601501Y-67649876D01*
X103607908Y-67709483D01*
X103658202Y-67844328D01*
X103658206Y-67844335D01*
X103744452Y-67959544D01*
X103744455Y-67959547D01*
X103859664Y-68045793D01*
X103859671Y-68045797D01*
X103994517Y-68096091D01*
X103994516Y-68096091D01*
X104001444Y-68096835D01*
X104054127Y-68102500D01*
X105749872Y-68102499D01*
X105809483Y-68096091D01*
X105944331Y-68045796D01*
X106059546Y-67959546D01*
X106145796Y-67844331D01*
X106196091Y-67709483D01*
X106199862Y-67674401D01*
X106226599Y-67609855D01*
X106283990Y-67570006D01*
X106353816Y-67567511D01*
X106413905Y-67603163D01*
X106424726Y-67616536D01*
X106441956Y-67641143D01*
X106602858Y-67802045D01*
X106602861Y-67802047D01*
X106789266Y-67932568D01*
X106995504Y-68028739D01*
X107215308Y-68087635D01*
X107377230Y-68101801D01*
X107441998Y-68107468D01*
X107442000Y-68107468D01*
X107442002Y-68107468D01*
X107498807Y-68102498D01*
X107668692Y-68087635D01*
X107888496Y-68028739D01*
X108094734Y-67932568D01*
X108281139Y-67802047D01*
X108442047Y-67641139D01*
X108572568Y-67454734D01*
X108599618Y-67396724D01*
X108645790Y-67344285D01*
X108712983Y-67325133D01*
X108779865Y-67345348D01*
X108824382Y-67396725D01*
X108851429Y-67454728D01*
X108851432Y-67454734D01*
X108981954Y-67641141D01*
X109142858Y-67802045D01*
X109142861Y-67802047D01*
X109329266Y-67932568D01*
X109535504Y-68028739D01*
X109755308Y-68087635D01*
X109917230Y-68101801D01*
X109981998Y-68107468D01*
X109982000Y-68107468D01*
X109982002Y-68107468D01*
X110038807Y-68102498D01*
X110208692Y-68087635D01*
X110428496Y-68028739D01*
X110634734Y-67932568D01*
X110821139Y-67802047D01*
X110982047Y-67641139D01*
X111112568Y-67454734D01*
X111139618Y-67396724D01*
X111185790Y-67344285D01*
X111252983Y-67325133D01*
X111319865Y-67345348D01*
X111364382Y-67396725D01*
X111391429Y-67454728D01*
X111391432Y-67454734D01*
X111521954Y-67641141D01*
X111682858Y-67802045D01*
X111682861Y-67802047D01*
X111869266Y-67932568D01*
X112075504Y-68028739D01*
X112295308Y-68087635D01*
X112457230Y-68101801D01*
X112521998Y-68107468D01*
X112522000Y-68107468D01*
X112522002Y-68107468D01*
X112578807Y-68102498D01*
X112748692Y-68087635D01*
X112968496Y-68028739D01*
X113174734Y-67932568D01*
X113361139Y-67802047D01*
X113522047Y-67641139D01*
X113652568Y-67454734D01*
X113679618Y-67396724D01*
X113725790Y-67344285D01*
X113792983Y-67325133D01*
X113859865Y-67345348D01*
X113904382Y-67396725D01*
X113931429Y-67454728D01*
X113931432Y-67454734D01*
X114061954Y-67641141D01*
X114222858Y-67802045D01*
X114222861Y-67802047D01*
X114409266Y-67932568D01*
X114615504Y-68028739D01*
X114835308Y-68087635D01*
X114997230Y-68101801D01*
X115061998Y-68107468D01*
X115062000Y-68107468D01*
X115062002Y-68107468D01*
X115118807Y-68102498D01*
X115288692Y-68087635D01*
X115508496Y-68028739D01*
X115714734Y-67932568D01*
X115901139Y-67802047D01*
X116062047Y-67641139D01*
X116192568Y-67454734D01*
X116219618Y-67396724D01*
X116265790Y-67344285D01*
X116332983Y-67325133D01*
X116399865Y-67345348D01*
X116444382Y-67396725D01*
X116471429Y-67454728D01*
X116471432Y-67454734D01*
X116601954Y-67641141D01*
X116762858Y-67802045D01*
X116762861Y-67802047D01*
X116949266Y-67932568D01*
X117155504Y-68028739D01*
X117375308Y-68087635D01*
X117537230Y-68101801D01*
X117601998Y-68107468D01*
X117602000Y-68107468D01*
X117602002Y-68107468D01*
X117658807Y-68102498D01*
X117828692Y-68087635D01*
X118048496Y-68028739D01*
X118254734Y-67932568D01*
X118441139Y-67802047D01*
X118602047Y-67641139D01*
X118732568Y-67454734D01*
X118759618Y-67396724D01*
X118805790Y-67344285D01*
X118872983Y-67325133D01*
X118939865Y-67345348D01*
X118984382Y-67396725D01*
X119011429Y-67454728D01*
X119011432Y-67454734D01*
X119141954Y-67641141D01*
X119302858Y-67802045D01*
X119302861Y-67802047D01*
X119489266Y-67932568D01*
X119695504Y-68028739D01*
X119915308Y-68087635D01*
X120077230Y-68101801D01*
X120141998Y-68107468D01*
X120142000Y-68107468D01*
X120142002Y-68107468D01*
X120198807Y-68102498D01*
X120368692Y-68087635D01*
X120588496Y-68028739D01*
X120794734Y-67932568D01*
X120981139Y-67802047D01*
X121142047Y-67641139D01*
X121272568Y-67454734D01*
X121299895Y-67396129D01*
X121346064Y-67343695D01*
X121413257Y-67324542D01*
X121480139Y-67344757D01*
X121524657Y-67396133D01*
X121551865Y-67454482D01*
X121682342Y-67640820D01*
X121843179Y-67801657D01*
X122029517Y-67932134D01*
X122235673Y-68028265D01*
X122235682Y-68028269D01*
X122431999Y-68080872D01*
X122432000Y-68080871D01*
X122432000Y-67117686D01*
X122436394Y-67122080D01*
X122527606Y-67174741D01*
X122629339Y-67202000D01*
X122734661Y-67202000D01*
X122836394Y-67174741D01*
X122927606Y-67122080D01*
X122932000Y-67117686D01*
X122932000Y-68080872D01*
X123128317Y-68028269D01*
X123128326Y-68028265D01*
X123334482Y-67932134D01*
X123520820Y-67801657D01*
X123681657Y-67640820D01*
X123812132Y-67454484D01*
X123839341Y-67396134D01*
X123885513Y-67343695D01*
X123952707Y-67324542D01*
X124019588Y-67344757D01*
X124064106Y-67396133D01*
X124091431Y-67454732D01*
X124091432Y-67454734D01*
X124221954Y-67641141D01*
X124382858Y-67802045D01*
X124382861Y-67802047D01*
X124569266Y-67932568D01*
X124775504Y-68028739D01*
X124995308Y-68087635D01*
X125157230Y-68101801D01*
X125221998Y-68107468D01*
X125222000Y-68107468D01*
X125222002Y-68107468D01*
X125278807Y-68102498D01*
X125448692Y-68087635D01*
X125668496Y-68028739D01*
X125874734Y-67932568D01*
X126061139Y-67802047D01*
X126083983Y-67779203D01*
X126162819Y-67700368D01*
X126224142Y-67666883D01*
X126293834Y-67671867D01*
X126349767Y-67713739D01*
X126374184Y-67779203D01*
X126374500Y-67788049D01*
X126374500Y-68355145D01*
X126355494Y-68421117D01*
X126274211Y-68550476D01*
X126214631Y-68720745D01*
X126214630Y-68720750D01*
X126194435Y-68899996D01*
X126194435Y-68900003D01*
X126214630Y-69079249D01*
X126214631Y-69079254D01*
X126262599Y-69216337D01*
X126266160Y-69286116D01*
X126231431Y-69346744D01*
X126216681Y-69358866D01*
X126160868Y-69397946D01*
X126160865Y-69397949D01*
X125999951Y-69558862D01*
X125869432Y-69745265D01*
X125869431Y-69745267D01*
X125773261Y-69951502D01*
X125773258Y-69951511D01*
X125714366Y-70171302D01*
X125714364Y-70171313D01*
X125694532Y-70397998D01*
X125694532Y-70398001D01*
X125714364Y-70624686D01*
X125714366Y-70624697D01*
X125773258Y-70844488D01*
X125773261Y-70844497D01*
X125869431Y-71050732D01*
X125869432Y-71050734D01*
X125999954Y-71237141D01*
X126160858Y-71398045D01*
X126160861Y-71398047D01*
X126347266Y-71528568D01*
X126362975Y-71535893D01*
X126415414Y-71582064D01*
X126434567Y-71649257D01*
X126414352Y-71716138D01*
X126362979Y-71760656D01*
X126347514Y-71767867D01*
X126347512Y-71767868D01*
X126274526Y-71818973D01*
X126274526Y-71818974D01*
X126953553Y-72498000D01*
X126947339Y-72498000D01*
X126845606Y-72525259D01*
X126754394Y-72577920D01*
X126679920Y-72652394D01*
X126627259Y-72743606D01*
X126600000Y-72845339D01*
X126600000Y-72851552D01*
X125920974Y-72172526D01*
X125920973Y-72172526D01*
X125869868Y-72245512D01*
X125869866Y-72245516D01*
X125773734Y-72451673D01*
X125773730Y-72451682D01*
X125714860Y-72671389D01*
X125714858Y-72671400D01*
X125695034Y-72897997D01*
X125695034Y-72898002D01*
X125714858Y-73124599D01*
X125714860Y-73124610D01*
X125773730Y-73344317D01*
X125773735Y-73344331D01*
X125869863Y-73550478D01*
X125920974Y-73623472D01*
X126600000Y-72944446D01*
X126600000Y-72950661D01*
X126627259Y-73052394D01*
X126679920Y-73143606D01*
X126754394Y-73218080D01*
X126845606Y-73270741D01*
X126947339Y-73298000D01*
X126953553Y-73298000D01*
X126274526Y-73977025D01*
X126347513Y-74028132D01*
X126347521Y-74028136D01*
X126553668Y-74124264D01*
X126553682Y-74124269D01*
X126773389Y-74183139D01*
X126773400Y-74183141D01*
X126999998Y-74202966D01*
X127000002Y-74202966D01*
X127226599Y-74183141D01*
X127226610Y-74183139D01*
X127446317Y-74124269D01*
X127446331Y-74124264D01*
X127652478Y-74028136D01*
X127725471Y-73977024D01*
X127046447Y-73298000D01*
X127052661Y-73298000D01*
X127154394Y-73270741D01*
X127245606Y-73218080D01*
X127320080Y-73143606D01*
X127372741Y-73052394D01*
X127400000Y-72950661D01*
X127400000Y-72944447D01*
X128079024Y-73623471D01*
X128130136Y-73550478D01*
X128226264Y-73344331D01*
X128226269Y-73344317D01*
X128285139Y-73124610D01*
X128285141Y-73124599D01*
X128304966Y-72898002D01*
X128304966Y-72897997D01*
X128285141Y-72671400D01*
X128285139Y-72671389D01*
X128226269Y-72451682D01*
X128226264Y-72451668D01*
X128130136Y-72245521D01*
X128130132Y-72245513D01*
X128079025Y-72172526D01*
X127400000Y-72851551D01*
X127400000Y-72845339D01*
X127372741Y-72743606D01*
X127320080Y-72652394D01*
X127245606Y-72577920D01*
X127154394Y-72525259D01*
X127052661Y-72498000D01*
X127046448Y-72498000D01*
X127725472Y-71818974D01*
X127652480Y-71767864D01*
X127637024Y-71760657D01*
X127584585Y-71714484D01*
X127565433Y-71647290D01*
X127585649Y-71580409D01*
X127637023Y-71535893D01*
X127652734Y-71528568D01*
X127839139Y-71398047D01*
X128000047Y-71237139D01*
X128130568Y-71050734D01*
X128226739Y-70844496D01*
X128285635Y-70624692D01*
X128305468Y-70398000D01*
X128305468Y-70397998D01*
X131282532Y-70397998D01*
X131282532Y-70398001D01*
X131302364Y-70624686D01*
X131302366Y-70624697D01*
X131361258Y-70844488D01*
X131361261Y-70844497D01*
X131457431Y-71050732D01*
X131457432Y-71050734D01*
X131587954Y-71237141D01*
X131748858Y-71398045D01*
X131748861Y-71398047D01*
X131935266Y-71528568D01*
X131950975Y-71535893D01*
X132003414Y-71582064D01*
X132022567Y-71649257D01*
X132002352Y-71716138D01*
X131950979Y-71760656D01*
X131935514Y-71767867D01*
X131935512Y-71767868D01*
X131862526Y-71818973D01*
X131862526Y-71818974D01*
X132541553Y-72498000D01*
X132535339Y-72498000D01*
X132433606Y-72525259D01*
X132342394Y-72577920D01*
X132267920Y-72652394D01*
X132215259Y-72743606D01*
X132188000Y-72845339D01*
X132188000Y-72851552D01*
X131508974Y-72172526D01*
X131508973Y-72172526D01*
X131457868Y-72245512D01*
X131457866Y-72245516D01*
X131361734Y-72451673D01*
X131361730Y-72451682D01*
X131302860Y-72671389D01*
X131302858Y-72671400D01*
X131283034Y-72897997D01*
X131283034Y-72898002D01*
X131302858Y-73124599D01*
X131302860Y-73124610D01*
X131361730Y-73344317D01*
X131361735Y-73344331D01*
X131457863Y-73550478D01*
X131508974Y-73623472D01*
X132188000Y-72944446D01*
X132188000Y-72950661D01*
X132215259Y-73052394D01*
X132267920Y-73143606D01*
X132342394Y-73218080D01*
X132433606Y-73270741D01*
X132535339Y-73298000D01*
X132541553Y-73298000D01*
X131862526Y-73977025D01*
X131935513Y-74028132D01*
X131935521Y-74028136D01*
X132141668Y-74124264D01*
X132141682Y-74124269D01*
X132361389Y-74183139D01*
X132361400Y-74183141D01*
X132587998Y-74202966D01*
X132588002Y-74202966D01*
X132814599Y-74183141D01*
X132814610Y-74183139D01*
X133034317Y-74124269D01*
X133034331Y-74124264D01*
X133240478Y-74028136D01*
X133313471Y-73977024D01*
X132634447Y-73298000D01*
X132640661Y-73298000D01*
X132742394Y-73270741D01*
X132833606Y-73218080D01*
X132908080Y-73143606D01*
X132960741Y-73052394D01*
X132988000Y-72950661D01*
X132988000Y-72944447D01*
X133667024Y-73623471D01*
X133718136Y-73550478D01*
X133814264Y-73344331D01*
X133814269Y-73344317D01*
X133873139Y-73124610D01*
X133873141Y-73124599D01*
X133892966Y-72898002D01*
X133892966Y-72897997D01*
X133873141Y-72671400D01*
X133873139Y-72671389D01*
X133814269Y-72451682D01*
X133814264Y-72451668D01*
X133718136Y-72245521D01*
X133718132Y-72245513D01*
X133667025Y-72172526D01*
X132988000Y-72851551D01*
X132988000Y-72845339D01*
X132960741Y-72743606D01*
X132908080Y-72652394D01*
X132833606Y-72577920D01*
X132742394Y-72525259D01*
X132640661Y-72498000D01*
X132634448Y-72498000D01*
X133313472Y-71818974D01*
X133240480Y-71767864D01*
X133225024Y-71760657D01*
X133172585Y-71714484D01*
X133153433Y-71647290D01*
X133173649Y-71580409D01*
X133225023Y-71535893D01*
X133240734Y-71528568D01*
X133427139Y-71398047D01*
X133588047Y-71237139D01*
X133718568Y-71050734D01*
X133814739Y-70844496D01*
X133873635Y-70624692D01*
X133893468Y-70398000D01*
X133873635Y-70171308D01*
X133814739Y-69951504D01*
X133718568Y-69745266D01*
X133588047Y-69558861D01*
X133588045Y-69558858D01*
X133427141Y-69397954D01*
X133240734Y-69267432D01*
X133240732Y-69267431D01*
X133034497Y-69171261D01*
X133034488Y-69171258D01*
X132814697Y-69112366D01*
X132814693Y-69112365D01*
X132814692Y-69112365D01*
X132814691Y-69112364D01*
X132814686Y-69112364D01*
X132588002Y-69092532D01*
X132587998Y-69092532D01*
X132361313Y-69112364D01*
X132361302Y-69112366D01*
X132141511Y-69171258D01*
X132141502Y-69171261D01*
X131935267Y-69267431D01*
X131935265Y-69267432D01*
X131748858Y-69397954D01*
X131587954Y-69558858D01*
X131457432Y-69745265D01*
X131457431Y-69745267D01*
X131361261Y-69951502D01*
X131361258Y-69951511D01*
X131302366Y-70171302D01*
X131302364Y-70171313D01*
X131282532Y-70397998D01*
X128305468Y-70397998D01*
X128285635Y-70171308D01*
X128226739Y-69951504D01*
X128130568Y-69745266D01*
X128000047Y-69558861D01*
X128000045Y-69558858D01*
X127839141Y-69397954D01*
X127783318Y-69358867D01*
X127739693Y-69304291D01*
X127732499Y-69234792D01*
X127737395Y-69216351D01*
X127780722Y-69092532D01*
X127785367Y-69079259D01*
X127785369Y-69079249D01*
X127805565Y-68900003D01*
X127805565Y-68899996D01*
X127785369Y-68720750D01*
X127785368Y-68720745D01*
X127725788Y-68550476D01*
X127644506Y-68421117D01*
X127625500Y-68355145D01*
X127625500Y-68230848D01*
X127645185Y-68163809D01*
X127697989Y-68118054D01*
X127756586Y-68107961D01*
X127756586Y-68107468D01*
X127759449Y-68107468D01*
X127760308Y-68107320D01*
X127761999Y-68107468D01*
X127762000Y-68107468D01*
X127762002Y-68107468D01*
X127818807Y-68102498D01*
X127988692Y-68087635D01*
X128208496Y-68028739D01*
X128414734Y-67932568D01*
X128601139Y-67802047D01*
X128762047Y-67641139D01*
X128892568Y-67454734D01*
X128919618Y-67396724D01*
X128965790Y-67344285D01*
X129032983Y-67325133D01*
X129099865Y-67345348D01*
X129144382Y-67396725D01*
X129171429Y-67454728D01*
X129171432Y-67454734D01*
X129301954Y-67641141D01*
X129462858Y-67802045D01*
X129462861Y-67802047D01*
X129649266Y-67932568D01*
X129855504Y-68028739D01*
X130075308Y-68087635D01*
X130237230Y-68101801D01*
X130301998Y-68107468D01*
X130302000Y-68107468D01*
X130302002Y-68107468D01*
X130358807Y-68102498D01*
X130528692Y-68087635D01*
X130748496Y-68028739D01*
X130954734Y-67932568D01*
X131141139Y-67802047D01*
X131302047Y-67641139D01*
X131432568Y-67454734D01*
X131459618Y-67396724D01*
X131505790Y-67344285D01*
X131572983Y-67325133D01*
X131639865Y-67345348D01*
X131684382Y-67396725D01*
X131711429Y-67454728D01*
X131711432Y-67454734D01*
X131841954Y-67641141D01*
X132002858Y-67802045D01*
X132002861Y-67802047D01*
X132189266Y-67932568D01*
X132395504Y-68028739D01*
X132615308Y-68087635D01*
X132777230Y-68101801D01*
X132841998Y-68107468D01*
X132842000Y-68107468D01*
X132842002Y-68107468D01*
X132898807Y-68102498D01*
X133068692Y-68087635D01*
X133288496Y-68028739D01*
X133494734Y-67932568D01*
X133681139Y-67802047D01*
X133842047Y-67641139D01*
X133972568Y-67454734D01*
X133999618Y-67396724D01*
X134045790Y-67344285D01*
X134112983Y-67325133D01*
X134179865Y-67345348D01*
X134224382Y-67396725D01*
X134251429Y-67454728D01*
X134251432Y-67454734D01*
X134381954Y-67641141D01*
X134542858Y-67802045D01*
X134542861Y-67802047D01*
X134729266Y-67932568D01*
X134935504Y-68028739D01*
X135155308Y-68087635D01*
X135317230Y-68101801D01*
X135381998Y-68107468D01*
X135382000Y-68107468D01*
X135382002Y-68107468D01*
X135438807Y-68102498D01*
X135608692Y-68087635D01*
X135828496Y-68028739D01*
X136034734Y-67932568D01*
X136221139Y-67802047D01*
X136382047Y-67641139D01*
X136512568Y-67454734D01*
X136539618Y-67396724D01*
X136585790Y-67344285D01*
X136652983Y-67325133D01*
X136719865Y-67345348D01*
X136764382Y-67396725D01*
X136791429Y-67454728D01*
X136791432Y-67454734D01*
X136921954Y-67641141D01*
X137082858Y-67802045D01*
X137082861Y-67802047D01*
X137269266Y-67932568D01*
X137475504Y-68028739D01*
X137695308Y-68087635D01*
X137857230Y-68101801D01*
X137921998Y-68107468D01*
X137922000Y-68107468D01*
X137922002Y-68107468D01*
X137978807Y-68102498D01*
X138148692Y-68087635D01*
X138368496Y-68028739D01*
X138574734Y-67932568D01*
X138761139Y-67802047D01*
X138922047Y-67641139D01*
X139052568Y-67454734D01*
X139148739Y-67248496D01*
X139207635Y-67028692D01*
X139227468Y-66802000D01*
X139207635Y-66575308D01*
X139148739Y-66355504D01*
X139082368Y-66213173D01*
X139071877Y-66144098D01*
X139100396Y-66080314D01*
X139158873Y-66042074D01*
X139228740Y-66041519D01*
X139282432Y-66073089D01*
X140741181Y-67531838D01*
X140774666Y-67593161D01*
X140777500Y-67619519D01*
X140777500Y-74657326D01*
X140757815Y-74724365D01*
X140724624Y-74758901D01*
X140638863Y-74818951D01*
X140477951Y-74979862D01*
X140347432Y-75166265D01*
X140347429Y-75166270D01*
X140340104Y-75181979D01*
X140293929Y-75234417D01*
X140226735Y-75253566D01*
X140159855Y-75233347D01*
X140115341Y-75181973D01*
X140108133Y-75166515D01*
X140108132Y-75166513D01*
X140057025Y-75093526D01*
X139378000Y-75772551D01*
X139378000Y-75766339D01*
X139350741Y-75664606D01*
X139298080Y-75573394D01*
X139223606Y-75498920D01*
X139132394Y-75446259D01*
X139030661Y-75419000D01*
X139024448Y-75419000D01*
X139703472Y-74739974D01*
X139630478Y-74688863D01*
X139424331Y-74592735D01*
X139424317Y-74592730D01*
X139204610Y-74533860D01*
X139204599Y-74533858D01*
X138978002Y-74514034D01*
X138977998Y-74514034D01*
X138751400Y-74533858D01*
X138751389Y-74533860D01*
X138531682Y-74592730D01*
X138531673Y-74592734D01*
X138325516Y-74688866D01*
X138325512Y-74688868D01*
X138252526Y-74739973D01*
X138252526Y-74739974D01*
X138931553Y-75419000D01*
X138925339Y-75419000D01*
X138823606Y-75446259D01*
X138732394Y-75498920D01*
X138657920Y-75573394D01*
X138605259Y-75664606D01*
X138578000Y-75766339D01*
X138578000Y-75772552D01*
X137898974Y-75093526D01*
X137898973Y-75093526D01*
X137847868Y-75166512D01*
X137847866Y-75166516D01*
X137751734Y-75372673D01*
X137751730Y-75372682D01*
X137692860Y-75592389D01*
X137692858Y-75592400D01*
X137673034Y-75818997D01*
X137673034Y-75819002D01*
X137692858Y-76045599D01*
X137692860Y-76045610D01*
X137751730Y-76265317D01*
X137751735Y-76265331D01*
X137847863Y-76471478D01*
X137898974Y-76544472D01*
X138578000Y-75865446D01*
X138578000Y-75871661D01*
X138605259Y-75973394D01*
X138657920Y-76064606D01*
X138732394Y-76139080D01*
X138823606Y-76191741D01*
X138925339Y-76219000D01*
X138931553Y-76219000D01*
X138252526Y-76898025D01*
X138325513Y-76949132D01*
X138325521Y-76949136D01*
X138531668Y-77045264D01*
X138531682Y-77045269D01*
X138751389Y-77104139D01*
X138751400Y-77104141D01*
X138977998Y-77123966D01*
X138978002Y-77123966D01*
X139204599Y-77104141D01*
X139204610Y-77104139D01*
X139424317Y-77045269D01*
X139424331Y-77045264D01*
X139630478Y-76949136D01*
X139703471Y-76898024D01*
X139024447Y-76219000D01*
X139030661Y-76219000D01*
X139132394Y-76191741D01*
X139223606Y-76139080D01*
X139298080Y-76064606D01*
X139350741Y-75973394D01*
X139378000Y-75871661D01*
X139378000Y-75865447D01*
X140057024Y-76544471D01*
X140108134Y-76471481D01*
X140115340Y-76456028D01*
X140161511Y-76403587D01*
X140228704Y-76384433D01*
X140295585Y-76404646D01*
X140340105Y-76456022D01*
X140347430Y-76471730D01*
X140347432Y-76471734D01*
X140477954Y-76658141D01*
X140638858Y-76819045D01*
X140638861Y-76819047D01*
X140825266Y-76949568D01*
X141031504Y-77045739D01*
X141251308Y-77104635D01*
X141413230Y-77118801D01*
X141477998Y-77124468D01*
X141478000Y-77124468D01*
X141478002Y-77124468D01*
X141534673Y-77119509D01*
X141704692Y-77104635D01*
X141924496Y-77045739D01*
X142130734Y-76949568D01*
X142317139Y-76819047D01*
X142478047Y-76658139D01*
X142608568Y-76471734D01*
X142704739Y-76265496D01*
X142763635Y-76045692D01*
X142783468Y-75819000D01*
X142763635Y-75592308D01*
X142704739Y-75372504D01*
X142608568Y-75166266D01*
X142515398Y-75033204D01*
X142478048Y-74979862D01*
X142463686Y-74965500D01*
X142317139Y-74818953D01*
X142231376Y-74758901D01*
X142187751Y-74704324D01*
X142178500Y-74657326D01*
X142178500Y-67682155D01*
X144573000Y-67682155D01*
X144573000Y-68330000D01*
X145489988Y-68330000D01*
X145457075Y-68387007D01*
X145423000Y-68514174D01*
X145423000Y-68645826D01*
X145457075Y-68772993D01*
X145489988Y-68830000D01*
X144573000Y-68830000D01*
X144573000Y-69477844D01*
X144579401Y-69537372D01*
X144579403Y-69537379D01*
X144629645Y-69672086D01*
X144629649Y-69672093D01*
X144715809Y-69787187D01*
X144715812Y-69787190D01*
X144830906Y-69873350D01*
X144830913Y-69873354D01*
X144962986Y-69922614D01*
X145018920Y-69964485D01*
X145043337Y-70029949D01*
X145028486Y-70098222D01*
X145007335Y-70126477D01*
X144884886Y-70248926D01*
X144749400Y-70442420D01*
X144749399Y-70442422D01*
X144649570Y-70656507D01*
X144649567Y-70656513D01*
X144592364Y-70869999D01*
X144592364Y-70870000D01*
X145489988Y-70870000D01*
X145457075Y-70927007D01*
X145423000Y-71054174D01*
X145423000Y-71185826D01*
X145457075Y-71312993D01*
X145489988Y-71370000D01*
X144592364Y-71370000D01*
X144649567Y-71583486D01*
X144649570Y-71583492D01*
X144749399Y-71797578D01*
X144884894Y-71991082D01*
X145051917Y-72158105D01*
X145245421Y-72293600D01*
X145459507Y-72393429D01*
X145459516Y-72393433D01*
X145673000Y-72450634D01*
X145673000Y-71553012D01*
X145730007Y-71585925D01*
X145857174Y-71620000D01*
X145988826Y-71620000D01*
X146115993Y-71585925D01*
X146173000Y-71553012D01*
X146173000Y-72450633D01*
X146386483Y-72393433D01*
X146386492Y-72393429D01*
X146600578Y-72293600D01*
X146794082Y-72158105D01*
X146961105Y-71991082D01*
X147096600Y-71797578D01*
X147196429Y-71583492D01*
X147196432Y-71583486D01*
X147253636Y-71370000D01*
X146356012Y-71370000D01*
X146388925Y-71312993D01*
X146423000Y-71185826D01*
X146423000Y-71054174D01*
X146388925Y-70927007D01*
X146356012Y-70870000D01*
X147253636Y-70870000D01*
X147253635Y-70869999D01*
X147196432Y-70656513D01*
X147196429Y-70656507D01*
X147096600Y-70442422D01*
X147096599Y-70442420D01*
X146961113Y-70248926D01*
X146961108Y-70248920D01*
X146838665Y-70126477D01*
X146805180Y-70065154D01*
X146810164Y-69995462D01*
X146852036Y-69939529D01*
X146883013Y-69922614D01*
X147015086Y-69873354D01*
X147015093Y-69873350D01*
X147130187Y-69787190D01*
X147130190Y-69787187D01*
X147216350Y-69672093D01*
X147216354Y-69672086D01*
X147266596Y-69537379D01*
X147266598Y-69537372D01*
X147272999Y-69477844D01*
X147273000Y-69477827D01*
X147273000Y-68830000D01*
X146356012Y-68830000D01*
X146388925Y-68772993D01*
X146423000Y-68645826D01*
X146423000Y-68514174D01*
X146388925Y-68387007D01*
X146356012Y-68330000D01*
X147273000Y-68330000D01*
X147273000Y-67682172D01*
X147272999Y-67682155D01*
X147266598Y-67622627D01*
X147266596Y-67622620D01*
X147216354Y-67487913D01*
X147216350Y-67487906D01*
X147130190Y-67372812D01*
X147130187Y-67372809D01*
X147015093Y-67286649D01*
X147015086Y-67286645D01*
X146880379Y-67236403D01*
X146880372Y-67236401D01*
X146820844Y-67230000D01*
X146173000Y-67230000D01*
X146173000Y-68146988D01*
X146115993Y-68114075D01*
X145988826Y-68080000D01*
X145857174Y-68080000D01*
X145730007Y-68114075D01*
X145673000Y-68146988D01*
X145673000Y-67230000D01*
X145025155Y-67230000D01*
X144965627Y-67236401D01*
X144965620Y-67236403D01*
X144830913Y-67286645D01*
X144830906Y-67286649D01*
X144715812Y-67372809D01*
X144715809Y-67372812D01*
X144629649Y-67487906D01*
X144629645Y-67487913D01*
X144579403Y-67622620D01*
X144579401Y-67622627D01*
X144573000Y-67682155D01*
X142178500Y-67682155D01*
X142178500Y-67209006D01*
X142173187Y-67182297D01*
X142170883Y-67170716D01*
X142170882Y-67170713D01*
X142161165Y-67121861D01*
X142151580Y-67073672D01*
X142132949Y-67028692D01*
X142098777Y-66946192D01*
X142022112Y-66831454D01*
X137946545Y-62755887D01*
X137831807Y-62679222D01*
X137704332Y-62626421D01*
X137704322Y-62626418D01*
X137568996Y-62599500D01*
X137568994Y-62599500D01*
X137568993Y-62599500D01*
X129681518Y-62599500D01*
X129614479Y-62579815D01*
X129593837Y-62563181D01*
X127548319Y-60517662D01*
X127514834Y-60456339D01*
X127512000Y-60429981D01*
X127512000Y-59497686D01*
X127516394Y-59502080D01*
X127607606Y-59554741D01*
X127709339Y-59582000D01*
X127814661Y-59582000D01*
X127916394Y-59554741D01*
X128007606Y-59502080D01*
X128012000Y-59497686D01*
X128012000Y-60460872D01*
X128208317Y-60408269D01*
X128208326Y-60408265D01*
X128414482Y-60312134D01*
X128600820Y-60181657D01*
X128761657Y-60020820D01*
X128892132Y-59834484D01*
X128919341Y-59776134D01*
X128965513Y-59723695D01*
X129032707Y-59704542D01*
X129099588Y-59724757D01*
X129144105Y-59776132D01*
X129163526Y-59817780D01*
X129171431Y-59834732D01*
X129171432Y-59834734D01*
X129301954Y-60021141D01*
X129462858Y-60182045D01*
X129462861Y-60182047D01*
X129649266Y-60312568D01*
X129855504Y-60408739D01*
X129855509Y-60408740D01*
X129855511Y-60408741D01*
X129871798Y-60413105D01*
X130075308Y-60467635D01*
X130237230Y-60481801D01*
X130301998Y-60487468D01*
X130302000Y-60487468D01*
X130302002Y-60487468D01*
X130358673Y-60482509D01*
X130528692Y-60467635D01*
X130748496Y-60408739D01*
X130954734Y-60312568D01*
X131141139Y-60182047D01*
X131302047Y-60021139D01*
X131432568Y-59834734D01*
X131459618Y-59776724D01*
X131505790Y-59724285D01*
X131572983Y-59705133D01*
X131639865Y-59725348D01*
X131684381Y-59776724D01*
X131698517Y-59807038D01*
X131711429Y-59834728D01*
X131711432Y-59834734D01*
X131841954Y-60021141D01*
X132002858Y-60182045D01*
X132002861Y-60182047D01*
X132189266Y-60312568D01*
X132395504Y-60408739D01*
X132395509Y-60408740D01*
X132395511Y-60408741D01*
X132411798Y-60413105D01*
X132615308Y-60467635D01*
X132777230Y-60481801D01*
X132841998Y-60487468D01*
X132842000Y-60487468D01*
X132842002Y-60487468D01*
X132898673Y-60482509D01*
X133068692Y-60467635D01*
X133288496Y-60408739D01*
X133494734Y-60312568D01*
X133681139Y-60182047D01*
X133842047Y-60021139D01*
X133972568Y-59834734D01*
X133999618Y-59776724D01*
X134045790Y-59724285D01*
X134112983Y-59705133D01*
X134179865Y-59725348D01*
X134224381Y-59776724D01*
X134238517Y-59807038D01*
X134251429Y-59834728D01*
X134251432Y-59834734D01*
X134381954Y-60021141D01*
X134542858Y-60182045D01*
X134542861Y-60182047D01*
X134729266Y-60312568D01*
X134935504Y-60408739D01*
X134935509Y-60408740D01*
X134935511Y-60408741D01*
X134951798Y-60413105D01*
X135155308Y-60467635D01*
X135317230Y-60481801D01*
X135381998Y-60487468D01*
X135382000Y-60487468D01*
X135382002Y-60487468D01*
X135438673Y-60482509D01*
X135608692Y-60467635D01*
X135828496Y-60408739D01*
X136034734Y-60312568D01*
X136221139Y-60182047D01*
X136382047Y-60021139D01*
X136512568Y-59834734D01*
X136539618Y-59776724D01*
X136585790Y-59724285D01*
X136652983Y-59705133D01*
X136719865Y-59725348D01*
X136764381Y-59776724D01*
X136778517Y-59807038D01*
X136791429Y-59834728D01*
X136791432Y-59834734D01*
X136921954Y-60021141D01*
X137082858Y-60182045D01*
X137082861Y-60182047D01*
X137269266Y-60312568D01*
X137475504Y-60408739D01*
X137475509Y-60408740D01*
X137475511Y-60408741D01*
X137491798Y-60413105D01*
X137695308Y-60467635D01*
X137857230Y-60481801D01*
X137921998Y-60487468D01*
X137922000Y-60487468D01*
X137922002Y-60487468D01*
X137978673Y-60482509D01*
X138148692Y-60467635D01*
X138368496Y-60408739D01*
X138574734Y-60312568D01*
X138761139Y-60182047D01*
X138922047Y-60021139D01*
X139052568Y-59834734D01*
X139148739Y-59628496D01*
X139207635Y-59408692D01*
X139227468Y-59182000D01*
X139207635Y-58955308D01*
X139148739Y-58735504D01*
X139052568Y-58529266D01*
X138922047Y-58342861D01*
X138922045Y-58342858D01*
X138761141Y-58181954D01*
X138574734Y-58051432D01*
X138574732Y-58051431D01*
X138368497Y-57955261D01*
X138368488Y-57955258D01*
X138148697Y-57896366D01*
X138148693Y-57896365D01*
X138148692Y-57896365D01*
X138148691Y-57896364D01*
X138148686Y-57896364D01*
X137922002Y-57876532D01*
X137921998Y-57876532D01*
X137695313Y-57896364D01*
X137695302Y-57896366D01*
X137475511Y-57955258D01*
X137475502Y-57955261D01*
X137269267Y-58051431D01*
X137269265Y-58051432D01*
X137082858Y-58181954D01*
X136921954Y-58342858D01*
X136791432Y-58529265D01*
X136791431Y-58529267D01*
X136764382Y-58587275D01*
X136718209Y-58639714D01*
X136651016Y-58658866D01*
X136584135Y-58638650D01*
X136539618Y-58587275D01*
X136512686Y-58529520D01*
X136512568Y-58529266D01*
X136382047Y-58342861D01*
X136382045Y-58342858D01*
X136221141Y-58181954D01*
X136034734Y-58051432D01*
X136034732Y-58051431D01*
X135828497Y-57955261D01*
X135828488Y-57955258D01*
X135608697Y-57896366D01*
X135608693Y-57896365D01*
X135608692Y-57896365D01*
X135608691Y-57896364D01*
X135608686Y-57896364D01*
X135382002Y-57876532D01*
X135381998Y-57876532D01*
X135155313Y-57896364D01*
X135155302Y-57896366D01*
X134935511Y-57955258D01*
X134935502Y-57955261D01*
X134729267Y-58051431D01*
X134729265Y-58051432D01*
X134542858Y-58181954D01*
X134381954Y-58342858D01*
X134251432Y-58529265D01*
X134251431Y-58529267D01*
X134224382Y-58587275D01*
X134178209Y-58639714D01*
X134111016Y-58658866D01*
X134044135Y-58638650D01*
X133999618Y-58587275D01*
X133972686Y-58529520D01*
X133972568Y-58529266D01*
X133842047Y-58342861D01*
X133842045Y-58342858D01*
X133681141Y-58181954D01*
X133494734Y-58051432D01*
X133494732Y-58051431D01*
X133288497Y-57955261D01*
X133288488Y-57955258D01*
X133068697Y-57896366D01*
X133068693Y-57896365D01*
X133068692Y-57896365D01*
X133068691Y-57896364D01*
X133068686Y-57896364D01*
X132842002Y-57876532D01*
X132841998Y-57876532D01*
X132615313Y-57896364D01*
X132615302Y-57896366D01*
X132395511Y-57955258D01*
X132395502Y-57955261D01*
X132189267Y-58051431D01*
X132189265Y-58051432D01*
X132002858Y-58181954D01*
X131841954Y-58342858D01*
X131711432Y-58529265D01*
X131711431Y-58529267D01*
X131684382Y-58587275D01*
X131638209Y-58639714D01*
X131571016Y-58658866D01*
X131504135Y-58638650D01*
X131459618Y-58587275D01*
X131432686Y-58529520D01*
X131432568Y-58529266D01*
X131302047Y-58342861D01*
X131302045Y-58342858D01*
X131141141Y-58181954D01*
X130954734Y-58051432D01*
X130954732Y-58051431D01*
X130748497Y-57955261D01*
X130748488Y-57955258D01*
X130528697Y-57896366D01*
X130528693Y-57896365D01*
X130528692Y-57896365D01*
X130528691Y-57896364D01*
X130528686Y-57896364D01*
X130302002Y-57876532D01*
X130301998Y-57876532D01*
X130075313Y-57896364D01*
X130075302Y-57896366D01*
X129855511Y-57955258D01*
X129855502Y-57955261D01*
X129649267Y-58051431D01*
X129649265Y-58051432D01*
X129462858Y-58181954D01*
X129301954Y-58342858D01*
X129171433Y-58529264D01*
X129171432Y-58529266D01*
X129171315Y-58529518D01*
X129144106Y-58587867D01*
X129097933Y-58640306D01*
X129030739Y-58659457D01*
X128963858Y-58639241D01*
X128919342Y-58587865D01*
X128892135Y-58529520D01*
X128892134Y-58529518D01*
X128761657Y-58343179D01*
X128600820Y-58182342D01*
X128414482Y-58051865D01*
X128208328Y-57955734D01*
X128012000Y-57903127D01*
X128012000Y-58866314D01*
X128007606Y-58861920D01*
X127916394Y-58809259D01*
X127814661Y-58782000D01*
X127709339Y-58782000D01*
X127607606Y-58809259D01*
X127516394Y-58861920D01*
X127512000Y-58866314D01*
X127512000Y-57903127D01*
X127315671Y-57955734D01*
X127109517Y-58051865D01*
X126923179Y-58182342D01*
X126762342Y-58343179D01*
X126631867Y-58529515D01*
X126604657Y-58587867D01*
X126558484Y-58640306D01*
X126491290Y-58659457D01*
X126424409Y-58639241D01*
X126379893Y-58587865D01*
X126352685Y-58529518D01*
X126352568Y-58529266D01*
X126222047Y-58342861D01*
X126222045Y-58342858D01*
X126061141Y-58181954D01*
X125874734Y-58051432D01*
X125874732Y-58051431D01*
X125668497Y-57955261D01*
X125668488Y-57955258D01*
X125448697Y-57896366D01*
X125448693Y-57896365D01*
X125448692Y-57896365D01*
X125448691Y-57896364D01*
X125448686Y-57896364D01*
X125222002Y-57876532D01*
X125221998Y-57876532D01*
X124995313Y-57896364D01*
X124995302Y-57896366D01*
X124775511Y-57955258D01*
X124775502Y-57955262D01*
X124701905Y-57989581D01*
X124632827Y-58000073D01*
X124569043Y-57971553D01*
X124530804Y-57913077D01*
X124525500Y-57877199D01*
X124525500Y-57097501D01*
X124545185Y-57030462D01*
X124597989Y-56984707D01*
X124667147Y-56974763D01*
X124683154Y-56978782D01*
X124683274Y-56978338D01*
X124792042Y-57007481D01*
X124908308Y-57038635D01*
X125070230Y-57052801D01*
X125134998Y-57058468D01*
X125135000Y-57058468D01*
X125135002Y-57058468D01*
X125191673Y-57053509D01*
X125361692Y-57038635D01*
X125581496Y-56979739D01*
X125787734Y-56883568D01*
X125974139Y-56753047D01*
X126135047Y-56592139D01*
X126265568Y-56405734D01*
X126272893Y-56390024D01*
X126319064Y-56337586D01*
X126386257Y-56318433D01*
X126453138Y-56338648D01*
X126497657Y-56390024D01*
X126504864Y-56405480D01*
X126555974Y-56478472D01*
X127235000Y-55799446D01*
X127235000Y-55805661D01*
X127262259Y-55907394D01*
X127314920Y-55998606D01*
X127389394Y-56073080D01*
X127480606Y-56125741D01*
X127582339Y-56153000D01*
X127588553Y-56153000D01*
X126909526Y-56832025D01*
X126982513Y-56883132D01*
X126982521Y-56883136D01*
X127188668Y-56979264D01*
X127188682Y-56979269D01*
X127408389Y-57038139D01*
X127408400Y-57038141D01*
X127634998Y-57057966D01*
X127635002Y-57057966D01*
X127861599Y-57038141D01*
X127861610Y-57038139D01*
X128081317Y-56979269D01*
X128081331Y-56979264D01*
X128287478Y-56883136D01*
X128360471Y-56832024D01*
X127681447Y-56153000D01*
X127687661Y-56153000D01*
X127789394Y-56125741D01*
X127880606Y-56073080D01*
X127955080Y-55998606D01*
X128007741Y-55907394D01*
X128035000Y-55805661D01*
X128035000Y-55799447D01*
X128714024Y-56478471D01*
X128765136Y-56405478D01*
X128861264Y-56199331D01*
X128861269Y-56199317D01*
X128920139Y-55979610D01*
X128920141Y-55979599D01*
X128939966Y-55753002D01*
X128939966Y-55752997D01*
X128920141Y-55526400D01*
X128920139Y-55526389D01*
X128861269Y-55306682D01*
X128861264Y-55306668D01*
X128765136Y-55100521D01*
X128765132Y-55100513D01*
X128714025Y-55027526D01*
X128035000Y-55706551D01*
X128035000Y-55700339D01*
X128007741Y-55598606D01*
X127955080Y-55507394D01*
X127880606Y-55432920D01*
X127789394Y-55380259D01*
X127687661Y-55353000D01*
X127681448Y-55353000D01*
X128360472Y-54673974D01*
X128287478Y-54622863D01*
X128081331Y-54526735D01*
X128081317Y-54526730D01*
X127861610Y-54467860D01*
X127861599Y-54467858D01*
X127635002Y-54448034D01*
X127634998Y-54448034D01*
X127408400Y-54467858D01*
X127408389Y-54467860D01*
X127188682Y-54526730D01*
X127188673Y-54526734D01*
X126982516Y-54622866D01*
X126982512Y-54622868D01*
X126909526Y-54673973D01*
X126909526Y-54673974D01*
X127588553Y-55353000D01*
X127582339Y-55353000D01*
X127480606Y-55380259D01*
X127389394Y-55432920D01*
X127314920Y-55507394D01*
X127262259Y-55598606D01*
X127235000Y-55700339D01*
X127235000Y-55706552D01*
X126555974Y-55027526D01*
X126555973Y-55027526D01*
X126504868Y-55100512D01*
X126504867Y-55100514D01*
X126497656Y-55115979D01*
X126451482Y-55168417D01*
X126384288Y-55187567D01*
X126317407Y-55167350D01*
X126272893Y-55115976D01*
X126265568Y-55100266D01*
X126135047Y-54913861D01*
X126135045Y-54913858D01*
X125974141Y-54752954D01*
X125787734Y-54622432D01*
X125787732Y-54622431D01*
X125581497Y-54526261D01*
X125581488Y-54526258D01*
X125361697Y-54467366D01*
X125361693Y-54467365D01*
X125361692Y-54467365D01*
X125361691Y-54467364D01*
X125361686Y-54467364D01*
X125135002Y-54447532D01*
X125134998Y-54447532D01*
X124908313Y-54467364D01*
X124908302Y-54467366D01*
X124683274Y-54527662D01*
X124682725Y-54525614D01*
X124622129Y-54529439D01*
X124561088Y-54495442D01*
X124528117Y-54433841D01*
X124525500Y-54408498D01*
X124525500Y-54010452D01*
X124545185Y-53943413D01*
X124561819Y-53922771D01*
X131622772Y-46861819D01*
X131684095Y-46828334D01*
X131710453Y-46825500D01*
X138763607Y-46825500D01*
X138824029Y-46813481D01*
X138884452Y-46801463D01*
X138884455Y-46801461D01*
X138884458Y-46801461D01*
X138917787Y-46787654D01*
X138917786Y-46787654D01*
X138917792Y-46787652D01*
X138998286Y-46754312D01*
X139049509Y-46720084D01*
X139100733Y-46685858D01*
X139187858Y-46598733D01*
X139187859Y-46598731D01*
X139194925Y-46591665D01*
X139194928Y-46591661D01*
X141291353Y-44495235D01*
X141352674Y-44461752D01*
X141411125Y-44463143D01*
X141445780Y-44472428D01*
X141511592Y-44490063D01*
X141688034Y-44505500D01*
X141746999Y-44510659D01*
X141747000Y-44510659D01*
X141747001Y-44510659D01*
X141805966Y-44505500D01*
X141982408Y-44490063D01*
X142210663Y-44428903D01*
X142424830Y-44329035D01*
X142618401Y-44193495D01*
X142785495Y-44026401D01*
X142915425Y-43840842D01*
X142970002Y-43797217D01*
X143039500Y-43790023D01*
X143101855Y-43821546D01*
X143118575Y-43840842D01*
X143248500Y-44026395D01*
X143248505Y-44026401D01*
X143415599Y-44193495D01*
X143608624Y-44328653D01*
X143652248Y-44383228D01*
X143661500Y-44430226D01*
X143661500Y-62175833D01*
X143642494Y-62241805D01*
X143574211Y-62350477D01*
X143574209Y-62350481D01*
X143514633Y-62520737D01*
X143514630Y-62520750D01*
X143494435Y-62699996D01*
X143494435Y-62700003D01*
X143514630Y-62879249D01*
X143514631Y-62879254D01*
X143574211Y-63049523D01*
X143652169Y-63173591D01*
X143670184Y-63202262D01*
X143797738Y-63329816D01*
X143950478Y-63425789D01*
X144120745Y-63485368D01*
X144120750Y-63485369D01*
X144299996Y-63505565D01*
X144300000Y-63505565D01*
X144300004Y-63505565D01*
X144479249Y-63485369D01*
X144479252Y-63485368D01*
X144479255Y-63485368D01*
X144649522Y-63425789D01*
X144802262Y-63329816D01*
X144929816Y-63202262D01*
X145025789Y-63049522D01*
X145085368Y-62879255D01*
X145085369Y-62879249D01*
X145105565Y-62700003D01*
X145105565Y-62699996D01*
X145085369Y-62520750D01*
X145085368Y-62520745D01*
X145037142Y-62382923D01*
X145025789Y-62350478D01*
X144931505Y-62200427D01*
X144912500Y-62134456D01*
X144912500Y-44430226D01*
X144932185Y-44363187D01*
X144965374Y-44328654D01*
X145158401Y-44193495D01*
X145280329Y-44071566D01*
X145341648Y-44038084D01*
X145411340Y-44043068D01*
X145467274Y-44084939D01*
X145484189Y-44115917D01*
X145533202Y-44247328D01*
X145533206Y-44247335D01*
X145619452Y-44362544D01*
X145619455Y-44362547D01*
X145734664Y-44448793D01*
X145734671Y-44448797D01*
X145869517Y-44499091D01*
X145869516Y-44499091D01*
X145876444Y-44499835D01*
X145929127Y-44505500D01*
X147724872Y-44505499D01*
X147784483Y-44499091D01*
X147919331Y-44448796D01*
X148034546Y-44362546D01*
X148120796Y-44247331D01*
X148171091Y-44112483D01*
X148177500Y-44052873D01*
X148177499Y-42257128D01*
X148171091Y-42197517D01*
X148169810Y-42194083D01*
X148120797Y-42062671D01*
X148120793Y-42062664D01*
X148034547Y-41947455D01*
X148034544Y-41947452D01*
X147919335Y-41861206D01*
X147919328Y-41861202D01*
X147784482Y-41810908D01*
X147784483Y-41810908D01*
X147724883Y-41804501D01*
X147724881Y-41804500D01*
X147724873Y-41804500D01*
X147724864Y-41804500D01*
X145929129Y-41804500D01*
X145929123Y-41804501D01*
X145869516Y-41810908D01*
X145734671Y-41861202D01*
X145734664Y-41861206D01*
X145619455Y-41947452D01*
X145619452Y-41947455D01*
X145533206Y-42062664D01*
X145533203Y-42062669D01*
X145484189Y-42194083D01*
X145442317Y-42250016D01*
X145376853Y-42274433D01*
X145308580Y-42259581D01*
X145280326Y-42238430D01*
X145158402Y-42116506D01*
X145158395Y-42116501D01*
X144964834Y-41980967D01*
X144964830Y-41980965D01*
X144946574Y-41972452D01*
X144750663Y-41881097D01*
X144750659Y-41881096D01*
X144750655Y-41881094D01*
X144522413Y-41819938D01*
X144522403Y-41819936D01*
X144287001Y-41799341D01*
X144286999Y-41799341D01*
X144051596Y-41819936D01*
X144051586Y-41819938D01*
X143823344Y-41881094D01*
X143823335Y-41881098D01*
X143609171Y-41980964D01*
X143609169Y-41980965D01*
X143415597Y-42116505D01*
X143248505Y-42283597D01*
X143118575Y-42469158D01*
X143063998Y-42512783D01*
X142994500Y-42519977D01*
X142932145Y-42488454D01*
X142915425Y-42469158D01*
X142785494Y-42283597D01*
X142618402Y-42116506D01*
X142618395Y-42116501D01*
X142424834Y-41980967D01*
X142424830Y-41980965D01*
X142406574Y-41972452D01*
X142210663Y-41881097D01*
X142210659Y-41881096D01*
X142210655Y-41881094D01*
X141982413Y-41819938D01*
X141982403Y-41819936D01*
X141747001Y-41799341D01*
X141746999Y-41799341D01*
X141511596Y-41819936D01*
X141511586Y-41819938D01*
X141283344Y-41881094D01*
X141283335Y-41881098D01*
X141069171Y-41980964D01*
X141069169Y-41980965D01*
X140875597Y-42116505D01*
X140708505Y-42283597D01*
X140578575Y-42469158D01*
X140523998Y-42512783D01*
X140454500Y-42519977D01*
X140392145Y-42488454D01*
X140375425Y-42469158D01*
X140245494Y-42283597D01*
X140078402Y-42116506D01*
X140078395Y-42116501D01*
X139884834Y-41980967D01*
X139884830Y-41980965D01*
X139866574Y-41972452D01*
X139670663Y-41881097D01*
X139670659Y-41881096D01*
X139670655Y-41881094D01*
X139442413Y-41819938D01*
X139442403Y-41819936D01*
X139207001Y-41799341D01*
X139206999Y-41799341D01*
X138971596Y-41819936D01*
X138971586Y-41819938D01*
X138743344Y-41881094D01*
X138743335Y-41881098D01*
X138529171Y-41980964D01*
X138529169Y-41980965D01*
X138335597Y-42116505D01*
X138168505Y-42283597D01*
X138038575Y-42469158D01*
X137983998Y-42512783D01*
X137914500Y-42519977D01*
X137852145Y-42488454D01*
X137835425Y-42469158D01*
X137705494Y-42283597D01*
X137538402Y-42116506D01*
X137538395Y-42116501D01*
X137344834Y-41980967D01*
X137344830Y-41980965D01*
X137326574Y-41972452D01*
X137130663Y-41881097D01*
X137130659Y-41881096D01*
X137130655Y-41881094D01*
X136902413Y-41819938D01*
X136902403Y-41819936D01*
X136667001Y-41799341D01*
X136666999Y-41799341D01*
X136431596Y-41819936D01*
X136431586Y-41819938D01*
X136203344Y-41881094D01*
X136203335Y-41881098D01*
X135989171Y-41980964D01*
X135989169Y-41980965D01*
X135795597Y-42116505D01*
X135628505Y-42283597D01*
X135498575Y-42469158D01*
X135443998Y-42512783D01*
X135374500Y-42519977D01*
X135312145Y-42488454D01*
X135295425Y-42469158D01*
X135165494Y-42283597D01*
X134998402Y-42116506D01*
X134998395Y-42116501D01*
X134804834Y-41980967D01*
X134804830Y-41980965D01*
X134786574Y-41972452D01*
X134590663Y-41881097D01*
X134590659Y-41881096D01*
X134590655Y-41881094D01*
X134362413Y-41819938D01*
X134362403Y-41819936D01*
X134127001Y-41799341D01*
X134126999Y-41799341D01*
X133891596Y-41819936D01*
X133891586Y-41819938D01*
X133663344Y-41881094D01*
X133663335Y-41881098D01*
X133449171Y-41980964D01*
X133449169Y-41980965D01*
X133255597Y-42116505D01*
X133088505Y-42283597D01*
X132958575Y-42469158D01*
X132903998Y-42512783D01*
X132834500Y-42519977D01*
X132772145Y-42488454D01*
X132755425Y-42469158D01*
X132625494Y-42283597D01*
X132458402Y-42116506D01*
X132458395Y-42116501D01*
X132264834Y-41980967D01*
X132264830Y-41980965D01*
X132246574Y-41972452D01*
X132050663Y-41881097D01*
X132050659Y-41881096D01*
X132050655Y-41881094D01*
X131822413Y-41819938D01*
X131822403Y-41819936D01*
X131587001Y-41799341D01*
X131586999Y-41799341D01*
X131351596Y-41819936D01*
X131351586Y-41819938D01*
X131123344Y-41881094D01*
X131123335Y-41881098D01*
X130909171Y-41980964D01*
X130909169Y-41980965D01*
X130715597Y-42116505D01*
X130548505Y-42283597D01*
X130418575Y-42469158D01*
X130363998Y-42512783D01*
X130294500Y-42519977D01*
X130232145Y-42488454D01*
X130215425Y-42469158D01*
X130085494Y-42283597D01*
X129918402Y-42116506D01*
X129918395Y-42116501D01*
X129724834Y-41980967D01*
X129724830Y-41980965D01*
X129706574Y-41972452D01*
X129510663Y-41881097D01*
X129510659Y-41881096D01*
X129510655Y-41881094D01*
X129282413Y-41819938D01*
X129282403Y-41819936D01*
X129047001Y-41799341D01*
X129046999Y-41799341D01*
X128811596Y-41819936D01*
X128811586Y-41819938D01*
X128583344Y-41881094D01*
X128583335Y-41881098D01*
X128369171Y-41980964D01*
X128369169Y-41980965D01*
X128175597Y-42116505D01*
X128008505Y-42283597D01*
X127872965Y-42477169D01*
X127872964Y-42477171D01*
X127773098Y-42691335D01*
X127773094Y-42691344D01*
X127711938Y-42919586D01*
X127711936Y-42919596D01*
X127691341Y-43154999D01*
X127691341Y-43155000D01*
X127711936Y-43390403D01*
X127711938Y-43390413D01*
X127773094Y-43618655D01*
X127773096Y-43618659D01*
X127773097Y-43618663D01*
X127801699Y-43680000D01*
X127872965Y-43832830D01*
X127872967Y-43832834D01*
X127896080Y-43865842D01*
X128008505Y-44026401D01*
X128175599Y-44193495D01*
X128272384Y-44261265D01*
X128369165Y-44329032D01*
X128369167Y-44329033D01*
X128369170Y-44329035D01*
X128583337Y-44428903D01*
X128583343Y-44428904D01*
X128583344Y-44428905D01*
X128638285Y-44443626D01*
X128811592Y-44490063D01*
X128988034Y-44505500D01*
X129046999Y-44510659D01*
X129047000Y-44510659D01*
X129047001Y-44510659D01*
X129105966Y-44505500D01*
X129282408Y-44490063D01*
X129510663Y-44428903D01*
X129724830Y-44329035D01*
X129918401Y-44193495D01*
X130085495Y-44026401D01*
X130215425Y-43840842D01*
X130270002Y-43797217D01*
X130339500Y-43790023D01*
X130401855Y-43821546D01*
X130418575Y-43840842D01*
X130548500Y-44026395D01*
X130548505Y-44026401D01*
X130715599Y-44193495D01*
X130812384Y-44261265D01*
X130909165Y-44329032D01*
X130909167Y-44329033D01*
X130909170Y-44329035D01*
X131123337Y-44428903D01*
X131123343Y-44428904D01*
X131123344Y-44428905D01*
X131178285Y-44443626D01*
X131351592Y-44490063D01*
X131528034Y-44505500D01*
X131586999Y-44510659D01*
X131587000Y-44510659D01*
X131587001Y-44510659D01*
X131645966Y-44505500D01*
X131822408Y-44490063D01*
X132050663Y-44428903D01*
X132264830Y-44329035D01*
X132458401Y-44193495D01*
X132625495Y-44026401D01*
X132755425Y-43840842D01*
X132810002Y-43797217D01*
X132879500Y-43790023D01*
X132941855Y-43821546D01*
X132958575Y-43840842D01*
X133088500Y-44026395D01*
X133088505Y-44026401D01*
X133255599Y-44193495D01*
X133352384Y-44261265D01*
X133449165Y-44329032D01*
X133449167Y-44329033D01*
X133449170Y-44329035D01*
X133663337Y-44428903D01*
X133663343Y-44428904D01*
X133663344Y-44428905D01*
X133718285Y-44443626D01*
X133891592Y-44490063D01*
X134068034Y-44505500D01*
X134126999Y-44510659D01*
X134127000Y-44510659D01*
X134127001Y-44510659D01*
X134185966Y-44505500D01*
X134362408Y-44490063D01*
X134590663Y-44428903D01*
X134804830Y-44329035D01*
X134998401Y-44193495D01*
X135165495Y-44026401D01*
X135295425Y-43840842D01*
X135350002Y-43797217D01*
X135419500Y-43790023D01*
X135481855Y-43821546D01*
X135498575Y-43840842D01*
X135628500Y-44026395D01*
X135628505Y-44026401D01*
X135795599Y-44193495D01*
X135892384Y-44261265D01*
X135989165Y-44329032D01*
X135989167Y-44329033D01*
X135989170Y-44329035D01*
X136203337Y-44428903D01*
X136203343Y-44428904D01*
X136203344Y-44428905D01*
X136258285Y-44443626D01*
X136431592Y-44490063D01*
X136608034Y-44505500D01*
X136666999Y-44510659D01*
X136667000Y-44510659D01*
X136667001Y-44510659D01*
X136725966Y-44505500D01*
X136902408Y-44490063D01*
X137130663Y-44428903D01*
X137344830Y-44329035D01*
X137538401Y-44193495D01*
X137705495Y-44026401D01*
X137835425Y-43840842D01*
X137890002Y-43797217D01*
X137959500Y-43790023D01*
X138021855Y-43821546D01*
X138038575Y-43840842D01*
X138168500Y-44026395D01*
X138168505Y-44026401D01*
X138335599Y-44193495D01*
X138432384Y-44261265D01*
X138529165Y-44329032D01*
X138529167Y-44329033D01*
X138529170Y-44329035D01*
X138743337Y-44428903D01*
X138743343Y-44428904D01*
X138743344Y-44428905D01*
X138798285Y-44443626D01*
X138971592Y-44490063D01*
X139148034Y-44505500D01*
X139206999Y-44510659D01*
X139207388Y-44510659D01*
X139207553Y-44510707D01*
X139212394Y-44511131D01*
X139212308Y-44512103D01*
X139274427Y-44530344D01*
X139320182Y-44583148D01*
X139330126Y-44652306D01*
X139301101Y-44715862D01*
X139295069Y-44722340D01*
X138479229Y-45538181D01*
X138417906Y-45571666D01*
X138391548Y-45574500D01*
X131338389Y-45574500D01*
X131217553Y-45598535D01*
X131217541Y-45598539D01*
X131185262Y-45611909D01*
X131170397Y-45618067D01*
X131103719Y-45645685D01*
X131103717Y-45645686D01*
X131001266Y-45714141D01*
X131001263Y-45714144D01*
X123501269Y-53214140D01*
X123414144Y-53301264D01*
X123414138Y-53301272D01*
X123345692Y-53403705D01*
X123345684Y-53403719D01*
X123315171Y-53477388D01*
X123312347Y-53484207D01*
X123310076Y-53489691D01*
X123298537Y-53517545D01*
X123298535Y-53517553D01*
X123274500Y-53638389D01*
X123274500Y-57832782D01*
X123254815Y-57899821D01*
X123202011Y-57945576D01*
X123132853Y-57955520D01*
X123118407Y-57952557D01*
X122908697Y-57896366D01*
X122908693Y-57896365D01*
X122908692Y-57896365D01*
X122908691Y-57896364D01*
X122908686Y-57896364D01*
X122682002Y-57876532D01*
X122681998Y-57876532D01*
X122455313Y-57896364D01*
X122455302Y-57896366D01*
X122235511Y-57955258D01*
X122235502Y-57955261D01*
X122029267Y-58051431D01*
X122029265Y-58051432D01*
X121842858Y-58181954D01*
X121681954Y-58342858D01*
X121551432Y-58529265D01*
X121551431Y-58529267D01*
X121524382Y-58587275D01*
X121478209Y-58639714D01*
X121411016Y-58658866D01*
X121344135Y-58638650D01*
X121299618Y-58587275D01*
X121272686Y-58529520D01*
X121272568Y-58529266D01*
X121142047Y-58342861D01*
X121142045Y-58342858D01*
X120981141Y-58181954D01*
X120794734Y-58051432D01*
X120794732Y-58051431D01*
X120588497Y-57955261D01*
X120588488Y-57955258D01*
X120368697Y-57896366D01*
X120368693Y-57896365D01*
X120368692Y-57896365D01*
X120368691Y-57896364D01*
X120368686Y-57896364D01*
X120142002Y-57876532D01*
X120141998Y-57876532D01*
X119915313Y-57896364D01*
X119915302Y-57896366D01*
X119695511Y-57955258D01*
X119695502Y-57955261D01*
X119489267Y-58051431D01*
X119489265Y-58051432D01*
X119302858Y-58181954D01*
X119141954Y-58342858D01*
X119011432Y-58529265D01*
X119011431Y-58529267D01*
X118984382Y-58587275D01*
X118938209Y-58639714D01*
X118871016Y-58658866D01*
X118804135Y-58638650D01*
X118759618Y-58587275D01*
X118732686Y-58529520D01*
X118732568Y-58529266D01*
X118602047Y-58342861D01*
X118602045Y-58342858D01*
X118441141Y-58181954D01*
X118254734Y-58051432D01*
X118254732Y-58051431D01*
X118048497Y-57955261D01*
X118048488Y-57955258D01*
X117828697Y-57896366D01*
X117828693Y-57896365D01*
X117828692Y-57896365D01*
X117828691Y-57896364D01*
X117828686Y-57896364D01*
X117602002Y-57876532D01*
X117601998Y-57876532D01*
X117375313Y-57896364D01*
X117375302Y-57896366D01*
X117155511Y-57955258D01*
X117155502Y-57955261D01*
X116949267Y-58051431D01*
X116949265Y-58051432D01*
X116762858Y-58181954D01*
X116601954Y-58342858D01*
X116471432Y-58529265D01*
X116471431Y-58529267D01*
X116444382Y-58587275D01*
X116398209Y-58639714D01*
X116331016Y-58658866D01*
X116264135Y-58638650D01*
X116219618Y-58587275D01*
X116192686Y-58529520D01*
X116192568Y-58529266D01*
X116062047Y-58342861D01*
X116062045Y-58342858D01*
X115901141Y-58181954D01*
X115714734Y-58051432D01*
X115714732Y-58051431D01*
X115508497Y-57955261D01*
X115508488Y-57955258D01*
X115288697Y-57896366D01*
X115288693Y-57896365D01*
X115288692Y-57896365D01*
X115288691Y-57896364D01*
X115288686Y-57896364D01*
X115062002Y-57876532D01*
X115061998Y-57876532D01*
X114835313Y-57896364D01*
X114835302Y-57896366D01*
X114615511Y-57955258D01*
X114615502Y-57955261D01*
X114409267Y-58051431D01*
X114409265Y-58051432D01*
X114222858Y-58181954D01*
X114061954Y-58342858D01*
X113931432Y-58529265D01*
X113931431Y-58529267D01*
X113904382Y-58587275D01*
X113858209Y-58639714D01*
X113791016Y-58658866D01*
X113724135Y-58638650D01*
X113679618Y-58587275D01*
X113652686Y-58529520D01*
X113652568Y-58529266D01*
X113522047Y-58342861D01*
X113522045Y-58342858D01*
X113361141Y-58181954D01*
X113174734Y-58051432D01*
X113174732Y-58051431D01*
X112968497Y-57955261D01*
X112968488Y-57955258D01*
X112748697Y-57896366D01*
X112748693Y-57896365D01*
X112748692Y-57896365D01*
X112748691Y-57896364D01*
X112748686Y-57896364D01*
X112522002Y-57876532D01*
X112521998Y-57876532D01*
X112295313Y-57896364D01*
X112295302Y-57896366D01*
X112075511Y-57955258D01*
X112075502Y-57955261D01*
X111869267Y-58051431D01*
X111869265Y-58051432D01*
X111682858Y-58181954D01*
X111521954Y-58342858D01*
X111391432Y-58529265D01*
X111391431Y-58529267D01*
X111364382Y-58587275D01*
X111318209Y-58639714D01*
X111251016Y-58658866D01*
X111184135Y-58638650D01*
X111139618Y-58587275D01*
X111112686Y-58529520D01*
X111112568Y-58529266D01*
X110982047Y-58342861D01*
X110982045Y-58342858D01*
X110821141Y-58181954D01*
X110634734Y-58051432D01*
X110634732Y-58051431D01*
X110428497Y-57955261D01*
X110428488Y-57955258D01*
X110208697Y-57896366D01*
X110208693Y-57896365D01*
X110208692Y-57896365D01*
X110208691Y-57896364D01*
X110208686Y-57896364D01*
X109982002Y-57876532D01*
X109981998Y-57876532D01*
X109755313Y-57896364D01*
X109755302Y-57896366D01*
X109535511Y-57955258D01*
X109535502Y-57955261D01*
X109329267Y-58051431D01*
X109329265Y-58051432D01*
X109142858Y-58181954D01*
X108981954Y-58342858D01*
X108851432Y-58529265D01*
X108851431Y-58529267D01*
X108824382Y-58587275D01*
X108778209Y-58639714D01*
X108711016Y-58658866D01*
X108644135Y-58638650D01*
X108599618Y-58587275D01*
X108572686Y-58529520D01*
X108572568Y-58529266D01*
X108442047Y-58342861D01*
X108442045Y-58342858D01*
X108281141Y-58181954D01*
X108094734Y-58051432D01*
X108094732Y-58051431D01*
X107888497Y-57955261D01*
X107888488Y-57955258D01*
X107668697Y-57896366D01*
X107668693Y-57896365D01*
X107668692Y-57896365D01*
X107668691Y-57896364D01*
X107668686Y-57896364D01*
X107442002Y-57876532D01*
X107441998Y-57876532D01*
X107215313Y-57896364D01*
X107215302Y-57896366D01*
X106995511Y-57955258D01*
X106995502Y-57955261D01*
X106789267Y-58051431D01*
X106789265Y-58051432D01*
X106602858Y-58181954D01*
X106441954Y-58342858D01*
X106311432Y-58529265D01*
X106311431Y-58529267D01*
X106284382Y-58587275D01*
X106238209Y-58639714D01*
X106171016Y-58658866D01*
X106104135Y-58638650D01*
X106059618Y-58587275D01*
X106032686Y-58529520D01*
X106032568Y-58529266D01*
X105902047Y-58342861D01*
X105902045Y-58342858D01*
X105741141Y-58181954D01*
X105554734Y-58051432D01*
X105554732Y-58051431D01*
X105348497Y-57955261D01*
X105348488Y-57955258D01*
X105128697Y-57896366D01*
X105128693Y-57896365D01*
X105128692Y-57896365D01*
X105128691Y-57896364D01*
X105128686Y-57896364D01*
X104902002Y-57876532D01*
X104901998Y-57876532D01*
X104675313Y-57896364D01*
X104675302Y-57896366D01*
X104455511Y-57955258D01*
X104455502Y-57955261D01*
X104249267Y-58051431D01*
X104249265Y-58051432D01*
X104062858Y-58181954D01*
X103901954Y-58342858D01*
X103771432Y-58529265D01*
X103771431Y-58529267D01*
X103675261Y-58735502D01*
X103675258Y-58735511D01*
X103616366Y-58955302D01*
X103616364Y-58955313D01*
X103596532Y-59181998D01*
X103596532Y-59182001D01*
X103616364Y-59408686D01*
X103616366Y-59408697D01*
X103675258Y-59628488D01*
X103675261Y-59628497D01*
X103771431Y-59834732D01*
X103771432Y-59834734D01*
X103901954Y-60021141D01*
X104062858Y-60182045D01*
X104062861Y-60182047D01*
X104249266Y-60312568D01*
X104455504Y-60408739D01*
X104455509Y-60408740D01*
X104455511Y-60408741D01*
X104471798Y-60413105D01*
X104675308Y-60467635D01*
X104837230Y-60481801D01*
X104901998Y-60487468D01*
X104902000Y-60487468D01*
X104902002Y-60487468D01*
X104958673Y-60482509D01*
X105128692Y-60467635D01*
X105348496Y-60408739D01*
X105554734Y-60312568D01*
X105741139Y-60182047D01*
X105902047Y-60021139D01*
X106032568Y-59834734D01*
X106059618Y-59776724D01*
X106105790Y-59724285D01*
X106172983Y-59705133D01*
X106239865Y-59725348D01*
X106284381Y-59776724D01*
X106298517Y-59807038D01*
X106311429Y-59834728D01*
X106311432Y-59834734D01*
X106441954Y-60021141D01*
X106602858Y-60182045D01*
X106602861Y-60182047D01*
X106789266Y-60312568D01*
X106995504Y-60408739D01*
X106995509Y-60408740D01*
X106995511Y-60408741D01*
X107011798Y-60413105D01*
X107215308Y-60467635D01*
X107377230Y-60481801D01*
X107441998Y-60487468D01*
X107442000Y-60487468D01*
X107442002Y-60487468D01*
X107498673Y-60482509D01*
X107668692Y-60467635D01*
X107888496Y-60408739D01*
X108094734Y-60312568D01*
X108281139Y-60182047D01*
X108442047Y-60021139D01*
X108572568Y-59834734D01*
X108599618Y-59776724D01*
X108645790Y-59724285D01*
X108712983Y-59705133D01*
X108779865Y-59725348D01*
X108824381Y-59776724D01*
X108838517Y-59807038D01*
X108851429Y-59834728D01*
X108851432Y-59834734D01*
X108981954Y-60021141D01*
X109142858Y-60182045D01*
X109142861Y-60182047D01*
X109329266Y-60312568D01*
X109535504Y-60408739D01*
X109535509Y-60408740D01*
X109535511Y-60408741D01*
X109551798Y-60413105D01*
X109755308Y-60467635D01*
X109917230Y-60481801D01*
X109981998Y-60487468D01*
X109982000Y-60487468D01*
X109982002Y-60487468D01*
X110038673Y-60482509D01*
X110208692Y-60467635D01*
X110428496Y-60408739D01*
X110634734Y-60312568D01*
X110821139Y-60182047D01*
X110982047Y-60021139D01*
X111112568Y-59834734D01*
X111139618Y-59776724D01*
X111185790Y-59724285D01*
X111252983Y-59705133D01*
X111319865Y-59725348D01*
X111364381Y-59776724D01*
X111378517Y-59807038D01*
X111391429Y-59834728D01*
X111391432Y-59834734D01*
X111521954Y-60021141D01*
X111682858Y-60182045D01*
X111682861Y-60182047D01*
X111869266Y-60312568D01*
X112075504Y-60408739D01*
X112075509Y-60408740D01*
X112075511Y-60408741D01*
X112091798Y-60413105D01*
X112295308Y-60467635D01*
X112457230Y-60481801D01*
X112521998Y-60487468D01*
X112522000Y-60487468D01*
X112522002Y-60487468D01*
X112578673Y-60482509D01*
X112748692Y-60467635D01*
X112968496Y-60408739D01*
X113174734Y-60312568D01*
X113361139Y-60182047D01*
X113522047Y-60021139D01*
X113652568Y-59834734D01*
X113679618Y-59776724D01*
X113725790Y-59724285D01*
X113792983Y-59705133D01*
X113859865Y-59725348D01*
X113904381Y-59776724D01*
X113918517Y-59807038D01*
X113931429Y-59834728D01*
X113931432Y-59834734D01*
X114061954Y-60021141D01*
X114222858Y-60182045D01*
X114222861Y-60182047D01*
X114409266Y-60312568D01*
X114615504Y-60408739D01*
X114615509Y-60408740D01*
X114615511Y-60408741D01*
X114631798Y-60413105D01*
X114835308Y-60467635D01*
X114997230Y-60481801D01*
X115061998Y-60487468D01*
X115062000Y-60487468D01*
X115062002Y-60487468D01*
X115118673Y-60482509D01*
X115288692Y-60467635D01*
X115508496Y-60408739D01*
X115714734Y-60312568D01*
X115901139Y-60182047D01*
X116062047Y-60021139D01*
X116192568Y-59834734D01*
X116219618Y-59776724D01*
X116265790Y-59724285D01*
X116332983Y-59705133D01*
X116399865Y-59725348D01*
X116444381Y-59776724D01*
X116458517Y-59807038D01*
X116471429Y-59834728D01*
X116471432Y-59834734D01*
X116601954Y-60021141D01*
X116762858Y-60182045D01*
X116762861Y-60182047D01*
X116949266Y-60312568D01*
X117155504Y-60408739D01*
X117155509Y-60408740D01*
X117155511Y-60408741D01*
X117171798Y-60413105D01*
X117375308Y-60467635D01*
X117537230Y-60481801D01*
X117601998Y-60487468D01*
X117602000Y-60487468D01*
X117602002Y-60487468D01*
X117658673Y-60482509D01*
X117828692Y-60467635D01*
X118048496Y-60408739D01*
X118254734Y-60312568D01*
X118441139Y-60182047D01*
X118602047Y-60021139D01*
X118732568Y-59834734D01*
X118759618Y-59776724D01*
X118805790Y-59724285D01*
X118872983Y-59705133D01*
X118939865Y-59725348D01*
X118984381Y-59776724D01*
X118998517Y-59807038D01*
X119011429Y-59834728D01*
X119011432Y-59834734D01*
X119141954Y-60021141D01*
X119302858Y-60182045D01*
X119302861Y-60182047D01*
X119489266Y-60312568D01*
X119695504Y-60408739D01*
X119695509Y-60408740D01*
X119695511Y-60408741D01*
X119711798Y-60413105D01*
X119915308Y-60467635D01*
X120077230Y-60481801D01*
X120141998Y-60487468D01*
X120142000Y-60487468D01*
X120142002Y-60487468D01*
X120198673Y-60482509D01*
X120368692Y-60467635D01*
X120588496Y-60408739D01*
X120794734Y-60312568D01*
X120981139Y-60182047D01*
X121142047Y-60021139D01*
X121272568Y-59834734D01*
X121299618Y-59776724D01*
X121345790Y-59724285D01*
X121412983Y-59705133D01*
X121479865Y-59725348D01*
X121524381Y-59776724D01*
X121538517Y-59807038D01*
X121551429Y-59834728D01*
X121551432Y-59834734D01*
X121681954Y-60021141D01*
X121842858Y-60182045D01*
X121842861Y-60182047D01*
X122029266Y-60312568D01*
X122235504Y-60408739D01*
X122235509Y-60408740D01*
X122235511Y-60408741D01*
X122251798Y-60413105D01*
X122455308Y-60467635D01*
X122617230Y-60481801D01*
X122681998Y-60487468D01*
X122682000Y-60487468D01*
X122682002Y-60487468D01*
X122738673Y-60482509D01*
X122908692Y-60467635D01*
X123118408Y-60411442D01*
X123188256Y-60413105D01*
X123246119Y-60452267D01*
X123273623Y-60516496D01*
X123274500Y-60531217D01*
X123274500Y-61361611D01*
X123298535Y-61482444D01*
X123298540Y-61482461D01*
X123345685Y-61596281D01*
X123345687Y-61596285D01*
X123372854Y-61636941D01*
X123372855Y-61636943D01*
X123414140Y-61698731D01*
X123414141Y-61698732D01*
X123414142Y-61698733D01*
X123501267Y-61785858D01*
X123501268Y-61785858D01*
X123508335Y-61792925D01*
X123508334Y-61792925D01*
X123508337Y-61792927D01*
X126614141Y-64898732D01*
X126614142Y-64898733D01*
X126701267Y-64985858D01*
X126775222Y-65035273D01*
X126803714Y-65054311D01*
X126917548Y-65101463D01*
X127038388Y-65125499D01*
X127038392Y-65125500D01*
X127038393Y-65125500D01*
X127038394Y-65125500D01*
X132255145Y-65125500D01*
X132321117Y-65144506D01*
X132450478Y-65225789D01*
X132612809Y-65282591D01*
X132669585Y-65323313D01*
X132695333Y-65388266D01*
X132681877Y-65456827D01*
X132633490Y-65507230D01*
X132603949Y-65519408D01*
X132395508Y-65575259D01*
X132395502Y-65575261D01*
X132189267Y-65671431D01*
X132189265Y-65671432D01*
X132002858Y-65801954D01*
X131841954Y-65962858D01*
X131711432Y-66149265D01*
X131711431Y-66149267D01*
X131684382Y-66207275D01*
X131638209Y-66259714D01*
X131571016Y-66278866D01*
X131504135Y-66258650D01*
X131459618Y-66207275D01*
X131432686Y-66149520D01*
X131432568Y-66149266D01*
X131302047Y-65962861D01*
X131302045Y-65962858D01*
X131141141Y-65801954D01*
X130954734Y-65671432D01*
X130954732Y-65671431D01*
X130748497Y-65575261D01*
X130748488Y-65575258D01*
X130528697Y-65516366D01*
X130528693Y-65516365D01*
X130528692Y-65516365D01*
X130528691Y-65516364D01*
X130528686Y-65516364D01*
X130302002Y-65496532D01*
X130301998Y-65496532D01*
X130075313Y-65516364D01*
X130075302Y-65516366D01*
X129855511Y-65575258D01*
X129855502Y-65575261D01*
X129649267Y-65671431D01*
X129649265Y-65671432D01*
X129462858Y-65801954D01*
X129301954Y-65962858D01*
X129171432Y-66149265D01*
X129171431Y-66149267D01*
X129144382Y-66207275D01*
X129098209Y-66259714D01*
X129031016Y-66278866D01*
X128964135Y-66258650D01*
X128919618Y-66207275D01*
X128892686Y-66149520D01*
X128892568Y-66149266D01*
X128762047Y-65962861D01*
X128762045Y-65962858D01*
X128601141Y-65801954D01*
X128414734Y-65671432D01*
X128414732Y-65671431D01*
X128208497Y-65575261D01*
X128208488Y-65575258D01*
X127988697Y-65516366D01*
X127988693Y-65516365D01*
X127988692Y-65516365D01*
X127988691Y-65516364D01*
X127988686Y-65516364D01*
X127762002Y-65496532D01*
X127761998Y-65496532D01*
X127535313Y-65516364D01*
X127535302Y-65516366D01*
X127315511Y-65575258D01*
X127315502Y-65575261D01*
X127109267Y-65671431D01*
X127109265Y-65671432D01*
X126922858Y-65801954D01*
X126761954Y-65962858D01*
X126631432Y-66149265D01*
X126631431Y-66149267D01*
X126604382Y-66207275D01*
X126558209Y-66259714D01*
X126491016Y-66278866D01*
X126424135Y-66258650D01*
X126379618Y-66207275D01*
X126352686Y-66149520D01*
X126352568Y-66149266D01*
X126222047Y-65962861D01*
X126222045Y-65962858D01*
X126061141Y-65801954D01*
X125874734Y-65671432D01*
X125874732Y-65671431D01*
X125668497Y-65575261D01*
X125668488Y-65575258D01*
X125448697Y-65516366D01*
X125448693Y-65516365D01*
X125448692Y-65516365D01*
X125448691Y-65516364D01*
X125448686Y-65516364D01*
X125222002Y-65496532D01*
X125221998Y-65496532D01*
X124995313Y-65516364D01*
X124995302Y-65516366D01*
X124775511Y-65575258D01*
X124775502Y-65575261D01*
X124569267Y-65671431D01*
X124569265Y-65671432D01*
X124382858Y-65801954D01*
X124221954Y-65962858D01*
X124091433Y-66149264D01*
X124091432Y-66149266D01*
X124091315Y-66149518D01*
X124064106Y-66207867D01*
X124017933Y-66260306D01*
X123950739Y-66279457D01*
X123883858Y-66259241D01*
X123839342Y-66207865D01*
X123812135Y-66149520D01*
X123812134Y-66149518D01*
X123681657Y-65963179D01*
X123520820Y-65802342D01*
X123334482Y-65671865D01*
X123128328Y-65575734D01*
X122932000Y-65523127D01*
X122932000Y-66486314D01*
X122927606Y-66481920D01*
X122836394Y-66429259D01*
X122734661Y-66402000D01*
X122629339Y-66402000D01*
X122527606Y-66429259D01*
X122436394Y-66481920D01*
X122432000Y-66486314D01*
X122432000Y-65523127D01*
X122235671Y-65575734D01*
X122029517Y-65671865D01*
X121843179Y-65802342D01*
X121682342Y-65963179D01*
X121551867Y-66149515D01*
X121524657Y-66207867D01*
X121478484Y-66260306D01*
X121411290Y-66279457D01*
X121344409Y-66259241D01*
X121299893Y-66207865D01*
X121291699Y-66190294D01*
X121272568Y-66149266D01*
X121142047Y-65962861D01*
X121142045Y-65962858D01*
X120981141Y-65801954D01*
X120794734Y-65671432D01*
X120794732Y-65671431D01*
X120588497Y-65575261D01*
X120588488Y-65575258D01*
X120368697Y-65516366D01*
X120368693Y-65516365D01*
X120368692Y-65516365D01*
X120368691Y-65516364D01*
X120368686Y-65516364D01*
X120142002Y-65496532D01*
X120141998Y-65496532D01*
X119915313Y-65516364D01*
X119915302Y-65516366D01*
X119695511Y-65575258D01*
X119695502Y-65575261D01*
X119489267Y-65671431D01*
X119489265Y-65671432D01*
X119302858Y-65801954D01*
X119141954Y-65962858D01*
X119011432Y-66149265D01*
X119011431Y-66149267D01*
X118984382Y-66207275D01*
X118938209Y-66259714D01*
X118871016Y-66278866D01*
X118804135Y-66258650D01*
X118759618Y-66207275D01*
X118732686Y-66149520D01*
X118732568Y-66149266D01*
X118602047Y-65962861D01*
X118602045Y-65962858D01*
X118441141Y-65801954D01*
X118254734Y-65671432D01*
X118254732Y-65671431D01*
X118048497Y-65575261D01*
X118048488Y-65575258D01*
X117828697Y-65516366D01*
X117828693Y-65516365D01*
X117828692Y-65516365D01*
X117828691Y-65516364D01*
X117828686Y-65516364D01*
X117602002Y-65496532D01*
X117601998Y-65496532D01*
X117375313Y-65516364D01*
X117375302Y-65516366D01*
X117155511Y-65575258D01*
X117155502Y-65575261D01*
X116949267Y-65671431D01*
X116949265Y-65671432D01*
X116762858Y-65801954D01*
X116601954Y-65962858D01*
X116471432Y-66149265D01*
X116471431Y-66149267D01*
X116444382Y-66207275D01*
X116398209Y-66259714D01*
X116331016Y-66278866D01*
X116264135Y-66258650D01*
X116219618Y-66207275D01*
X116192686Y-66149520D01*
X116192568Y-66149266D01*
X116062047Y-65962861D01*
X116062045Y-65962858D01*
X115901141Y-65801954D01*
X115714734Y-65671432D01*
X115714732Y-65671431D01*
X115508497Y-65575261D01*
X115508488Y-65575258D01*
X115288697Y-65516366D01*
X115288693Y-65516365D01*
X115288692Y-65516365D01*
X115288691Y-65516364D01*
X115288686Y-65516364D01*
X115062002Y-65496532D01*
X115061998Y-65496532D01*
X114835313Y-65516364D01*
X114835302Y-65516366D01*
X114615511Y-65575258D01*
X114615502Y-65575261D01*
X114409267Y-65671431D01*
X114409265Y-65671432D01*
X114222858Y-65801954D01*
X114061954Y-65962858D01*
X113931432Y-66149265D01*
X113931431Y-66149267D01*
X113904382Y-66207275D01*
X113858209Y-66259714D01*
X113791016Y-66278866D01*
X113724135Y-66258650D01*
X113679618Y-66207275D01*
X113652686Y-66149520D01*
X113652568Y-66149266D01*
X113522047Y-65962861D01*
X113522045Y-65962858D01*
X113361141Y-65801954D01*
X113174734Y-65671432D01*
X113174732Y-65671431D01*
X112968497Y-65575261D01*
X112968488Y-65575258D01*
X112748697Y-65516366D01*
X112748693Y-65516365D01*
X112748692Y-65516365D01*
X112748691Y-65516364D01*
X112748686Y-65516364D01*
X112522002Y-65496532D01*
X112521998Y-65496532D01*
X112295313Y-65516364D01*
X112295302Y-65516366D01*
X112075511Y-65575258D01*
X112075502Y-65575261D01*
X111869267Y-65671431D01*
X111869265Y-65671432D01*
X111682858Y-65801954D01*
X111521954Y-65962858D01*
X111391432Y-66149265D01*
X111391431Y-66149267D01*
X111364382Y-66207275D01*
X111318209Y-66259714D01*
X111251016Y-66278866D01*
X111184135Y-66258650D01*
X111139618Y-66207275D01*
X111112686Y-66149520D01*
X111112568Y-66149266D01*
X110982047Y-65962861D01*
X110982045Y-65962858D01*
X110821141Y-65801954D01*
X110634734Y-65671432D01*
X110634732Y-65671431D01*
X110428497Y-65575261D01*
X110428488Y-65575258D01*
X110208697Y-65516366D01*
X110208693Y-65516365D01*
X110208692Y-65516365D01*
X110208691Y-65516364D01*
X110208686Y-65516364D01*
X109982002Y-65496532D01*
X109981998Y-65496532D01*
X109755313Y-65516364D01*
X109755302Y-65516366D01*
X109535511Y-65575258D01*
X109535502Y-65575261D01*
X109329267Y-65671431D01*
X109329265Y-65671432D01*
X109142858Y-65801954D01*
X108981954Y-65962858D01*
X108851432Y-66149265D01*
X108851431Y-66149267D01*
X108824382Y-66207275D01*
X108778209Y-66259714D01*
X108711016Y-66278866D01*
X108644135Y-66258650D01*
X108599618Y-66207275D01*
X108572686Y-66149520D01*
X108572568Y-66149266D01*
X108442047Y-65962861D01*
X108442045Y-65962858D01*
X108281141Y-65801954D01*
X108094734Y-65671432D01*
X108094732Y-65671431D01*
X107888497Y-65575261D01*
X107888488Y-65575258D01*
X107668697Y-65516366D01*
X107668693Y-65516365D01*
X107668692Y-65516365D01*
X107668691Y-65516364D01*
X107668686Y-65516364D01*
X107442002Y-65496532D01*
X107441998Y-65496532D01*
X107215313Y-65516364D01*
X107215302Y-65516366D01*
X106995511Y-65575258D01*
X106995502Y-65575261D01*
X106789267Y-65671431D01*
X106789265Y-65671432D01*
X106602858Y-65801954D01*
X106441954Y-65962858D01*
X106424725Y-65987464D01*
X106370147Y-66031088D01*
X106300648Y-66038280D01*
X106238294Y-66006757D01*
X106202882Y-65946526D01*
X106199861Y-65929591D01*
X106196091Y-65894516D01*
X106145797Y-65759671D01*
X106145793Y-65759664D01*
X106059547Y-65644455D01*
X106059544Y-65644452D01*
X105944335Y-65558206D01*
X105944328Y-65558202D01*
X105809482Y-65507908D01*
X105809483Y-65507908D01*
X105749883Y-65501501D01*
X105749881Y-65501500D01*
X105749873Y-65501500D01*
X105749864Y-65501500D01*
X104054129Y-65501500D01*
X104054123Y-65501501D01*
X103994516Y-65507908D01*
X103859671Y-65558202D01*
X103859664Y-65558206D01*
X103744455Y-65644452D01*
X103744452Y-65644455D01*
X103658206Y-65759664D01*
X103658202Y-65759671D01*
X103607908Y-65894517D01*
X103601501Y-65954116D01*
X103601500Y-65954135D01*
X103601500Y-66077500D01*
X103581815Y-66144539D01*
X103529011Y-66190294D01*
X103477500Y-66201500D01*
X99740899Y-66201500D01*
X99673860Y-66181815D01*
X99653218Y-66165181D01*
X96822277Y-63334240D01*
X97319311Y-63334240D01*
X97407585Y-63388897D01*
X97597678Y-63462539D01*
X97798072Y-63500000D01*
X98001928Y-63500000D01*
X98202322Y-63462539D01*
X98392412Y-63388899D01*
X98392416Y-63388897D01*
X98480686Y-63334241D01*
X98480686Y-63334240D01*
X97900001Y-62753553D01*
X97900000Y-62753553D01*
X97319311Y-63334240D01*
X96822277Y-63334240D01*
X95888036Y-62399999D01*
X96795287Y-62399999D01*
X96795287Y-62400000D01*
X96814096Y-62602989D01*
X96814097Y-62602992D01*
X96869883Y-62799063D01*
X96869886Y-62799069D01*
X96960751Y-62981551D01*
X96962533Y-62983911D01*
X97546446Y-62400000D01*
X97506950Y-62360504D01*
X97600000Y-62360504D01*
X97600000Y-62439496D01*
X97620444Y-62515796D01*
X97659940Y-62584205D01*
X97715795Y-62640060D01*
X97784204Y-62679556D01*
X97860504Y-62700000D01*
X97939496Y-62700000D01*
X98015796Y-62679556D01*
X98084205Y-62640060D01*
X98140060Y-62584205D01*
X98179556Y-62515796D01*
X98200000Y-62439496D01*
X98200000Y-62400000D01*
X98253553Y-62400000D01*
X98837465Y-62983912D01*
X98839247Y-62981553D01*
X98839248Y-62981551D01*
X98930113Y-62799069D01*
X98930116Y-62799063D01*
X98985902Y-62602992D01*
X98985903Y-62602989D01*
X99004713Y-62400000D01*
X99004713Y-62399999D01*
X98985903Y-62197010D01*
X98985902Y-62197007D01*
X98930116Y-62000935D01*
X98930113Y-62000930D01*
X98839249Y-61818449D01*
X98839247Y-61818447D01*
X98837465Y-61816087D01*
X98253553Y-62400000D01*
X98200000Y-62400000D01*
X98200000Y-62360504D01*
X98179556Y-62284204D01*
X98140060Y-62215795D01*
X98084205Y-62159940D01*
X98015796Y-62120444D01*
X97939496Y-62100000D01*
X97860504Y-62100000D01*
X97784204Y-62120444D01*
X97715795Y-62159940D01*
X97659940Y-62215795D01*
X97620444Y-62284204D01*
X97600000Y-62360504D01*
X97506950Y-62360504D01*
X96962533Y-61816087D01*
X96960755Y-61818442D01*
X96960754Y-61818443D01*
X96869886Y-62000930D01*
X96869884Y-62000935D01*
X96814097Y-62197007D01*
X96814096Y-62197010D01*
X96795287Y-62399999D01*
X95888036Y-62399999D01*
X94156819Y-60668782D01*
X94123334Y-60607459D01*
X94120500Y-60581101D01*
X94120500Y-60399999D01*
X96794785Y-60399999D01*
X96794785Y-60400000D01*
X96813602Y-60603082D01*
X96869417Y-60799247D01*
X96869422Y-60799260D01*
X96960327Y-60981821D01*
X97083237Y-61144581D01*
X97186145Y-61238393D01*
X97233959Y-61281981D01*
X97266507Y-61302134D01*
X97266509Y-61302135D01*
X97313144Y-61354163D01*
X97324405Y-61421851D01*
X97319311Y-61465758D01*
X97900000Y-62046446D01*
X97900001Y-62046446D01*
X98480686Y-61465759D01*
X98475593Y-61421853D01*
X98487421Y-61352991D01*
X98533491Y-61302135D01*
X98566041Y-61281981D01*
X98716764Y-61144579D01*
X98839673Y-60981821D01*
X98930582Y-60799250D01*
X98986397Y-60603083D01*
X99005215Y-60400000D01*
X98986397Y-60196917D01*
X98930582Y-60000750D01*
X98839673Y-59818179D01*
X98754194Y-59704986D01*
X98716762Y-59655418D01*
X98566041Y-59518019D01*
X98566039Y-59518017D01*
X98392642Y-59410655D01*
X98392635Y-59410651D01*
X98297546Y-59373814D01*
X98202456Y-59336976D01*
X98001976Y-59299500D01*
X97798024Y-59299500D01*
X97597544Y-59336976D01*
X97597541Y-59336976D01*
X97597541Y-59336977D01*
X97407364Y-59410651D01*
X97407357Y-59410655D01*
X97233960Y-59518017D01*
X97233958Y-59518019D01*
X97083237Y-59655418D01*
X96960327Y-59818178D01*
X96869422Y-60000739D01*
X96869417Y-60000752D01*
X96813602Y-60196917D01*
X96794785Y-60399999D01*
X94120500Y-60399999D01*
X94120500Y-57809244D01*
X94140185Y-57742205D01*
X94179220Y-57703819D01*
X94246562Y-57662124D01*
X94410981Y-57512236D01*
X94545058Y-57334689D01*
X94644229Y-57135528D01*
X94705115Y-56921536D01*
X94725643Y-56700000D01*
X94725643Y-56699999D01*
X97394357Y-56699999D01*
X97394357Y-56700000D01*
X97414884Y-56921535D01*
X97414885Y-56921537D01*
X97475769Y-57135523D01*
X97475775Y-57135538D01*
X97574938Y-57334683D01*
X97574943Y-57334691D01*
X97709020Y-57512238D01*
X97873437Y-57662123D01*
X97873439Y-57662125D01*
X98062595Y-57779245D01*
X98062596Y-57779245D01*
X98062599Y-57779247D01*
X98270060Y-57859618D01*
X98488757Y-57900500D01*
X98488759Y-57900500D01*
X98711241Y-57900500D01*
X98711243Y-57900500D01*
X98929940Y-57859618D01*
X99137401Y-57779247D01*
X99326562Y-57662124D01*
X99490981Y-57512236D01*
X99625058Y-57334689D01*
X99724229Y-57135528D01*
X99785115Y-56921536D01*
X99805643Y-56700000D01*
X99785115Y-56478464D01*
X99724229Y-56264472D01*
X99691875Y-56199496D01*
X99625061Y-56065316D01*
X99625056Y-56065308D01*
X99490979Y-55887761D01*
X99326562Y-55737876D01*
X99326560Y-55737874D01*
X99137404Y-55620754D01*
X99137398Y-55620752D01*
X98929940Y-55540382D01*
X98711243Y-55499500D01*
X98488757Y-55499500D01*
X98270060Y-55540382D01*
X98191331Y-55570882D01*
X98062601Y-55620752D01*
X98062595Y-55620754D01*
X97873439Y-55737874D01*
X97873437Y-55737876D01*
X97709020Y-55887761D01*
X97574943Y-56065308D01*
X97574938Y-56065316D01*
X97475775Y-56264461D01*
X97475769Y-56264476D01*
X97414885Y-56478462D01*
X97414884Y-56478464D01*
X97394357Y-56699999D01*
X94725643Y-56699999D01*
X94705115Y-56478464D01*
X94644229Y-56264472D01*
X94611875Y-56199496D01*
X94545061Y-56065316D01*
X94545056Y-56065308D01*
X94410979Y-55887761D01*
X94246562Y-55737876D01*
X94246560Y-55737874D01*
X94057404Y-55620754D01*
X94057398Y-55620752D01*
X93849940Y-55540382D01*
X93631243Y-55499500D01*
X93408757Y-55499500D01*
X93190060Y-55540382D01*
X93111331Y-55570882D01*
X92982601Y-55620752D01*
X92982595Y-55620754D01*
X92793439Y-55737874D01*
X92793437Y-55737876D01*
X92629020Y-55887761D01*
X92506333Y-56050227D01*
X92450224Y-56091863D01*
X92407379Y-56099500D01*
X88763097Y-56099500D01*
X88696058Y-56079815D01*
X88675416Y-56063181D01*
X87945415Y-55333180D01*
X87911930Y-55271857D01*
X87916914Y-55202165D01*
X87958786Y-55146232D01*
X88024250Y-55121815D01*
X88033096Y-55121499D01*
X88831871Y-55121499D01*
X88831872Y-55121499D01*
X88891483Y-55115091D01*
X89026331Y-55064796D01*
X89141546Y-54978546D01*
X89227796Y-54863331D01*
X89256455Y-54786493D01*
X89298326Y-54730559D01*
X89363790Y-54706141D01*
X89432063Y-54720992D01*
X89463866Y-54745843D01*
X89470412Y-54752953D01*
X89472215Y-54754912D01*
X89472222Y-54754918D01*
X89655365Y-54897464D01*
X89655371Y-54897468D01*
X89655374Y-54897470D01*
X89859497Y-55007936D01*
X89916561Y-55027526D01*
X90079015Y-55083297D01*
X90079017Y-55083297D01*
X90079019Y-55083298D01*
X90307951Y-55121500D01*
X90307952Y-55121500D01*
X90540048Y-55121500D01*
X90540049Y-55121500D01*
X90768981Y-55083298D01*
X90988503Y-55007936D01*
X91192626Y-54897470D01*
X91375784Y-54754913D01*
X91532979Y-54584153D01*
X91659924Y-54389849D01*
X91753157Y-54177300D01*
X91810134Y-53952305D01*
X91810871Y-53943413D01*
X91829300Y-53721006D01*
X91829300Y-53720993D01*
X91810135Y-53489702D01*
X91810133Y-53489691D01*
X91753157Y-53264699D01*
X91659924Y-53052151D01*
X91532983Y-52857852D01*
X91532980Y-52857849D01*
X91532979Y-52857847D01*
X91375784Y-52687087D01*
X91375779Y-52687083D01*
X91375777Y-52687081D01*
X91192634Y-52544535D01*
X91192628Y-52544531D01*
X90988504Y-52434064D01*
X90988495Y-52434061D01*
X90768984Y-52358702D01*
X90578450Y-52326908D01*
X90540049Y-52320500D01*
X90307951Y-52320500D01*
X90269550Y-52326908D01*
X90079015Y-52358702D01*
X89859504Y-52434061D01*
X89859495Y-52434064D01*
X89655371Y-52544531D01*
X89655365Y-52544535D01*
X89472222Y-52687081D01*
X89472218Y-52687085D01*
X89463866Y-52696158D01*
X89403979Y-52732148D01*
X89334141Y-52730047D01*
X89276525Y-52690522D01*
X89256455Y-52655507D01*
X89227797Y-52578671D01*
X89227793Y-52578664D01*
X89141547Y-52463455D01*
X89141544Y-52463452D01*
X89026335Y-52377206D01*
X89026328Y-52377202D01*
X88891482Y-52326908D01*
X88891483Y-52326908D01*
X88831883Y-52320501D01*
X88831881Y-52320500D01*
X88831873Y-52320500D01*
X88831865Y-52320500D01*
X88708500Y-52320500D01*
X88641461Y-52300815D01*
X88595706Y-52248011D01*
X88584500Y-52196500D01*
X88584500Y-51115005D01*
X88568507Y-51034608D01*
X88565000Y-51016977D01*
X88557580Y-50979672D01*
X88504775Y-50852189D01*
X88428114Y-50737457D01*
X88428112Y-50737454D01*
X88428111Y-50737453D01*
X87491367Y-49800710D01*
X87462006Y-49753983D01*
X87438936Y-49688052D01*
X87425789Y-49650478D01*
X87425788Y-49650475D01*
X87425785Y-49650470D01*
X87425027Y-49649263D01*
X87424775Y-49648372D01*
X87422767Y-49644202D01*
X87423497Y-49643850D01*
X87406028Y-49582026D01*
X87426398Y-49515191D01*
X87462991Y-49479577D01*
X87462990Y-49479576D01*
X87463002Y-49479566D01*
X87464752Y-49477863D01*
X87467562Y-49476124D01*
X87631981Y-49326236D01*
X87766058Y-49148689D01*
X87865229Y-48949528D01*
X87918016Y-48764000D01*
X90644505Y-48764000D01*
X90697239Y-48949349D01*
X90796368Y-49148425D01*
X90930391Y-49325900D01*
X91094738Y-49475721D01*
X91283820Y-49592797D01*
X91283822Y-49592798D01*
X91491195Y-49673135D01*
X91571000Y-49688052D01*
X92071000Y-49688052D01*
X92150804Y-49673135D01*
X92358177Y-49592798D01*
X92358179Y-49592797D01*
X92547261Y-49475721D01*
X92711608Y-49325900D01*
X92845631Y-49148425D01*
X92944760Y-48949349D01*
X92997495Y-48764000D01*
X92071000Y-48764000D01*
X92071000Y-49688052D01*
X91571000Y-49688052D01*
X91571000Y-48764000D01*
X90644505Y-48764000D01*
X87918016Y-48764000D01*
X87926115Y-48735536D01*
X87946643Y-48514000D01*
X87942373Y-48467922D01*
X91471000Y-48467922D01*
X91471000Y-48560078D01*
X91494852Y-48649095D01*
X91540930Y-48728905D01*
X91606095Y-48794070D01*
X91685905Y-48840148D01*
X91774922Y-48864000D01*
X91867078Y-48864000D01*
X91956095Y-48840148D01*
X92035905Y-48794070D01*
X92101070Y-48728905D01*
X92147148Y-48649095D01*
X92171000Y-48560078D01*
X92171000Y-48467922D01*
X92147148Y-48378905D01*
X92101070Y-48299095D01*
X92065975Y-48264000D01*
X92071000Y-48264000D01*
X92997495Y-48264000D01*
X92944760Y-48078650D01*
X92845631Y-47879574D01*
X92711608Y-47702099D01*
X92547261Y-47552278D01*
X92358179Y-47435202D01*
X92358177Y-47435201D01*
X92150799Y-47354864D01*
X92071000Y-47339946D01*
X92071000Y-48264000D01*
X92065975Y-48264000D01*
X92035905Y-48233930D01*
X91956095Y-48187852D01*
X91867078Y-48164000D01*
X91774922Y-48164000D01*
X91685905Y-48187852D01*
X91606095Y-48233930D01*
X91540930Y-48299095D01*
X91494852Y-48378905D01*
X91471000Y-48467922D01*
X87942373Y-48467922D01*
X87926115Y-48292464D01*
X87918016Y-48264000D01*
X90644505Y-48264000D01*
X91571000Y-48264000D01*
X91571000Y-47339946D01*
X91491200Y-47354864D01*
X91283822Y-47435201D01*
X91283820Y-47435202D01*
X91094738Y-47552278D01*
X90930391Y-47702099D01*
X90796368Y-47879574D01*
X90697239Y-48078650D01*
X90644505Y-48264000D01*
X87918016Y-48264000D01*
X87865229Y-48078472D01*
X87766189Y-47879574D01*
X87766061Y-47879316D01*
X87766056Y-47879308D01*
X87631979Y-47701761D01*
X87467562Y-47551876D01*
X87467560Y-47551874D01*
X87278404Y-47434754D01*
X87278398Y-47434752D01*
X87070940Y-47354382D01*
X86852243Y-47313500D01*
X86629757Y-47313500D01*
X86411060Y-47354382D01*
X86279864Y-47405207D01*
X86203601Y-47434752D01*
X86203595Y-47434754D01*
X86014439Y-47551874D01*
X86014437Y-47551876D01*
X85850020Y-47701761D01*
X85715943Y-47879308D01*
X85715938Y-47879316D01*
X85616775Y-48078461D01*
X85616769Y-48078476D01*
X85555885Y-48292462D01*
X85555884Y-48292464D01*
X85535357Y-48513999D01*
X85535357Y-48514000D01*
X85555884Y-48735535D01*
X85555885Y-48735537D01*
X85616769Y-48949523D01*
X85616775Y-48949538D01*
X85715938Y-49148683D01*
X85715943Y-49148691D01*
X85850020Y-49326238D01*
X85981909Y-49446470D01*
X86018191Y-49506181D01*
X86016430Y-49576029D01*
X86003365Y-49604078D01*
X85974210Y-49650478D01*
X85914633Y-49820737D01*
X85914630Y-49820750D01*
X85894435Y-49999996D01*
X85894435Y-50000003D01*
X85914630Y-50179249D01*
X85914631Y-50179254D01*
X85974211Y-50349523D01*
X86070184Y-50502262D01*
X86197738Y-50629816D01*
X86350478Y-50725789D01*
X86453984Y-50762007D01*
X86500710Y-50791367D01*
X87147181Y-51437838D01*
X87180666Y-51499161D01*
X87183500Y-51525519D01*
X87183500Y-52196500D01*
X87163815Y-52263539D01*
X87111011Y-52309294D01*
X87059501Y-52320500D01*
X86936130Y-52320500D01*
X86936123Y-52320501D01*
X86876516Y-52326908D01*
X86741671Y-52377202D01*
X86741664Y-52377206D01*
X86626455Y-52463452D01*
X86626452Y-52463455D01*
X86540206Y-52578664D01*
X86540202Y-52578671D01*
X86489908Y-52713517D01*
X86483501Y-52773116D01*
X86483500Y-52773135D01*
X86483500Y-53571903D01*
X86463815Y-53638942D01*
X86411011Y-53684697D01*
X86341853Y-53694641D01*
X86278297Y-53665616D01*
X86271819Y-53659584D01*
X83777858Y-51165623D01*
X83744373Y-51104300D01*
X83749357Y-51034608D01*
X83761731Y-51010120D01*
X83822173Y-50917607D01*
X83922063Y-50689881D01*
X83983108Y-50448821D01*
X84003643Y-50201000D01*
X84001841Y-50179255D01*
X83983109Y-49953187D01*
X83983107Y-49953175D01*
X83922063Y-49712118D01*
X83822173Y-49484393D01*
X83686166Y-49276217D01*
X83664557Y-49252744D01*
X83517744Y-49093262D01*
X83321509Y-48940526D01*
X83321507Y-48940525D01*
X83321506Y-48940524D01*
X83102811Y-48822172D01*
X83102802Y-48822169D01*
X82867616Y-48741429D01*
X82622335Y-48700500D01*
X82373665Y-48700500D01*
X82128383Y-48741429D01*
X81893197Y-48822169D01*
X81893188Y-48822172D01*
X81674493Y-48940524D01*
X81478257Y-49093261D01*
X81309833Y-49276217D01*
X81173827Y-49484391D01*
X81155440Y-49526311D01*
X81110483Y-49579796D01*
X81043747Y-49600486D01*
X81041884Y-49600500D01*
X77454116Y-49600500D01*
X77387077Y-49580815D01*
X77341322Y-49528011D01*
X77340560Y-49526311D01*
X77322172Y-49484391D01*
X77186166Y-49276217D01*
X77164557Y-49252744D01*
X77017744Y-49093262D01*
X76821509Y-48940526D01*
X76821507Y-48940525D01*
X76821506Y-48940524D01*
X76602811Y-48822172D01*
X76602802Y-48822169D01*
X76367616Y-48741429D01*
X76122335Y-48700500D01*
X75873665Y-48700500D01*
X75628383Y-48741429D01*
X75393197Y-48822169D01*
X75393188Y-48822172D01*
X75174493Y-48940524D01*
X74978257Y-49093261D01*
X74809833Y-49276217D01*
X74673826Y-49484393D01*
X74573936Y-49712118D01*
X74512892Y-49953175D01*
X74512890Y-49953187D01*
X74492357Y-50200994D01*
X67175500Y-50200994D01*
X67175500Y-42282135D01*
X81199500Y-42282135D01*
X81199500Y-44077870D01*
X81199501Y-44077876D01*
X81205908Y-44137483D01*
X81256202Y-44272328D01*
X81256206Y-44272335D01*
X81342452Y-44387544D01*
X81342455Y-44387547D01*
X81457664Y-44473793D01*
X81457671Y-44473797D01*
X81592517Y-44524091D01*
X81592516Y-44524091D01*
X81599444Y-44524835D01*
X81652127Y-44530500D01*
X83447872Y-44530499D01*
X83507483Y-44524091D01*
X83642331Y-44473796D01*
X83757546Y-44387546D01*
X83843796Y-44272331D01*
X83892810Y-44140916D01*
X83934681Y-44084984D01*
X84000145Y-44060566D01*
X84068418Y-44075417D01*
X84096673Y-44096569D01*
X84218599Y-44218495D01*
X84315384Y-44286265D01*
X84412165Y-44354032D01*
X84412167Y-44354033D01*
X84412170Y-44354035D01*
X84626337Y-44453903D01*
X84626343Y-44453904D01*
X84626344Y-44453905D01*
X84681285Y-44468626D01*
X84854592Y-44515063D01*
X85031034Y-44530500D01*
X85089999Y-44535659D01*
X85090000Y-44535659D01*
X85090001Y-44535659D01*
X85148966Y-44530500D01*
X85325408Y-44515063D01*
X85553663Y-44453903D01*
X85767830Y-44354035D01*
X85961401Y-44218495D01*
X86128495Y-44051401D01*
X86258730Y-43865405D01*
X86313307Y-43821781D01*
X86382805Y-43814587D01*
X86445160Y-43846110D01*
X86461879Y-43865405D01*
X86591890Y-44051078D01*
X86758917Y-44218105D01*
X86952421Y-44353600D01*
X87166507Y-44453429D01*
X87166516Y-44453433D01*
X87380000Y-44510634D01*
X87380000Y-43613012D01*
X87437007Y-43645925D01*
X87564174Y-43680000D01*
X87695826Y-43680000D01*
X87822993Y-43645925D01*
X87880000Y-43613012D01*
X87880000Y-44510633D01*
X88093483Y-44453433D01*
X88093492Y-44453429D01*
X88307578Y-44353600D01*
X88501082Y-44218105D01*
X88668105Y-44051082D01*
X88798119Y-43865405D01*
X88852696Y-43821781D01*
X88922195Y-43814588D01*
X88984549Y-43846110D01*
X89001269Y-43865405D01*
X89131505Y-44051401D01*
X89298599Y-44218495D01*
X89395384Y-44286265D01*
X89492165Y-44354032D01*
X89492167Y-44354033D01*
X89492170Y-44354035D01*
X89706337Y-44453903D01*
X89706343Y-44453904D01*
X89706344Y-44453905D01*
X89761285Y-44468626D01*
X89934592Y-44515063D01*
X90111034Y-44530500D01*
X90169999Y-44535659D01*
X90170000Y-44535659D01*
X90170001Y-44535659D01*
X90228966Y-44530500D01*
X90405408Y-44515063D01*
X90633663Y-44453903D01*
X90847830Y-44354035D01*
X91041401Y-44218495D01*
X91208495Y-44051401D01*
X91338425Y-43865842D01*
X91393002Y-43822217D01*
X91462500Y-43815023D01*
X91524855Y-43846546D01*
X91541575Y-43865842D01*
X91671500Y-44051395D01*
X91671505Y-44051401D01*
X91838599Y-44218495D01*
X91935384Y-44286265D01*
X92032165Y-44354032D01*
X92032167Y-44354033D01*
X92032170Y-44354035D01*
X92246337Y-44453903D01*
X92246343Y-44453904D01*
X92246344Y-44453905D01*
X92301285Y-44468626D01*
X92474592Y-44515063D01*
X92651034Y-44530500D01*
X92709999Y-44535659D01*
X92710000Y-44535659D01*
X92710001Y-44535659D01*
X92768966Y-44530500D01*
X92945408Y-44515063D01*
X93173663Y-44453903D01*
X93387830Y-44354035D01*
X93581401Y-44218495D01*
X93748495Y-44051401D01*
X93884035Y-43857830D01*
X93983903Y-43643663D01*
X94045063Y-43415408D01*
X94065659Y-43180000D01*
X94065659Y-43179999D01*
X103292341Y-43179999D01*
X103292341Y-43180000D01*
X103312936Y-43415403D01*
X103312938Y-43415413D01*
X103374094Y-43643655D01*
X103374096Y-43643659D01*
X103374097Y-43643663D01*
X103457155Y-43821781D01*
X103473965Y-43857830D01*
X103473967Y-43857834D01*
X103582281Y-44012521D01*
X103609505Y-44051401D01*
X103776599Y-44218495D01*
X103873384Y-44286265D01*
X103970165Y-44354032D01*
X103970167Y-44354033D01*
X103970170Y-44354035D01*
X104184337Y-44453903D01*
X104184343Y-44453904D01*
X104184344Y-44453905D01*
X104239285Y-44468626D01*
X104412592Y-44515063D01*
X104589034Y-44530500D01*
X104647999Y-44535659D01*
X104648000Y-44535659D01*
X104648001Y-44535659D01*
X104706966Y-44530500D01*
X104883408Y-44515063D01*
X105111663Y-44453903D01*
X105325830Y-44354035D01*
X105519401Y-44218495D01*
X105686495Y-44051401D01*
X105816425Y-43865842D01*
X105871002Y-43822217D01*
X105940500Y-43815023D01*
X106002855Y-43846546D01*
X106019575Y-43865842D01*
X106149500Y-44051395D01*
X106149505Y-44051401D01*
X106316599Y-44218495D01*
X106413384Y-44286265D01*
X106510165Y-44354032D01*
X106510167Y-44354033D01*
X106510170Y-44354035D01*
X106724337Y-44453903D01*
X106724343Y-44453904D01*
X106724344Y-44453905D01*
X106779285Y-44468626D01*
X106952592Y-44515063D01*
X107129034Y-44530500D01*
X107187999Y-44535659D01*
X107188000Y-44535659D01*
X107188001Y-44535659D01*
X107246966Y-44530500D01*
X107423408Y-44515063D01*
X107651663Y-44453903D01*
X107865830Y-44354035D01*
X108059401Y-44218495D01*
X108226495Y-44051401D01*
X108356425Y-43865842D01*
X108411002Y-43822217D01*
X108480500Y-43815023D01*
X108542855Y-43846546D01*
X108559575Y-43865842D01*
X108689500Y-44051395D01*
X108689505Y-44051401D01*
X108856599Y-44218495D01*
X108953384Y-44286265D01*
X109050165Y-44354032D01*
X109050167Y-44354033D01*
X109050170Y-44354035D01*
X109264337Y-44453903D01*
X109264343Y-44453904D01*
X109264344Y-44453905D01*
X109319285Y-44468626D01*
X109492592Y-44515063D01*
X109669034Y-44530500D01*
X109727999Y-44535659D01*
X109728000Y-44535659D01*
X109728001Y-44535659D01*
X109786966Y-44530500D01*
X109963408Y-44515063D01*
X110191663Y-44453903D01*
X110405830Y-44354035D01*
X110599401Y-44218495D01*
X110766495Y-44051401D01*
X110896425Y-43865842D01*
X110951002Y-43822217D01*
X111020500Y-43815023D01*
X111082855Y-43846546D01*
X111099575Y-43865842D01*
X111229500Y-44051395D01*
X111229505Y-44051401D01*
X111396599Y-44218495D01*
X111493384Y-44286265D01*
X111590165Y-44354032D01*
X111590167Y-44354033D01*
X111590170Y-44354035D01*
X111804337Y-44453903D01*
X111804343Y-44453904D01*
X111804344Y-44453905D01*
X111859285Y-44468626D01*
X112032592Y-44515063D01*
X112209034Y-44530500D01*
X112267999Y-44535659D01*
X112268000Y-44535659D01*
X112268001Y-44535659D01*
X112326966Y-44530500D01*
X112503408Y-44515063D01*
X112731663Y-44453903D01*
X112945830Y-44354035D01*
X113139401Y-44218495D01*
X113306495Y-44051401D01*
X113436425Y-43865842D01*
X113491002Y-43822217D01*
X113560500Y-43815023D01*
X113622855Y-43846546D01*
X113639575Y-43865842D01*
X113769500Y-44051395D01*
X113769505Y-44051401D01*
X113936599Y-44218495D01*
X114033384Y-44286265D01*
X114130165Y-44354032D01*
X114130167Y-44354033D01*
X114130170Y-44354035D01*
X114344337Y-44453903D01*
X114344343Y-44453904D01*
X114344344Y-44453905D01*
X114399285Y-44468626D01*
X114572592Y-44515063D01*
X114749034Y-44530500D01*
X114807999Y-44535659D01*
X114808000Y-44535659D01*
X114808001Y-44535659D01*
X114866966Y-44530500D01*
X115043408Y-44515063D01*
X115271663Y-44453903D01*
X115485830Y-44354035D01*
X115679401Y-44218495D01*
X115846495Y-44051401D01*
X115976425Y-43865842D01*
X116031002Y-43822217D01*
X116100500Y-43815023D01*
X116162855Y-43846546D01*
X116179575Y-43865842D01*
X116309500Y-44051395D01*
X116309505Y-44051401D01*
X116476599Y-44218495D01*
X116573384Y-44286265D01*
X116670165Y-44354032D01*
X116670167Y-44354033D01*
X116670170Y-44354035D01*
X116884337Y-44453903D01*
X116884343Y-44453904D01*
X116884344Y-44453905D01*
X116939285Y-44468626D01*
X117112592Y-44515063D01*
X117289034Y-44530500D01*
X117347999Y-44535659D01*
X117348000Y-44535659D01*
X117348001Y-44535659D01*
X117406966Y-44530500D01*
X117583408Y-44515063D01*
X117811663Y-44453903D01*
X118025830Y-44354035D01*
X118219401Y-44218495D01*
X118386495Y-44051401D01*
X118516425Y-43865842D01*
X118571002Y-43822217D01*
X118640500Y-43815023D01*
X118702855Y-43846546D01*
X118719575Y-43865842D01*
X118849500Y-44051395D01*
X118849505Y-44051401D01*
X119016599Y-44218495D01*
X119113384Y-44286265D01*
X119210165Y-44354032D01*
X119210167Y-44354033D01*
X119210170Y-44354035D01*
X119424337Y-44453903D01*
X119424343Y-44453904D01*
X119424344Y-44453905D01*
X119479285Y-44468626D01*
X119652592Y-44515063D01*
X119829034Y-44530500D01*
X119887999Y-44535659D01*
X119888000Y-44535659D01*
X119888001Y-44535659D01*
X119946966Y-44530500D01*
X120123408Y-44515063D01*
X120351663Y-44453903D01*
X120565830Y-44354035D01*
X120759401Y-44218495D01*
X120881329Y-44096566D01*
X120942648Y-44063084D01*
X121012340Y-44068068D01*
X121068274Y-44109939D01*
X121085189Y-44140917D01*
X121134202Y-44272328D01*
X121134206Y-44272335D01*
X121220452Y-44387544D01*
X121220455Y-44387547D01*
X121335664Y-44473793D01*
X121335671Y-44473797D01*
X121470517Y-44524091D01*
X121470516Y-44524091D01*
X121477444Y-44524835D01*
X121530127Y-44530500D01*
X123325872Y-44530499D01*
X123385483Y-44524091D01*
X123520331Y-44473796D01*
X123635546Y-44387546D01*
X123721796Y-44272331D01*
X123772091Y-44137483D01*
X123778500Y-44077873D01*
X123778499Y-42282128D01*
X123772091Y-42222517D01*
X123770810Y-42219083D01*
X123721797Y-42087671D01*
X123721793Y-42087664D01*
X123635547Y-41972455D01*
X123635544Y-41972452D01*
X123520335Y-41886206D01*
X123520328Y-41886202D01*
X123385482Y-41835908D01*
X123385483Y-41835908D01*
X123325883Y-41829501D01*
X123325881Y-41829500D01*
X123325873Y-41829500D01*
X123325864Y-41829500D01*
X121530129Y-41829500D01*
X121530123Y-41829501D01*
X121470516Y-41835908D01*
X121335671Y-41886202D01*
X121335664Y-41886206D01*
X121220455Y-41972452D01*
X121220452Y-41972455D01*
X121134206Y-42087664D01*
X121134203Y-42087669D01*
X121085189Y-42219083D01*
X121043317Y-42275016D01*
X120977853Y-42299433D01*
X120909580Y-42284581D01*
X120881326Y-42263430D01*
X120759402Y-42141506D01*
X120759395Y-42141501D01*
X120565834Y-42005967D01*
X120565830Y-42005965D01*
X120565828Y-42005964D01*
X120351663Y-41906097D01*
X120351659Y-41906096D01*
X120351655Y-41906094D01*
X120123413Y-41844938D01*
X120123403Y-41844936D01*
X119888001Y-41824341D01*
X119887999Y-41824341D01*
X119652596Y-41844936D01*
X119652586Y-41844938D01*
X119424344Y-41906094D01*
X119424335Y-41906098D01*
X119210171Y-42005964D01*
X119210169Y-42005965D01*
X119016597Y-42141505D01*
X118849505Y-42308597D01*
X118719575Y-42494158D01*
X118664998Y-42537783D01*
X118595500Y-42544977D01*
X118533145Y-42513454D01*
X118516425Y-42494158D01*
X118386494Y-42308597D01*
X118219402Y-42141506D01*
X118219395Y-42141501D01*
X118025834Y-42005967D01*
X118025830Y-42005965D01*
X118025828Y-42005964D01*
X117811663Y-41906097D01*
X117811659Y-41906096D01*
X117811655Y-41906094D01*
X117583413Y-41844938D01*
X117583403Y-41844936D01*
X117348001Y-41824341D01*
X117347999Y-41824341D01*
X117112596Y-41844936D01*
X117112586Y-41844938D01*
X116884344Y-41906094D01*
X116884335Y-41906098D01*
X116670171Y-42005964D01*
X116670169Y-42005965D01*
X116476597Y-42141505D01*
X116309505Y-42308597D01*
X116179575Y-42494158D01*
X116124998Y-42537783D01*
X116055500Y-42544977D01*
X115993145Y-42513454D01*
X115976425Y-42494158D01*
X115846494Y-42308597D01*
X115679402Y-42141506D01*
X115679395Y-42141501D01*
X115485834Y-42005967D01*
X115485830Y-42005965D01*
X115485828Y-42005964D01*
X115271663Y-41906097D01*
X115271659Y-41906096D01*
X115271655Y-41906094D01*
X115043413Y-41844938D01*
X115043403Y-41844936D01*
X114808001Y-41824341D01*
X114807999Y-41824341D01*
X114572596Y-41844936D01*
X114572586Y-41844938D01*
X114344344Y-41906094D01*
X114344335Y-41906098D01*
X114130171Y-42005964D01*
X114130169Y-42005965D01*
X113936597Y-42141505D01*
X113769505Y-42308597D01*
X113639575Y-42494158D01*
X113584998Y-42537783D01*
X113515500Y-42544977D01*
X113453145Y-42513454D01*
X113436425Y-42494158D01*
X113306494Y-42308597D01*
X113139402Y-42141506D01*
X113139395Y-42141501D01*
X112945834Y-42005967D01*
X112945830Y-42005965D01*
X112945828Y-42005964D01*
X112731663Y-41906097D01*
X112731659Y-41906096D01*
X112731655Y-41906094D01*
X112503413Y-41844938D01*
X112503403Y-41844936D01*
X112268001Y-41824341D01*
X112267999Y-41824341D01*
X112032596Y-41844936D01*
X112032586Y-41844938D01*
X111804344Y-41906094D01*
X111804335Y-41906098D01*
X111590171Y-42005964D01*
X111590169Y-42005965D01*
X111396597Y-42141505D01*
X111229505Y-42308597D01*
X111099575Y-42494158D01*
X111044998Y-42537783D01*
X110975500Y-42544977D01*
X110913145Y-42513454D01*
X110896425Y-42494158D01*
X110766494Y-42308597D01*
X110599402Y-42141506D01*
X110599395Y-42141501D01*
X110405834Y-42005967D01*
X110405830Y-42005965D01*
X110405828Y-42005964D01*
X110191663Y-41906097D01*
X110191659Y-41906096D01*
X110191655Y-41906094D01*
X109963413Y-41844938D01*
X109963403Y-41844936D01*
X109728001Y-41824341D01*
X109727999Y-41824341D01*
X109492596Y-41844936D01*
X109492586Y-41844938D01*
X109264344Y-41906094D01*
X109264335Y-41906098D01*
X109050171Y-42005964D01*
X109050169Y-42005965D01*
X108856597Y-42141505D01*
X108689505Y-42308597D01*
X108559575Y-42494158D01*
X108504998Y-42537783D01*
X108435500Y-42544977D01*
X108373145Y-42513454D01*
X108356425Y-42494158D01*
X108226494Y-42308597D01*
X108059402Y-42141506D01*
X108059395Y-42141501D01*
X107865834Y-42005967D01*
X107865830Y-42005965D01*
X107865828Y-42005964D01*
X107651663Y-41906097D01*
X107651659Y-41906096D01*
X107651655Y-41906094D01*
X107423413Y-41844938D01*
X107423403Y-41844936D01*
X107188001Y-41824341D01*
X107187999Y-41824341D01*
X106952596Y-41844936D01*
X106952586Y-41844938D01*
X106724344Y-41906094D01*
X106724335Y-41906098D01*
X106510171Y-42005964D01*
X106510169Y-42005965D01*
X106316597Y-42141505D01*
X106149505Y-42308597D01*
X106019575Y-42494158D01*
X105964998Y-42537783D01*
X105895500Y-42544977D01*
X105833145Y-42513454D01*
X105816425Y-42494158D01*
X105686494Y-42308597D01*
X105519402Y-42141506D01*
X105519395Y-42141501D01*
X105325834Y-42005967D01*
X105325830Y-42005965D01*
X105325828Y-42005964D01*
X105111663Y-41906097D01*
X105111659Y-41906096D01*
X105111655Y-41906094D01*
X104883413Y-41844938D01*
X104883403Y-41844936D01*
X104648001Y-41824341D01*
X104647999Y-41824341D01*
X104412596Y-41844936D01*
X104412586Y-41844938D01*
X104184344Y-41906094D01*
X104184335Y-41906098D01*
X103970171Y-42005964D01*
X103970169Y-42005965D01*
X103776597Y-42141505D01*
X103609505Y-42308597D01*
X103473965Y-42502169D01*
X103473964Y-42502171D01*
X103374098Y-42716335D01*
X103374094Y-42716344D01*
X103312938Y-42944586D01*
X103312936Y-42944596D01*
X103292341Y-43179999D01*
X94065659Y-43179999D01*
X94045063Y-42944592D01*
X93983903Y-42716337D01*
X93884035Y-42502171D01*
X93878731Y-42494595D01*
X93748494Y-42308597D01*
X93581402Y-42141506D01*
X93581395Y-42141501D01*
X93387834Y-42005967D01*
X93387830Y-42005965D01*
X93387828Y-42005964D01*
X93173663Y-41906097D01*
X93173659Y-41906096D01*
X93173655Y-41906094D01*
X92945413Y-41844938D01*
X92945403Y-41844936D01*
X92710001Y-41824341D01*
X92709999Y-41824341D01*
X92474596Y-41844936D01*
X92474586Y-41844938D01*
X92246344Y-41906094D01*
X92246335Y-41906098D01*
X92032171Y-42005964D01*
X92032169Y-42005965D01*
X91838597Y-42141505D01*
X91671505Y-42308597D01*
X91541575Y-42494158D01*
X91486998Y-42537783D01*
X91417500Y-42544977D01*
X91355145Y-42513454D01*
X91338425Y-42494158D01*
X91208494Y-42308597D01*
X91041402Y-42141506D01*
X91041395Y-42141501D01*
X90847834Y-42005967D01*
X90847830Y-42005965D01*
X90847828Y-42005964D01*
X90633663Y-41906097D01*
X90633659Y-41906096D01*
X90633655Y-41906094D01*
X90405413Y-41844938D01*
X90405403Y-41844936D01*
X90170001Y-41824341D01*
X90169999Y-41824341D01*
X89934596Y-41844936D01*
X89934586Y-41844938D01*
X89706344Y-41906094D01*
X89706335Y-41906098D01*
X89492171Y-42005964D01*
X89492169Y-42005965D01*
X89298597Y-42141505D01*
X89131508Y-42308594D01*
X89001269Y-42494595D01*
X88946692Y-42538219D01*
X88877193Y-42545412D01*
X88814839Y-42513890D01*
X88798119Y-42494594D01*
X88668113Y-42308926D01*
X88668108Y-42308920D01*
X88501082Y-42141894D01*
X88307578Y-42006399D01*
X88093492Y-41906570D01*
X88093486Y-41906567D01*
X87880000Y-41849364D01*
X87880000Y-42746988D01*
X87822993Y-42714075D01*
X87695826Y-42680000D01*
X87564174Y-42680000D01*
X87437007Y-42714075D01*
X87380000Y-42746988D01*
X87380000Y-41849364D01*
X87379999Y-41849364D01*
X87166513Y-41906567D01*
X87166507Y-41906570D01*
X86952422Y-42006399D01*
X86952420Y-42006400D01*
X86758926Y-42141886D01*
X86758920Y-42141891D01*
X86591891Y-42308920D01*
X86591890Y-42308922D01*
X86461880Y-42494595D01*
X86407303Y-42538219D01*
X86337804Y-42545412D01*
X86275450Y-42513890D01*
X86258730Y-42494594D01*
X86128494Y-42308597D01*
X85961402Y-42141506D01*
X85961395Y-42141501D01*
X85767834Y-42005967D01*
X85767830Y-42005965D01*
X85767828Y-42005964D01*
X85553663Y-41906097D01*
X85553659Y-41906096D01*
X85553655Y-41906094D01*
X85325413Y-41844938D01*
X85325403Y-41844936D01*
X85090001Y-41824341D01*
X85089999Y-41824341D01*
X84854596Y-41844936D01*
X84854586Y-41844938D01*
X84626344Y-41906094D01*
X84626335Y-41906098D01*
X84412171Y-42005964D01*
X84412169Y-42005965D01*
X84218600Y-42141503D01*
X84096673Y-42263430D01*
X84035350Y-42296914D01*
X83965658Y-42291930D01*
X83909725Y-42250058D01*
X83892810Y-42219081D01*
X83843797Y-42087671D01*
X83843793Y-42087664D01*
X83757547Y-41972455D01*
X83757544Y-41972452D01*
X83642335Y-41886206D01*
X83642328Y-41886202D01*
X83507482Y-41835908D01*
X83507483Y-41835908D01*
X83447883Y-41829501D01*
X83447881Y-41829500D01*
X83447873Y-41829500D01*
X83447864Y-41829500D01*
X81652129Y-41829500D01*
X81652123Y-41829501D01*
X81592516Y-41835908D01*
X81457671Y-41886202D01*
X81457664Y-41886206D01*
X81342455Y-41972452D01*
X81342452Y-41972455D01*
X81256206Y-42087664D01*
X81256202Y-42087671D01*
X81205908Y-42222517D01*
X81199501Y-42282116D01*
X81199501Y-42282123D01*
X81199500Y-42282135D01*
X67175500Y-42282135D01*
X67175500Y-39867500D01*
X67195185Y-39800461D01*
X67247989Y-39754706D01*
X67299500Y-39743500D01*
X152156500Y-39743500D01*
X152223539Y-39763185D01*
G37*
%TD.AperFunction*%
%TD*%
M02*
