%TF.GenerationSoftware,KiCad,Pcbnew,8.0.5*%
%TF.CreationDate,2025-01-06T05:05:23+01:00*%
%TF.ProjectId,my_Project2,6d795f50-726f-46a6-9563-74322e6b6963,rev?*%
%TF.SameCoordinates,Original*%
%TF.FileFunction,Legend,Bot*%
%TF.FilePolarity,Positive*%
%FSLAX46Y46*%
G04 Gerber Fmt 4.6, Leading zero omitted, Abs format (unit mm)*
G04 Created by KiCad (PCBNEW 8.0.5) date 2025-01-06 05:05:23*
%MOMM*%
%LPD*%
G01*
G04 APERTURE LIST*
%ADD10C,0.100000*%
G04 APERTURE END LIST*
D10*
X134419925Y-51327657D02*
X134419925Y-48327657D01*
X134419925Y-48327657D02*
X133419925Y-50470514D01*
X133419925Y-50470514D02*
X132419925Y-48327657D01*
X132419925Y-48327657D02*
X132419925Y-51327657D01*
X131277068Y-49327657D02*
X130562782Y-51327657D01*
X129848497Y-49327657D02*
X130562782Y-51327657D01*
X130562782Y-51327657D02*
X130848497Y-52041942D01*
X130848497Y-52041942D02*
X130991354Y-52184800D01*
X130991354Y-52184800D02*
X131277068Y-52327657D01*
X126419926Y-51327657D02*
X126419926Y-48327657D01*
X126419926Y-48327657D02*
X125277069Y-48327657D01*
X125277069Y-48327657D02*
X124991354Y-48470514D01*
X124991354Y-48470514D02*
X124848497Y-48613371D01*
X124848497Y-48613371D02*
X124705640Y-48899085D01*
X124705640Y-48899085D02*
X124705640Y-49327657D01*
X124705640Y-49327657D02*
X124848497Y-49613371D01*
X124848497Y-49613371D02*
X124991354Y-49756228D01*
X124991354Y-49756228D02*
X125277069Y-49899085D01*
X125277069Y-49899085D02*
X126419926Y-49899085D01*
X123419926Y-51327657D02*
X123419926Y-48327657D01*
X120277069Y-51041942D02*
X120419926Y-51184800D01*
X120419926Y-51184800D02*
X120848498Y-51327657D01*
X120848498Y-51327657D02*
X121134212Y-51327657D01*
X121134212Y-51327657D02*
X121562783Y-51184800D01*
X121562783Y-51184800D02*
X121848498Y-50899085D01*
X121848498Y-50899085D02*
X121991355Y-50613371D01*
X121991355Y-50613371D02*
X122134212Y-50041942D01*
X122134212Y-50041942D02*
X122134212Y-49613371D01*
X122134212Y-49613371D02*
X121991355Y-49041942D01*
X121991355Y-49041942D02*
X121848498Y-48756228D01*
X121848498Y-48756228D02*
X121562783Y-48470514D01*
X121562783Y-48470514D02*
X121134212Y-48327657D01*
X121134212Y-48327657D02*
X120848498Y-48327657D01*
X120848498Y-48327657D02*
X120419926Y-48470514D01*
X120419926Y-48470514D02*
X120277069Y-48613371D01*
X117419926Y-51327657D02*
X119134212Y-51327657D01*
X118277069Y-51327657D02*
X118277069Y-48327657D01*
X118277069Y-48327657D02*
X118562783Y-48756228D01*
X118562783Y-48756228D02*
X118848498Y-49041942D01*
X118848498Y-49041942D02*
X119134212Y-49184800D01*
X115705640Y-49613371D02*
X115991355Y-49470514D01*
X115991355Y-49470514D02*
X116134212Y-49327657D01*
X116134212Y-49327657D02*
X116277069Y-49041942D01*
X116277069Y-49041942D02*
X116277069Y-48899085D01*
X116277069Y-48899085D02*
X116134212Y-48613371D01*
X116134212Y-48613371D02*
X115991355Y-48470514D01*
X115991355Y-48470514D02*
X115705640Y-48327657D01*
X115705640Y-48327657D02*
X115134212Y-48327657D01*
X115134212Y-48327657D02*
X114848498Y-48470514D01*
X114848498Y-48470514D02*
X114705640Y-48613371D01*
X114705640Y-48613371D02*
X114562783Y-48899085D01*
X114562783Y-48899085D02*
X114562783Y-49041942D01*
X114562783Y-49041942D02*
X114705640Y-49327657D01*
X114705640Y-49327657D02*
X114848498Y-49470514D01*
X114848498Y-49470514D02*
X115134212Y-49613371D01*
X115134212Y-49613371D02*
X115705640Y-49613371D01*
X115705640Y-49613371D02*
X115991355Y-49756228D01*
X115991355Y-49756228D02*
X116134212Y-49899085D01*
X116134212Y-49899085D02*
X116277069Y-50184800D01*
X116277069Y-50184800D02*
X116277069Y-50756228D01*
X116277069Y-50756228D02*
X116134212Y-51041942D01*
X116134212Y-51041942D02*
X115991355Y-51184800D01*
X115991355Y-51184800D02*
X115705640Y-51327657D01*
X115705640Y-51327657D02*
X115134212Y-51327657D01*
X115134212Y-51327657D02*
X114848498Y-51184800D01*
X114848498Y-51184800D02*
X114705640Y-51041942D01*
X114705640Y-51041942D02*
X114562783Y-50756228D01*
X114562783Y-50756228D02*
X114562783Y-50184800D01*
X114562783Y-50184800D02*
X114705640Y-49899085D01*
X114705640Y-49899085D02*
X114848498Y-49756228D01*
X114848498Y-49756228D02*
X115134212Y-49613371D01*
X112277069Y-49756228D02*
X113277069Y-49756228D01*
X113277069Y-51327657D02*
X113277069Y-48327657D01*
X113277069Y-48327657D02*
X111848497Y-48327657D01*
X110848497Y-48613371D02*
X110705640Y-48470514D01*
X110705640Y-48470514D02*
X110419926Y-48327657D01*
X110419926Y-48327657D02*
X109705640Y-48327657D01*
X109705640Y-48327657D02*
X109419926Y-48470514D01*
X109419926Y-48470514D02*
X109277068Y-48613371D01*
X109277068Y-48613371D02*
X109134211Y-48899085D01*
X109134211Y-48899085D02*
X109134211Y-49184800D01*
X109134211Y-49184800D02*
X109277068Y-49613371D01*
X109277068Y-49613371D02*
X110991354Y-51327657D01*
X110991354Y-51327657D02*
X109134211Y-51327657D01*
X106419925Y-48327657D02*
X107848497Y-48327657D01*
X107848497Y-48327657D02*
X107991354Y-49756228D01*
X107991354Y-49756228D02*
X107848497Y-49613371D01*
X107848497Y-49613371D02*
X107562783Y-49470514D01*
X107562783Y-49470514D02*
X106848497Y-49470514D01*
X106848497Y-49470514D02*
X106562783Y-49613371D01*
X106562783Y-49613371D02*
X106419925Y-49756228D01*
X106419925Y-49756228D02*
X106277068Y-50041942D01*
X106277068Y-50041942D02*
X106277068Y-50756228D01*
X106277068Y-50756228D02*
X106419925Y-51041942D01*
X106419925Y-51041942D02*
X106562783Y-51184800D01*
X106562783Y-51184800D02*
X106848497Y-51327657D01*
X106848497Y-51327657D02*
X107562783Y-51327657D01*
X107562783Y-51327657D02*
X107848497Y-51184800D01*
X107848497Y-51184800D02*
X107991354Y-51041942D01*
X103562782Y-48327657D02*
X104991354Y-48327657D01*
X104991354Y-48327657D02*
X105134211Y-49756228D01*
X105134211Y-49756228D02*
X104991354Y-49613371D01*
X104991354Y-49613371D02*
X104705640Y-49470514D01*
X104705640Y-49470514D02*
X103991354Y-49470514D01*
X103991354Y-49470514D02*
X103705640Y-49613371D01*
X103705640Y-49613371D02*
X103562782Y-49756228D01*
X103562782Y-49756228D02*
X103419925Y-50041942D01*
X103419925Y-50041942D02*
X103419925Y-50756228D01*
X103419925Y-50756228D02*
X103562782Y-51041942D01*
X103562782Y-51041942D02*
X103705640Y-51184800D01*
X103705640Y-51184800D02*
X103991354Y-51327657D01*
X103991354Y-51327657D02*
X104705640Y-51327657D01*
X104705640Y-51327657D02*
X104991354Y-51184800D01*
X104991354Y-51184800D02*
X105134211Y-51041942D01*
X101562782Y-48327657D02*
X101277068Y-48327657D01*
X101277068Y-48327657D02*
X100991354Y-48470514D01*
X100991354Y-48470514D02*
X100848497Y-48613371D01*
X100848497Y-48613371D02*
X100705639Y-48899085D01*
X100705639Y-48899085D02*
X100562782Y-49470514D01*
X100562782Y-49470514D02*
X100562782Y-50184800D01*
X100562782Y-50184800D02*
X100705639Y-50756228D01*
X100705639Y-50756228D02*
X100848497Y-51041942D01*
X100848497Y-51041942D02*
X100991354Y-51184800D01*
X100991354Y-51184800D02*
X101277068Y-51327657D01*
X101277068Y-51327657D02*
X101562782Y-51327657D01*
X101562782Y-51327657D02*
X101848497Y-51184800D01*
X101848497Y-51184800D02*
X101991354Y-51041942D01*
X101991354Y-51041942D02*
X102134211Y-50756228D01*
X102134211Y-50756228D02*
X102277068Y-50184800D01*
X102277068Y-50184800D02*
X102277068Y-49470514D01*
X102277068Y-49470514D02*
X102134211Y-48899085D01*
X102134211Y-48899085D02*
X101991354Y-48613371D01*
X101991354Y-48613371D02*
X101848497Y-48470514D01*
X101848497Y-48470514D02*
X101562782Y-48327657D01*
X96991354Y-51327657D02*
X96991354Y-48327657D01*
X96991354Y-48327657D02*
X95848497Y-48327657D01*
X95848497Y-48327657D02*
X95562782Y-48470514D01*
X95562782Y-48470514D02*
X95419925Y-48613371D01*
X95419925Y-48613371D02*
X95277068Y-48899085D01*
X95277068Y-48899085D02*
X95277068Y-49327657D01*
X95277068Y-49327657D02*
X95419925Y-49613371D01*
X95419925Y-49613371D02*
X95562782Y-49756228D01*
X95562782Y-49756228D02*
X95848497Y-49899085D01*
X95848497Y-49899085D02*
X96991354Y-49899085D01*
X92277068Y-51041942D02*
X92419925Y-51184800D01*
X92419925Y-51184800D02*
X92848497Y-51327657D01*
X92848497Y-51327657D02*
X93134211Y-51327657D01*
X93134211Y-51327657D02*
X93562782Y-51184800D01*
X93562782Y-51184800D02*
X93848497Y-50899085D01*
X93848497Y-50899085D02*
X93991354Y-50613371D01*
X93991354Y-50613371D02*
X94134211Y-50041942D01*
X94134211Y-50041942D02*
X94134211Y-49613371D01*
X94134211Y-49613371D02*
X93991354Y-49041942D01*
X93991354Y-49041942D02*
X93848497Y-48756228D01*
X93848497Y-48756228D02*
X93562782Y-48470514D01*
X93562782Y-48470514D02*
X93134211Y-48327657D01*
X93134211Y-48327657D02*
X92848497Y-48327657D01*
X92848497Y-48327657D02*
X92419925Y-48470514D01*
X92419925Y-48470514D02*
X92277068Y-48613371D01*
X89991354Y-49756228D02*
X89562782Y-49899085D01*
X89562782Y-49899085D02*
X89419925Y-50041942D01*
X89419925Y-50041942D02*
X89277068Y-50327657D01*
X89277068Y-50327657D02*
X89277068Y-50756228D01*
X89277068Y-50756228D02*
X89419925Y-51041942D01*
X89419925Y-51041942D02*
X89562782Y-51184800D01*
X89562782Y-51184800D02*
X89848497Y-51327657D01*
X89848497Y-51327657D02*
X90991354Y-51327657D01*
X90991354Y-51327657D02*
X90991354Y-48327657D01*
X90991354Y-48327657D02*
X89991354Y-48327657D01*
X89991354Y-48327657D02*
X89705640Y-48470514D01*
X89705640Y-48470514D02*
X89562782Y-48613371D01*
X89562782Y-48613371D02*
X89419925Y-48899085D01*
X89419925Y-48899085D02*
X89419925Y-49184800D01*
X89419925Y-49184800D02*
X89562782Y-49470514D01*
X89562782Y-49470514D02*
X89705640Y-49613371D01*
X89705640Y-49613371D02*
X89991354Y-49756228D01*
X89991354Y-49756228D02*
X90991354Y-49756228D01*
M02*
