%TF.GenerationSoftware,KiCad,Pcbnew,8.0.5*%
%TF.CreationDate,2025-01-07T00:48:21+01:00*%
%TF.ProjectId,my_Project3,6d795f50-726f-46a6-9563-74332e6b6963,rev?*%
%TF.SameCoordinates,Original*%
%TF.FileFunction,Copper,L2,Bot*%
%TF.FilePolarity,Positive*%
%FSLAX46Y46*%
G04 Gerber Fmt 4.6, Leading zero omitted, Abs format (unit mm)*
G04 Created by KiCad (PCBNEW 8.0.5) date 2025-01-07 00:48:21*
%MOMM*%
%LPD*%
G01*
G04 APERTURE LIST*
%TA.AperFunction,ComponentPad*%
%ADD10R,1.000000X1.000000*%
%TD*%
%TA.AperFunction,ComponentPad*%
%ADD11O,1.000000X1.000000*%
%TD*%
%TA.AperFunction,ViaPad*%
%ADD12C,0.600000*%
%TD*%
%TA.AperFunction,Conductor*%
%ADD13C,0.200000*%
%TD*%
G04 APERTURE END LIST*
D10*
%TO.P,J1,1,Pin_1*%
%TO.N,SWDCLK*%
X136180000Y-79396000D03*
D11*
%TO.P,J1,2,Pin_2*%
%TO.N,SWDIO*%
X137450000Y-79396000D03*
%TO.P,J1,3,Pin_3*%
%TO.N,+3.3V*%
X138720000Y-79396000D03*
%TO.P,J1,4,Pin_4*%
%TO.N,GND*%
X139990000Y-79396000D03*
%TD*%
D12*
%TO.N,GND*%
X122844000Y-81788000D03*
X124044000Y-80264000D03*
%TO.N,+5V*%
X144272000Y-83312000D03*
X130048000Y-76200000D03*
%TD*%
D13*
%TO.N,GND*%
X122844000Y-81788000D02*
X122844000Y-81464000D01*
X122844000Y-81464000D02*
X124044000Y-80264000D01*
%TO.N,+5V*%
X130048000Y-76200000D02*
X137160000Y-83312000D01*
X137160000Y-83312000D02*
X144272000Y-83312000D01*
%TD*%
%TA.AperFunction,Conductor*%
%TO.N,GND*%
G36*
X148901395Y-71976972D02*
G01*
X149062919Y-71991103D01*
X149084204Y-71994855D01*
X149235587Y-72035419D01*
X149255885Y-72042807D01*
X149375564Y-72098614D01*
X149397915Y-72109037D01*
X149416634Y-72119844D01*
X149545010Y-72209734D01*
X149561567Y-72223628D01*
X149672371Y-72334432D01*
X149686265Y-72350989D01*
X149776155Y-72479365D01*
X149786962Y-72498084D01*
X149853189Y-72640107D01*
X149860582Y-72660418D01*
X149901143Y-72811794D01*
X149904896Y-72833080D01*
X149919028Y-72994603D01*
X149919500Y-73005411D01*
X149919500Y-86710588D01*
X149919028Y-86721396D01*
X149904896Y-86882919D01*
X149901143Y-86904205D01*
X149860582Y-87055581D01*
X149853189Y-87075892D01*
X149786962Y-87217915D01*
X149776155Y-87236634D01*
X149686265Y-87365010D01*
X149672371Y-87381567D01*
X149561567Y-87492371D01*
X149545010Y-87506265D01*
X149416634Y-87596155D01*
X149397915Y-87606962D01*
X149255892Y-87673189D01*
X149235581Y-87680582D01*
X149084205Y-87721143D01*
X149062919Y-87724896D01*
X148917332Y-87737633D01*
X148901394Y-87739028D01*
X148890588Y-87739500D01*
X116389412Y-87739500D01*
X116378605Y-87739028D01*
X116360754Y-87737466D01*
X116217080Y-87724896D01*
X116195794Y-87721143D01*
X116044418Y-87680582D01*
X116024107Y-87673189D01*
X115882084Y-87606962D01*
X115863365Y-87596155D01*
X115734989Y-87506265D01*
X115718432Y-87492371D01*
X115607628Y-87381567D01*
X115593734Y-87365010D01*
X115503844Y-87236634D01*
X115493037Y-87217915D01*
X115482614Y-87195564D01*
X115426807Y-87075885D01*
X115419419Y-87055587D01*
X115378855Y-86904204D01*
X115375103Y-86882918D01*
X115360972Y-86721395D01*
X115360500Y-86710588D01*
X115360500Y-76199996D01*
X129242435Y-76199996D01*
X129242435Y-76200003D01*
X129262630Y-76379249D01*
X129262631Y-76379254D01*
X129322211Y-76549523D01*
X129418184Y-76702262D01*
X129545738Y-76829816D01*
X129698478Y-76925789D01*
X129868745Y-76985368D01*
X129955669Y-76995161D01*
X130020080Y-77022226D01*
X130029465Y-77030700D01*
X136675139Y-83676374D01*
X136675149Y-83676385D01*
X136679479Y-83680715D01*
X136679480Y-83680716D01*
X136791284Y-83792520D01*
X136878095Y-83842639D01*
X136878097Y-83842641D01*
X136916151Y-83864611D01*
X136928215Y-83871577D01*
X137080943Y-83912501D01*
X137080946Y-83912501D01*
X137246653Y-83912501D01*
X137246669Y-83912500D01*
X143689588Y-83912500D01*
X143756627Y-83932185D01*
X143766903Y-83939555D01*
X143769736Y-83941814D01*
X143769738Y-83941816D01*
X143922478Y-84037789D01*
X144092745Y-84097368D01*
X144092750Y-84097369D01*
X144271996Y-84117565D01*
X144272000Y-84117565D01*
X144272004Y-84117565D01*
X144451249Y-84097369D01*
X144451252Y-84097368D01*
X144451255Y-84097368D01*
X144621522Y-84037789D01*
X144774262Y-83941816D01*
X144901816Y-83814262D01*
X144997789Y-83661522D01*
X145057368Y-83491255D01*
X145077565Y-83312000D01*
X145057368Y-83132745D01*
X144997789Y-82962478D01*
X144901816Y-82809738D01*
X144774262Y-82682184D01*
X144763117Y-82675181D01*
X144621523Y-82586211D01*
X144451254Y-82526631D01*
X144451249Y-82526630D01*
X144272004Y-82506435D01*
X144271996Y-82506435D01*
X144092750Y-82526630D01*
X144092745Y-82526631D01*
X143922476Y-82586211D01*
X143769736Y-82682185D01*
X143766903Y-82684445D01*
X143764724Y-82685334D01*
X143763842Y-82685889D01*
X143763744Y-82685734D01*
X143702217Y-82710855D01*
X143689588Y-82711500D01*
X137460097Y-82711500D01*
X137393058Y-82691815D01*
X137372416Y-82675181D01*
X133545370Y-78848135D01*
X135179500Y-78848135D01*
X135179500Y-79943870D01*
X135179501Y-79943876D01*
X135185908Y-80003483D01*
X135236202Y-80138328D01*
X135236206Y-80138335D01*
X135322452Y-80253544D01*
X135322455Y-80253547D01*
X135437664Y-80339793D01*
X135437671Y-80339797D01*
X135572517Y-80390091D01*
X135572516Y-80390091D01*
X135579444Y-80390835D01*
X135632127Y-80396500D01*
X136727872Y-80396499D01*
X136787483Y-80390091D01*
X136922331Y-80339796D01*
X136930379Y-80333770D01*
X136995842Y-80309351D01*
X137059474Y-80322895D01*
X137059645Y-80322483D01*
X137061875Y-80323406D01*
X137063146Y-80323677D01*
X137065273Y-80324814D01*
X137253868Y-80382024D01*
X137450000Y-80401341D01*
X137646132Y-80382024D01*
X137834727Y-80324814D01*
X138008538Y-80231910D01*
X138008544Y-80231904D01*
X138013607Y-80228523D01*
X138014703Y-80230164D01*
X138070639Y-80206405D01*
X138139507Y-80218194D01*
X138156148Y-80228888D01*
X138156393Y-80228523D01*
X138161458Y-80231907D01*
X138161462Y-80231910D01*
X138306344Y-80309351D01*
X138333147Y-80323678D01*
X138335273Y-80324814D01*
X138523868Y-80382024D01*
X138720000Y-80401341D01*
X138916132Y-80382024D01*
X139104727Y-80324814D01*
X139278538Y-80231910D01*
X139278544Y-80231904D01*
X139283607Y-80228523D01*
X139284624Y-80230045D01*
X139341021Y-80206084D01*
X139409890Y-80217866D01*
X139426424Y-80228489D01*
X139426678Y-80228110D01*
X139431738Y-80231491D01*
X139605465Y-80324349D01*
X139740000Y-80365159D01*
X140240000Y-80365159D01*
X140374534Y-80324349D01*
X140548260Y-80231491D01*
X140700528Y-80106528D01*
X140825492Y-79954260D01*
X140825496Y-79954253D01*
X140918347Y-79780541D01*
X140959160Y-79646000D01*
X140240000Y-79646000D01*
X140240000Y-80365159D01*
X139740000Y-80365159D01*
X139740000Y-79605618D01*
X139790446Y-79656064D01*
X139864555Y-79698851D01*
X139947213Y-79721000D01*
X140032787Y-79721000D01*
X140115445Y-79698851D01*
X140189554Y-79656064D01*
X140250064Y-79595554D01*
X140292851Y-79521445D01*
X140315000Y-79438787D01*
X140315000Y-79353213D01*
X140292851Y-79270555D01*
X140250064Y-79196446D01*
X140199618Y-79146000D01*
X140240000Y-79146000D01*
X140959160Y-79146000D01*
X140959160Y-79145999D01*
X140918347Y-79011458D01*
X140825496Y-78837746D01*
X140825492Y-78837739D01*
X140700528Y-78685471D01*
X140548260Y-78560507D01*
X140548253Y-78560503D01*
X140374541Y-78467652D01*
X140240000Y-78426839D01*
X140240000Y-79146000D01*
X140199618Y-79146000D01*
X140189554Y-79135936D01*
X140115445Y-79093149D01*
X140032787Y-79071000D01*
X139947213Y-79071000D01*
X139864555Y-79093149D01*
X139790446Y-79135936D01*
X139740000Y-79186382D01*
X139740000Y-78426839D01*
X139739999Y-78426839D01*
X139605458Y-78467652D01*
X139431742Y-78560505D01*
X139426673Y-78563893D01*
X139425556Y-78562221D01*
X139369715Y-78585921D01*
X139300851Y-78574111D01*
X139283811Y-78563158D01*
X139283601Y-78563473D01*
X139278532Y-78560086D01*
X139104733Y-78467188D01*
X139104727Y-78467186D01*
X138916132Y-78409976D01*
X138916129Y-78409975D01*
X138720000Y-78390659D01*
X138523870Y-78409975D01*
X138335266Y-78467188D01*
X138161467Y-78560086D01*
X138156399Y-78563473D01*
X138155305Y-78561836D01*
X138099337Y-78585596D01*
X138030471Y-78573795D01*
X138013843Y-78563109D01*
X138013601Y-78563473D01*
X138008532Y-78560086D01*
X137834733Y-78467188D01*
X137834727Y-78467186D01*
X137646132Y-78409976D01*
X137646129Y-78409975D01*
X137450000Y-78390659D01*
X137253870Y-78409975D01*
X137198278Y-78426839D01*
X137065273Y-78467186D01*
X137065272Y-78467186D01*
X137065267Y-78467188D01*
X137063143Y-78468324D01*
X137061898Y-78468583D01*
X137059641Y-78469518D01*
X137059463Y-78469089D01*
X136994740Y-78482564D01*
X136930382Y-78458231D01*
X136922331Y-78452204D01*
X136922328Y-78452202D01*
X136787482Y-78401908D01*
X136787483Y-78401908D01*
X136727883Y-78395501D01*
X136727881Y-78395500D01*
X136727873Y-78395500D01*
X136727864Y-78395500D01*
X135632129Y-78395500D01*
X135632123Y-78395501D01*
X135572516Y-78401908D01*
X135437671Y-78452202D01*
X135437664Y-78452206D01*
X135322455Y-78538452D01*
X135322452Y-78538455D01*
X135236206Y-78653664D01*
X135236202Y-78653671D01*
X135185908Y-78788517D01*
X135179501Y-78848116D01*
X135179500Y-78848135D01*
X133545370Y-78848135D01*
X130878700Y-76181465D01*
X130845215Y-76120142D01*
X130843163Y-76107686D01*
X130833368Y-76020745D01*
X130773789Y-75850478D01*
X130677816Y-75697738D01*
X130550262Y-75570184D01*
X130397523Y-75474211D01*
X130227254Y-75414631D01*
X130227249Y-75414630D01*
X130048004Y-75394435D01*
X130047996Y-75394435D01*
X129868750Y-75414630D01*
X129868745Y-75414631D01*
X129698476Y-75474211D01*
X129545737Y-75570184D01*
X129418184Y-75697737D01*
X129322211Y-75850476D01*
X129262631Y-76020745D01*
X129262630Y-76020750D01*
X129242435Y-76199996D01*
X115360500Y-76199996D01*
X115360500Y-73005411D01*
X115360972Y-72994604D01*
X115375103Y-72833081D01*
X115378856Y-72811794D01*
X115419420Y-72660408D01*
X115426806Y-72640117D01*
X115493038Y-72498080D01*
X115503844Y-72479365D01*
X115593738Y-72350983D01*
X115607622Y-72334438D01*
X115718438Y-72223622D01*
X115734983Y-72209738D01*
X115863368Y-72119842D01*
X115882080Y-72109038D01*
X116024117Y-72042806D01*
X116044408Y-72035420D01*
X116195797Y-71994855D01*
X116217078Y-71991103D01*
X116378605Y-71976972D01*
X116389412Y-71976500D01*
X116449892Y-71976500D01*
X148830108Y-71976500D01*
X148890588Y-71976500D01*
X148901395Y-71976972D01*
G37*
%TD.AperFunction*%
%TD*%
M02*
