%TF.GenerationSoftware,KiCad,Pcbnew,8.0.5*%
%TF.CreationDate,2025-01-07T00:48:21+01:00*%
%TF.ProjectId,my_Project3,6d795f50-726f-46a6-9563-74332e6b6963,rev?*%
%TF.SameCoordinates,Original*%
%TF.FileFunction,Soldermask,Top*%
%TF.FilePolarity,Negative*%
%FSLAX46Y46*%
G04 Gerber Fmt 4.6, Leading zero omitted, Abs format (unit mm)*
G04 Created by KiCad (PCBNEW 8.0.5) date 2025-01-07 00:48:21*
%MOMM*%
%LPD*%
G01*
G04 APERTURE LIST*
G04 Aperture macros list*
%AMRoundRect*
0 Rectangle with rounded corners*
0 $1 Rounding radius*
0 $2 $3 $4 $5 $6 $7 $8 $9 X,Y pos of 4 corners*
0 Add a 4 corners polygon primitive as box body*
4,1,4,$2,$3,$4,$5,$6,$7,$8,$9,$2,$3,0*
0 Add four circle primitives for the rounded corners*
1,1,$1+$1,$2,$3*
1,1,$1+$1,$4,$5*
1,1,$1+$1,$6,$7*
1,1,$1+$1,$8,$9*
0 Add four rect primitives between the rounded corners*
20,1,$1+$1,$2,$3,$4,$5,0*
20,1,$1+$1,$4,$5,$6,$7,0*
20,1,$1+$1,$6,$7,$8,$9,0*
20,1,$1+$1,$8,$9,$2,$3,0*%
G04 Aperture macros list end*
%ADD10R,1.000000X1.000000*%
%ADD11O,1.000000X1.000000*%
%ADD12R,1.380000X0.450000*%
%ADD13R,1.300000X1.650000*%
%ADD14R,1.550000X1.425000*%
%ADD15R,1.900000X1.800000*%
%ADD16R,1.900000X1.000000*%
%ADD17RoundRect,0.225000X-0.225000X-0.250000X0.225000X-0.250000X0.225000X0.250000X-0.225000X0.250000X0*%
%ADD18RoundRect,0.250000X-0.312500X-0.625000X0.312500X-0.625000X0.312500X0.625000X-0.312500X0.625000X0*%
%ADD19RoundRect,0.150000X-0.587500X-0.150000X0.587500X-0.150000X0.587500X0.150000X-0.587500X0.150000X0*%
%ADD20RoundRect,0.250000X-0.262500X-0.450000X0.262500X-0.450000X0.262500X0.450000X-0.262500X0.450000X0*%
%ADD21RoundRect,0.140000X0.170000X-0.140000X0.170000X0.140000X-0.170000X0.140000X-0.170000X-0.140000X0*%
%ADD22RoundRect,0.100000X0.100000X-0.637500X0.100000X0.637500X-0.100000X0.637500X-0.100000X-0.637500X0*%
%ADD23RoundRect,0.218750X-0.218750X-0.381250X0.218750X-0.381250X0.218750X0.381250X-0.218750X0.381250X0*%
%ADD24RoundRect,0.375000X-0.625000X-0.375000X0.625000X-0.375000X0.625000X0.375000X-0.625000X0.375000X0*%
%ADD25RoundRect,0.500000X-0.500000X-1.400000X0.500000X-1.400000X0.500000X1.400000X-0.500000X1.400000X0*%
G04 APERTURE END LIST*
D10*
%TO.C,J1*%
X136180000Y-79396000D03*
D11*
X137450000Y-79396000D03*
X138720000Y-79396000D03*
X139990000Y-79396000D03*
%TD*%
D12*
%TO.C,J2*%
X121365000Y-79308500D03*
X121365000Y-79958500D03*
X121365000Y-80608500D03*
X121365000Y-81258500D03*
X121365000Y-81908500D03*
D13*
X118705000Y-77233500D03*
D14*
X121280000Y-78121000D03*
D15*
X118705000Y-79458500D03*
D16*
X118705000Y-82158500D03*
D14*
X121280000Y-83096000D03*
D13*
X118705000Y-83983500D03*
%TD*%
D17*
%TO.C,C4*%
X129880000Y-74596000D03*
X131430000Y-74596000D03*
%TD*%
D18*
%TO.C,R3*%
X136930000Y-86096000D03*
X139855000Y-86096000D03*
%TD*%
D19*
%TO.C,Q1*%
X142305000Y-83546000D03*
X142305000Y-85446000D03*
X144180000Y-84496000D03*
%TD*%
D17*
%TO.C,C5*%
X145915000Y-80036000D03*
X147465000Y-80036000D03*
%TD*%
D20*
%TO.C,R2*%
X146355000Y-85596000D03*
X148180000Y-85596000D03*
%TD*%
D21*
%TO.C,C2*%
X138280000Y-74676000D03*
X138280000Y-73716000D03*
%TD*%
%TO.C,C1*%
X135780000Y-74676000D03*
X135780000Y-73716000D03*
%TD*%
%TO.C,C3*%
X140680000Y-74676000D03*
X140680000Y-73716000D03*
%TD*%
D22*
%TO.C,U1*%
X136463500Y-82242500D03*
X137113500Y-82242500D03*
X137763500Y-82242500D03*
X138413500Y-82242500D03*
X139063500Y-82242500D03*
X139713500Y-82242500D03*
X140363500Y-82242500D03*
X140363500Y-76517500D03*
X139713500Y-76517500D03*
X139063500Y-76517500D03*
X138413500Y-76517500D03*
X137763500Y-76517500D03*
X137113500Y-76517500D03*
X136463500Y-76517500D03*
%TD*%
D20*
%TO.C,R1*%
X146380000Y-83196000D03*
X148205000Y-83196000D03*
%TD*%
D23*
%TO.C,FB1*%
X125055000Y-74896000D03*
X127180000Y-74896000D03*
%TD*%
D24*
%TO.C,U2*%
X125780000Y-79996000D03*
X125780000Y-82296000D03*
D25*
X132080000Y-82296000D03*
D24*
X125780000Y-84596000D03*
%TD*%
M02*
