%TF.GenerationSoftware,KiCad,Pcbnew,8.0.5*%
%TF.CreationDate,2025-01-07T00:48:21+01:00*%
%TF.ProjectId,my_Project3,6d795f50-726f-46a6-9563-74332e6b6963,rev?*%
%TF.SameCoordinates,Original*%
%TF.FileFunction,Copper,L1,Top*%
%TF.FilePolarity,Positive*%
%FSLAX46Y46*%
G04 Gerber Fmt 4.6, Leading zero omitted, Abs format (unit mm)*
G04 Created by KiCad (PCBNEW 8.0.5) date 2025-01-07 00:48:21*
%MOMM*%
%LPD*%
G01*
G04 APERTURE LIST*
G04 Aperture macros list*
%AMRoundRect*
0 Rectangle with rounded corners*
0 $1 Rounding radius*
0 $2 $3 $4 $5 $6 $7 $8 $9 X,Y pos of 4 corners*
0 Add a 4 corners polygon primitive as box body*
4,1,4,$2,$3,$4,$5,$6,$7,$8,$9,$2,$3,0*
0 Add four circle primitives for the rounded corners*
1,1,$1+$1,$2,$3*
1,1,$1+$1,$4,$5*
1,1,$1+$1,$6,$7*
1,1,$1+$1,$8,$9*
0 Add four rect primitives between the rounded corners*
20,1,$1+$1,$2,$3,$4,$5,0*
20,1,$1+$1,$4,$5,$6,$7,0*
20,1,$1+$1,$6,$7,$8,$9,0*
20,1,$1+$1,$8,$9,$2,$3,0*%
G04 Aperture macros list end*
%TA.AperFunction,ComponentPad*%
%ADD10R,1.000000X1.000000*%
%TD*%
%TA.AperFunction,ComponentPad*%
%ADD11O,1.000000X1.000000*%
%TD*%
%TA.AperFunction,SMDPad,CuDef*%
%ADD12R,1.380000X0.450000*%
%TD*%
%TA.AperFunction,SMDPad,CuDef*%
%ADD13R,1.300000X1.650000*%
%TD*%
%TA.AperFunction,SMDPad,CuDef*%
%ADD14R,1.550000X1.425000*%
%TD*%
%TA.AperFunction,SMDPad,CuDef*%
%ADD15R,1.900000X1.800000*%
%TD*%
%TA.AperFunction,SMDPad,CuDef*%
%ADD16R,1.900000X1.000000*%
%TD*%
%TA.AperFunction,SMDPad,CuDef*%
%ADD17RoundRect,0.225000X-0.225000X-0.250000X0.225000X-0.250000X0.225000X0.250000X-0.225000X0.250000X0*%
%TD*%
%TA.AperFunction,SMDPad,CuDef*%
%ADD18RoundRect,0.250000X-0.312500X-0.625000X0.312500X-0.625000X0.312500X0.625000X-0.312500X0.625000X0*%
%TD*%
%TA.AperFunction,SMDPad,CuDef*%
%ADD19RoundRect,0.150000X-0.587500X-0.150000X0.587500X-0.150000X0.587500X0.150000X-0.587500X0.150000X0*%
%TD*%
%TA.AperFunction,SMDPad,CuDef*%
%ADD20RoundRect,0.250000X-0.262500X-0.450000X0.262500X-0.450000X0.262500X0.450000X-0.262500X0.450000X0*%
%TD*%
%TA.AperFunction,SMDPad,CuDef*%
%ADD21RoundRect,0.140000X0.170000X-0.140000X0.170000X0.140000X-0.170000X0.140000X-0.170000X-0.140000X0*%
%TD*%
%TA.AperFunction,SMDPad,CuDef*%
%ADD22RoundRect,0.100000X0.100000X-0.637500X0.100000X0.637500X-0.100000X0.637500X-0.100000X-0.637500X0*%
%TD*%
%TA.AperFunction,SMDPad,CuDef*%
%ADD23RoundRect,0.218750X-0.218750X-0.381250X0.218750X-0.381250X0.218750X0.381250X-0.218750X0.381250X0*%
%TD*%
%TA.AperFunction,SMDPad,CuDef*%
%ADD24RoundRect,0.375000X-0.625000X-0.375000X0.625000X-0.375000X0.625000X0.375000X-0.625000X0.375000X0*%
%TD*%
%TA.AperFunction,SMDPad,CuDef*%
%ADD25RoundRect,0.500000X-0.500000X-1.400000X0.500000X-1.400000X0.500000X1.400000X-0.500000X1.400000X0*%
%TD*%
%TA.AperFunction,ViaPad*%
%ADD26C,0.600000*%
%TD*%
%TA.AperFunction,Conductor*%
%ADD27C,0.200000*%
%TD*%
G04 APERTURE END LIST*
D10*
%TO.P,J1,1,Pin_1*%
%TO.N,SWDCLK*%
X136180000Y-79396000D03*
D11*
%TO.P,J1,2,Pin_2*%
%TO.N,SWDIO*%
X137450000Y-79396000D03*
%TO.P,J1,3,Pin_3*%
%TO.N,+3.3V*%
X138720000Y-79396000D03*
%TO.P,J1,4,Pin_4*%
%TO.N,GND*%
X139990000Y-79396000D03*
%TD*%
D12*
%TO.P,J2,1,VBUS*%
%TO.N,Net-(J2-VBUS)*%
X121365000Y-79308500D03*
%TO.P,J2,2,D-*%
%TO.N,unconnected-(J2-D--Pad2)*%
X121365000Y-79958500D03*
%TO.P,J2,3,D+*%
%TO.N,unconnected-(J2-D+-Pad3)*%
X121365000Y-80608500D03*
%TO.P,J2,4,ID*%
%TO.N,unconnected-(J2-ID-Pad4)*%
X121365000Y-81258500D03*
%TO.P,J2,5,GND*%
%TO.N,GND*%
X121365000Y-81908500D03*
D13*
%TO.P,J2,6,Shield*%
%TO.N,unconnected-(J2-Shield-Pad6)_4*%
X118705000Y-77233500D03*
D14*
%TO.N,unconnected-(J2-Shield-Pad6)_5*%
X121280000Y-78121000D03*
D15*
%TO.N,unconnected-(J2-Shield-Pad6)_2*%
X118705000Y-79458500D03*
D16*
%TO.N,unconnected-(J2-Shield-Pad6)_3*%
X118705000Y-82158500D03*
D14*
%TO.N,unconnected-(J2-Shield-Pad6)_1*%
X121280000Y-83096000D03*
D13*
%TO.N,unconnected-(J2-Shield-Pad6)*%
X118705000Y-83983500D03*
%TD*%
D17*
%TO.P,C4,1*%
%TO.N,+5V*%
X129880000Y-74596000D03*
%TO.P,C4,2*%
%TO.N,GND*%
X131430000Y-74596000D03*
%TD*%
D18*
%TO.P,R3,1*%
%TO.N,PWM*%
X136930000Y-86096000D03*
%TO.P,R3,2*%
%TO.N,Net-(Q1-G)*%
X139855000Y-86096000D03*
%TD*%
D19*
%TO.P,Q1,1,D*%
%TO.N,Net-(Q1-D)*%
X142305000Y-83546000D03*
%TO.P,Q1,2,G*%
%TO.N,Net-(Q1-G)*%
X142305000Y-85446000D03*
%TO.P,Q1,3,S*%
%TO.N,GND*%
X144180000Y-84496000D03*
%TD*%
D17*
%TO.P,C5,1*%
%TO.N,+3.3V*%
X145915000Y-80036000D03*
%TO.P,C5,2*%
%TO.N,GND*%
X147465000Y-80036000D03*
%TD*%
D20*
%TO.P,R2,1*%
%TO.N,+5V*%
X146355000Y-85596000D03*
%TO.P,R2,2*%
%TO.N,Net-(Q1-D)*%
X148180000Y-85596000D03*
%TD*%
D21*
%TO.P,C2,1*%
%TO.N,+3.3V*%
X138280000Y-74676000D03*
%TO.P,C2,2*%
%TO.N,GND*%
X138280000Y-73716000D03*
%TD*%
%TO.P,C1,1*%
%TO.N,+3.3V*%
X135780000Y-74676000D03*
%TO.P,C1,2*%
%TO.N,GND*%
X135780000Y-73716000D03*
%TD*%
%TO.P,C3,1*%
%TO.N,+3.3V*%
X140680000Y-74676000D03*
%TO.P,C3,2*%
%TO.N,GND*%
X140680000Y-73716000D03*
%TD*%
D22*
%TO.P,U1,1,PB9*%
%TO.N,unconnected-(U1-PB9-Pad1)*%
X136463500Y-82242500D03*
%TO.P,U1,2,PC14*%
%TO.N,unconnected-(U1-PC14-Pad2)*%
X137113500Y-82242500D03*
%TO.P,U1,3,PC15*%
%TO.N,unconnected-(U1-PC15-Pad3)*%
X137763500Y-82242500D03*
%TO.P,U1,4,NRST*%
%TO.N,unconnected-(U1-NRST-Pad4)*%
X138413500Y-82242500D03*
%TO.P,U1,5,PA0*%
%TO.N,PWM*%
X139063500Y-82242500D03*
%TO.P,U1,6,PA1*%
%TO.N,unconnected-(U1-PA1-Pad6)*%
X139713500Y-82242500D03*
%TO.P,U1,7,PA4*%
%TO.N,unconnected-(U1-PA4-Pad7)*%
X140363500Y-82242500D03*
%TO.P,U1,8,PA7*%
%TO.N,unconnected-(U1-PA7-Pad8)*%
X140363500Y-76517500D03*
%TO.P,U1,9,VSS*%
%TO.N,GND*%
X139713500Y-76517500D03*
%TO.P,U1,10,VDD*%
%TO.N,+3.3V*%
X139063500Y-76517500D03*
%TO.P,U1,11,PA9*%
%TO.N,unconnected-(U1-PA9-Pad11)*%
X138413500Y-76517500D03*
%TO.P,U1,12,PA10*%
%TO.N,unconnected-(U1-PA10-Pad12)*%
X137763500Y-76517500D03*
%TO.P,U1,13,PA13*%
%TO.N,SWDIO*%
X137113500Y-76517500D03*
%TO.P,U1,14,PA14*%
%TO.N,SWDCLK*%
X136463500Y-76517500D03*
%TD*%
D20*
%TO.P,R1,1*%
%TO.N,+5V*%
X146380000Y-83196000D03*
%TO.P,R1,2*%
%TO.N,Net-(Q1-D)*%
X148205000Y-83196000D03*
%TD*%
D23*
%TO.P,FB1,1*%
%TO.N,Net-(J2-VBUS)*%
X125055000Y-74896000D03*
%TO.P,FB1,2*%
%TO.N,+5V*%
X127180000Y-74896000D03*
%TD*%
D24*
%TO.P,U2,1,GND*%
%TO.N,GND*%
X125780000Y-79996000D03*
%TO.P,U2,2,VO*%
%TO.N,+3.3V*%
X125780000Y-82296000D03*
D25*
X132080000Y-82296000D03*
D24*
%TO.P,U2,3,VI*%
%TO.N,+5V*%
X125780000Y-84596000D03*
%TD*%
D26*
%TO.N,GND*%
X122844000Y-81788000D03*
X124044000Y-80264000D03*
%TO.N,+5V*%
X144272000Y-83312000D03*
X130048000Y-76200000D03*
%TD*%
D27*
%TO.N,GND*%
X125512000Y-80264000D02*
X125780000Y-79996000D01*
X124044000Y-80264000D02*
X125512000Y-80264000D01*
X122723500Y-81908500D02*
X122844000Y-81788000D01*
X121365000Y-81908500D02*
X122723500Y-81908500D01*
%TO.N,PWM*%
X139063500Y-83962500D02*
X136930000Y-86096000D01*
X139063500Y-82242500D02*
X139063500Y-83962500D01*
%TO.N,GND*%
X139713500Y-79119500D02*
X139990000Y-79396000D01*
X139713500Y-76517500D02*
X139713500Y-79119500D01*
%TO.N,Net-(J2-VBUS)*%
X122936000Y-78740000D02*
X122367500Y-79308500D01*
X122936000Y-77724000D02*
X122936000Y-78740000D01*
X125055000Y-75605000D02*
X122936000Y-77724000D01*
X125055000Y-74896000D02*
X125055000Y-75605000D01*
X122367500Y-79308500D02*
X121365000Y-79308500D01*
%TO.N,+3.3V*%
X132080000Y-82296000D02*
X125780000Y-82296000D01*
X136911000Y-81205000D02*
X133171000Y-81205000D01*
X133171000Y-81205000D02*
X132080000Y-82296000D01*
X138720000Y-79396000D02*
X136911000Y-81205000D01*
%TO.N,SWDIO*%
X137113500Y-79059500D02*
X137450000Y-79396000D01*
X137113500Y-76517500D02*
X137113500Y-79059500D01*
%TO.N,SWDCLK*%
X136463500Y-76517500D02*
X136463500Y-79112500D01*
X136463500Y-79112500D02*
X136180000Y-79396000D01*
%TO.N,+3.3V*%
X138280000Y-74676000D02*
X135780000Y-74676000D01*
X140167501Y-74676000D02*
X140680000Y-74676000D01*
X139063500Y-75780001D02*
X140167501Y-74676000D01*
X139063500Y-76517500D02*
X139063500Y-75780001D01*
X139063500Y-75459500D02*
X138280000Y-74676000D01*
X139063500Y-76517500D02*
X139063500Y-75459500D01*
X138720000Y-79284000D02*
X139063500Y-78940500D01*
X138720000Y-79396000D02*
X138720000Y-79284000D01*
X139063500Y-78940500D02*
X139063500Y-76517500D01*
X139520000Y-80196000D02*
X138720000Y-79396000D01*
X145755000Y-80196000D02*
X139520000Y-80196000D01*
X145915000Y-80036000D02*
X145755000Y-80196000D01*
%TO.N,Net-(Q1-G)*%
X140505000Y-85446000D02*
X139855000Y-86096000D01*
X142305000Y-85446000D02*
X140505000Y-85446000D01*
%TO.N,Net-(Q1-D)*%
X143655000Y-82196000D02*
X142305000Y-83546000D01*
X147205000Y-82196000D02*
X143655000Y-82196000D01*
X148205000Y-83196000D02*
X147205000Y-82196000D01*
X148180000Y-83221000D02*
X148205000Y-83196000D01*
X148180000Y-85596000D02*
X148180000Y-83221000D01*
%TO.N,+5V*%
X146355000Y-83769000D02*
X146355000Y-85596000D01*
X146380000Y-83744000D02*
X146355000Y-83769000D01*
X146380000Y-83196000D02*
X146380000Y-83744000D01*
X144388000Y-83196000D02*
X146380000Y-83196000D01*
X144272000Y-83312000D02*
X144388000Y-83196000D01*
X129880000Y-76032000D02*
X130048000Y-76200000D01*
X129880000Y-74596000D02*
X129880000Y-76032000D01*
X124728000Y-84596000D02*
X125780000Y-84596000D01*
X123444000Y-83312000D02*
X124728000Y-84596000D01*
X123444000Y-78232000D02*
X123444000Y-83312000D01*
X126780000Y-74896000D02*
X123444000Y-78232000D01*
X127180000Y-74896000D02*
X126780000Y-74896000D01*
X129580000Y-74896000D02*
X129880000Y-74596000D01*
X127180000Y-74896000D02*
X129580000Y-74896000D01*
%TD*%
%TA.AperFunction,Conductor*%
%TO.N,GND*%
G36*
X124249703Y-80449912D02*
G01*
X124287477Y-80508690D01*
X124288835Y-80513698D01*
X124328831Y-80674523D01*
X124413390Y-80845022D01*
X124413392Y-80845025D01*
X124532630Y-80993364D01*
X124601884Y-81049031D01*
X124641803Y-81106375D01*
X124644383Y-81176197D01*
X124608805Y-81236329D01*
X124601885Y-81242326D01*
X124533610Y-81297208D01*
X124532276Y-81298280D01*
X124412969Y-81446704D01*
X124412967Y-81446707D01*
X124328360Y-81617302D01*
X124323079Y-81638539D01*
X124299541Y-81733188D01*
X124288835Y-81776236D01*
X124253552Y-81836543D01*
X124191267Y-81868201D01*
X124121753Y-81861160D01*
X124067081Y-81817654D01*
X124044609Y-81751497D01*
X124044500Y-81746309D01*
X124044500Y-80543625D01*
X124064185Y-80476586D01*
X124116989Y-80430831D01*
X124186147Y-80420887D01*
X124249703Y-80449912D01*
G37*
%TD.AperFunction*%
%TA.AperFunction,Conductor*%
G36*
X148901395Y-71976972D02*
G01*
X149062919Y-71991103D01*
X149084204Y-71994855D01*
X149235587Y-72035419D01*
X149255885Y-72042807D01*
X149375564Y-72098614D01*
X149397915Y-72109037D01*
X149416634Y-72119844D01*
X149545010Y-72209734D01*
X149561567Y-72223628D01*
X149672371Y-72334432D01*
X149686265Y-72350989D01*
X149776155Y-72479365D01*
X149786962Y-72498084D01*
X149853189Y-72640107D01*
X149860582Y-72660418D01*
X149901143Y-72811794D01*
X149904896Y-72833080D01*
X149916119Y-72961357D01*
X149918097Y-72983968D01*
X149919028Y-72994603D01*
X149919500Y-73005411D01*
X149919500Y-86710588D01*
X149919028Y-86721396D01*
X149904896Y-86882919D01*
X149901143Y-86904205D01*
X149860582Y-87055581D01*
X149853189Y-87075892D01*
X149786962Y-87217915D01*
X149776155Y-87236634D01*
X149686265Y-87365010D01*
X149672371Y-87381567D01*
X149561567Y-87492371D01*
X149545010Y-87506265D01*
X149416634Y-87596155D01*
X149397915Y-87606962D01*
X149255892Y-87673189D01*
X149235581Y-87680582D01*
X149084205Y-87721143D01*
X149062919Y-87724896D01*
X148917332Y-87737633D01*
X148901394Y-87739028D01*
X148890588Y-87739500D01*
X116389412Y-87739500D01*
X116378605Y-87739028D01*
X116360754Y-87737466D01*
X116217080Y-87724896D01*
X116195794Y-87721143D01*
X116044418Y-87680582D01*
X116024107Y-87673189D01*
X115882084Y-87606962D01*
X115863365Y-87596155D01*
X115734989Y-87506265D01*
X115718432Y-87492371D01*
X115607628Y-87381567D01*
X115593734Y-87365010D01*
X115503844Y-87236634D01*
X115493037Y-87217915D01*
X115479860Y-87189657D01*
X115426807Y-87075885D01*
X115419419Y-87055587D01*
X115378855Y-86904204D01*
X115375103Y-86882918D01*
X115367542Y-86796498D01*
X115360972Y-86721395D01*
X115360500Y-86710588D01*
X115360500Y-78510635D01*
X117254500Y-78510635D01*
X117254500Y-80406370D01*
X117254501Y-80406376D01*
X117260908Y-80465983D01*
X117311202Y-80600828D01*
X117311206Y-80600835D01*
X117397452Y-80716044D01*
X117397455Y-80716047D01*
X117512664Y-80802293D01*
X117512671Y-80802297D01*
X117647517Y-80852591D01*
X117647516Y-80852591D01*
X117654444Y-80853335D01*
X117707127Y-80859000D01*
X119702872Y-80858999D01*
X119762483Y-80852591D01*
X119897331Y-80802296D01*
X119976192Y-80743260D01*
X120041652Y-80718844D01*
X120109925Y-80733695D01*
X120159331Y-80783099D01*
X120174500Y-80842525D01*
X120174500Y-80881367D01*
X120174501Y-80881378D01*
X120178679Y-80920245D01*
X120178679Y-80946750D01*
X120174500Y-80985622D01*
X120174500Y-81174470D01*
X120154815Y-81241509D01*
X120102011Y-81287264D01*
X120032853Y-81297208D01*
X119976189Y-81273737D01*
X119964238Y-81264791D01*
X119897331Y-81214704D01*
X119897329Y-81214703D01*
X119897328Y-81214702D01*
X119762482Y-81164408D01*
X119762483Y-81164408D01*
X119702883Y-81158001D01*
X119702881Y-81158000D01*
X119702873Y-81158000D01*
X119702864Y-81158000D01*
X117707129Y-81158000D01*
X117707123Y-81158001D01*
X117647516Y-81164408D01*
X117512671Y-81214702D01*
X117512664Y-81214706D01*
X117397455Y-81300952D01*
X117397452Y-81300955D01*
X117311206Y-81416164D01*
X117311202Y-81416171D01*
X117260908Y-81551017D01*
X117254501Y-81610616D01*
X117254500Y-81610635D01*
X117254500Y-82706370D01*
X117254501Y-82706376D01*
X117260908Y-82765983D01*
X117311202Y-82900828D01*
X117311206Y-82900835D01*
X117361989Y-82968671D01*
X117397454Y-83016046D01*
X117504811Y-83096414D01*
X117546682Y-83152347D01*
X117554500Y-83195680D01*
X117554500Y-84856370D01*
X117554501Y-84856376D01*
X117560908Y-84915983D01*
X117611202Y-85050828D01*
X117611206Y-85050835D01*
X117697452Y-85166044D01*
X117697455Y-85166047D01*
X117812664Y-85252293D01*
X117812671Y-85252297D01*
X117947517Y-85302591D01*
X117947516Y-85302591D01*
X117954444Y-85303335D01*
X118007127Y-85309000D01*
X119402872Y-85308999D01*
X119462483Y-85302591D01*
X119597331Y-85252296D01*
X119712546Y-85166046D01*
X119798796Y-85050831D01*
X119849091Y-84915983D01*
X119855500Y-84856373D01*
X119855499Y-84148599D01*
X119875183Y-84081563D01*
X119927987Y-84035808D01*
X119997146Y-84025864D01*
X120060702Y-84054889D01*
X120078765Y-84074290D01*
X120096417Y-84097870D01*
X120134395Y-84148602D01*
X120147455Y-84166047D01*
X120262664Y-84252293D01*
X120262671Y-84252297D01*
X120397517Y-84302591D01*
X120397516Y-84302591D01*
X120404444Y-84303335D01*
X120457127Y-84309000D01*
X122102872Y-84308999D01*
X122162483Y-84302591D01*
X122297331Y-84252296D01*
X122412546Y-84166046D01*
X122498796Y-84050831D01*
X122549091Y-83915983D01*
X122555500Y-83856373D01*
X122555499Y-82335628D01*
X122549091Y-82276017D01*
X122549090Y-82276016D01*
X122548380Y-82269404D01*
X122548381Y-82242893D01*
X122554999Y-82181342D01*
X122555000Y-82181327D01*
X122555000Y-82133500D01*
X122554948Y-82133448D01*
X122488085Y-82113815D01*
X122455859Y-82083813D01*
X122412546Y-82025954D01*
X122412544Y-82025952D01*
X122412543Y-82025951D01*
X122407773Y-82021181D01*
X122374288Y-81959858D01*
X122379272Y-81890166D01*
X122407773Y-81845819D01*
X122412542Y-81841048D01*
X122412546Y-81841046D01*
X122471812Y-81761876D01*
X122493289Y-81733188D01*
X122541105Y-81697394D01*
X122555000Y-81683500D01*
X122555000Y-81635682D01*
X122554999Y-81635664D01*
X122551068Y-81599102D01*
X122551068Y-81572594D01*
X122555500Y-81531373D01*
X122555499Y-80985628D01*
X122555499Y-80985627D01*
X122555498Y-80985611D01*
X122551320Y-80946753D01*
X122551320Y-80920245D01*
X122555500Y-80881373D01*
X122555499Y-80335628D01*
X122555499Y-80335627D01*
X122555498Y-80335611D01*
X122551320Y-80296753D01*
X122551320Y-80270247D01*
X122555500Y-80231373D01*
X122555499Y-79964947D01*
X122575183Y-79897909D01*
X122617496Y-79857562D01*
X122657501Y-79834465D01*
X122725399Y-79817993D01*
X122791426Y-79840845D01*
X122834617Y-79895766D01*
X122843500Y-79941853D01*
X122843500Y-83225330D01*
X122843499Y-83225348D01*
X122843499Y-83391054D01*
X122843498Y-83391054D01*
X122843499Y-83391057D01*
X122884423Y-83543785D01*
X122885990Y-83546499D01*
X122885991Y-83546500D01*
X122885991Y-83546501D01*
X122963477Y-83680712D01*
X122963481Y-83680717D01*
X123082349Y-83799585D01*
X123082355Y-83799590D01*
X124243139Y-84960374D01*
X124243160Y-84960397D01*
X124243181Y-84960418D01*
X124243183Y-84960422D01*
X124250717Y-84968672D01*
X124250727Y-84968684D01*
X124248642Y-84970420D01*
X124276666Y-85021741D01*
X124279180Y-85045033D01*
X124279430Y-85045025D01*
X124279501Y-85047126D01*
X124282399Y-85089886D01*
X124282399Y-85089887D01*
X124308150Y-85193431D01*
X124321542Y-85247283D01*
X124328360Y-85274696D01*
X124412967Y-85445292D01*
X124412969Y-85445295D01*
X124532277Y-85593721D01*
X124532278Y-85593722D01*
X124680704Y-85713030D01*
X124680707Y-85713032D01*
X124851302Y-85797639D01*
X124851303Y-85797639D01*
X124851307Y-85797641D01*
X125036111Y-85843600D01*
X125078877Y-85846500D01*
X126481122Y-85846499D01*
X126523889Y-85843600D01*
X126708693Y-85797641D01*
X126879296Y-85713030D01*
X127027722Y-85593722D01*
X127147030Y-85445296D01*
X127231641Y-85274693D01*
X127277600Y-85089889D01*
X127280500Y-85047123D01*
X127280499Y-84144878D01*
X127277600Y-84102111D01*
X127231641Y-83917307D01*
X127173259Y-83799590D01*
X127147032Y-83746707D01*
X127147030Y-83746704D01*
X127027722Y-83598278D01*
X127027721Y-83598277D01*
X126958514Y-83542647D01*
X126918595Y-83485304D01*
X126916015Y-83415482D01*
X126951594Y-83355349D01*
X126958514Y-83349353D01*
X126986443Y-83326903D01*
X127027722Y-83293722D01*
X127147030Y-83145296D01*
X127171274Y-83096413D01*
X127234628Y-82968671D01*
X127236535Y-82969617D01*
X127272131Y-82921590D01*
X127337478Y-82896860D01*
X127346916Y-82896500D01*
X130455501Y-82896500D01*
X130522540Y-82916185D01*
X130568295Y-82968989D01*
X130579501Y-83020500D01*
X130579501Y-83754036D01*
X130581571Y-83777330D01*
X130590113Y-83873415D01*
X130646089Y-84069045D01*
X130646090Y-84069048D01*
X130646091Y-84069049D01*
X130740302Y-84249407D01*
X130751604Y-84263268D01*
X130868890Y-84407109D01*
X130930444Y-84457299D01*
X131026593Y-84535698D01*
X131206951Y-84629909D01*
X131402582Y-84685886D01*
X131521963Y-84696500D01*
X132638036Y-84696499D01*
X132757418Y-84685886D01*
X132953049Y-84629909D01*
X133133407Y-84535698D01*
X133291109Y-84407109D01*
X133419698Y-84249407D01*
X133513909Y-84069049D01*
X133569886Y-83873418D01*
X133580500Y-83754037D01*
X133580499Y-81929499D01*
X133600184Y-81862461D01*
X133652987Y-81816706D01*
X133704499Y-81805500D01*
X135639000Y-81805500D01*
X135706039Y-81825185D01*
X135751794Y-81877989D01*
X135763000Y-81929500D01*
X135763000Y-82919363D01*
X135778453Y-83036753D01*
X135778456Y-83036762D01*
X135838964Y-83182841D01*
X135935218Y-83308282D01*
X136060659Y-83404536D01*
X136206738Y-83465044D01*
X136324139Y-83480500D01*
X136602860Y-83480499D01*
X136602861Y-83480499D01*
X136615094Y-83478888D01*
X136720262Y-83465044D01*
X136741045Y-83456434D01*
X136810514Y-83448965D01*
X136835953Y-83456434D01*
X136856738Y-83465044D01*
X136974139Y-83480500D01*
X137252860Y-83480499D01*
X137252861Y-83480499D01*
X137265094Y-83478888D01*
X137370262Y-83465044D01*
X137391045Y-83456434D01*
X137460514Y-83448965D01*
X137485953Y-83456434D01*
X137506738Y-83465044D01*
X137624139Y-83480500D01*
X137902860Y-83480499D01*
X137902861Y-83480499D01*
X137915094Y-83478888D01*
X138020262Y-83465044D01*
X138041045Y-83456434D01*
X138110514Y-83448965D01*
X138135953Y-83456434D01*
X138156738Y-83465044D01*
X138274139Y-83480500D01*
X138339000Y-83480499D01*
X138406038Y-83500183D01*
X138451794Y-83552986D01*
X138463000Y-83604499D01*
X138463000Y-83662401D01*
X138443315Y-83729440D01*
X138426681Y-83750082D01*
X137482749Y-84694013D01*
X137421426Y-84727498D01*
X137382465Y-84729690D01*
X137292510Y-84720500D01*
X136567498Y-84720500D01*
X136567480Y-84720501D01*
X136464703Y-84731000D01*
X136464700Y-84731001D01*
X136298168Y-84786185D01*
X136298163Y-84786187D01*
X136148842Y-84878289D01*
X136024789Y-85002342D01*
X135932687Y-85151663D01*
X135932685Y-85151668D01*
X135918846Y-85193431D01*
X135877501Y-85318203D01*
X135877501Y-85318204D01*
X135877500Y-85318204D01*
X135867000Y-85420983D01*
X135867000Y-86771001D01*
X135867001Y-86771018D01*
X135877500Y-86873796D01*
X135877501Y-86873799D01*
X135932685Y-87040331D01*
X135932687Y-87040336D01*
X135954618Y-87075892D01*
X136024788Y-87189656D01*
X136148844Y-87313712D01*
X136298166Y-87405814D01*
X136464703Y-87460999D01*
X136567491Y-87471500D01*
X137292508Y-87471499D01*
X137292516Y-87471498D01*
X137292519Y-87471498D01*
X137348802Y-87465748D01*
X137395297Y-87460999D01*
X137561834Y-87405814D01*
X137711156Y-87313712D01*
X137835212Y-87189656D01*
X137927314Y-87040334D01*
X137982499Y-86873797D01*
X137993000Y-86771009D01*
X137992999Y-85933595D01*
X138012683Y-85866557D01*
X138029313Y-85845920D01*
X138583969Y-85291265D01*
X138645291Y-85257781D01*
X138714983Y-85262765D01*
X138770916Y-85304637D01*
X138795333Y-85370101D01*
X138795007Y-85391547D01*
X138792001Y-85420976D01*
X138792000Y-85420996D01*
X138792000Y-86771001D01*
X138792001Y-86771018D01*
X138802500Y-86873796D01*
X138802501Y-86873799D01*
X138857685Y-87040331D01*
X138857687Y-87040336D01*
X138879618Y-87075892D01*
X138949788Y-87189656D01*
X139073844Y-87313712D01*
X139223166Y-87405814D01*
X139389703Y-87460999D01*
X139492491Y-87471500D01*
X140217508Y-87471499D01*
X140217516Y-87471498D01*
X140217519Y-87471498D01*
X140273802Y-87465748D01*
X140320297Y-87460999D01*
X140486834Y-87405814D01*
X140636156Y-87313712D01*
X140760212Y-87189656D01*
X140852314Y-87040334D01*
X140907499Y-86873797D01*
X140918000Y-86771009D01*
X140917999Y-86170499D01*
X140937683Y-86103461D01*
X140990487Y-86057706D01*
X141041999Y-86046500D01*
X141196692Y-86046500D01*
X141263731Y-86066185D01*
X141284374Y-86082820D01*
X141315629Y-86114076D01*
X141315633Y-86114079D01*
X141315635Y-86114081D01*
X141457102Y-86197744D01*
X141498724Y-86209836D01*
X141614926Y-86243597D01*
X141614929Y-86243597D01*
X141614931Y-86243598D01*
X141651806Y-86246500D01*
X141651814Y-86246500D01*
X142958186Y-86246500D01*
X142958194Y-86246500D01*
X142995069Y-86243598D01*
X142995071Y-86243597D01*
X142995073Y-86243597D01*
X143036691Y-86231505D01*
X143152898Y-86197744D01*
X143294365Y-86114081D01*
X143410581Y-85997865D01*
X143494244Y-85856398D01*
X143540098Y-85698569D01*
X143543000Y-85661694D01*
X143543000Y-85420000D01*
X143562685Y-85352961D01*
X143615489Y-85307206D01*
X143667000Y-85296000D01*
X143930000Y-85296000D01*
X143930000Y-84746000D01*
X143274315Y-84746000D01*
X143211194Y-84728732D01*
X143156692Y-84696500D01*
X143152898Y-84694256D01*
X143152897Y-84694255D01*
X143152896Y-84694255D01*
X143152893Y-84694254D01*
X142995073Y-84648402D01*
X142995067Y-84648401D01*
X142958201Y-84645500D01*
X142958194Y-84645500D01*
X141651806Y-84645500D01*
X141651798Y-84645500D01*
X141614932Y-84648401D01*
X141614926Y-84648402D01*
X141457106Y-84694254D01*
X141457103Y-84694255D01*
X141315637Y-84777917D01*
X141315629Y-84777923D01*
X141284374Y-84809180D01*
X141223052Y-84842666D01*
X141196692Y-84845500D01*
X140618164Y-84845500D01*
X140553068Y-84827039D01*
X140486840Y-84786189D01*
X140486835Y-84786187D01*
X140486834Y-84786186D01*
X140320297Y-84731001D01*
X140320295Y-84731000D01*
X140217510Y-84720500D01*
X139492498Y-84720500D01*
X139492475Y-84720502D01*
X139463046Y-84723508D01*
X139394354Y-84710737D01*
X139343470Y-84662856D01*
X139326551Y-84595065D01*
X139348968Y-84528889D01*
X139362761Y-84512473D01*
X139544020Y-84331216D01*
X139623077Y-84194284D01*
X139664001Y-84041557D01*
X139664001Y-83883442D01*
X139664001Y-83875847D01*
X139664000Y-83875829D01*
X139664000Y-83604499D01*
X139683685Y-83537460D01*
X139736489Y-83491705D01*
X139788000Y-83480499D01*
X139852862Y-83480499D01*
X139875020Y-83477581D01*
X139970262Y-83465044D01*
X139991045Y-83456434D01*
X140060514Y-83448965D01*
X140085953Y-83456434D01*
X140106738Y-83465044D01*
X140224139Y-83480500D01*
X140502860Y-83480499D01*
X140502863Y-83480499D01*
X140620253Y-83465046D01*
X140620257Y-83465044D01*
X140620262Y-83465044D01*
X140766341Y-83404536D01*
X140867516Y-83326901D01*
X140932682Y-83301709D01*
X141001127Y-83315747D01*
X141051117Y-83364561D01*
X141067000Y-83425279D01*
X141067000Y-83761701D01*
X141069901Y-83798567D01*
X141069902Y-83798573D01*
X141115754Y-83956393D01*
X141115755Y-83956396D01*
X141199417Y-84097862D01*
X141199423Y-84097870D01*
X141315629Y-84214076D01*
X141315633Y-84214079D01*
X141315635Y-84214081D01*
X141457102Y-84297744D01*
X141478222Y-84303880D01*
X141614926Y-84343597D01*
X141614929Y-84343597D01*
X141614931Y-84343598D01*
X141651806Y-84346500D01*
X141651814Y-84346500D01*
X142958186Y-84346500D01*
X142958194Y-84346500D01*
X142995069Y-84343598D01*
X142995071Y-84343597D01*
X142995073Y-84343597D01*
X143061647Y-84324255D01*
X143152898Y-84297744D01*
X143211194Y-84263268D01*
X143274315Y-84246000D01*
X145414794Y-84246000D01*
X145443178Y-84215294D01*
X145503139Y-84179427D01*
X145572973Y-84181671D01*
X145621916Y-84211784D01*
X145648844Y-84238712D01*
X145695596Y-84267548D01*
X145742320Y-84319494D01*
X145754500Y-84373087D01*
X145754500Y-84403491D01*
X145734815Y-84470530D01*
X145695598Y-84509029D01*
X145623844Y-84553287D01*
X145499787Y-84677344D01*
X145493773Y-84687096D01*
X145441826Y-84733821D01*
X145388234Y-84746000D01*
X144430000Y-84746000D01*
X144430000Y-85296000D01*
X144833134Y-85296000D01*
X144833149Y-85295999D01*
X144869989Y-85293100D01*
X144869995Y-85293099D01*
X145027693Y-85247283D01*
X145027696Y-85247282D01*
X145154879Y-85172067D01*
X145222603Y-85154884D01*
X145288865Y-85177044D01*
X145332629Y-85231510D01*
X145342000Y-85278799D01*
X145342000Y-86096001D01*
X145342001Y-86096019D01*
X145352500Y-86198796D01*
X145352501Y-86198799D01*
X145368308Y-86246500D01*
X145407686Y-86365334D01*
X145499788Y-86514656D01*
X145623844Y-86638712D01*
X145773166Y-86730814D01*
X145939703Y-86785999D01*
X146042491Y-86796500D01*
X146667508Y-86796499D01*
X146667516Y-86796498D01*
X146667519Y-86796498D01*
X146723802Y-86790748D01*
X146770297Y-86785999D01*
X146936834Y-86730814D01*
X147086156Y-86638712D01*
X147179819Y-86545049D01*
X147241142Y-86511564D01*
X147310834Y-86516548D01*
X147355181Y-86545049D01*
X147448844Y-86638712D01*
X147598166Y-86730814D01*
X147764703Y-86785999D01*
X147867491Y-86796500D01*
X148492508Y-86796499D01*
X148492516Y-86796498D01*
X148492519Y-86796498D01*
X148548802Y-86790748D01*
X148595297Y-86785999D01*
X148761834Y-86730814D01*
X148911156Y-86638712D01*
X149035212Y-86514656D01*
X149127314Y-86365334D01*
X149182499Y-86198797D01*
X149193000Y-86096009D01*
X149192999Y-85095992D01*
X149192375Y-85089887D01*
X149182499Y-84993203D01*
X149182498Y-84993200D01*
X149171628Y-84960397D01*
X149127314Y-84826666D01*
X149035212Y-84677344D01*
X148911156Y-84553288D01*
X148911152Y-84553285D01*
X148839756Y-84509247D01*
X148793031Y-84457299D01*
X148781810Y-84388337D01*
X148809653Y-84324255D01*
X148839752Y-84298173D01*
X148936156Y-84238712D01*
X149060212Y-84114656D01*
X149152314Y-83965334D01*
X149207499Y-83798797D01*
X149218000Y-83696009D01*
X149217999Y-82695992D01*
X149207499Y-82593203D01*
X149152314Y-82426666D01*
X149060212Y-82277344D01*
X148936156Y-82153288D01*
X148786834Y-82061186D01*
X148620297Y-82006001D01*
X148620295Y-82006000D01*
X148517516Y-81995500D01*
X147905097Y-81995500D01*
X147838058Y-81975815D01*
X147817416Y-81959181D01*
X147692590Y-81834355D01*
X147692588Y-81834352D01*
X147573717Y-81715481D01*
X147573716Y-81715480D01*
X147486904Y-81665360D01*
X147486904Y-81665359D01*
X147486900Y-81665358D01*
X147436785Y-81636423D01*
X147284057Y-81595499D01*
X147125943Y-81595499D01*
X147118347Y-81595499D01*
X147118331Y-81595500D01*
X143734057Y-81595500D01*
X143575942Y-81595500D01*
X143423215Y-81636423D01*
X143423214Y-81636423D01*
X143423212Y-81636424D01*
X143423209Y-81636425D01*
X143373096Y-81665359D01*
X143373095Y-81665360D01*
X143340300Y-81684294D01*
X143286285Y-81715479D01*
X143286282Y-81715481D01*
X143225528Y-81776236D01*
X143174480Y-81827284D01*
X143174478Y-81827286D01*
X142724421Y-82277344D01*
X142292584Y-82709181D01*
X142231261Y-82742666D01*
X142204903Y-82745500D01*
X141651798Y-82745500D01*
X141614932Y-82748401D01*
X141614926Y-82748402D01*
X141457106Y-82794254D01*
X141457103Y-82794255D01*
X141315637Y-82877917D01*
X141315628Y-82877924D01*
X141275679Y-82917873D01*
X141214356Y-82951358D01*
X141144664Y-82946372D01*
X141088731Y-82904500D01*
X141064315Y-82839036D01*
X141063999Y-82830217D01*
X141063999Y-81565640D01*
X141063999Y-81565636D01*
X141048546Y-81448246D01*
X141048544Y-81448241D01*
X141048544Y-81448238D01*
X140988036Y-81302159D01*
X140891782Y-81176718D01*
X140766341Y-81080464D01*
X140656727Y-81035060D01*
X140602325Y-80991220D01*
X140580260Y-80924926D01*
X140597539Y-80857227D01*
X140648676Y-80809616D01*
X140704181Y-80796500D01*
X145123126Y-80796500D01*
X145190165Y-80816185D01*
X145210807Y-80832819D01*
X145236955Y-80858967D01*
X145236959Y-80858970D01*
X145381294Y-80947998D01*
X145381297Y-80947999D01*
X145381303Y-80948003D01*
X145542292Y-81001349D01*
X145641655Y-81011500D01*
X146188344Y-81011499D01*
X146188352Y-81011498D01*
X146188355Y-81011498D01*
X146266631Y-81003502D01*
X146287708Y-81001349D01*
X146448697Y-80948003D01*
X146593044Y-80858968D01*
X146602668Y-80849343D01*
X146663987Y-80815856D01*
X146733679Y-80820835D01*
X146778034Y-80849339D01*
X146787267Y-80858572D01*
X146787271Y-80858575D01*
X146931507Y-80947542D01*
X146931518Y-80947547D01*
X147092393Y-81000855D01*
X147191683Y-81010999D01*
X147715000Y-81010999D01*
X147738308Y-81010999D01*
X147738322Y-81010998D01*
X147837607Y-81000855D01*
X147998481Y-80947547D01*
X147998492Y-80947542D01*
X148142728Y-80858575D01*
X148142732Y-80858572D01*
X148262572Y-80738732D01*
X148262575Y-80738728D01*
X148351542Y-80594492D01*
X148351547Y-80594481D01*
X148404855Y-80433606D01*
X148414999Y-80334322D01*
X148415000Y-80334309D01*
X148415000Y-80286000D01*
X147715000Y-80286000D01*
X147715000Y-81010999D01*
X147191683Y-81010999D01*
X147215000Y-81010998D01*
X147215000Y-79786000D01*
X147715000Y-79786000D01*
X148414999Y-79786000D01*
X148414999Y-79737692D01*
X148414998Y-79737677D01*
X148404855Y-79638392D01*
X148351547Y-79477518D01*
X148351542Y-79477507D01*
X148262575Y-79333271D01*
X148262572Y-79333267D01*
X148142732Y-79213427D01*
X148142728Y-79213424D01*
X147998492Y-79124457D01*
X147998481Y-79124452D01*
X147837606Y-79071144D01*
X147738322Y-79061000D01*
X147715000Y-79061000D01*
X147715000Y-79786000D01*
X147215000Y-79786000D01*
X147215000Y-79060999D01*
X147191693Y-79061000D01*
X147191674Y-79061001D01*
X147092392Y-79071144D01*
X146931518Y-79124452D01*
X146931507Y-79124457D01*
X146787271Y-79213424D01*
X146787265Y-79213428D01*
X146778031Y-79222663D01*
X146716707Y-79256146D01*
X146647015Y-79251159D01*
X146602672Y-79222660D01*
X146593044Y-79213032D01*
X146593040Y-79213029D01*
X146448705Y-79124001D01*
X146448699Y-79123998D01*
X146448697Y-79123997D01*
X146448694Y-79123996D01*
X146287709Y-79070651D01*
X146188346Y-79060500D01*
X145641662Y-79060500D01*
X145641644Y-79060501D01*
X145542292Y-79070650D01*
X145542289Y-79070651D01*
X145381305Y-79123996D01*
X145381294Y-79124001D01*
X145236959Y-79213029D01*
X145236955Y-79213032D01*
X145117032Y-79332955D01*
X145117029Y-79332959D01*
X145028001Y-79477294D01*
X145027995Y-79477307D01*
X145016996Y-79510503D01*
X144977224Y-79567948D01*
X144912708Y-79594772D01*
X144899290Y-79595500D01*
X140250095Y-79595500D01*
X140292851Y-79521445D01*
X140315000Y-79438787D01*
X140315000Y-79353213D01*
X140292851Y-79270555D01*
X140250064Y-79196446D01*
X140199618Y-79146000D01*
X140240000Y-79146000D01*
X140959160Y-79146000D01*
X140959160Y-79145999D01*
X140918347Y-79011458D01*
X140825496Y-78837746D01*
X140825492Y-78837739D01*
X140700528Y-78685471D01*
X140548260Y-78560507D01*
X140548253Y-78560503D01*
X140374541Y-78467652D01*
X140240000Y-78426839D01*
X140240000Y-79146000D01*
X140199618Y-79146000D01*
X140189554Y-79135936D01*
X140115445Y-79093149D01*
X140032787Y-79071000D01*
X139947213Y-79071000D01*
X139864555Y-79093149D01*
X139790446Y-79135936D01*
X139740000Y-79186382D01*
X139740000Y-78426838D01*
X139714133Y-78407654D01*
X139672013Y-78351908D01*
X139664000Y-78308057D01*
X139664000Y-77703348D01*
X139683685Y-77636309D01*
X139736489Y-77590554D01*
X139805647Y-77580610D01*
X139863482Y-77604970D01*
X139864989Y-77606126D01*
X139906189Y-77662552D01*
X139913500Y-77704499D01*
X139913500Y-77747010D01*
X139970131Y-77739555D01*
X139990387Y-77731165D01*
X140059856Y-77723693D01*
X140085298Y-77731163D01*
X140106738Y-77740044D01*
X140224139Y-77755500D01*
X140502860Y-77755499D01*
X140502863Y-77755499D01*
X140620253Y-77740046D01*
X140620257Y-77740044D01*
X140620262Y-77740044D01*
X140766341Y-77679536D01*
X140891782Y-77583282D01*
X140988036Y-77457841D01*
X141048544Y-77311762D01*
X141064000Y-77194361D01*
X141063999Y-75840640D01*
X141063999Y-75840639D01*
X141063999Y-75840636D01*
X141048546Y-75723246D01*
X141048544Y-75723239D01*
X141048544Y-75723238D01*
X140991369Y-75585207D01*
X140983901Y-75515740D01*
X141015176Y-75453260D01*
X141071335Y-75418679D01*
X141106395Y-75408494D01*
X141245687Y-75326117D01*
X141360117Y-75211687D01*
X141442494Y-75072395D01*
X141487643Y-74916993D01*
X141490500Y-74880690D01*
X141490500Y-74471310D01*
X141487643Y-74435007D01*
X141442494Y-74279605D01*
X141430089Y-74258630D01*
X141412906Y-74190909D01*
X141430091Y-74132384D01*
X141442032Y-74112194D01*
X141484504Y-73966000D01*
X141178352Y-73966000D01*
X141115233Y-73948732D01*
X141106395Y-73943506D01*
X141106393Y-73943505D01*
X141106389Y-73943503D01*
X140950997Y-73898357D01*
X140950991Y-73898356D01*
X140914697Y-73895500D01*
X140914690Y-73895500D01*
X140445310Y-73895500D01*
X140445302Y-73895500D01*
X140409008Y-73898356D01*
X140409002Y-73898357D01*
X140253610Y-73943503D01*
X140253605Y-73943506D01*
X140244766Y-73948732D01*
X140181648Y-73966000D01*
X139875496Y-73966000D01*
X139894444Y-74031223D01*
X139894244Y-74101092D01*
X139856301Y-74159762D01*
X139837367Y-74173204D01*
X139798788Y-74195477D01*
X139798783Y-74195481D01*
X139311431Y-74682834D01*
X139250108Y-74716319D01*
X139180416Y-74711335D01*
X139136069Y-74682834D01*
X139126819Y-74673584D01*
X139093334Y-74612261D01*
X139090500Y-74585903D01*
X139090500Y-74471317D01*
X139090499Y-74471302D01*
X139090147Y-74466831D01*
X139087643Y-74435007D01*
X139042494Y-74279605D01*
X139030089Y-74258630D01*
X139012906Y-74190909D01*
X139030091Y-74132384D01*
X139042032Y-74112194D01*
X139084504Y-73966000D01*
X138778352Y-73966000D01*
X138715233Y-73948732D01*
X138706395Y-73943506D01*
X138706393Y-73943505D01*
X138706389Y-73943503D01*
X138550997Y-73898357D01*
X138550991Y-73898356D01*
X138514697Y-73895500D01*
X138514690Y-73895500D01*
X138045310Y-73895500D01*
X138045302Y-73895500D01*
X138009008Y-73898356D01*
X138009002Y-73898357D01*
X137853610Y-73943503D01*
X137853605Y-73943506D01*
X137844766Y-73948732D01*
X137781648Y-73966000D01*
X137475495Y-73966000D01*
X137461037Y-73985255D01*
X137461033Y-73986774D01*
X137423091Y-74045444D01*
X137359453Y-74074288D01*
X137342156Y-74075500D01*
X136717844Y-74075500D01*
X136650805Y-74055815D01*
X136605050Y-74003011D01*
X136603334Y-73991078D01*
X136584505Y-73966000D01*
X136278352Y-73966000D01*
X136215233Y-73948732D01*
X136206395Y-73943506D01*
X136206393Y-73943505D01*
X136206389Y-73943503D01*
X136050997Y-73898357D01*
X136050991Y-73898356D01*
X136014697Y-73895500D01*
X136014690Y-73895500D01*
X135545310Y-73895500D01*
X135545302Y-73895500D01*
X135509008Y-73898356D01*
X135509002Y-73898357D01*
X135353610Y-73943503D01*
X135353605Y-73943506D01*
X135344766Y-73948732D01*
X135281648Y-73966000D01*
X134975496Y-73966000D01*
X135017968Y-74112194D01*
X135029911Y-74132389D01*
X135047092Y-74200113D01*
X135029911Y-74258628D01*
X135017506Y-74279604D01*
X135017504Y-74279609D01*
X134972357Y-74435002D01*
X134972356Y-74435008D01*
X134969500Y-74471302D01*
X134969500Y-74880697D01*
X134972356Y-74916991D01*
X134972357Y-74916997D01*
X135017504Y-75072390D01*
X135017505Y-75072393D01*
X135099881Y-75211684D01*
X135099887Y-75211692D01*
X135214307Y-75326112D01*
X135214311Y-75326115D01*
X135214313Y-75326117D01*
X135353605Y-75408494D01*
X135388293Y-75418572D01*
X135509002Y-75453642D01*
X135509005Y-75453642D01*
X135509007Y-75453643D01*
X135545310Y-75456500D01*
X135703363Y-75456500D01*
X135770402Y-75476185D01*
X135816157Y-75528989D01*
X135826101Y-75598147D01*
X135817924Y-75627952D01*
X135778457Y-75723234D01*
X135778455Y-75723239D01*
X135763001Y-75840629D01*
X135763001Y-75840636D01*
X135763000Y-75840645D01*
X135763000Y-77194363D01*
X135778453Y-77311753D01*
X135778457Y-77311765D01*
X135838961Y-77457836D01*
X135843026Y-77464876D01*
X135841283Y-77465882D01*
X135862569Y-77520932D01*
X135863000Y-77531257D01*
X135863000Y-78271500D01*
X135843315Y-78338539D01*
X135790511Y-78384294D01*
X135739001Y-78395500D01*
X135632130Y-78395500D01*
X135632123Y-78395501D01*
X135572516Y-78401908D01*
X135437671Y-78452202D01*
X135437664Y-78452206D01*
X135322455Y-78538452D01*
X135322452Y-78538455D01*
X135236206Y-78653664D01*
X135236202Y-78653671D01*
X135185908Y-78788517D01*
X135179501Y-78848116D01*
X135179500Y-78848135D01*
X135179500Y-79943870D01*
X135179501Y-79943876D01*
X135185908Y-80003483D01*
X135236202Y-80138328D01*
X135236206Y-80138335D01*
X135322452Y-80253544D01*
X135322455Y-80253547D01*
X135437664Y-80339793D01*
X135437671Y-80339797D01*
X135503415Y-80364318D01*
X135559349Y-80406189D01*
X135583766Y-80471653D01*
X135568915Y-80539926D01*
X135519509Y-80589332D01*
X135460082Y-80604500D01*
X133630479Y-80604500D01*
X133563440Y-80584815D01*
X133517685Y-80532011D01*
X133515329Y-80526506D01*
X133513911Y-80522958D01*
X133513909Y-80522951D01*
X133419698Y-80342593D01*
X133395958Y-80313479D01*
X133291109Y-80184890D01*
X133133409Y-80056304D01*
X133133410Y-80056304D01*
X133133407Y-80056302D01*
X132953049Y-79962091D01*
X132953048Y-79962090D01*
X132953045Y-79962089D01*
X132835829Y-79928550D01*
X132757418Y-79906114D01*
X132757415Y-79906113D01*
X132757413Y-79906113D01*
X132691102Y-79900217D01*
X132638037Y-79895500D01*
X132638032Y-79895500D01*
X131521971Y-79895500D01*
X131521965Y-79895500D01*
X131521964Y-79895501D01*
X131510316Y-79896536D01*
X131402584Y-79906113D01*
X131206954Y-79962089D01*
X131127710Y-80003483D01*
X131026593Y-80056302D01*
X131026591Y-80056303D01*
X131026590Y-80056304D01*
X130868890Y-80184890D01*
X130740304Y-80342590D01*
X130740302Y-80342593D01*
X130709615Y-80401340D01*
X130646089Y-80522954D01*
X130602721Y-80674523D01*
X130590840Y-80716047D01*
X130590114Y-80718583D01*
X130590113Y-80718586D01*
X130584886Y-80777379D01*
X130579958Y-80832819D01*
X130579500Y-80837966D01*
X130579500Y-81571500D01*
X130559815Y-81638539D01*
X130507011Y-81684294D01*
X130455500Y-81695500D01*
X127346916Y-81695500D01*
X127279877Y-81675815D01*
X127234122Y-81623011D01*
X127232425Y-81618887D01*
X127147032Y-81446707D01*
X127147030Y-81446704D01*
X127027724Y-81298280D01*
X127027722Y-81298278D01*
X126958112Y-81242324D01*
X126918196Y-81184985D01*
X126915616Y-81115163D01*
X126951194Y-81055030D01*
X126958115Y-81049033D01*
X127027366Y-80993367D01*
X127027367Y-80993366D01*
X127146607Y-80845025D01*
X127146609Y-80845022D01*
X127231168Y-80674523D01*
X127277102Y-80489824D01*
X127280000Y-80447096D01*
X127280000Y-80246000D01*
X125654000Y-80246000D01*
X125586961Y-80226315D01*
X125541206Y-80173511D01*
X125530000Y-80122000D01*
X125530000Y-79746000D01*
X126030000Y-79746000D01*
X127280000Y-79746000D01*
X127280000Y-79544903D01*
X127277102Y-79502175D01*
X127231168Y-79317476D01*
X127146609Y-79146977D01*
X127146607Y-79146974D01*
X127027367Y-78998633D01*
X127027366Y-78998632D01*
X126879025Y-78879392D01*
X126879022Y-78879390D01*
X126708523Y-78794831D01*
X126523824Y-78748897D01*
X126481097Y-78746000D01*
X126030000Y-78746000D01*
X126030000Y-79746000D01*
X125530000Y-79746000D01*
X125530000Y-78746000D01*
X125078903Y-78746000D01*
X125036175Y-78748897D01*
X124851476Y-78794831D01*
X124680977Y-78879390D01*
X124680974Y-78879392D01*
X124532633Y-78998632D01*
X124532632Y-78998633D01*
X124413392Y-79146974D01*
X124413390Y-79146977D01*
X124328831Y-79317476D01*
X124288835Y-79478301D01*
X124253552Y-79538608D01*
X124191266Y-79570266D01*
X124121753Y-79563225D01*
X124067081Y-79519719D01*
X124044609Y-79453562D01*
X124044500Y-79448374D01*
X124044500Y-78532096D01*
X124064185Y-78465057D01*
X124080814Y-78444420D01*
X126553415Y-75971818D01*
X126614736Y-75938335D01*
X126680097Y-75941794D01*
X126814815Y-75986436D01*
X126913326Y-75996500D01*
X126913331Y-75996500D01*
X127446669Y-75996500D01*
X127446674Y-75996500D01*
X127545185Y-75986436D01*
X127704787Y-75933549D01*
X127847891Y-75845281D01*
X127966781Y-75726391D01*
X128055049Y-75583287D01*
X128055642Y-75581494D01*
X128056380Y-75580428D01*
X128058099Y-75576744D01*
X128058728Y-75577037D01*
X128095415Y-75524051D01*
X128159930Y-75497228D01*
X128173348Y-75496500D01*
X129155500Y-75496500D01*
X129222539Y-75516185D01*
X129268294Y-75568989D01*
X129279500Y-75620500D01*
X129279500Y-75945330D01*
X129279499Y-75945348D01*
X129279499Y-75951472D01*
X129278996Y-75954431D01*
X129278742Y-75959024D01*
X129278741Y-75959033D01*
X129278224Y-75958975D01*
X129272541Y-75992426D01*
X129262631Y-76020747D01*
X129242435Y-76199996D01*
X129242435Y-76200003D01*
X129262630Y-76379249D01*
X129262631Y-76379254D01*
X129322211Y-76549523D01*
X129418184Y-76702262D01*
X129545738Y-76829816D01*
X129636080Y-76886582D01*
X129670168Y-76908001D01*
X129698478Y-76925789D01*
X129868745Y-76985368D01*
X129868750Y-76985369D01*
X130047996Y-77005565D01*
X130048000Y-77005565D01*
X130048004Y-77005565D01*
X130227249Y-76985369D01*
X130227252Y-76985368D01*
X130227255Y-76985368D01*
X130397522Y-76925789D01*
X130550262Y-76829816D01*
X130677816Y-76702262D01*
X130773789Y-76549522D01*
X130833368Y-76379255D01*
X130835467Y-76360627D01*
X130853565Y-76200003D01*
X130853565Y-76199996D01*
X130833369Y-76020750D01*
X130833368Y-76020745D01*
X130773788Y-75850476D01*
X130695817Y-75726387D01*
X130677816Y-75697738D01*
X130566226Y-75586148D01*
X130532741Y-75524825D01*
X130537725Y-75455133D01*
X130566193Y-75410818D01*
X130567645Y-75409366D01*
X130628953Y-75375863D01*
X130698646Y-75380823D01*
X130743034Y-75409339D01*
X130752267Y-75418572D01*
X130752271Y-75418575D01*
X130896507Y-75507542D01*
X130896518Y-75507547D01*
X131057393Y-75560855D01*
X131156683Y-75570999D01*
X131680000Y-75570999D01*
X131703308Y-75570999D01*
X131703322Y-75570998D01*
X131802607Y-75560855D01*
X131963481Y-75507547D01*
X131963492Y-75507542D01*
X132107728Y-75418575D01*
X132107732Y-75418572D01*
X132227572Y-75298732D01*
X132227575Y-75298728D01*
X132316542Y-75154492D01*
X132316547Y-75154481D01*
X132369855Y-74993606D01*
X132379999Y-74894322D01*
X132380000Y-74894309D01*
X132380000Y-74846000D01*
X131680000Y-74846000D01*
X131680000Y-75570999D01*
X131156683Y-75570999D01*
X131180000Y-75570998D01*
X131180000Y-74346000D01*
X131680000Y-74346000D01*
X132379999Y-74346000D01*
X132379999Y-74297692D01*
X132379998Y-74297677D01*
X132369855Y-74198392D01*
X132316547Y-74037518D01*
X132316542Y-74037507D01*
X132227575Y-73893271D01*
X132227572Y-73893267D01*
X132107732Y-73773427D01*
X132107728Y-73773424D01*
X131963492Y-73684457D01*
X131963481Y-73684452D01*
X131802606Y-73631144D01*
X131703322Y-73621000D01*
X131680000Y-73621000D01*
X131680000Y-74346000D01*
X131180000Y-74346000D01*
X131180000Y-73620999D01*
X131156693Y-73621000D01*
X131156674Y-73621001D01*
X131057392Y-73631144D01*
X130896518Y-73684452D01*
X130896507Y-73684457D01*
X130752271Y-73773424D01*
X130752265Y-73773428D01*
X130743031Y-73782663D01*
X130681707Y-73816146D01*
X130612015Y-73811159D01*
X130567672Y-73782660D01*
X130558044Y-73773032D01*
X130558040Y-73773029D01*
X130413705Y-73684001D01*
X130413699Y-73683998D01*
X130413697Y-73683997D01*
X130413694Y-73683996D01*
X130252709Y-73630651D01*
X130153346Y-73620500D01*
X129606662Y-73620500D01*
X129606644Y-73620501D01*
X129507292Y-73630650D01*
X129507289Y-73630651D01*
X129346305Y-73683996D01*
X129346294Y-73684001D01*
X129201959Y-73773029D01*
X129201955Y-73773032D01*
X129082032Y-73892955D01*
X129082029Y-73892959D01*
X128993001Y-74037294D01*
X128992996Y-74037305D01*
X128937521Y-74204719D01*
X128936141Y-74204261D01*
X128906554Y-74258885D01*
X128845344Y-74292576D01*
X128818577Y-74295500D01*
X128173348Y-74295500D01*
X128106309Y-74275815D01*
X128060554Y-74223011D01*
X128055642Y-74210504D01*
X128055049Y-74208713D01*
X128055045Y-74208707D01*
X128055044Y-74208704D01*
X127966783Y-74065612D01*
X127966780Y-74065608D01*
X127847891Y-73946719D01*
X127847887Y-73946716D01*
X127704795Y-73858455D01*
X127704789Y-73858452D01*
X127704787Y-73858451D01*
X127545185Y-73805564D01*
X127545183Y-73805563D01*
X127446681Y-73795500D01*
X127446674Y-73795500D01*
X126913326Y-73795500D01*
X126913318Y-73795500D01*
X126814816Y-73805563D01*
X126814815Y-73805564D01*
X126782881Y-73816146D01*
X126655215Y-73858450D01*
X126655204Y-73858455D01*
X126512112Y-73946716D01*
X126512108Y-73946719D01*
X126393219Y-74065608D01*
X126393216Y-74065612D01*
X126304955Y-74208704D01*
X126304950Y-74208715D01*
X126281460Y-74279604D01*
X126252064Y-74368315D01*
X126252064Y-74368316D01*
X126252063Y-74368316D01*
X126242000Y-74466818D01*
X126242000Y-74533403D01*
X126222315Y-74600442D01*
X126205681Y-74621084D01*
X126204681Y-74622084D01*
X126143358Y-74655569D01*
X126073666Y-74650585D01*
X126017733Y-74608713D01*
X125993316Y-74543249D01*
X125993000Y-74534403D01*
X125993000Y-74466831D01*
X125992999Y-74466818D01*
X125982936Y-74368316D01*
X125982936Y-74368315D01*
X125930049Y-74208713D01*
X125930045Y-74208707D01*
X125930044Y-74208704D01*
X125841783Y-74065612D01*
X125841780Y-74065608D01*
X125722891Y-73946719D01*
X125722887Y-73946716D01*
X125579795Y-73858455D01*
X125579789Y-73858452D01*
X125579787Y-73858451D01*
X125420185Y-73805564D01*
X125420183Y-73805563D01*
X125321681Y-73795500D01*
X125321674Y-73795500D01*
X124788326Y-73795500D01*
X124788318Y-73795500D01*
X124689816Y-73805563D01*
X124689815Y-73805564D01*
X124657881Y-73816146D01*
X124530215Y-73858450D01*
X124530204Y-73858455D01*
X124387112Y-73946716D01*
X124387108Y-73946719D01*
X124268219Y-74065608D01*
X124268216Y-74065612D01*
X124179955Y-74208704D01*
X124179950Y-74208715D01*
X124156460Y-74279604D01*
X124127064Y-74368315D01*
X124127064Y-74368316D01*
X124127063Y-74368316D01*
X124117000Y-74466818D01*
X124117000Y-75325181D01*
X124127063Y-75423683D01*
X124137938Y-75456500D01*
X124161958Y-75528989D01*
X124167722Y-75546381D01*
X124170124Y-75616209D01*
X124137697Y-75673066D01*
X122662403Y-77148360D01*
X122601080Y-77181845D01*
X122531388Y-77176861D01*
X122475456Y-77134990D01*
X122412547Y-77050955D01*
X122412544Y-77050952D01*
X122297335Y-76964706D01*
X122297328Y-76964702D01*
X122162482Y-76914408D01*
X122162483Y-76914408D01*
X122102883Y-76908001D01*
X122102881Y-76908000D01*
X122102873Y-76908000D01*
X122102864Y-76908000D01*
X120457129Y-76908000D01*
X120457123Y-76908001D01*
X120397516Y-76914408D01*
X120262671Y-76964702D01*
X120262664Y-76964706D01*
X120147455Y-77050952D01*
X120078765Y-77142710D01*
X120022831Y-77184580D01*
X119953139Y-77189564D01*
X119891817Y-77156078D01*
X119858332Y-77094755D01*
X119855499Y-77068398D01*
X119855499Y-76360629D01*
X119855498Y-76360623D01*
X119855497Y-76360616D01*
X119849091Y-76301017D01*
X119811415Y-76200003D01*
X119798797Y-76166171D01*
X119798793Y-76166164D01*
X119712547Y-76050955D01*
X119712544Y-76050952D01*
X119597335Y-75964706D01*
X119597328Y-75964702D01*
X119462482Y-75914408D01*
X119462483Y-75914408D01*
X119402883Y-75908001D01*
X119402881Y-75908000D01*
X119402873Y-75908000D01*
X119402864Y-75908000D01*
X118007129Y-75908000D01*
X118007123Y-75908001D01*
X117947516Y-75914408D01*
X117812671Y-75964702D01*
X117812664Y-75964706D01*
X117697455Y-76050952D01*
X117697452Y-76050955D01*
X117611206Y-76166164D01*
X117611202Y-76166171D01*
X117560908Y-76301017D01*
X117554501Y-76360616D01*
X117554501Y-76360623D01*
X117554500Y-76360635D01*
X117554500Y-78021319D01*
X117534815Y-78088358D01*
X117504812Y-78120585D01*
X117397452Y-78200955D01*
X117311206Y-78316164D01*
X117311202Y-78316171D01*
X117260908Y-78451017D01*
X117254501Y-78510616D01*
X117254500Y-78510635D01*
X115360500Y-78510635D01*
X115360500Y-73466000D01*
X134975496Y-73466000D01*
X135530000Y-73466000D01*
X136030000Y-73466000D01*
X136584504Y-73466000D01*
X137475496Y-73466000D01*
X138030000Y-73466000D01*
X138530000Y-73466000D01*
X139084504Y-73466000D01*
X139875496Y-73466000D01*
X140430000Y-73466000D01*
X140930000Y-73466000D01*
X141484504Y-73466000D01*
X141442031Y-73319804D01*
X141359721Y-73180625D01*
X141359714Y-73180616D01*
X141245383Y-73066285D01*
X141245374Y-73066278D01*
X141106195Y-72983968D01*
X141106190Y-72983966D01*
X140950918Y-72938855D01*
X140950912Y-72938854D01*
X140930000Y-72937209D01*
X140930000Y-73466000D01*
X140430000Y-73466000D01*
X140430000Y-72937210D01*
X140429999Y-72937209D01*
X140409087Y-72938854D01*
X140409081Y-72938855D01*
X140253809Y-72983966D01*
X140253804Y-72983968D01*
X140114625Y-73066278D01*
X140114616Y-73066285D01*
X140000285Y-73180616D01*
X140000278Y-73180625D01*
X139917968Y-73319804D01*
X139875496Y-73466000D01*
X139084504Y-73466000D01*
X139042031Y-73319804D01*
X138959721Y-73180625D01*
X138959714Y-73180616D01*
X138845383Y-73066285D01*
X138845374Y-73066278D01*
X138706195Y-72983968D01*
X138706190Y-72983966D01*
X138550918Y-72938855D01*
X138550912Y-72938854D01*
X138530000Y-72937209D01*
X138530000Y-73466000D01*
X138030000Y-73466000D01*
X138030000Y-72937210D01*
X138029999Y-72937209D01*
X138009087Y-72938854D01*
X138009081Y-72938855D01*
X137853809Y-72983966D01*
X137853804Y-72983968D01*
X137714625Y-73066278D01*
X137714616Y-73066285D01*
X137600285Y-73180616D01*
X137600278Y-73180625D01*
X137517968Y-73319804D01*
X137475496Y-73466000D01*
X136584504Y-73466000D01*
X136542031Y-73319804D01*
X136459721Y-73180625D01*
X136459714Y-73180616D01*
X136345383Y-73066285D01*
X136345374Y-73066278D01*
X136206195Y-72983968D01*
X136206190Y-72983966D01*
X136050918Y-72938855D01*
X136050912Y-72938854D01*
X136030000Y-72937209D01*
X136030000Y-73466000D01*
X135530000Y-73466000D01*
X135530000Y-72937210D01*
X135529999Y-72937209D01*
X135509087Y-72938854D01*
X135509081Y-72938855D01*
X135353809Y-72983966D01*
X135353804Y-72983968D01*
X135214625Y-73066278D01*
X135214616Y-73066285D01*
X135100285Y-73180616D01*
X135100278Y-73180625D01*
X135017968Y-73319804D01*
X134975496Y-73466000D01*
X115360500Y-73466000D01*
X115360500Y-73005411D01*
X115360972Y-72994604D01*
X115375103Y-72833081D01*
X115378856Y-72811794D01*
X115419420Y-72660408D01*
X115426806Y-72640117D01*
X115493038Y-72498080D01*
X115503844Y-72479365D01*
X115593738Y-72350983D01*
X115607622Y-72334438D01*
X115718438Y-72223622D01*
X115734983Y-72209738D01*
X115863368Y-72119842D01*
X115882080Y-72109038D01*
X116024117Y-72042806D01*
X116044408Y-72035420D01*
X116195797Y-71994855D01*
X116217078Y-71991103D01*
X116378605Y-71976972D01*
X116389412Y-71976500D01*
X116449892Y-71976500D01*
X148830108Y-71976500D01*
X148890588Y-71976500D01*
X148901395Y-71976972D01*
G37*
%TD.AperFunction*%
%TD*%
M02*
