M48
; DRILL file {KiCad 8.0.5} date 2025-01-05T00:34:40+0100
; FORMAT={-:-/ absolute / inch / decimal}
; #@! TF.CreationDate,2025-01-05T00:34:41+01:00
; #@! TF.GenerationSoftware,Kicad,Pcbnew,8.0.5
; #@! TF.FileFunction,Plated,1,2,PTH
FMAT,2
INCH
; #@! TA.AperFunction,Plated,PTH,ViaDrill
T1C0.0118
; #@! TA.AperFunction,Plated,PTH,ComponentDrill
T2C0.0157
; #@! TA.AperFunction,Plated,PTH,ComponentDrill
T3C0.0236
; #@! TA.AperFunction,Plated,PTH,ComponentDrill
T4C0.0276
; #@! TA.AperFunction,Plated,PTH,ComponentDrill
T5C0.0315
; #@! TA.AperFunction,Plated,PTH,ComponentDrill
T6C0.0354
; #@! TA.AperFunction,Plated,PTH,ComponentDrill
T7C0.0394
; #@! TA.AperFunction,Plated,PTH,ComponentDrill
T8C0.0866
%
G90
G05
T1
X3.8583Y-3.1417
T2
X2.3937Y-2.6673
X2.3957Y-3.5433
X2.4127Y-2.6214
X2.4127Y-2.7133
X2.4147Y-3.4974
X2.4147Y-3.5892
X2.4587Y-2.6024
X2.4587Y-2.7323
X2.4606Y-3.4783
X2.4606Y-3.6083
X2.5046Y-2.6214
X2.5046Y-2.7133
X2.5066Y-3.4974
X2.5066Y-3.5892
X2.5236Y-2.6673
X2.5256Y-3.5433
X3.7894Y-3.5433
X3.7933Y-2.6654
X3.8084Y-3.4974
X3.8084Y-3.5892
X3.8123Y-2.6194
X3.8123Y-2.7113
X3.8543Y-3.4783
X3.8543Y-3.6083
X3.8583Y-2.6004
X3.8583Y-2.7303
X3.9003Y-3.4974
X3.9003Y-3.5892
X3.9042Y-2.6194
X3.9042Y-2.7113
X3.9193Y-3.5433
X3.9232Y-2.6654
T3
X3.2067Y-3.4449
X3.2657Y-3.4449
T4
X3.0913Y-2.8543
X3.2913Y-2.8543
X3.3843Y-2.8543
X3.5843Y-2.8543
X3.5929Y-3.3583
X3.6929Y-3.0669
X3.6929Y-3.2669
X3.7929Y-3.3583
T5
X3.252Y-2.9677
X3.252Y-3.2677
X3.352Y-2.9677
X3.352Y-3.2677
X3.452Y-2.9677
X3.452Y-3.2677
X3.4823Y-2.7402
X3.552Y-2.9677
X3.552Y-3.2677
X3.5807Y-2.7402
T6
X3.6939Y-2.9016
X3.7939Y-2.9016
T8
X2.4587Y-2.6673
X2.4606Y-3.5433
X3.8543Y-3.5433
X3.8583Y-2.6654
T7
G00X2.7362Y-3.0371
M15
G01X2.7362Y-3.1158
M16
G05
G00X2.815Y-3.2615
M15
G01X2.8937Y-3.2615
M16
G05
G00X2.9724Y-3.0371
M15
G01X2.9724Y-3.1158
M16
G05
M30
