%TF.GenerationSoftware,KiCad,Pcbnew,8.0.5*%
%TF.CreationDate,2025-01-05T00:34:36+01:00*%
%TF.ProjectId,my_Project1,6d795f50-726f-46a6-9563-74312e6b6963,rev?*%
%TF.SameCoordinates,Original*%
%TF.FileFunction,Copper,L1,Top*%
%TF.FilePolarity,Positive*%
%FSLAX46Y46*%
G04 Gerber Fmt 4.6, Leading zero omitted, Abs format (unit mm)*
G04 Created by KiCad (PCBNEW 8.0.5) date 2025-01-05 00:34:36*
%MOMM*%
%LPD*%
G01*
G04 APERTURE LIST*
G04 Aperture macros list*
%AMRoundRect*
0 Rectangle with rounded corners*
0 $1 Rounding radius*
0 $2 $3 $4 $5 $6 $7 $8 $9 X,Y pos of 4 corners*
0 Add a 4 corners polygon primitive as box body*
4,1,4,$2,$3,$4,$5,$6,$7,$8,$9,$2,$3,0*
0 Add four circle primitives for the rounded corners*
1,1,$1+$1,$2,$3*
1,1,$1+$1,$4,$5*
1,1,$1+$1,$6,$7*
1,1,$1+$1,$8,$9*
0 Add four rect primitives between the rounded corners*
20,1,$1+$1,$2,$3,$4,$5,0*
20,1,$1+$1,$4,$5,$6,$7,0*
20,1,$1+$1,$6,$7,$8,$9,0*
20,1,$1+$1,$8,$9,$2,$3,0*%
G04 Aperture macros list end*
%TA.AperFunction,SMDPad,CuDef*%
%ADD10R,1.500000X1.500000*%
%TD*%
%TA.AperFunction,SMDPad,CuDef*%
%ADD11R,1.500000X1.000000*%
%TD*%
%TA.AperFunction,ComponentPad*%
%ADD12R,1.600000X1.600000*%
%TD*%
%TA.AperFunction,ComponentPad*%
%ADD13O,1.600000X1.600000*%
%TD*%
%TA.AperFunction,ComponentPad*%
%ADD14C,1.400000*%
%TD*%
%TA.AperFunction,ComponentPad*%
%ADD15O,1.400000X1.400000*%
%TD*%
%TA.AperFunction,ComponentPad*%
%ADD16R,3.500000X3.500000*%
%TD*%
%TA.AperFunction,ComponentPad*%
%ADD17RoundRect,0.750000X-0.750000X-1.000000X0.750000X-1.000000X0.750000X1.000000X-0.750000X1.000000X0*%
%TD*%
%TA.AperFunction,ComponentPad*%
%ADD18RoundRect,0.875000X-0.875000X-0.875000X0.875000X-0.875000X0.875000X0.875000X-0.875000X0.875000X0*%
%TD*%
%TA.AperFunction,ComponentPad*%
%ADD19C,0.700000*%
%TD*%
%TA.AperFunction,ComponentPad*%
%ADD20C,4.400000*%
%TD*%
%TA.AperFunction,ComponentPad*%
%ADD21R,1.800000X1.800000*%
%TD*%
%TA.AperFunction,ComponentPad*%
%ADD22C,1.800000*%
%TD*%
%TA.AperFunction,ComponentPad*%
%ADD23C,1.200000*%
%TD*%
%TA.AperFunction,ComponentPad*%
%ADD24C,1.600000*%
%TD*%
%TA.AperFunction,ViaPad*%
%ADD25C,0.600000*%
%TD*%
%TA.AperFunction,Conductor*%
%ADD26C,0.400000*%
%TD*%
G04 APERTURE END LIST*
D10*
%TO.P,Ext-LED,1,A*%
%TO.N,Net-(JP1-A)*%
X99300000Y-81400000D03*
D11*
%TO.P,Ext-LED,2,B*%
%TO.N,OUT*%
X99300000Y-79850000D03*
%TD*%
D12*
%TO.P,U1,1,GND*%
%TO.N,GND*%
X82600000Y-83000000D03*
D13*
%TO.P,U1,2,TR*%
%TO.N,TR*%
X85140000Y-83000000D03*
%TO.P,U1,3,Q*%
%TO.N,OUT*%
X87680000Y-83000000D03*
%TO.P,U1,4,R*%
%TO.N,VDD*%
X90220000Y-83000000D03*
%TO.P,U1,5,CV*%
%TO.N,Net-(U1-CV)*%
X90220000Y-75380000D03*
%TO.P,U1,6,THR*%
%TO.N,TR*%
X87680000Y-75380000D03*
%TO.P,U1,7,DIS*%
%TO.N,Net-(U1-DIS)*%
X85140000Y-75380000D03*
%TO.P,U1,8,VCC*%
%TO.N,VDD*%
X82600000Y-75380000D03*
%TD*%
D14*
%TO.P,R4,1*%
%TO.N,Net-(JP1-A)*%
X96340000Y-85300000D03*
D15*
%TO.P,R4,2*%
%TO.N,GND*%
X91260000Y-85300000D03*
%TD*%
D14*
%TO.P,R3,1*%
%TO.N,Net-(D1-K)*%
X93800000Y-77900000D03*
D15*
%TO.P,R3,2*%
%TO.N,GND*%
X93800000Y-82980000D03*
%TD*%
D14*
%TO.P,R2,1*%
%TO.N,VDD*%
X78520000Y-72500000D03*
D15*
%TO.P,R2,2*%
%TO.N,Net-(U1-DIS)*%
X83600000Y-72500000D03*
%TD*%
D14*
%TO.P,R1,1*%
%TO.N,Net-(U1-DIS)*%
X85960000Y-72500000D03*
D15*
%TO.P,R1,2*%
%TO.N,TR*%
X91040000Y-72500000D03*
%TD*%
D16*
%TO.P,J1,1*%
%TO.N,VDD*%
X75500000Y-78142500D03*
D17*
%TO.P,J1,2*%
%TO.N,GND*%
X69500000Y-78142500D03*
D18*
%TO.P,J1,3*%
%TO.N,N/C*%
X72500000Y-82842500D03*
%TD*%
D19*
%TO.P,H4,1,1*%
%TO.N,GND*%
X96250000Y-90000000D03*
X96733274Y-88833274D03*
X96733274Y-91166726D03*
X97900000Y-88350000D03*
D20*
X97900000Y-90000000D03*
D19*
X97900000Y-91650000D03*
X99066726Y-88833274D03*
X99066726Y-91166726D03*
X99550000Y-90000000D03*
%TD*%
%TO.P,H3,1,1*%
%TO.N,GND*%
X96350000Y-67700000D03*
X96833274Y-66533274D03*
X96833274Y-68866726D03*
X98000000Y-66050000D03*
D20*
X98000000Y-67700000D03*
D19*
X98000000Y-69350000D03*
X99166726Y-66533274D03*
X99166726Y-68866726D03*
X99650000Y-67700000D03*
%TD*%
%TO.P,H2,1,1*%
%TO.N,GND*%
X60850000Y-90000000D03*
X61333274Y-88833274D03*
X61333274Y-91166726D03*
X62500000Y-88350000D03*
D20*
X62500000Y-90000000D03*
D19*
X62500000Y-91650000D03*
X63666726Y-88833274D03*
X63666726Y-91166726D03*
X64150000Y-90000000D03*
%TD*%
%TO.P,H1,1,1*%
%TO.N,GND*%
X60800000Y-67750000D03*
X61283274Y-66583274D03*
X61283274Y-68916726D03*
X62450000Y-66100000D03*
D20*
X62450000Y-67750000D03*
D19*
X62450000Y-69400000D03*
X63616726Y-66583274D03*
X63616726Y-68916726D03*
X64100000Y-67750000D03*
%TD*%
D21*
%TO.P,LED,1,K*%
%TO.N,Net-(D1-K)*%
X93825000Y-73700000D03*
D22*
%TO.P,LED,2,A*%
%TO.N,OUT*%
X96365000Y-73700000D03*
%TD*%
D23*
%TO.P,C2,1*%
%TO.N,GND*%
X81450000Y-87500000D03*
%TO.P,C2,2*%
%TO.N,Net-(U1-CV)*%
X82950000Y-87500000D03*
%TD*%
D24*
%TO.P,C1,1*%
%TO.N,TR*%
X88450000Y-69600000D03*
%TO.P,C1,2*%
%TO.N,GND*%
X90950000Y-69600000D03*
%TD*%
D25*
%TO.N,OUT*%
X98000000Y-79800000D03*
%TD*%
D26*
%TO.N,Net-(U1-DIS)*%
X83600000Y-72500000D02*
X85960000Y-72500000D01*
X85140000Y-73320000D02*
X85960000Y-72500000D01*
X85140000Y-75380000D02*
X85140000Y-73320000D01*
%TO.N,TR*%
X91040000Y-72190000D02*
X88450000Y-69600000D01*
X91040000Y-72500000D02*
X91040000Y-72190000D01*
X88160000Y-75380000D02*
X87680000Y-75380000D01*
X91040000Y-72500000D02*
X88160000Y-75380000D01*
%TO.N,Net-(D1-K)*%
X93800000Y-73725000D02*
X93825000Y-73700000D01*
X93800000Y-77900000D02*
X93800000Y-73725000D01*
%TO.N,OUT*%
X96365000Y-78165000D02*
X98000000Y-79800000D01*
X96365000Y-73700000D02*
X96365000Y-78165000D01*
%TO.N,Net-(JP1-A)*%
X99300000Y-82340000D02*
X99300000Y-81400000D01*
X96340000Y-85300000D02*
X99300000Y-82340000D01*
%TO.N,OUT*%
X99250000Y-79800000D02*
X99300000Y-79850000D01*
X98000000Y-79800000D02*
X99250000Y-79800000D01*
%TO.N,VDD*%
X90220000Y-83000000D02*
X82600000Y-75380000D01*
X79720000Y-72500000D02*
X82600000Y-75380000D01*
X78520000Y-72500000D02*
X79720000Y-72500000D01*
X75500000Y-75520000D02*
X78520000Y-72500000D01*
X75500000Y-78142500D02*
X75500000Y-75520000D01*
%TD*%
%TA.AperFunction,Conductor*%
%TO.N,GND*%
G36*
X98103032Y-63800649D02*
G01*
X98167797Y-63803830D01*
X98466338Y-63818497D01*
X98478440Y-63819689D01*
X98835230Y-63872613D01*
X98847140Y-63874982D01*
X99197046Y-63962629D01*
X99208663Y-63966154D01*
X99548275Y-64087669D01*
X99559497Y-64092317D01*
X99885582Y-64246543D01*
X99896290Y-64252267D01*
X100205659Y-64437696D01*
X100215777Y-64444456D01*
X100505488Y-64659321D01*
X100514894Y-64667041D01*
X100782146Y-64909264D01*
X100790735Y-64917853D01*
X100927609Y-65068870D01*
X101032958Y-65185105D01*
X101040678Y-65194511D01*
X101255543Y-65484222D01*
X101262303Y-65494340D01*
X101368474Y-65671476D01*
X101447725Y-65803697D01*
X101453460Y-65814425D01*
X101520816Y-65956837D01*
X101607679Y-66140495D01*
X101612334Y-66151734D01*
X101718498Y-66448443D01*
X101733840Y-66491319D01*
X101737373Y-66502964D01*
X101825014Y-66852846D01*
X101827388Y-66864782D01*
X101880309Y-67221555D01*
X101881502Y-67233664D01*
X101899351Y-67596967D01*
X101899500Y-67603052D01*
X101899500Y-89996948D01*
X101899351Y-90003033D01*
X101881984Y-90356531D01*
X101880791Y-90368640D01*
X101829308Y-90715712D01*
X101826934Y-90727648D01*
X101741680Y-91068001D01*
X101738147Y-91079646D01*
X101619945Y-91409996D01*
X101615289Y-91421237D01*
X101465270Y-91738429D01*
X101459533Y-91749162D01*
X101279156Y-92050102D01*
X101272396Y-92060220D01*
X101063377Y-92342049D01*
X101055657Y-92351455D01*
X100820033Y-92611428D01*
X100811428Y-92620033D01*
X100551455Y-92855657D01*
X100542049Y-92863377D01*
X100260220Y-93072396D01*
X100250102Y-93079156D01*
X99949162Y-93259533D01*
X99938429Y-93265270D01*
X99621237Y-93415289D01*
X99609996Y-93419945D01*
X99279646Y-93538147D01*
X99268001Y-93541680D01*
X98927648Y-93626934D01*
X98915712Y-93629308D01*
X98568640Y-93680791D01*
X98556531Y-93681984D01*
X98223016Y-93698369D01*
X98203031Y-93699351D01*
X98196949Y-93699500D01*
X62379398Y-93699500D01*
X62373314Y-93699351D01*
X62353409Y-93698373D01*
X62033552Y-93682659D01*
X62021442Y-93681466D01*
X61664551Y-93628526D01*
X61652617Y-93626152D01*
X61302630Y-93538485D01*
X61290985Y-93534953D01*
X60951280Y-93413404D01*
X60940051Y-93408753D01*
X60636680Y-93265270D01*
X60613877Y-93254485D01*
X60603154Y-93248752D01*
X60293694Y-93063269D01*
X60283576Y-93056509D01*
X59993774Y-92841576D01*
X59984368Y-92833856D01*
X59937931Y-92791768D01*
X59717031Y-92591557D01*
X59708442Y-92582968D01*
X59466143Y-92315631D01*
X59458423Y-92306225D01*
X59243490Y-92016423D01*
X59236730Y-92006305D01*
X59082604Y-91749162D01*
X59051242Y-91696838D01*
X59045518Y-91686130D01*
X58891243Y-91359942D01*
X58886599Y-91348729D01*
X58765041Y-91008999D01*
X58761514Y-90997369D01*
X58673847Y-90647382D01*
X58671473Y-90635448D01*
X58639848Y-90422253D01*
X58618532Y-90278556D01*
X58617340Y-90266446D01*
X58604251Y-90000000D01*
X59795065Y-90000000D01*
X59814786Y-90326038D01*
X59873667Y-90647341D01*
X59970835Y-90959164D01*
X59970839Y-90959175D01*
X60104897Y-91257041D01*
X60104898Y-91257043D01*
X60273881Y-91536576D01*
X60421476Y-91724968D01*
X61563708Y-90582736D01*
X61660967Y-90716602D01*
X61783398Y-90839033D01*
X61917262Y-90936290D01*
X60775030Y-92078522D01*
X60775030Y-92078523D01*
X60963423Y-92226118D01*
X61242956Y-92395101D01*
X61242958Y-92395102D01*
X61540824Y-92529160D01*
X61540835Y-92529164D01*
X61852658Y-92626332D01*
X62173961Y-92685213D01*
X62500000Y-92704934D01*
X62826038Y-92685213D01*
X63147341Y-92626332D01*
X63459164Y-92529164D01*
X63459175Y-92529160D01*
X63757041Y-92395102D01*
X63757043Y-92395101D01*
X64036586Y-92226112D01*
X64224968Y-92078523D01*
X64224968Y-92078522D01*
X63082737Y-90936290D01*
X63216602Y-90839033D01*
X63339033Y-90716602D01*
X63436290Y-90582737D01*
X64578522Y-91724968D01*
X64578523Y-91724968D01*
X64726112Y-91536586D01*
X64895101Y-91257043D01*
X64895102Y-91257041D01*
X65029160Y-90959175D01*
X65029164Y-90959164D01*
X65126332Y-90647341D01*
X65185213Y-90326038D01*
X65204934Y-90000000D01*
X95195065Y-90000000D01*
X95214786Y-90326038D01*
X95273667Y-90647341D01*
X95370835Y-90959164D01*
X95370839Y-90959175D01*
X95504897Y-91257041D01*
X95504898Y-91257043D01*
X95673881Y-91536576D01*
X95821476Y-91724968D01*
X96963708Y-90582736D01*
X97060967Y-90716602D01*
X97183398Y-90839033D01*
X97317262Y-90936290D01*
X96175030Y-92078522D01*
X96175030Y-92078523D01*
X96363423Y-92226118D01*
X96642956Y-92395101D01*
X96642958Y-92395102D01*
X96940824Y-92529160D01*
X96940835Y-92529164D01*
X97252658Y-92626332D01*
X97573961Y-92685213D01*
X97900000Y-92704934D01*
X98226038Y-92685213D01*
X98547341Y-92626332D01*
X98859164Y-92529164D01*
X98859175Y-92529160D01*
X99157041Y-92395102D01*
X99157043Y-92395101D01*
X99436586Y-92226112D01*
X99624968Y-92078523D01*
X99624968Y-92078522D01*
X98482737Y-90936290D01*
X98616602Y-90839033D01*
X98739033Y-90716602D01*
X98836290Y-90582737D01*
X99978522Y-91724968D01*
X99978523Y-91724968D01*
X100126112Y-91536586D01*
X100295101Y-91257043D01*
X100295102Y-91257041D01*
X100429160Y-90959175D01*
X100429164Y-90959164D01*
X100526332Y-90647341D01*
X100585213Y-90326038D01*
X100604934Y-90000000D01*
X100585213Y-89673961D01*
X100526332Y-89352658D01*
X100429164Y-89040835D01*
X100429160Y-89040824D01*
X100295102Y-88742958D01*
X100295101Y-88742956D01*
X100126118Y-88463423D01*
X99978522Y-88275030D01*
X98836290Y-89417262D01*
X98739033Y-89283398D01*
X98616602Y-89160967D01*
X98482736Y-89063709D01*
X99624968Y-87921476D01*
X99436576Y-87773881D01*
X99157043Y-87604898D01*
X99157041Y-87604897D01*
X98859175Y-87470839D01*
X98859164Y-87470835D01*
X98547341Y-87373667D01*
X98226038Y-87314786D01*
X97900000Y-87295065D01*
X97573961Y-87314786D01*
X97252658Y-87373667D01*
X96940835Y-87470835D01*
X96940824Y-87470839D01*
X96642958Y-87604897D01*
X96642956Y-87604898D01*
X96363422Y-87773881D01*
X96363416Y-87773886D01*
X96175030Y-87921474D01*
X96175029Y-87921476D01*
X97317262Y-89063709D01*
X97183398Y-89160967D01*
X97060967Y-89283398D01*
X96963709Y-89417262D01*
X95821476Y-88275029D01*
X95821474Y-88275030D01*
X95673886Y-88463416D01*
X95673881Y-88463422D01*
X95504898Y-88742956D01*
X95504897Y-88742958D01*
X95370839Y-89040824D01*
X95370835Y-89040835D01*
X95273667Y-89352658D01*
X95214786Y-89673961D01*
X95195065Y-90000000D01*
X65204934Y-90000000D01*
X65185213Y-89673961D01*
X65126332Y-89352658D01*
X65029164Y-89040835D01*
X65029160Y-89040824D01*
X64895102Y-88742958D01*
X64895101Y-88742956D01*
X64726118Y-88463423D01*
X64578522Y-88275030D01*
X63436290Y-89417262D01*
X63339033Y-89283398D01*
X63216602Y-89160967D01*
X63082736Y-89063709D01*
X64224968Y-87921476D01*
X64036576Y-87773881D01*
X63757043Y-87604898D01*
X63757041Y-87604897D01*
X63523966Y-87499999D01*
X80345287Y-87499999D01*
X80345287Y-87500000D01*
X80364096Y-87702989D01*
X80364097Y-87702992D01*
X80419883Y-87899063D01*
X80419886Y-87899069D01*
X80510751Y-88081551D01*
X80512533Y-88083911D01*
X81096446Y-87500000D01*
X80512533Y-86916087D01*
X80510755Y-86918442D01*
X80510754Y-86918443D01*
X80419886Y-87100930D01*
X80419883Y-87100936D01*
X80364097Y-87297007D01*
X80364096Y-87297010D01*
X80345287Y-87499999D01*
X63523966Y-87499999D01*
X63459175Y-87470839D01*
X63459164Y-87470835D01*
X63147341Y-87373667D01*
X62826038Y-87314786D01*
X62500000Y-87295065D01*
X62173961Y-87314786D01*
X61852658Y-87373667D01*
X61540835Y-87470835D01*
X61540824Y-87470839D01*
X61242958Y-87604897D01*
X61242956Y-87604898D01*
X60963422Y-87773881D01*
X60963416Y-87773886D01*
X60775030Y-87921474D01*
X60775029Y-87921476D01*
X61917262Y-89063709D01*
X61783398Y-89160967D01*
X61660967Y-89283398D01*
X61563709Y-89417262D01*
X60421476Y-88275029D01*
X60421474Y-88275030D01*
X60273886Y-88463416D01*
X60273881Y-88463422D01*
X60104898Y-88742956D01*
X60104897Y-88742958D01*
X59970839Y-89040824D01*
X59970835Y-89040835D01*
X59873667Y-89352658D01*
X59814786Y-89673961D01*
X59795065Y-90000000D01*
X58604251Y-90000000D01*
X58600649Y-89926686D01*
X58600500Y-89920602D01*
X58600500Y-86565758D01*
X80869311Y-86565758D01*
X81508698Y-87205145D01*
X81489496Y-87200000D01*
X81410504Y-87200000D01*
X81334204Y-87220444D01*
X81265795Y-87259940D01*
X81209940Y-87315795D01*
X81170444Y-87384204D01*
X81150000Y-87460504D01*
X81150000Y-87539496D01*
X81170444Y-87615796D01*
X81209940Y-87684205D01*
X81265795Y-87740060D01*
X81334204Y-87779556D01*
X81410504Y-87800000D01*
X81489496Y-87800000D01*
X81508695Y-87794855D01*
X80869311Y-88434240D01*
X80957585Y-88488897D01*
X81147678Y-88562539D01*
X81348072Y-88600000D01*
X81551928Y-88600000D01*
X81752321Y-88562539D01*
X81942415Y-88488897D01*
X82115736Y-88381580D01*
X82116074Y-88381273D01*
X82116274Y-88381175D01*
X82120312Y-88378126D01*
X82120908Y-88378915D01*
X82178872Y-88350644D01*
X82248261Y-88358830D01*
X82279231Y-88378730D01*
X82279385Y-88378527D01*
X82282068Y-88380553D01*
X82283168Y-88381260D01*
X82283959Y-88381981D01*
X82457363Y-88489348D01*
X82647544Y-88563024D01*
X82848024Y-88600500D01*
X82848026Y-88600500D01*
X83051974Y-88600500D01*
X83051976Y-88600500D01*
X83252456Y-88563024D01*
X83442637Y-88489348D01*
X83616041Y-88381981D01*
X83766764Y-88244579D01*
X83889673Y-88081821D01*
X83980582Y-87899250D01*
X84036397Y-87703083D01*
X84055215Y-87500000D01*
X84036397Y-87296917D01*
X83980582Y-87100750D01*
X83889673Y-86918179D01*
X83766764Y-86755421D01*
X83766762Y-86755418D01*
X83616041Y-86618019D01*
X83616039Y-86618017D01*
X83442642Y-86510655D01*
X83442635Y-86510651D01*
X83310902Y-86459618D01*
X83252456Y-86436976D01*
X83051976Y-86399500D01*
X82848024Y-86399500D01*
X82647544Y-86436976D01*
X82647541Y-86436976D01*
X82647541Y-86436977D01*
X82457364Y-86510651D01*
X82457357Y-86510655D01*
X82283961Y-86618017D01*
X82283950Y-86618025D01*
X82283152Y-86618753D01*
X82282686Y-86618979D01*
X82279385Y-86621473D01*
X82278896Y-86620826D01*
X82220343Y-86649360D01*
X82150957Y-86641152D01*
X82120524Y-86621592D01*
X82120312Y-86621874D01*
X82116589Y-86619063D01*
X82116095Y-86618745D01*
X82115739Y-86618421D01*
X81942415Y-86511102D01*
X81752321Y-86437460D01*
X81551928Y-86400000D01*
X81348072Y-86400000D01*
X81147678Y-86437460D01*
X80957588Y-86511100D01*
X80957581Y-86511104D01*
X80869312Y-86565757D01*
X80869311Y-86565758D01*
X58600500Y-86565758D01*
X58600500Y-85550000D01*
X90083505Y-85550000D01*
X90136239Y-85735349D01*
X90235368Y-85934425D01*
X90369391Y-86111900D01*
X90533738Y-86261721D01*
X90722820Y-86378797D01*
X90722822Y-86378798D01*
X90930195Y-86459135D01*
X91010000Y-86474052D01*
X91510000Y-86474052D01*
X91589804Y-86459135D01*
X91797177Y-86378798D01*
X91797179Y-86378797D01*
X91986261Y-86261721D01*
X92150608Y-86111900D01*
X92284631Y-85934425D01*
X92383760Y-85735349D01*
X92436495Y-85550000D01*
X91510000Y-85550000D01*
X91510000Y-86474052D01*
X91010000Y-86474052D01*
X91010000Y-85550000D01*
X90083505Y-85550000D01*
X58600500Y-85550000D01*
X58600500Y-85253922D01*
X90910000Y-85253922D01*
X90910000Y-85346078D01*
X90933852Y-85435095D01*
X90979930Y-85514905D01*
X91045095Y-85580070D01*
X91124905Y-85626148D01*
X91213922Y-85650000D01*
X91306078Y-85650000D01*
X91395095Y-85626148D01*
X91474905Y-85580070D01*
X91540070Y-85514905D01*
X91586148Y-85435095D01*
X91610000Y-85346078D01*
X91610000Y-85253922D01*
X91586148Y-85164905D01*
X91540070Y-85085095D01*
X91504975Y-85050000D01*
X91510000Y-85050000D01*
X92436495Y-85050000D01*
X92383760Y-84864650D01*
X92284631Y-84665574D01*
X92150608Y-84488099D01*
X91986261Y-84338278D01*
X91797179Y-84221202D01*
X91797177Y-84221201D01*
X91589799Y-84140864D01*
X91510000Y-84125946D01*
X91510000Y-85050000D01*
X91504975Y-85050000D01*
X91474905Y-85019930D01*
X91395095Y-84973852D01*
X91306078Y-84950000D01*
X91213922Y-84950000D01*
X91124905Y-84973852D01*
X91045095Y-85019930D01*
X90979930Y-85085095D01*
X90933852Y-85164905D01*
X90910000Y-85253922D01*
X58600500Y-85253922D01*
X58600500Y-81873886D01*
X70249500Y-81873886D01*
X70249500Y-83811113D01*
X70249501Y-83811152D01*
X70252295Y-83863743D01*
X70252295Y-83863744D01*
X70296754Y-84093621D01*
X70296755Y-84093626D01*
X70314400Y-84140382D01*
X70379425Y-84312689D01*
X70497929Y-84514631D01*
X70497934Y-84514638D01*
X70648856Y-84693641D01*
X70648858Y-84693643D01*
X70827861Y-84844565D01*
X70827868Y-84844570D01*
X71029810Y-84963074D01*
X71248874Y-85045745D01*
X71478759Y-85090205D01*
X71531378Y-85093000D01*
X71531386Y-85093000D01*
X73468614Y-85093000D01*
X73468622Y-85093000D01*
X73521241Y-85090205D01*
X73751126Y-85045745D01*
X73970190Y-84963074D01*
X74172132Y-84844570D01*
X74351142Y-84693642D01*
X74375025Y-84665316D01*
X74502065Y-84514638D01*
X74502065Y-84514637D01*
X74502070Y-84514632D01*
X74620574Y-84312690D01*
X74703245Y-84093626D01*
X74747705Y-83863741D01*
X74750500Y-83811122D01*
X74750500Y-81873878D01*
X74747705Y-81821259D01*
X74703245Y-81591374D01*
X74620574Y-81372310D01*
X74502070Y-81170368D01*
X74502065Y-81170361D01*
X74351143Y-80991358D01*
X74351141Y-80991356D01*
X74172138Y-80840434D01*
X74172131Y-80840429D01*
X73970189Y-80721925D01*
X73868089Y-80683395D01*
X73751126Y-80639255D01*
X73751121Y-80639254D01*
X73751116Y-80639252D01*
X73748470Y-80638740D01*
X73747451Y-80638213D01*
X73746050Y-80637817D01*
X73746130Y-80637531D01*
X73686392Y-80606677D01*
X73651503Y-80546141D01*
X73654881Y-80476353D01*
X73695452Y-80419470D01*
X73760337Y-80393552D01*
X73772009Y-80392999D01*
X77297872Y-80392999D01*
X77357483Y-80386591D01*
X77492331Y-80336296D01*
X77607546Y-80250046D01*
X77693796Y-80134831D01*
X77744091Y-79999983D01*
X77750500Y-79940373D01*
X77750499Y-76344628D01*
X77744091Y-76285017D01*
X77704571Y-76179059D01*
X77693797Y-76150171D01*
X77693793Y-76150164D01*
X77607547Y-76034955D01*
X77607544Y-76034952D01*
X77492335Y-75948706D01*
X77492328Y-75948702D01*
X77357482Y-75898408D01*
X77357483Y-75898408D01*
X77297883Y-75892001D01*
X77297881Y-75892000D01*
X77297873Y-75892000D01*
X77297865Y-75892000D01*
X76418019Y-75892000D01*
X76350980Y-75872315D01*
X76305225Y-75819511D01*
X76295281Y-75750353D01*
X76324306Y-75686797D01*
X76330338Y-75680319D01*
X76786158Y-75224499D01*
X78279469Y-73731186D01*
X78340790Y-73697703D01*
X78389932Y-73696981D01*
X78408757Y-73700500D01*
X78408759Y-73700500D01*
X78631241Y-73700500D01*
X78631243Y-73700500D01*
X78849940Y-73659618D01*
X79057401Y-73579247D01*
X79246562Y-73462124D01*
X79391801Y-73329721D01*
X79454605Y-73299104D01*
X79523992Y-73307301D01*
X79563020Y-73333677D01*
X81278972Y-75049629D01*
X81312457Y-75110952D01*
X81314819Y-75148117D01*
X81294532Y-75379998D01*
X81294532Y-75380001D01*
X81314364Y-75606686D01*
X81314366Y-75606697D01*
X81373258Y-75826488D01*
X81373261Y-75826497D01*
X81469431Y-76032732D01*
X81469432Y-76032734D01*
X81599954Y-76219141D01*
X81760858Y-76380045D01*
X81760861Y-76380047D01*
X81947266Y-76510568D01*
X82153504Y-76606739D01*
X82373308Y-76665635D01*
X82535230Y-76679801D01*
X82599998Y-76685468D01*
X82600000Y-76685468D01*
X82600001Y-76685468D01*
X82618304Y-76683866D01*
X82826692Y-76665635D01*
X82826697Y-76665633D01*
X82831881Y-76665180D01*
X82900381Y-76678946D01*
X82930370Y-76701027D01*
X85337014Y-79107671D01*
X87716223Y-81486879D01*
X87749708Y-81548202D01*
X87744724Y-81617894D01*
X87702852Y-81673827D01*
X87639350Y-81698088D01*
X87453312Y-81714364D01*
X87453302Y-81714366D01*
X87233511Y-81773258D01*
X87233502Y-81773261D01*
X87027267Y-81869431D01*
X87027265Y-81869432D01*
X86840858Y-81999954D01*
X86679954Y-82160858D01*
X86549432Y-82347265D01*
X86549431Y-82347267D01*
X86522382Y-82405275D01*
X86476209Y-82457714D01*
X86409016Y-82476866D01*
X86342135Y-82456650D01*
X86297618Y-82405275D01*
X86295477Y-82400683D01*
X86270568Y-82347266D01*
X86140047Y-82160861D01*
X86140045Y-82160858D01*
X85979141Y-81999954D01*
X85792734Y-81869432D01*
X85792732Y-81869431D01*
X85586497Y-81773261D01*
X85586488Y-81773258D01*
X85366697Y-81714366D01*
X85366693Y-81714365D01*
X85366692Y-81714365D01*
X85366691Y-81714364D01*
X85366686Y-81714364D01*
X85140002Y-81694532D01*
X85139998Y-81694532D01*
X84913313Y-81714364D01*
X84913302Y-81714366D01*
X84693511Y-81773258D01*
X84693502Y-81773261D01*
X84487267Y-81869431D01*
X84487265Y-81869432D01*
X84300858Y-81999954D01*
X84139951Y-82160861D01*
X84122287Y-82186088D01*
X84067710Y-82229712D01*
X83998211Y-82236904D01*
X83935857Y-82205380D01*
X83900445Y-82145150D01*
X83897425Y-82128218D01*
X83893598Y-82092627D01*
X83893596Y-82092620D01*
X83843354Y-81957913D01*
X83843350Y-81957906D01*
X83757190Y-81842812D01*
X83757187Y-81842809D01*
X83642093Y-81756649D01*
X83642086Y-81756645D01*
X83507379Y-81706403D01*
X83507372Y-81706401D01*
X83447844Y-81700000D01*
X82850000Y-81700000D01*
X82850000Y-82684314D01*
X82845606Y-82679920D01*
X82754394Y-82627259D01*
X82652661Y-82600000D01*
X82547339Y-82600000D01*
X82445606Y-82627259D01*
X82354394Y-82679920D01*
X82350000Y-82684314D01*
X82350000Y-81700000D01*
X81752155Y-81700000D01*
X81692627Y-81706401D01*
X81692620Y-81706403D01*
X81557913Y-81756645D01*
X81557906Y-81756649D01*
X81442812Y-81842809D01*
X81442809Y-81842812D01*
X81356649Y-81957906D01*
X81356645Y-81957913D01*
X81306403Y-82092620D01*
X81306401Y-82092627D01*
X81300000Y-82152155D01*
X81300000Y-82750000D01*
X82284314Y-82750000D01*
X82279920Y-82754394D01*
X82227259Y-82845606D01*
X82200000Y-82947339D01*
X82200000Y-83052661D01*
X82227259Y-83154394D01*
X82279920Y-83245606D01*
X82284314Y-83250000D01*
X81300000Y-83250000D01*
X81300000Y-83847844D01*
X81306401Y-83907372D01*
X81306403Y-83907379D01*
X81356645Y-84042086D01*
X81356649Y-84042093D01*
X81442809Y-84157187D01*
X81442812Y-84157190D01*
X81557906Y-84243350D01*
X81557913Y-84243354D01*
X81692620Y-84293596D01*
X81692627Y-84293598D01*
X81752155Y-84299999D01*
X81752172Y-84300000D01*
X82350000Y-84300000D01*
X82350000Y-83315686D01*
X82354394Y-83320080D01*
X82445606Y-83372741D01*
X82547339Y-83400000D01*
X82652661Y-83400000D01*
X82754394Y-83372741D01*
X82845606Y-83320080D01*
X82850000Y-83315686D01*
X82850000Y-84300000D01*
X83447828Y-84300000D01*
X83447844Y-84299999D01*
X83507372Y-84293598D01*
X83507379Y-84293596D01*
X83642086Y-84243354D01*
X83642093Y-84243350D01*
X83757187Y-84157190D01*
X83757190Y-84157187D01*
X83843350Y-84042093D01*
X83843354Y-84042086D01*
X83893596Y-83907380D01*
X83897424Y-83871781D01*
X83924162Y-83807230D01*
X83981555Y-83767382D01*
X84051380Y-83764888D01*
X84111469Y-83800540D01*
X84122289Y-83813912D01*
X84139956Y-83839143D01*
X84300858Y-84000045D01*
X84307435Y-84004650D01*
X84487266Y-84130568D01*
X84693504Y-84226739D01*
X84913308Y-84285635D01*
X85075230Y-84299801D01*
X85139998Y-84305468D01*
X85140000Y-84305468D01*
X85140002Y-84305468D01*
X85202511Y-84299999D01*
X85366692Y-84285635D01*
X85586496Y-84226739D01*
X85792734Y-84130568D01*
X85979139Y-84000047D01*
X86140047Y-83839139D01*
X86270568Y-83652734D01*
X86297618Y-83594724D01*
X86343790Y-83542285D01*
X86410983Y-83523133D01*
X86477865Y-83543348D01*
X86522382Y-83594725D01*
X86549429Y-83652728D01*
X86549432Y-83652734D01*
X86679954Y-83839141D01*
X86840858Y-84000045D01*
X86847435Y-84004650D01*
X87027266Y-84130568D01*
X87233504Y-84226739D01*
X87453308Y-84285635D01*
X87615230Y-84299801D01*
X87679998Y-84305468D01*
X87680000Y-84305468D01*
X87680002Y-84305468D01*
X87742511Y-84299999D01*
X87906692Y-84285635D01*
X88126496Y-84226739D01*
X88332734Y-84130568D01*
X88519139Y-84000047D01*
X88680047Y-83839139D01*
X88810568Y-83652734D01*
X88837618Y-83594724D01*
X88883790Y-83542285D01*
X88950983Y-83523133D01*
X89017865Y-83543348D01*
X89062382Y-83594725D01*
X89089429Y-83652728D01*
X89089432Y-83652734D01*
X89219954Y-83839141D01*
X89380858Y-84000045D01*
X89387435Y-84004650D01*
X89567266Y-84130568D01*
X89773504Y-84226739D01*
X89993308Y-84285635D01*
X90220000Y-84305468D01*
X90249800Y-84302860D01*
X90318298Y-84316625D01*
X90368482Y-84365239D01*
X90384417Y-84433267D01*
X90361044Y-84499111D01*
X90359562Y-84501115D01*
X90235368Y-84665574D01*
X90136239Y-84864650D01*
X90083505Y-85050000D01*
X91010000Y-85050000D01*
X91010000Y-84099005D01*
X91029685Y-84031966D01*
X91055937Y-84004650D01*
X91054994Y-84003526D01*
X91059138Y-84000048D01*
X91220045Y-83839141D01*
X91220047Y-83839139D01*
X91350568Y-83652734D01*
X91446739Y-83446496D01*
X91504749Y-83230000D01*
X92623505Y-83230000D01*
X92676239Y-83415349D01*
X92775368Y-83614425D01*
X92909391Y-83791900D01*
X93073738Y-83941721D01*
X93262820Y-84058797D01*
X93262822Y-84058798D01*
X93470195Y-84139135D01*
X93550000Y-84154052D01*
X94050000Y-84154052D01*
X94129804Y-84139135D01*
X94337177Y-84058798D01*
X94337179Y-84058797D01*
X94526261Y-83941721D01*
X94690608Y-83791900D01*
X94824631Y-83614425D01*
X94923760Y-83415349D01*
X94976495Y-83230000D01*
X94050000Y-83230000D01*
X94050000Y-84154052D01*
X93550000Y-84154052D01*
X93550000Y-83230000D01*
X92623505Y-83230000D01*
X91504749Y-83230000D01*
X91505635Y-83226692D01*
X91525468Y-83000000D01*
X91519687Y-82933922D01*
X93450000Y-82933922D01*
X93450000Y-83026078D01*
X93473852Y-83115095D01*
X93519930Y-83194905D01*
X93585095Y-83260070D01*
X93664905Y-83306148D01*
X93753922Y-83330000D01*
X93846078Y-83330000D01*
X93935095Y-83306148D01*
X94014905Y-83260070D01*
X94080070Y-83194905D01*
X94126148Y-83115095D01*
X94150000Y-83026078D01*
X94150000Y-82933922D01*
X94126148Y-82844905D01*
X94080070Y-82765095D01*
X94044975Y-82730000D01*
X94050000Y-82730000D01*
X94976495Y-82730000D01*
X94923760Y-82544650D01*
X94824631Y-82345574D01*
X94690608Y-82168099D01*
X94526261Y-82018278D01*
X94337179Y-81901202D01*
X94337177Y-81901201D01*
X94129799Y-81820864D01*
X94050000Y-81805946D01*
X94050000Y-82730000D01*
X94044975Y-82730000D01*
X94014905Y-82699930D01*
X93935095Y-82653852D01*
X93846078Y-82630000D01*
X93753922Y-82630000D01*
X93664905Y-82653852D01*
X93585095Y-82699930D01*
X93519930Y-82765095D01*
X93473852Y-82844905D01*
X93450000Y-82933922D01*
X91519687Y-82933922D01*
X91505635Y-82773308D01*
X91494031Y-82730000D01*
X92623505Y-82730000D01*
X93550000Y-82730000D01*
X93550000Y-81805946D01*
X93470200Y-81820864D01*
X93262822Y-81901201D01*
X93262820Y-81901202D01*
X93073738Y-82018278D01*
X92909391Y-82168099D01*
X92775368Y-82345574D01*
X92676239Y-82544650D01*
X92623505Y-82730000D01*
X91494031Y-82730000D01*
X91446739Y-82553504D01*
X91350568Y-82347266D01*
X91220047Y-82160861D01*
X91220045Y-82160858D01*
X91059141Y-81999954D01*
X90872734Y-81869432D01*
X90872732Y-81869431D01*
X90666497Y-81773261D01*
X90666488Y-81773258D01*
X90446697Y-81714366D01*
X90446693Y-81714365D01*
X90446692Y-81714365D01*
X90446691Y-81714364D01*
X90446686Y-81714364D01*
X90220002Y-81694532D01*
X90219998Y-81694532D01*
X89988116Y-81714819D01*
X89919616Y-81701052D01*
X89889628Y-81678972D01*
X85103776Y-76893120D01*
X85070291Y-76831797D01*
X85075275Y-76762105D01*
X85117147Y-76706172D01*
X85180648Y-76681911D01*
X85366692Y-76665635D01*
X85586496Y-76606739D01*
X85792734Y-76510568D01*
X85979139Y-76380047D01*
X86140047Y-76219139D01*
X86270568Y-76032734D01*
X86297618Y-75974724D01*
X86343790Y-75922285D01*
X86410983Y-75903133D01*
X86477865Y-75923348D01*
X86522382Y-75974725D01*
X86549429Y-76032728D01*
X86549432Y-76032734D01*
X86679954Y-76219141D01*
X86840858Y-76380045D01*
X86840861Y-76380047D01*
X87027266Y-76510568D01*
X87233504Y-76606739D01*
X87453308Y-76665635D01*
X87615230Y-76679801D01*
X87679998Y-76685468D01*
X87680000Y-76685468D01*
X87680002Y-76685468D01*
X87736673Y-76680509D01*
X87906692Y-76665635D01*
X88126496Y-76606739D01*
X88332734Y-76510568D01*
X88519139Y-76380047D01*
X88680047Y-76219139D01*
X88810568Y-76032734D01*
X88837618Y-75974724D01*
X88883790Y-75922285D01*
X88950983Y-75903133D01*
X89017865Y-75923348D01*
X89062382Y-75974725D01*
X89089429Y-76032728D01*
X89089432Y-76032734D01*
X89219954Y-76219141D01*
X89380858Y-76380045D01*
X89380861Y-76380047D01*
X89567266Y-76510568D01*
X89773504Y-76606739D01*
X89993308Y-76665635D01*
X90155230Y-76679801D01*
X90219998Y-76685468D01*
X90220000Y-76685468D01*
X90220002Y-76685468D01*
X90276673Y-76680509D01*
X90446692Y-76665635D01*
X90666496Y-76606739D01*
X90872734Y-76510568D01*
X91059139Y-76380047D01*
X91220047Y-76219139D01*
X91350568Y-76032734D01*
X91446739Y-75826496D01*
X91505635Y-75606692D01*
X91525468Y-75380000D01*
X91505635Y-75153308D01*
X91453181Y-74957546D01*
X91446741Y-74933511D01*
X91446738Y-74933502D01*
X91421460Y-74879294D01*
X91350568Y-74727266D01*
X91220047Y-74540861D01*
X91220045Y-74540858D01*
X91059141Y-74379954D01*
X90872734Y-74249432D01*
X90872732Y-74249431D01*
X90666497Y-74153261D01*
X90666491Y-74153259D01*
X90645944Y-74147754D01*
X90586284Y-74111389D01*
X90555755Y-74048542D01*
X90564050Y-73979166D01*
X90590354Y-73940301D01*
X90799469Y-73731186D01*
X90860790Y-73697703D01*
X90909932Y-73696981D01*
X90928757Y-73700500D01*
X90928759Y-73700500D01*
X91151241Y-73700500D01*
X91151243Y-73700500D01*
X91369940Y-73659618D01*
X91577401Y-73579247D01*
X91766562Y-73462124D01*
X91930981Y-73312236D01*
X92065058Y-73134689D01*
X92164229Y-72935528D01*
X92181234Y-72875760D01*
X92218513Y-72816668D01*
X92281823Y-72787110D01*
X92351062Y-72796472D01*
X92404249Y-72841782D01*
X92424496Y-72908653D01*
X92424500Y-72909695D01*
X92424500Y-74647870D01*
X92424501Y-74647876D01*
X92430908Y-74707483D01*
X92481202Y-74842328D01*
X92481206Y-74842335D01*
X92567452Y-74957544D01*
X92567455Y-74957547D01*
X92682664Y-75043793D01*
X92682671Y-75043797D01*
X92698308Y-75049629D01*
X92817517Y-75094091D01*
X92877127Y-75100500D01*
X92975500Y-75100499D01*
X93042538Y-75120183D01*
X93088294Y-75172986D01*
X93099500Y-75224499D01*
X93099500Y-76859365D01*
X93079815Y-76926404D01*
X93059039Y-76951002D01*
X92909018Y-77087764D01*
X92774943Y-77265308D01*
X92774938Y-77265316D01*
X92675775Y-77464461D01*
X92675769Y-77464476D01*
X92614885Y-77678462D01*
X92614884Y-77678464D01*
X92594357Y-77899999D01*
X92594357Y-77900000D01*
X92614884Y-78121535D01*
X92614885Y-78121537D01*
X92675769Y-78335523D01*
X92675775Y-78335538D01*
X92774938Y-78534683D01*
X92774943Y-78534691D01*
X92909020Y-78712238D01*
X93059590Y-78849500D01*
X93066620Y-78855909D01*
X93073437Y-78862123D01*
X93073439Y-78862125D01*
X93262595Y-78979245D01*
X93262596Y-78979245D01*
X93262599Y-78979247D01*
X93470060Y-79059618D01*
X93688757Y-79100500D01*
X93688759Y-79100500D01*
X93911241Y-79100500D01*
X93911243Y-79100500D01*
X94129940Y-79059618D01*
X94337401Y-78979247D01*
X94526562Y-78862124D01*
X94690981Y-78712236D01*
X94825058Y-78534689D01*
X94924229Y-78335528D01*
X94985115Y-78121536D01*
X95005643Y-77900000D01*
X94985115Y-77678464D01*
X94924229Y-77464472D01*
X94924224Y-77464461D01*
X94825061Y-77265316D01*
X94825056Y-77265308D01*
X94690981Y-77087764D01*
X94540961Y-76951002D01*
X94504680Y-76891290D01*
X94500500Y-76859365D01*
X94500500Y-75224499D01*
X94520185Y-75157460D01*
X94572989Y-75111705D01*
X94624500Y-75100499D01*
X94772871Y-75100499D01*
X94772872Y-75100499D01*
X94832483Y-75094091D01*
X94967331Y-75043796D01*
X95082546Y-74957546D01*
X95168796Y-74842331D01*
X95170915Y-74836650D01*
X95197455Y-74765493D01*
X95239326Y-74709559D01*
X95304790Y-74685141D01*
X95373063Y-74699992D01*
X95404866Y-74724843D01*
X95407097Y-74727266D01*
X95413215Y-74733912D01*
X95413222Y-74733918D01*
X95596364Y-74876463D01*
X95596367Y-74876465D01*
X95596374Y-74876470D01*
X95599512Y-74878168D01*
X95600549Y-74879197D01*
X95600662Y-74879271D01*
X95600646Y-74879294D01*
X95649104Y-74927383D01*
X95664500Y-74987225D01*
X95664500Y-78096006D01*
X95664500Y-78233994D01*
X95664500Y-78233996D01*
X95664499Y-78233996D01*
X95691418Y-78369322D01*
X95691421Y-78369332D01*
X95744222Y-78496807D01*
X95820887Y-78611545D01*
X95820888Y-78611546D01*
X97208630Y-79999287D01*
X97237990Y-80046013D01*
X97274209Y-80149519D01*
X97274211Y-80149522D01*
X97370184Y-80302262D01*
X97497738Y-80429816D01*
X97650478Y-80525789D01*
X97698270Y-80542512D01*
X97820745Y-80585368D01*
X97820749Y-80585369D01*
X97911607Y-80595605D01*
X97939383Y-80598735D01*
X98003797Y-80625801D01*
X98043352Y-80683395D01*
X98049500Y-80721955D01*
X98049500Y-82197870D01*
X98049501Y-82197876D01*
X98055908Y-82257483D01*
X98106202Y-82392329D01*
X98106206Y-82392334D01*
X98106379Y-82392566D01*
X98106479Y-82392836D01*
X98110453Y-82400112D01*
X98109406Y-82400683D01*
X98130793Y-82458032D01*
X98115937Y-82526304D01*
X98094789Y-82554552D01*
X96580531Y-84068810D01*
X96519208Y-84102295D01*
X96470070Y-84103019D01*
X96462968Y-84101691D01*
X96451243Y-84099500D01*
X96228757Y-84099500D01*
X96010060Y-84140382D01*
X95966674Y-84157190D01*
X95802601Y-84220752D01*
X95802595Y-84220754D01*
X95613439Y-84337874D01*
X95613437Y-84337876D01*
X95449020Y-84487761D01*
X95314943Y-84665308D01*
X95314938Y-84665316D01*
X95215775Y-84864461D01*
X95215769Y-84864476D01*
X95154885Y-85078462D01*
X95154884Y-85078464D01*
X95134357Y-85299999D01*
X95134357Y-85300000D01*
X95154884Y-85521535D01*
X95154885Y-85521537D01*
X95215769Y-85735523D01*
X95215775Y-85735538D01*
X95314938Y-85934683D01*
X95314943Y-85934691D01*
X95449020Y-86112238D01*
X95613437Y-86262123D01*
X95613439Y-86262125D01*
X95802595Y-86379245D01*
X95802596Y-86379245D01*
X95802599Y-86379247D01*
X96010060Y-86459618D01*
X96228757Y-86500500D01*
X96228759Y-86500500D01*
X96451241Y-86500500D01*
X96451243Y-86500500D01*
X96669940Y-86459618D01*
X96877401Y-86379247D01*
X97066562Y-86262124D01*
X97230981Y-86112236D01*
X97365058Y-85934689D01*
X97464229Y-85735528D01*
X97525115Y-85521536D01*
X97545643Y-85300000D01*
X97532781Y-85161203D01*
X97546196Y-85092637D01*
X97568568Y-85062087D01*
X99844114Y-82786543D01*
X99881895Y-82730000D01*
X99898193Y-82705609D01*
X99951805Y-82660803D01*
X100001295Y-82650499D01*
X100097871Y-82650499D01*
X100097872Y-82650499D01*
X100157483Y-82644091D01*
X100292331Y-82593796D01*
X100407546Y-82507546D01*
X100493796Y-82392331D01*
X100544091Y-82257483D01*
X100550500Y-82197873D01*
X100550499Y-80602128D01*
X100544091Y-80542517D01*
X100544090Y-80542515D01*
X100544090Y-80542512D01*
X100542308Y-80534969D01*
X100543773Y-80534622D01*
X100539409Y-80473651D01*
X100543819Y-80458633D01*
X100544089Y-80457488D01*
X100544091Y-80457483D01*
X100550500Y-80397873D01*
X100550499Y-79302128D01*
X100544091Y-79242517D01*
X100530726Y-79206684D01*
X100493797Y-79107671D01*
X100493793Y-79107664D01*
X100407547Y-78992455D01*
X100407544Y-78992452D01*
X100292335Y-78906206D01*
X100292328Y-78906202D01*
X100157482Y-78855908D01*
X100157483Y-78855908D01*
X100097883Y-78849501D01*
X100097881Y-78849500D01*
X100097873Y-78849500D01*
X100097864Y-78849500D01*
X98502129Y-78849500D01*
X98502123Y-78849501D01*
X98442516Y-78855908D01*
X98307671Y-78906202D01*
X98307666Y-78906205D01*
X98273122Y-78932064D01*
X98207658Y-78956479D01*
X98139385Y-78941626D01*
X98111133Y-78920476D01*
X97101819Y-77911162D01*
X97068334Y-77849839D01*
X97065500Y-77823481D01*
X97065500Y-74987225D01*
X97085185Y-74920186D01*
X97130487Y-74878168D01*
X97133626Y-74876470D01*
X97316784Y-74733913D01*
X97473979Y-74563153D01*
X97600924Y-74368849D01*
X97694157Y-74156300D01*
X97751134Y-73931305D01*
X97767716Y-73731188D01*
X97770300Y-73700006D01*
X97770300Y-73699993D01*
X97751135Y-73468702D01*
X97751133Y-73468691D01*
X97694157Y-73243699D01*
X97600924Y-73031151D01*
X97473983Y-72836852D01*
X97473980Y-72836849D01*
X97473979Y-72836847D01*
X97316784Y-72666087D01*
X97316779Y-72666083D01*
X97316777Y-72666081D01*
X97133634Y-72523535D01*
X97133628Y-72523531D01*
X96929504Y-72413064D01*
X96929495Y-72413061D01*
X96709984Y-72337702D01*
X96519450Y-72305908D01*
X96481049Y-72299500D01*
X96248951Y-72299500D01*
X96210550Y-72305908D01*
X96020015Y-72337702D01*
X95800504Y-72413061D01*
X95800495Y-72413064D01*
X95596371Y-72523531D01*
X95596365Y-72523535D01*
X95413222Y-72666081D01*
X95413218Y-72666085D01*
X95404866Y-72675158D01*
X95344979Y-72711148D01*
X95275141Y-72709047D01*
X95217525Y-72669522D01*
X95197455Y-72634507D01*
X95168797Y-72557671D01*
X95168793Y-72557664D01*
X95082547Y-72442455D01*
X95082544Y-72442452D01*
X94967335Y-72356206D01*
X94967328Y-72356202D01*
X94832482Y-72305908D01*
X94832483Y-72305908D01*
X94772883Y-72299501D01*
X94772881Y-72299500D01*
X94772873Y-72299500D01*
X94772864Y-72299500D01*
X92877129Y-72299500D01*
X92877123Y-72299501D01*
X92817516Y-72305908D01*
X92682671Y-72356202D01*
X92682664Y-72356206D01*
X92567455Y-72442452D01*
X92567452Y-72442455D01*
X92481204Y-72557667D01*
X92478473Y-72562669D01*
X92429066Y-72612072D01*
X92360793Y-72626922D01*
X92295329Y-72602502D01*
X92253460Y-72546567D01*
X92245643Y-72503238D01*
X92245643Y-72499999D01*
X92225115Y-72278464D01*
X92225114Y-72278462D01*
X92182388Y-72128296D01*
X92164229Y-72064472D01*
X92135453Y-72006682D01*
X92065061Y-71865316D01*
X92065056Y-71865308D01*
X91930979Y-71687761D01*
X91766562Y-71537876D01*
X91766560Y-71537874D01*
X91577404Y-71420754D01*
X91577398Y-71420752D01*
X91369940Y-71340382D01*
X91175351Y-71304006D01*
X91113071Y-71272338D01*
X91110456Y-71269799D01*
X90950098Y-71109441D01*
X90916613Y-71048118D01*
X90921597Y-70978426D01*
X90963469Y-70922493D01*
X91026972Y-70898232D01*
X91176599Y-70885141D01*
X91176610Y-70885139D01*
X91396317Y-70826269D01*
X91396331Y-70826264D01*
X91602478Y-70730136D01*
X91675471Y-70679024D01*
X90996447Y-70000000D01*
X91002661Y-70000000D01*
X91104394Y-69972741D01*
X91195606Y-69920080D01*
X91270080Y-69845606D01*
X91322741Y-69754394D01*
X91350000Y-69652661D01*
X91350000Y-69646447D01*
X92029024Y-70325471D01*
X92080136Y-70252478D01*
X92176264Y-70046331D01*
X92176269Y-70046317D01*
X92235139Y-69826610D01*
X92235141Y-69826599D01*
X92254966Y-69600002D01*
X92254966Y-69599997D01*
X92235141Y-69373400D01*
X92235139Y-69373389D01*
X92176269Y-69153682D01*
X92176264Y-69153668D01*
X92080136Y-68947521D01*
X92080132Y-68947513D01*
X92029025Y-68874526D01*
X91350000Y-69553551D01*
X91350000Y-69547339D01*
X91322741Y-69445606D01*
X91270080Y-69354394D01*
X91195606Y-69279920D01*
X91104394Y-69227259D01*
X91002661Y-69200000D01*
X90996448Y-69200000D01*
X91675472Y-68520974D01*
X91602478Y-68469863D01*
X91396331Y-68373735D01*
X91396317Y-68373730D01*
X91176610Y-68314860D01*
X91176599Y-68314858D01*
X90950002Y-68295034D01*
X90949998Y-68295034D01*
X90723400Y-68314858D01*
X90723389Y-68314860D01*
X90503682Y-68373730D01*
X90503673Y-68373734D01*
X90297516Y-68469866D01*
X90297512Y-68469868D01*
X90224526Y-68520973D01*
X90224526Y-68520974D01*
X90903553Y-69200000D01*
X90897339Y-69200000D01*
X90795606Y-69227259D01*
X90704394Y-69279920D01*
X90629920Y-69354394D01*
X90577259Y-69445606D01*
X90550000Y-69547339D01*
X90550000Y-69553552D01*
X89870974Y-68874526D01*
X89870973Y-68874526D01*
X89819868Y-68947512D01*
X89819867Y-68947514D01*
X89812656Y-68962979D01*
X89766482Y-69015417D01*
X89699288Y-69034567D01*
X89632407Y-69014350D01*
X89587893Y-68962976D01*
X89580568Y-68947266D01*
X89450047Y-68760861D01*
X89450045Y-68760858D01*
X89289141Y-68599954D01*
X89102734Y-68469432D01*
X89102732Y-68469431D01*
X88896497Y-68373261D01*
X88896488Y-68373258D01*
X88676697Y-68314366D01*
X88676693Y-68314365D01*
X88676692Y-68314365D01*
X88676691Y-68314364D01*
X88676686Y-68314364D01*
X88450002Y-68294532D01*
X88449998Y-68294532D01*
X88223313Y-68314364D01*
X88223302Y-68314366D01*
X88003511Y-68373258D01*
X88003502Y-68373261D01*
X87797267Y-68469431D01*
X87797265Y-68469432D01*
X87610858Y-68599954D01*
X87449954Y-68760858D01*
X87319432Y-68947265D01*
X87319431Y-68947267D01*
X87223261Y-69153502D01*
X87223258Y-69153511D01*
X87164366Y-69373302D01*
X87164364Y-69373313D01*
X87144532Y-69599998D01*
X87144532Y-69600001D01*
X87164364Y-69826686D01*
X87164366Y-69826697D01*
X87223258Y-70046488D01*
X87223261Y-70046497D01*
X87319431Y-70252732D01*
X87319432Y-70252734D01*
X87449954Y-70439141D01*
X87610858Y-70600045D01*
X87610861Y-70600047D01*
X87797266Y-70730568D01*
X88003504Y-70826739D01*
X88223308Y-70885635D01*
X88385230Y-70899801D01*
X88449998Y-70905468D01*
X88450000Y-70905468D01*
X88450001Y-70905468D01*
X88468304Y-70903866D01*
X88676692Y-70885635D01*
X88676697Y-70885633D01*
X88681881Y-70885180D01*
X88750381Y-70898946D01*
X88780370Y-70921027D01*
X89866025Y-72006682D01*
X89899510Y-72068005D01*
X89897611Y-72128296D01*
X89854884Y-72278466D01*
X89834357Y-72499999D01*
X89834357Y-72500001D01*
X89847217Y-72638793D01*
X89833802Y-72707362D01*
X89811427Y-72737914D01*
X88371744Y-74177597D01*
X88310421Y-74211082D01*
X88240729Y-74206098D01*
X88231659Y-74202299D01*
X88178685Y-74177597D01*
X88126496Y-74153261D01*
X88126493Y-74153260D01*
X88126488Y-74153258D01*
X87906697Y-74094366D01*
X87906693Y-74094365D01*
X87906692Y-74094365D01*
X87906691Y-74094364D01*
X87906686Y-74094364D01*
X87680002Y-74074532D01*
X87679998Y-74074532D01*
X87453313Y-74094364D01*
X87453302Y-74094366D01*
X87233511Y-74153258D01*
X87233502Y-74153261D01*
X87027267Y-74249431D01*
X87027265Y-74249432D01*
X86840858Y-74379954D01*
X86679954Y-74540858D01*
X86549432Y-74727265D01*
X86549431Y-74727267D01*
X86522382Y-74785275D01*
X86476209Y-74837714D01*
X86409016Y-74856866D01*
X86342135Y-74836650D01*
X86297618Y-74785275D01*
X86270568Y-74727266D01*
X86140047Y-74540861D01*
X85979139Y-74379953D01*
X85893376Y-74319901D01*
X85849751Y-74265324D01*
X85840500Y-74218326D01*
X85840500Y-73824500D01*
X85860185Y-73757461D01*
X85912989Y-73711706D01*
X85964500Y-73700500D01*
X86071241Y-73700500D01*
X86071243Y-73700500D01*
X86289940Y-73659618D01*
X86497401Y-73579247D01*
X86686562Y-73462124D01*
X86850981Y-73312236D01*
X86985058Y-73134689D01*
X87084229Y-72935528D01*
X87145115Y-72721536D01*
X87165643Y-72500000D01*
X87160310Y-72442452D01*
X87145115Y-72278464D01*
X87145114Y-72278462D01*
X87102388Y-72128296D01*
X87084229Y-72064472D01*
X87055453Y-72006682D01*
X86985061Y-71865316D01*
X86985056Y-71865308D01*
X86850979Y-71687761D01*
X86686562Y-71537876D01*
X86686560Y-71537874D01*
X86497404Y-71420754D01*
X86497398Y-71420752D01*
X86289940Y-71340382D01*
X86071243Y-71299500D01*
X85848757Y-71299500D01*
X85630060Y-71340382D01*
X85498864Y-71391207D01*
X85422601Y-71420752D01*
X85422595Y-71420754D01*
X85233439Y-71537874D01*
X85233437Y-71537876D01*
X85069020Y-71687761D01*
X85021849Y-71750227D01*
X84965740Y-71791863D01*
X84922895Y-71799500D01*
X84637105Y-71799500D01*
X84570066Y-71779815D01*
X84538151Y-71750227D01*
X84490979Y-71687761D01*
X84326562Y-71537876D01*
X84326560Y-71537874D01*
X84137404Y-71420754D01*
X84137398Y-71420752D01*
X83929940Y-71340382D01*
X83711243Y-71299500D01*
X83488757Y-71299500D01*
X83270060Y-71340382D01*
X83138864Y-71391207D01*
X83062601Y-71420752D01*
X83062595Y-71420754D01*
X82873439Y-71537874D01*
X82873437Y-71537876D01*
X82709020Y-71687761D01*
X82574943Y-71865308D01*
X82574938Y-71865316D01*
X82475775Y-72064461D01*
X82475769Y-72064476D01*
X82414885Y-72278462D01*
X82414884Y-72278464D01*
X82394357Y-72499999D01*
X82394357Y-72500000D01*
X82414884Y-72721535D01*
X82414885Y-72721537D01*
X82475769Y-72935523D01*
X82475775Y-72935538D01*
X82574938Y-73134683D01*
X82574943Y-73134691D01*
X82709020Y-73312238D01*
X82873437Y-73462123D01*
X82873439Y-73462125D01*
X83062595Y-73579245D01*
X83062596Y-73579245D01*
X83062599Y-73579247D01*
X83270060Y-73659618D01*
X83488757Y-73700500D01*
X83488759Y-73700500D01*
X83711241Y-73700500D01*
X83711243Y-73700500D01*
X83929940Y-73659618D01*
X84137401Y-73579247D01*
X84250223Y-73509391D01*
X84317583Y-73490836D01*
X84384283Y-73511644D01*
X84429144Y-73565209D01*
X84439500Y-73614818D01*
X84439500Y-74218326D01*
X84419815Y-74285365D01*
X84386624Y-74319901D01*
X84300863Y-74379951D01*
X84139951Y-74540862D01*
X84009432Y-74727265D01*
X84009431Y-74727267D01*
X83982382Y-74785275D01*
X83936209Y-74837714D01*
X83869016Y-74856866D01*
X83802135Y-74836650D01*
X83757618Y-74785275D01*
X83730568Y-74727266D01*
X83600047Y-74540861D01*
X83600045Y-74540858D01*
X83439141Y-74379954D01*
X83252734Y-74249432D01*
X83252732Y-74249431D01*
X83046497Y-74153261D01*
X83046488Y-74153258D01*
X82826697Y-74094366D01*
X82826693Y-74094365D01*
X82826692Y-74094365D01*
X82826691Y-74094364D01*
X82826686Y-74094364D01*
X82600002Y-74074532D01*
X82599998Y-74074532D01*
X82368117Y-74094819D01*
X82299617Y-74081052D01*
X82269629Y-74058972D01*
X80166546Y-71955888D01*
X80166545Y-71955887D01*
X80051807Y-71879222D01*
X79924332Y-71826421D01*
X79924322Y-71826418D01*
X79788996Y-71799500D01*
X79788994Y-71799500D01*
X79788993Y-71799500D01*
X79557105Y-71799500D01*
X79490066Y-71779815D01*
X79458151Y-71750227D01*
X79410979Y-71687761D01*
X79246562Y-71537876D01*
X79246560Y-71537874D01*
X79057404Y-71420754D01*
X79057398Y-71420752D01*
X78849940Y-71340382D01*
X78631243Y-71299500D01*
X78408757Y-71299500D01*
X78190060Y-71340382D01*
X78058864Y-71391207D01*
X77982601Y-71420752D01*
X77982595Y-71420754D01*
X77793439Y-71537874D01*
X77793437Y-71537876D01*
X77629020Y-71687761D01*
X77494943Y-71865308D01*
X77494938Y-71865316D01*
X77395775Y-72064461D01*
X77395769Y-72064476D01*
X77334885Y-72278462D01*
X77334884Y-72278464D01*
X77314357Y-72499999D01*
X77314357Y-72500001D01*
X77327217Y-72638793D01*
X77313802Y-72707362D01*
X77291427Y-72737914D01*
X74955887Y-75073454D01*
X74879222Y-75188192D01*
X74826421Y-75315667D01*
X74826418Y-75315679D01*
X74799905Y-75448970D01*
X74799900Y-75448998D01*
X74799500Y-75451006D01*
X74799500Y-75768000D01*
X74779815Y-75835039D01*
X74727011Y-75880794D01*
X74675500Y-75892000D01*
X73702129Y-75892000D01*
X73702123Y-75892001D01*
X73642516Y-75898408D01*
X73507671Y-75948702D01*
X73507664Y-75948706D01*
X73392455Y-76034952D01*
X73392452Y-76034955D01*
X73306206Y-76150164D01*
X73306202Y-76150171D01*
X73255908Y-76285017D01*
X73249501Y-76344616D01*
X73249501Y-76344623D01*
X73249500Y-76344635D01*
X73249500Y-79940370D01*
X73249501Y-79940376D01*
X73255908Y-79999983D01*
X73306202Y-80134828D01*
X73306206Y-80134835D01*
X73392452Y-80250044D01*
X73392455Y-80250047D01*
X73507664Y-80336293D01*
X73507673Y-80336298D01*
X73554937Y-80353926D01*
X73610871Y-80395796D01*
X73635289Y-80461260D01*
X73620438Y-80529533D01*
X73571033Y-80578939D01*
X73505028Y-80593933D01*
X73468657Y-80592001D01*
X73468628Y-80592000D01*
X73468622Y-80592000D01*
X71531378Y-80592000D01*
X71531370Y-80592000D01*
X71531347Y-80592001D01*
X71478756Y-80594795D01*
X71478755Y-80594795D01*
X71248878Y-80639254D01*
X71248876Y-80639254D01*
X71248874Y-80639255D01*
X71174933Y-80667159D01*
X71029810Y-80721925D01*
X70827868Y-80840429D01*
X70827861Y-80840434D01*
X70648858Y-80991356D01*
X70648856Y-80991358D01*
X70497934Y-81170361D01*
X70497929Y-81170368D01*
X70379425Y-81372310D01*
X70324659Y-81517433D01*
X70296755Y-81591374D01*
X70296754Y-81591376D01*
X70296754Y-81591378D01*
X70252295Y-81821255D01*
X70252295Y-81821256D01*
X70249501Y-81873847D01*
X70249500Y-81873886D01*
X58600500Y-81873886D01*
X58600500Y-77078303D01*
X67500000Y-77078303D01*
X67500000Y-77892500D01*
X69000000Y-77892500D01*
X69000000Y-78392500D01*
X67500001Y-78392500D01*
X67500001Y-79206697D01*
X67510400Y-79338832D01*
X67565377Y-79557019D01*
X67658428Y-79761874D01*
X67658431Y-79761880D01*
X67786559Y-79946823D01*
X67786569Y-79946835D01*
X67945664Y-80105930D01*
X67945676Y-80105940D01*
X68130619Y-80234068D01*
X68130625Y-80234071D01*
X68335480Y-80327122D01*
X68553667Y-80382099D01*
X68685810Y-80392499D01*
X69249999Y-80392499D01*
X69250000Y-80392498D01*
X69250000Y-79575512D01*
X69307007Y-79608425D01*
X69434174Y-79642500D01*
X69565826Y-79642500D01*
X69692993Y-79608425D01*
X69750000Y-79575512D01*
X69750000Y-80392499D01*
X70314182Y-80392499D01*
X70314197Y-80392498D01*
X70446332Y-80382099D01*
X70664519Y-80327122D01*
X70869374Y-80234071D01*
X70869380Y-80234068D01*
X71054323Y-80105940D01*
X71054335Y-80105930D01*
X71213430Y-79946835D01*
X71213440Y-79946823D01*
X71341568Y-79761880D01*
X71341571Y-79761874D01*
X71434622Y-79557019D01*
X71489599Y-79338832D01*
X71499999Y-79206696D01*
X71500000Y-79206684D01*
X71500000Y-78392500D01*
X70000000Y-78392500D01*
X70000000Y-77892500D01*
X71499999Y-77892500D01*
X71499999Y-77078317D01*
X71499998Y-77078302D01*
X71489599Y-76946167D01*
X71434622Y-76727980D01*
X71341571Y-76523125D01*
X71341568Y-76523119D01*
X71213440Y-76338176D01*
X71213430Y-76338164D01*
X71054335Y-76179069D01*
X71054323Y-76179059D01*
X70869380Y-76050931D01*
X70869374Y-76050928D01*
X70664519Y-75957877D01*
X70446332Y-75902900D01*
X70314196Y-75892500D01*
X69750000Y-75892500D01*
X69750000Y-76709488D01*
X69692993Y-76676575D01*
X69565826Y-76642500D01*
X69434174Y-76642500D01*
X69307007Y-76676575D01*
X69250000Y-76709488D01*
X69250000Y-75892500D01*
X68685817Y-75892500D01*
X68685802Y-75892501D01*
X68553667Y-75902900D01*
X68335480Y-75957877D01*
X68130625Y-76050928D01*
X68130619Y-76050931D01*
X67945676Y-76179059D01*
X67945664Y-76179069D01*
X67786569Y-76338164D01*
X67786559Y-76338176D01*
X67658431Y-76523119D01*
X67658428Y-76523125D01*
X67565377Y-76727980D01*
X67510400Y-76946167D01*
X67500000Y-77078303D01*
X58600500Y-77078303D01*
X58600500Y-67750000D01*
X59745065Y-67750000D01*
X59764786Y-68076038D01*
X59823667Y-68397341D01*
X59920835Y-68709164D01*
X59920839Y-68709175D01*
X60054897Y-69007041D01*
X60054898Y-69007043D01*
X60223881Y-69286576D01*
X60371476Y-69474968D01*
X61513708Y-68332736D01*
X61610967Y-68466602D01*
X61733398Y-68589033D01*
X61867262Y-68686290D01*
X60725030Y-69828522D01*
X60725030Y-69828523D01*
X60913423Y-69976118D01*
X61192956Y-70145101D01*
X61192958Y-70145102D01*
X61490824Y-70279160D01*
X61490835Y-70279164D01*
X61802658Y-70376332D01*
X62123961Y-70435213D01*
X62450000Y-70454934D01*
X62776038Y-70435213D01*
X63097341Y-70376332D01*
X63409164Y-70279164D01*
X63409175Y-70279160D01*
X63707041Y-70145102D01*
X63707043Y-70145101D01*
X63986586Y-69976112D01*
X64174968Y-69828523D01*
X64174968Y-69828522D01*
X63032737Y-68686290D01*
X63166602Y-68589033D01*
X63289033Y-68466602D01*
X63386290Y-68332737D01*
X64528522Y-69474968D01*
X64528523Y-69474968D01*
X64676112Y-69286586D01*
X64845101Y-69007043D01*
X64845102Y-69007041D01*
X64979160Y-68709175D01*
X64979164Y-68709164D01*
X65076332Y-68397341D01*
X65135213Y-68076038D01*
X65154934Y-67750000D01*
X65145481Y-67593713D01*
X71949500Y-67593713D01*
X71949500Y-67806286D01*
X71982753Y-68016239D01*
X72048444Y-68218414D01*
X72144951Y-68407820D01*
X72269890Y-68579786D01*
X72420213Y-68730109D01*
X72592179Y-68855048D01*
X72592181Y-68855049D01*
X72592184Y-68855051D01*
X72781588Y-68951557D01*
X72983757Y-69017246D01*
X73193713Y-69050500D01*
X73193714Y-69050500D01*
X73406286Y-69050500D01*
X73406287Y-69050500D01*
X73616243Y-69017246D01*
X73818412Y-68951557D01*
X74007816Y-68855051D01*
X74125692Y-68769410D01*
X74179786Y-68730109D01*
X74179788Y-68730106D01*
X74179792Y-68730104D01*
X74330104Y-68579792D01*
X74330106Y-68579788D01*
X74330109Y-68579786D01*
X74455048Y-68407820D01*
X74455047Y-68407820D01*
X74455051Y-68407816D01*
X74551557Y-68218412D01*
X74617246Y-68016243D01*
X74650500Y-67806287D01*
X74650500Y-67700000D01*
X95295065Y-67700000D01*
X95314786Y-68026038D01*
X95373667Y-68347341D01*
X95470835Y-68659164D01*
X95470839Y-68659175D01*
X95604897Y-68957041D01*
X95604898Y-68957043D01*
X95773881Y-69236576D01*
X95921476Y-69424968D01*
X97063708Y-68282736D01*
X97160967Y-68416602D01*
X97283398Y-68539033D01*
X97417262Y-68636290D01*
X96275030Y-69778522D01*
X96275030Y-69778523D01*
X96463423Y-69926118D01*
X96742956Y-70095101D01*
X96742958Y-70095102D01*
X97040824Y-70229160D01*
X97040835Y-70229164D01*
X97352658Y-70326332D01*
X97673961Y-70385213D01*
X98000000Y-70404934D01*
X98326038Y-70385213D01*
X98647341Y-70326332D01*
X98959164Y-70229164D01*
X98959175Y-70229160D01*
X99257041Y-70095102D01*
X99257043Y-70095101D01*
X99536586Y-69926112D01*
X99724968Y-69778523D01*
X99724968Y-69778522D01*
X98582737Y-68636290D01*
X98716602Y-68539033D01*
X98839033Y-68416602D01*
X98936290Y-68282737D01*
X100078522Y-69424968D01*
X100078523Y-69424968D01*
X100226112Y-69236586D01*
X100395101Y-68957043D01*
X100395102Y-68957041D01*
X100529160Y-68659175D01*
X100529164Y-68659164D01*
X100626332Y-68347341D01*
X100685213Y-68026038D01*
X100704934Y-67700000D01*
X100685213Y-67373961D01*
X100626332Y-67052658D01*
X100529164Y-66740835D01*
X100529160Y-66740824D01*
X100395102Y-66442958D01*
X100395101Y-66442956D01*
X100226118Y-66163423D01*
X100078522Y-65975030D01*
X98936290Y-67117262D01*
X98839033Y-66983398D01*
X98716602Y-66860967D01*
X98582736Y-66763709D01*
X99724968Y-65621476D01*
X99536576Y-65473881D01*
X99257043Y-65304898D01*
X99257041Y-65304897D01*
X98959175Y-65170839D01*
X98959164Y-65170835D01*
X98647341Y-65073667D01*
X98326038Y-65014786D01*
X98000000Y-64995065D01*
X97673961Y-65014786D01*
X97352658Y-65073667D01*
X97040835Y-65170835D01*
X97040824Y-65170839D01*
X96742958Y-65304897D01*
X96742956Y-65304898D01*
X96463422Y-65473881D01*
X96463416Y-65473886D01*
X96275030Y-65621474D01*
X96275029Y-65621476D01*
X97417262Y-66763709D01*
X97283398Y-66860967D01*
X97160967Y-66983398D01*
X97063709Y-67117262D01*
X95921476Y-65975029D01*
X95921474Y-65975030D01*
X95773886Y-66163416D01*
X95773881Y-66163422D01*
X95604898Y-66442956D01*
X95604897Y-66442958D01*
X95470839Y-66740824D01*
X95470835Y-66740835D01*
X95373667Y-67052658D01*
X95314786Y-67373961D01*
X95295065Y-67700000D01*
X74650500Y-67700000D01*
X74650500Y-67593713D01*
X74617246Y-67383757D01*
X74551557Y-67181588D01*
X74455051Y-66992184D01*
X74455049Y-66992181D01*
X74455048Y-66992179D01*
X74330109Y-66820213D01*
X74179786Y-66669890D01*
X74007820Y-66544951D01*
X73818414Y-66448444D01*
X73818413Y-66448443D01*
X73818412Y-66448443D01*
X73616243Y-66382754D01*
X73616241Y-66382753D01*
X73616240Y-66382753D01*
X73454957Y-66357208D01*
X73406287Y-66349500D01*
X73193713Y-66349500D01*
X73145042Y-66357208D01*
X72983760Y-66382753D01*
X72781585Y-66448444D01*
X72592179Y-66544951D01*
X72420213Y-66669890D01*
X72269890Y-66820213D01*
X72144951Y-66992179D01*
X72048444Y-67181585D01*
X71982753Y-67383760D01*
X71949500Y-67593713D01*
X65145481Y-67593713D01*
X65135213Y-67423961D01*
X65076332Y-67102658D01*
X64979164Y-66790835D01*
X64979160Y-66790824D01*
X64845102Y-66492958D01*
X64845101Y-66492956D01*
X64676118Y-66213423D01*
X64528522Y-66025030D01*
X63386290Y-67167262D01*
X63289033Y-67033398D01*
X63166602Y-66910967D01*
X63032736Y-66813709D01*
X64174968Y-65671476D01*
X63986576Y-65523881D01*
X63707043Y-65354898D01*
X63707041Y-65354897D01*
X63409175Y-65220839D01*
X63409164Y-65220835D01*
X63097341Y-65123667D01*
X62776038Y-65064786D01*
X62450000Y-65045065D01*
X62123961Y-65064786D01*
X61802658Y-65123667D01*
X61490835Y-65220835D01*
X61490824Y-65220839D01*
X61192958Y-65354897D01*
X61192956Y-65354898D01*
X60913422Y-65523881D01*
X60913416Y-65523886D01*
X60725030Y-65671474D01*
X60725029Y-65671476D01*
X61867262Y-66813709D01*
X61733398Y-66910967D01*
X61610967Y-67033398D01*
X61513709Y-67167262D01*
X60371476Y-66025029D01*
X60371474Y-66025030D01*
X60223886Y-66213416D01*
X60223881Y-66213422D01*
X60054898Y-66492956D01*
X60054897Y-66492958D01*
X59920839Y-66790824D01*
X59920835Y-66790835D01*
X59823667Y-67102658D01*
X59764786Y-67423961D01*
X59745065Y-67750000D01*
X58600500Y-67750000D01*
X58600500Y-67702871D01*
X58600632Y-67697144D01*
X58603546Y-67634108D01*
X58616870Y-67345914D01*
X58617927Y-67334519D01*
X58618872Y-67327747D01*
X58666106Y-66989131D01*
X58668206Y-66977896D01*
X58748052Y-66638416D01*
X58751175Y-66627437D01*
X58862011Y-66296748D01*
X58866134Y-66286108D01*
X59007003Y-65967068D01*
X59012086Y-65956859D01*
X59181789Y-65652184D01*
X59187815Y-65642452D01*
X59202184Y-65621476D01*
X59384905Y-65354736D01*
X59391787Y-65345623D01*
X59614582Y-65077321D01*
X59622277Y-65068881D01*
X59868881Y-64822277D01*
X59877321Y-64814582D01*
X60145623Y-64591787D01*
X60154736Y-64584905D01*
X60442457Y-64387811D01*
X60452184Y-64381789D01*
X60756859Y-64212086D01*
X60767068Y-64207003D01*
X61086108Y-64066134D01*
X61096748Y-64062011D01*
X61427437Y-63951175D01*
X61438416Y-63948052D01*
X61777896Y-63868206D01*
X61789131Y-63866106D01*
X62134528Y-63817926D01*
X62145914Y-63816870D01*
X62497145Y-63800632D01*
X62502872Y-63800500D01*
X62565892Y-63800500D01*
X98034108Y-63800500D01*
X98096948Y-63800500D01*
X98103032Y-63800649D01*
G37*
%TD.AperFunction*%
%TD*%
M02*
